%TF.GenerationSoftware,KiCad,Pcbnew,4.0.5+dfsg1-4*%
%TF.CreationDate,2018-11-05T18:37:42-05:00*%
%TF.ProjectId,ButtonLEDsController,427574746F6E4C454473436F6E74726F,rev?*%
%TF.FileFunction,Soldermask,Bot*%
%FSLAX46Y46*%
G04 Gerber Fmt 4.6, Leading zero omitted, Abs format (unit mm)*
G04 Created by KiCad (PCBNEW 4.0.5+dfsg1-4) date Mon Nov  5 18:37:42 2018*
%MOMM*%
%LPD*%
G01*
G04 APERTURE LIST*
%ADD10C,0.100000*%
%ADD11R,1.800000X1.800000*%
%ADD12C,1.800000*%
%ADD13O,2.540000X2.032000*%
%ADD14C,1.400000*%
%ADD15O,1.400000X1.400000*%
%ADD16C,1.524000*%
%ADD17C,1.000000*%
%ADD18R,1.000000X1.000000*%
%ADD19R,1.700000X1.700000*%
%ADD20O,1.700000X1.700000*%
%ADD21R,2.032000X1.727200*%
%ADD22O,2.032000X1.727200*%
G04 APERTURE END LIST*
D10*
D11*
X21285200Y-93319600D03*
D12*
X21285200Y-95859600D03*
D11*
X28092400Y-93243400D03*
D12*
X28092400Y-95783400D03*
D11*
X34747200Y-93243400D03*
D12*
X34747200Y-95783400D03*
D11*
X41630600Y-93243400D03*
D12*
X41630600Y-95783400D03*
D11*
X48387000Y-93268800D03*
D12*
X48387000Y-95808800D03*
D11*
X55143400Y-93268800D03*
D12*
X55143400Y-95808800D03*
D11*
X62001400Y-93218800D03*
D12*
X62001400Y-95758800D03*
D11*
X68834000Y-93243400D03*
D12*
X68834000Y-95783400D03*
D11*
X75590400Y-93243400D03*
D12*
X75590400Y-95783400D03*
D11*
X82245200Y-93243400D03*
D12*
X82245200Y-95783400D03*
D11*
X88925400Y-93243400D03*
D12*
X88925400Y-95783400D03*
D11*
X96113600Y-93243400D03*
D12*
X96113600Y-95783400D03*
D11*
X23215600Y-76809600D03*
D12*
X25755600Y-76809600D03*
D13*
X65786000Y-43307000D03*
X65786000Y-40767000D03*
X65786000Y-45847000D03*
D14*
X70053200Y-46939200D03*
D15*
X70053200Y-39319200D03*
D14*
X82575400Y-43307000D03*
D15*
X74955400Y-43307000D03*
D14*
X25755600Y-85166200D03*
D15*
X33375600Y-85166200D03*
D14*
X63627000Y-23266400D03*
D15*
X56007000Y-23266400D03*
D14*
X63423800Y-28803600D03*
D15*
X55803800Y-28803600D03*
D14*
X63398400Y-34340800D03*
D15*
X55778400Y-34340800D03*
D14*
X65239900Y-53530500D03*
D15*
X57619900Y-53530500D03*
D14*
X64960500Y-59118500D03*
D15*
X57340500Y-59118500D03*
D14*
X65011300Y-64604900D03*
D15*
X57391300Y-64604900D03*
D16*
X17094200Y-25552400D03*
X17094200Y-28092400D03*
X17094200Y-30632400D03*
X17094200Y-33172400D03*
X17094200Y-35712400D03*
X17094200Y-38252400D03*
X17094200Y-40792400D03*
X17094200Y-43332400D03*
X17094200Y-45872400D03*
X17094200Y-48412400D03*
X17094200Y-50952400D03*
X17094200Y-53492400D03*
X17094200Y-56032400D03*
X17094200Y-58572400D03*
X17094200Y-61112400D03*
X45034200Y-61112400D03*
X45034200Y-58572400D03*
X45034200Y-56032400D03*
X45034200Y-53492400D03*
X45034200Y-50952400D03*
X45034200Y-48412400D03*
X45034200Y-45872400D03*
X45034200Y-43332400D03*
X45034200Y-40792400D03*
X45034200Y-38252400D03*
X45034200Y-35712400D03*
X45034200Y-33172400D03*
X45034200Y-30632400D03*
X45034200Y-28092400D03*
X45034200Y-25552400D03*
D17*
X87045800Y-43307000D03*
X88315800Y-42037000D03*
D18*
X88315800Y-44577000D03*
D17*
X70078600Y-23241000D03*
X71348600Y-21971000D03*
D18*
X71348600Y-24511000D03*
D17*
X70129400Y-28752800D03*
X71399400Y-27482800D03*
D18*
X71399400Y-30022800D03*
D17*
X70104000Y-34340800D03*
X71374000Y-33070800D03*
D18*
X71374000Y-35610800D03*
D17*
X70053200Y-53517800D03*
X71323200Y-52247800D03*
D18*
X71323200Y-54787800D03*
D17*
X70129400Y-59080400D03*
X71399400Y-57810400D03*
D18*
X71399400Y-60350400D03*
D17*
X70053200Y-64541400D03*
X71323200Y-63271400D03*
D18*
X71323200Y-65811400D03*
D19*
X29108400Y-25527000D03*
D20*
X31648400Y-25527000D03*
X29108400Y-28067000D03*
X31648400Y-28067000D03*
X29108400Y-30607000D03*
X31648400Y-30607000D03*
X29108400Y-33147000D03*
X31648400Y-33147000D03*
X29108400Y-35687000D03*
X31648400Y-35687000D03*
X29108400Y-38227000D03*
X31648400Y-38227000D03*
X29108400Y-40767000D03*
X31648400Y-40767000D03*
X29108400Y-43307000D03*
X31648400Y-43307000D03*
X29108400Y-45847000D03*
X31648400Y-45847000D03*
X29108400Y-48387000D03*
X31648400Y-48387000D03*
X29108400Y-50927000D03*
X31648400Y-50927000D03*
X29108400Y-53467000D03*
X31648400Y-53467000D03*
X29108400Y-56007000D03*
X31648400Y-56007000D03*
X29108400Y-58547000D03*
X31648400Y-58547000D03*
X29108400Y-61087000D03*
X31648400Y-61087000D03*
D19*
X18262600Y-76835000D03*
D20*
X18262600Y-79375000D03*
X18262600Y-81915000D03*
D19*
X35661600Y-100838000D03*
X65532000Y-16814800D03*
X52628800Y-16764000D03*
X51358800Y-53441600D03*
D20*
X51358800Y-55981600D03*
D21*
X82384900Y-23622000D03*
D22*
X82384900Y-26162000D03*
X82384900Y-28702000D03*
X82384900Y-31242000D03*
D21*
X82638900Y-53213000D03*
D22*
X82638900Y-55753000D03*
X82638900Y-58293000D03*
X82638900Y-60833000D03*
M02*
