%TF.GenerationSoftware,KiCad,Pcbnew,4.0.5+dfsg1-4*%
%TF.CreationDate,2018-11-05T18:37:42-05:00*%
%TF.ProjectId,ButtonLEDsController,427574746F6E4C454473436F6E74726F,rev?*%
%TF.FileFunction,Copper,L2,Bot,Signal*%
%FSLAX46Y46*%
G04 Gerber Fmt 4.6, Leading zero omitted, Abs format (unit mm)*
G04 Created by KiCad (PCBNEW 4.0.5+dfsg1-4) date Mon Nov  5 18:37:42 2018*
%MOMM*%
%LPD*%
G01*
G04 APERTURE LIST*
%ADD10C,0.100000*%
%ADD11R,1.800000X1.800000*%
%ADD12C,1.800000*%
%ADD13O,2.540000X2.032000*%
%ADD14C,1.400000*%
%ADD15O,1.400000X1.400000*%
%ADD16C,1.524000*%
%ADD17C,1.000000*%
%ADD18R,1.000000X1.000000*%
%ADD19R,1.700000X1.700000*%
%ADD20O,1.700000X1.700000*%
%ADD21R,2.032000X1.727200*%
%ADD22O,2.032000X1.727200*%
%ADD23C,0.600000*%
%ADD24C,1.000000*%
%ADD25C,0.250000*%
%ADD26C,0.254000*%
G04 APERTURE END LIST*
D10*
D11*
X21285200Y-93319600D03*
D12*
X21285200Y-95859600D03*
D11*
X28092400Y-93243400D03*
D12*
X28092400Y-95783400D03*
D11*
X34747200Y-93243400D03*
D12*
X34747200Y-95783400D03*
D11*
X41630600Y-93243400D03*
D12*
X41630600Y-95783400D03*
D11*
X48387000Y-93268800D03*
D12*
X48387000Y-95808800D03*
D11*
X55143400Y-93268800D03*
D12*
X55143400Y-95808800D03*
D11*
X62001400Y-93218800D03*
D12*
X62001400Y-95758800D03*
D11*
X68834000Y-93243400D03*
D12*
X68834000Y-95783400D03*
D11*
X75590400Y-93243400D03*
D12*
X75590400Y-95783400D03*
D11*
X82245200Y-93243400D03*
D12*
X82245200Y-95783400D03*
D11*
X88925400Y-93243400D03*
D12*
X88925400Y-95783400D03*
D11*
X96113600Y-93243400D03*
D12*
X96113600Y-95783400D03*
D11*
X23215600Y-76809600D03*
D12*
X25755600Y-76809600D03*
D13*
X65786000Y-43307000D03*
X65786000Y-40767000D03*
X65786000Y-45847000D03*
D14*
X70053200Y-46939200D03*
D15*
X70053200Y-39319200D03*
D14*
X82575400Y-43307000D03*
D15*
X74955400Y-43307000D03*
D14*
X25755600Y-85166200D03*
D15*
X33375600Y-85166200D03*
D14*
X63627000Y-23266400D03*
D15*
X56007000Y-23266400D03*
D14*
X63423800Y-28803600D03*
D15*
X55803800Y-28803600D03*
D14*
X63398400Y-34340800D03*
D15*
X55778400Y-34340800D03*
D14*
X65239900Y-53530500D03*
D15*
X57619900Y-53530500D03*
D14*
X64960500Y-59118500D03*
D15*
X57340500Y-59118500D03*
D14*
X65011300Y-64604900D03*
D15*
X57391300Y-64604900D03*
D16*
X17094200Y-25552400D03*
X17094200Y-28092400D03*
X17094200Y-30632400D03*
X17094200Y-33172400D03*
X17094200Y-35712400D03*
X17094200Y-38252400D03*
X17094200Y-40792400D03*
X17094200Y-43332400D03*
X17094200Y-45872400D03*
X17094200Y-48412400D03*
X17094200Y-50952400D03*
X17094200Y-53492400D03*
X17094200Y-56032400D03*
X17094200Y-58572400D03*
X17094200Y-61112400D03*
X45034200Y-61112400D03*
X45034200Y-58572400D03*
X45034200Y-56032400D03*
X45034200Y-53492400D03*
X45034200Y-50952400D03*
X45034200Y-48412400D03*
X45034200Y-45872400D03*
X45034200Y-43332400D03*
X45034200Y-40792400D03*
X45034200Y-38252400D03*
X45034200Y-35712400D03*
X45034200Y-33172400D03*
X45034200Y-30632400D03*
X45034200Y-28092400D03*
X45034200Y-25552400D03*
D17*
X87045800Y-43307000D03*
X88315800Y-42037000D03*
D18*
X88315800Y-44577000D03*
D17*
X70078600Y-23241000D03*
X71348600Y-21971000D03*
D18*
X71348600Y-24511000D03*
D17*
X70129400Y-28752800D03*
X71399400Y-27482800D03*
D18*
X71399400Y-30022800D03*
D17*
X70104000Y-34340800D03*
X71374000Y-33070800D03*
D18*
X71374000Y-35610800D03*
D17*
X70053200Y-53517800D03*
X71323200Y-52247800D03*
D18*
X71323200Y-54787800D03*
D17*
X70129400Y-59080400D03*
X71399400Y-57810400D03*
D18*
X71399400Y-60350400D03*
D17*
X70053200Y-64541400D03*
X71323200Y-63271400D03*
D18*
X71323200Y-65811400D03*
D19*
X29108400Y-25527000D03*
D20*
X31648400Y-25527000D03*
X29108400Y-28067000D03*
X31648400Y-28067000D03*
X29108400Y-30607000D03*
X31648400Y-30607000D03*
X29108400Y-33147000D03*
X31648400Y-33147000D03*
X29108400Y-35687000D03*
X31648400Y-35687000D03*
X29108400Y-38227000D03*
X31648400Y-38227000D03*
X29108400Y-40767000D03*
X31648400Y-40767000D03*
X29108400Y-43307000D03*
X31648400Y-43307000D03*
X29108400Y-45847000D03*
X31648400Y-45847000D03*
X29108400Y-48387000D03*
X31648400Y-48387000D03*
X29108400Y-50927000D03*
X31648400Y-50927000D03*
X29108400Y-53467000D03*
X31648400Y-53467000D03*
X29108400Y-56007000D03*
X31648400Y-56007000D03*
X29108400Y-58547000D03*
X31648400Y-58547000D03*
X29108400Y-61087000D03*
X31648400Y-61087000D03*
D19*
X18262600Y-76835000D03*
D20*
X18262600Y-79375000D03*
X18262600Y-81915000D03*
D19*
X35661600Y-100838000D03*
X65532000Y-16814800D03*
X52628800Y-16764000D03*
X51358800Y-53441600D03*
D20*
X51358800Y-55981600D03*
D21*
X82384900Y-23622000D03*
D22*
X82384900Y-26162000D03*
X82384900Y-28702000D03*
X82384900Y-31242000D03*
D21*
X82638900Y-53213000D03*
D22*
X82638900Y-55753000D03*
X82638900Y-58293000D03*
X82638900Y-60833000D03*
D23*
X88544400Y-61264800D03*
X39090600Y-24282400D03*
D24*
X96113600Y-93243400D02*
X88925400Y-93243400D01*
X82245200Y-93243400D02*
X88925400Y-93243400D01*
X28092400Y-93243400D02*
X21361400Y-93243400D01*
D25*
X21361400Y-93243400D02*
X21285200Y-93319600D01*
D24*
X34747200Y-93243400D02*
X28092400Y-93243400D01*
X41630600Y-93243400D02*
X34747200Y-93243400D01*
X55143400Y-93268800D02*
X48387000Y-93268800D01*
D25*
X48387000Y-93268800D02*
X48361600Y-93243400D01*
D24*
X48361600Y-93243400D02*
X41630600Y-93243400D01*
X62001400Y-93218800D02*
X55193400Y-93218800D01*
D25*
X55193400Y-93218800D02*
X55143400Y-93268800D01*
D24*
X68834000Y-93243400D02*
X62026000Y-93243400D01*
D25*
X62026000Y-93243400D02*
X62001400Y-93218800D01*
D24*
X75590400Y-93243400D02*
X68834000Y-93243400D01*
X75590400Y-93243400D02*
X83007200Y-93243400D01*
D25*
X83007200Y-93243400D02*
X82245200Y-93243400D01*
D24*
X74955400Y-43307000D02*
X74955400Y-46126400D01*
X75438000Y-46609000D02*
X75438000Y-93091000D01*
D25*
X74955400Y-46126400D02*
X75438000Y-46609000D01*
X75438000Y-93091000D02*
X75590400Y-93243400D01*
D24*
X88925400Y-95783400D02*
X88925400Y-98120200D01*
X102514400Y-75234800D02*
X88544400Y-61264800D01*
X102514400Y-98653600D02*
X102514400Y-75234800D01*
D25*
X101981000Y-99187000D02*
X102514400Y-98653600D01*
D24*
X89992200Y-99187000D02*
X101981000Y-99187000D01*
X88925400Y-98120200D02*
X89992200Y-99187000D01*
X88925400Y-95783400D02*
X96113600Y-95783400D01*
X82245200Y-95783400D02*
X88925400Y-95783400D01*
X75590400Y-95783400D02*
X82245200Y-95783400D01*
X68834000Y-95783400D02*
X75590400Y-95783400D01*
X62001400Y-95758800D02*
X68809400Y-95758800D01*
D25*
X68809400Y-95758800D02*
X68834000Y-95783400D01*
D24*
X62001400Y-95758800D02*
X55193400Y-95758800D01*
D25*
X55193400Y-95758800D02*
X55143400Y-95808800D01*
D24*
X48387000Y-95808800D02*
X55143400Y-95808800D01*
X41630600Y-95783400D02*
X48361600Y-95783400D01*
D25*
X48361600Y-95783400D02*
X48387000Y-95808800D01*
D24*
X34747200Y-95783400D02*
X41630600Y-95783400D01*
X28092400Y-95783400D02*
X34747200Y-95783400D01*
X21285200Y-95859600D02*
X28016200Y-95859600D01*
D25*
X28016200Y-95859600D02*
X28092400Y-95783400D01*
D24*
X35661600Y-100838000D02*
X35661600Y-96697800D01*
D25*
X35661600Y-96697800D02*
X34747200Y-95783400D01*
D24*
X23241000Y-54965600D02*
X17094200Y-61112400D01*
X23241000Y-22910800D02*
X23241000Y-54965600D01*
X24307800Y-21844000D02*
X23241000Y-22910800D01*
X53035200Y-21844000D02*
X24307800Y-21844000D01*
X58064400Y-16814800D02*
X53035200Y-21844000D01*
X65532000Y-16814800D02*
X58064400Y-16814800D01*
X39141400Y-32359600D02*
X45034200Y-38252400D01*
X39141400Y-24333200D02*
X39141400Y-32359600D01*
D25*
X39090600Y-24282400D02*
X39141400Y-24333200D01*
D24*
X57619900Y-53530500D02*
X57619900Y-45758100D01*
X57619900Y-45758100D02*
X45034200Y-33172400D01*
X57340500Y-59118500D02*
X57340500Y-56629300D01*
X55118000Y-45796200D02*
X45034200Y-35712400D01*
X55118000Y-54406800D02*
X55118000Y-45796200D01*
X57340500Y-56629300D02*
X55118000Y-54406800D01*
D25*
X57391300Y-64604900D02*
X57391300Y-63893700D01*
D24*
X49199800Y-43332400D02*
X45034200Y-43332400D01*
X53619400Y-47752000D02*
X49199800Y-43332400D01*
X53619400Y-60121800D02*
X53619400Y-47752000D01*
X57391300Y-63893700D02*
X53619400Y-60121800D01*
D26*
G36*
X107912700Y-102997800D02*
X15315400Y-102997800D01*
X15315400Y-92419600D01*
X19737760Y-92419600D01*
X19737760Y-94219600D01*
X19782038Y-94454917D01*
X19921110Y-94671041D01*
X20133310Y-94816031D01*
X20153734Y-94820167D01*
X19984649Y-94988957D01*
X19750467Y-95552930D01*
X19749935Y-96163591D01*
X19983132Y-96727971D01*
X20414557Y-97160151D01*
X20978530Y-97394333D01*
X21589191Y-97394865D01*
X22153571Y-97161668D01*
X22320931Y-96994600D01*
X27132562Y-96994600D01*
X27221757Y-97083951D01*
X27785730Y-97318133D01*
X28396391Y-97318665D01*
X28960771Y-97085468D01*
X29128131Y-96918400D01*
X33711295Y-96918400D01*
X33876557Y-97083951D01*
X34440530Y-97318133D01*
X34526600Y-97318208D01*
X34526600Y-99416808D01*
X34360159Y-99523910D01*
X34215169Y-99736110D01*
X34164160Y-99988000D01*
X34164160Y-101688000D01*
X34208438Y-101923317D01*
X34347510Y-102139441D01*
X34559710Y-102284431D01*
X34811600Y-102335440D01*
X36511600Y-102335440D01*
X36746917Y-102291162D01*
X36963041Y-102152090D01*
X37108031Y-101939890D01*
X37159040Y-101688000D01*
X37159040Y-99988000D01*
X37114762Y-99752683D01*
X36975690Y-99536559D01*
X36796600Y-99414192D01*
X36796600Y-96918400D01*
X40594695Y-96918400D01*
X40759957Y-97083951D01*
X41323930Y-97318133D01*
X41934591Y-97318665D01*
X42498971Y-97085468D01*
X42666331Y-96918400D01*
X47325740Y-96918400D01*
X47516357Y-97109351D01*
X48080330Y-97343533D01*
X48690991Y-97344065D01*
X49255371Y-97110868D01*
X49422731Y-96943800D01*
X54107495Y-96943800D01*
X54272757Y-97109351D01*
X54836730Y-97343533D01*
X55447391Y-97344065D01*
X56011771Y-97110868D01*
X56229219Y-96893800D01*
X60965495Y-96893800D01*
X61130757Y-97059351D01*
X61694730Y-97293533D01*
X62305391Y-97294065D01*
X62869771Y-97060868D01*
X63037131Y-96893800D01*
X67773538Y-96893800D01*
X67963357Y-97083951D01*
X68527330Y-97318133D01*
X69137991Y-97318665D01*
X69702371Y-97085468D01*
X69869731Y-96918400D01*
X74554495Y-96918400D01*
X74719757Y-97083951D01*
X75283730Y-97318133D01*
X75894391Y-97318665D01*
X76458771Y-97085468D01*
X76626131Y-96918400D01*
X81209295Y-96918400D01*
X81374557Y-97083951D01*
X81938530Y-97318133D01*
X82549191Y-97318665D01*
X83113571Y-97085468D01*
X83280931Y-96918400D01*
X87790400Y-96918400D01*
X87790400Y-98120200D01*
X87876797Y-98554546D01*
X88105057Y-98896161D01*
X88122834Y-98922766D01*
X89189634Y-99989566D01*
X89557854Y-100235603D01*
X89992200Y-100322000D01*
X101981000Y-100322000D01*
X102415346Y-100235603D01*
X102783566Y-99989566D01*
X102997216Y-99669816D01*
X103316966Y-99456166D01*
X103563003Y-99087946D01*
X103649400Y-98653600D01*
X103649400Y-75234800D01*
X103563003Y-74800454D01*
X103316966Y-74432233D01*
X89346966Y-60462234D01*
X88978745Y-60216197D01*
X88544400Y-60129800D01*
X88110055Y-60216197D01*
X87741834Y-60462234D01*
X87495797Y-60830455D01*
X87409400Y-61264800D01*
X87495797Y-61699145D01*
X87741834Y-62067366D01*
X101379400Y-75704933D01*
X101379400Y-98052000D01*
X90462332Y-98052000D01*
X90060400Y-97650068D01*
X90060400Y-96918400D01*
X95077695Y-96918400D01*
X95242957Y-97083951D01*
X95806930Y-97318133D01*
X96417591Y-97318665D01*
X96981971Y-97085468D01*
X97414151Y-96654043D01*
X97648333Y-96090070D01*
X97648865Y-95479409D01*
X97415668Y-94915029D01*
X97247720Y-94746787D01*
X97248917Y-94746562D01*
X97465041Y-94607490D01*
X97610031Y-94395290D01*
X97661040Y-94143400D01*
X97661040Y-92343400D01*
X97616762Y-92108083D01*
X97477690Y-91891959D01*
X97265490Y-91746969D01*
X97013600Y-91695960D01*
X95213600Y-91695960D01*
X94978283Y-91740238D01*
X94762159Y-91879310D01*
X94617169Y-92091510D01*
X94613749Y-92108400D01*
X90428622Y-92108400D01*
X90428562Y-92108083D01*
X90289490Y-91891959D01*
X90077290Y-91746969D01*
X89825400Y-91695960D01*
X88025400Y-91695960D01*
X87790083Y-91740238D01*
X87573959Y-91879310D01*
X87428969Y-92091510D01*
X87425549Y-92108400D01*
X83748422Y-92108400D01*
X83748362Y-92108083D01*
X83609290Y-91891959D01*
X83397090Y-91746969D01*
X83145200Y-91695960D01*
X81345200Y-91695960D01*
X81109883Y-91740238D01*
X80893759Y-91879310D01*
X80748769Y-92091510D01*
X80745349Y-92108400D01*
X77093622Y-92108400D01*
X77093562Y-92108083D01*
X76954490Y-91891959D01*
X76742290Y-91746969D01*
X76573000Y-91712687D01*
X76573000Y-55753000D01*
X80955555Y-55753000D01*
X81069629Y-56326489D01*
X81394485Y-56812670D01*
X81709266Y-57023000D01*
X81394485Y-57233330D01*
X81069629Y-57719511D01*
X80955555Y-58293000D01*
X81069629Y-58866489D01*
X81394485Y-59352670D01*
X81709266Y-59563000D01*
X81394485Y-59773330D01*
X81069629Y-60259511D01*
X80955555Y-60833000D01*
X81069629Y-61406489D01*
X81394485Y-61892670D01*
X81880666Y-62217526D01*
X82454155Y-62331600D01*
X82823645Y-62331600D01*
X83397134Y-62217526D01*
X83883315Y-61892670D01*
X84208171Y-61406489D01*
X84322245Y-60833000D01*
X84208171Y-60259511D01*
X83883315Y-59773330D01*
X83568534Y-59563000D01*
X83883315Y-59352670D01*
X84208171Y-58866489D01*
X84322245Y-58293000D01*
X84208171Y-57719511D01*
X83883315Y-57233330D01*
X83568534Y-57023000D01*
X83883315Y-56812670D01*
X84208171Y-56326489D01*
X84322245Y-55753000D01*
X84208171Y-55179511D01*
X83883315Y-54693330D01*
X83868987Y-54683757D01*
X83890217Y-54679762D01*
X84106341Y-54540690D01*
X84251331Y-54328490D01*
X84302340Y-54076600D01*
X84302340Y-52349400D01*
X84258062Y-52114083D01*
X84118990Y-51897959D01*
X83906790Y-51752969D01*
X83654900Y-51701960D01*
X81622900Y-51701960D01*
X81387583Y-51746238D01*
X81171459Y-51885310D01*
X81026469Y-52097510D01*
X80975460Y-52349400D01*
X80975460Y-54076600D01*
X81019738Y-54311917D01*
X81158810Y-54528041D01*
X81371010Y-54673031D01*
X81412339Y-54681400D01*
X81394485Y-54693330D01*
X81069629Y-55179511D01*
X80955555Y-55753000D01*
X76573000Y-55753000D01*
X76573000Y-46609000D01*
X76486603Y-46174654D01*
X76240566Y-45806434D01*
X76090400Y-45706096D01*
X76090400Y-44004260D01*
X76214933Y-43817882D01*
X76263964Y-43571383D01*
X81240169Y-43571383D01*
X81442982Y-44062229D01*
X81818196Y-44438098D01*
X82308687Y-44641768D01*
X82839783Y-44642231D01*
X83330629Y-44439418D01*
X83706498Y-44064204D01*
X83910168Y-43573713D01*
X83910204Y-43531775D01*
X85910603Y-43531775D01*
X86083033Y-43949086D01*
X86402035Y-44268645D01*
X86819044Y-44441803D01*
X87168360Y-44442108D01*
X87168360Y-45077000D01*
X87212638Y-45312317D01*
X87351710Y-45528441D01*
X87563910Y-45673431D01*
X87815800Y-45724440D01*
X88815800Y-45724440D01*
X89051117Y-45680162D01*
X89267241Y-45541090D01*
X89412231Y-45328890D01*
X89463240Y-45077000D01*
X89463240Y-44077000D01*
X89418962Y-43841683D01*
X89279890Y-43625559D01*
X89067690Y-43480569D01*
X88815800Y-43429560D01*
X88180694Y-43429560D01*
X88180919Y-43171883D01*
X88540575Y-43172197D01*
X88957886Y-42999767D01*
X89277445Y-42680765D01*
X89450603Y-42263756D01*
X89450997Y-41812225D01*
X89278567Y-41394914D01*
X88959565Y-41075355D01*
X88542556Y-40902197D01*
X88091025Y-40901803D01*
X87673714Y-41074233D01*
X87354155Y-41393235D01*
X87180997Y-41810244D01*
X87180681Y-42172117D01*
X86821025Y-42171803D01*
X86403714Y-42344233D01*
X86084155Y-42663235D01*
X85910997Y-43080244D01*
X85910603Y-43531775D01*
X83910204Y-43531775D01*
X83910631Y-43042617D01*
X83707818Y-42551771D01*
X83332604Y-42175902D01*
X82842113Y-41972232D01*
X82311017Y-41971769D01*
X81820171Y-42174582D01*
X81444302Y-42549796D01*
X81240632Y-43040287D01*
X81240169Y-43571383D01*
X76263964Y-43571383D01*
X76316554Y-43307000D01*
X76214933Y-42796118D01*
X75925542Y-42363012D01*
X75492436Y-42073621D01*
X74981554Y-41972000D01*
X74929246Y-41972000D01*
X74418364Y-42073621D01*
X73985258Y-42363012D01*
X73695867Y-42796118D01*
X73594246Y-43307000D01*
X73695867Y-43817882D01*
X73820400Y-44004260D01*
X73820400Y-46126400D01*
X73906797Y-46560746D01*
X74152834Y-46928966D01*
X74303000Y-47029304D01*
X74303000Y-91838101D01*
X74238959Y-91879310D01*
X74093969Y-92091510D01*
X74090549Y-92108400D01*
X70337222Y-92108400D01*
X70337162Y-92108083D01*
X70198090Y-91891959D01*
X69985890Y-91746969D01*
X69734000Y-91695960D01*
X67934000Y-91695960D01*
X67698683Y-91740238D01*
X67482559Y-91879310D01*
X67337569Y-92091510D01*
X67334149Y-92108400D01*
X63509250Y-92108400D01*
X63504562Y-92083483D01*
X63365490Y-91867359D01*
X63153290Y-91722369D01*
X62901400Y-91671360D01*
X61101400Y-91671360D01*
X60866083Y-91715638D01*
X60649959Y-91854710D01*
X60504969Y-92066910D01*
X60501549Y-92083800D01*
X56614592Y-92083800D01*
X56507490Y-91917359D01*
X56295290Y-91772369D01*
X56043400Y-91721360D01*
X54243400Y-91721360D01*
X54008083Y-91765638D01*
X53791959Y-91904710D01*
X53646969Y-92116910D01*
X53643549Y-92133800D01*
X49890222Y-92133800D01*
X49890162Y-92133483D01*
X49751090Y-91917359D01*
X49538890Y-91772369D01*
X49287000Y-91721360D01*
X47487000Y-91721360D01*
X47251683Y-91765638D01*
X47035559Y-91904710D01*
X46896384Y-92108400D01*
X43133822Y-92108400D01*
X43133762Y-92108083D01*
X42994690Y-91891959D01*
X42782490Y-91746969D01*
X42530600Y-91695960D01*
X40730600Y-91695960D01*
X40495283Y-91740238D01*
X40279159Y-91879310D01*
X40134169Y-92091510D01*
X40130749Y-92108400D01*
X36250422Y-92108400D01*
X36250362Y-92108083D01*
X36111290Y-91891959D01*
X35899090Y-91746969D01*
X35647200Y-91695960D01*
X33847200Y-91695960D01*
X33611883Y-91740238D01*
X33395759Y-91879310D01*
X33250769Y-92091510D01*
X33247349Y-92108400D01*
X29595622Y-92108400D01*
X29595562Y-92108083D01*
X29456490Y-91891959D01*
X29244290Y-91746969D01*
X28992400Y-91695960D01*
X27192400Y-91695960D01*
X26957083Y-91740238D01*
X26740959Y-91879310D01*
X26595969Y-92091510D01*
X26592549Y-92108400D01*
X22739533Y-92108400D01*
X22649290Y-91968159D01*
X22437090Y-91823169D01*
X22185200Y-91772160D01*
X20385200Y-91772160D01*
X20149883Y-91816438D01*
X19933759Y-91955510D01*
X19788769Y-92167710D01*
X19737760Y-92419600D01*
X15315400Y-92419600D01*
X15315400Y-85430583D01*
X24420369Y-85430583D01*
X24623182Y-85921429D01*
X24998396Y-86297298D01*
X25488887Y-86500968D01*
X26019983Y-86501431D01*
X26510829Y-86298618D01*
X26886698Y-85923404D01*
X27090368Y-85432913D01*
X27090600Y-85166200D01*
X32014446Y-85166200D01*
X32116067Y-85677082D01*
X32405458Y-86110188D01*
X32838564Y-86399579D01*
X33349446Y-86501200D01*
X33401754Y-86501200D01*
X33912636Y-86399579D01*
X34345742Y-86110188D01*
X34635133Y-85677082D01*
X34736754Y-85166200D01*
X34635133Y-84655318D01*
X34345742Y-84222212D01*
X33912636Y-83932821D01*
X33401754Y-83831200D01*
X33349446Y-83831200D01*
X32838564Y-83932821D01*
X32405458Y-84222212D01*
X32116067Y-84655318D01*
X32014446Y-85166200D01*
X27090600Y-85166200D01*
X27090831Y-84901817D01*
X26888018Y-84410971D01*
X26512804Y-84035102D01*
X26022313Y-83831432D01*
X25491217Y-83830969D01*
X25000371Y-84033782D01*
X24624502Y-84408996D01*
X24420832Y-84899487D01*
X24420369Y-85430583D01*
X15315400Y-85430583D01*
X15315400Y-82271890D01*
X16821124Y-82271890D01*
X16990955Y-82681924D01*
X17381242Y-83110183D01*
X17905708Y-83356486D01*
X18135600Y-83235819D01*
X18135600Y-82042000D01*
X18389600Y-82042000D01*
X18389600Y-83235819D01*
X18619492Y-83356486D01*
X19143958Y-83110183D01*
X19534245Y-82681924D01*
X19704076Y-82271890D01*
X19582755Y-82042000D01*
X18389600Y-82042000D01*
X18135600Y-82042000D01*
X16942445Y-82042000D01*
X16821124Y-82271890D01*
X15315400Y-82271890D01*
X15315400Y-79731890D01*
X16821124Y-79731890D01*
X16990955Y-80141924D01*
X17381242Y-80570183D01*
X17540554Y-80645000D01*
X17381242Y-80719817D01*
X16990955Y-81148076D01*
X16821124Y-81558110D01*
X16942445Y-81788000D01*
X18135600Y-81788000D01*
X18135600Y-79502000D01*
X18389600Y-79502000D01*
X18389600Y-81788000D01*
X19582755Y-81788000D01*
X19704076Y-81558110D01*
X19534245Y-81148076D01*
X19143958Y-80719817D01*
X18984646Y-80645000D01*
X19143958Y-80570183D01*
X19534245Y-80141924D01*
X19704076Y-79731890D01*
X19582755Y-79502000D01*
X18389600Y-79502000D01*
X18135600Y-79502000D01*
X16942445Y-79502000D01*
X16821124Y-79731890D01*
X15315400Y-79731890D01*
X15315400Y-77120750D01*
X16777600Y-77120750D01*
X16777600Y-77811310D01*
X16874273Y-78044699D01*
X17052902Y-78223327D01*
X17262478Y-78310136D01*
X16990955Y-78608076D01*
X16821124Y-79018110D01*
X16942445Y-79248000D01*
X18135600Y-79248000D01*
X18135600Y-76962000D01*
X18389600Y-76962000D01*
X18389600Y-79248000D01*
X19582755Y-79248000D01*
X19704076Y-79018110D01*
X19534245Y-78608076D01*
X19262722Y-78310136D01*
X19472298Y-78223327D01*
X19650927Y-78044699D01*
X19747600Y-77811310D01*
X19747600Y-77120750D01*
X19722200Y-77095350D01*
X21680600Y-77095350D01*
X21680600Y-77835910D01*
X21777273Y-78069299D01*
X21955902Y-78247927D01*
X22189291Y-78344600D01*
X22929850Y-78344600D01*
X23088600Y-78185850D01*
X23088600Y-76936600D01*
X21839350Y-76936600D01*
X21680600Y-77095350D01*
X19722200Y-77095350D01*
X19588850Y-76962000D01*
X18389600Y-76962000D01*
X18135600Y-76962000D01*
X16936350Y-76962000D01*
X16777600Y-77120750D01*
X15315400Y-77120750D01*
X15315400Y-75858690D01*
X16777600Y-75858690D01*
X16777600Y-76549250D01*
X16936350Y-76708000D01*
X18135600Y-76708000D01*
X18135600Y-75508750D01*
X18389600Y-75508750D01*
X18389600Y-76708000D01*
X19588850Y-76708000D01*
X19747600Y-76549250D01*
X19747600Y-75858690D01*
X19716369Y-75783290D01*
X21680600Y-75783290D01*
X21680600Y-76523850D01*
X21839350Y-76682600D01*
X23088600Y-76682600D01*
X23088600Y-75433350D01*
X23342600Y-75433350D01*
X23342600Y-76682600D01*
X23362600Y-76682600D01*
X23362600Y-76936600D01*
X23342600Y-76936600D01*
X23342600Y-78185850D01*
X23501350Y-78344600D01*
X24241909Y-78344600D01*
X24475298Y-78247927D01*
X24653927Y-78069299D01*
X24709719Y-77934606D01*
X24884957Y-78110151D01*
X25448930Y-78344333D01*
X26059591Y-78344865D01*
X26623971Y-78111668D01*
X27056151Y-77680243D01*
X27290333Y-77116270D01*
X27290865Y-76505609D01*
X27057668Y-75941229D01*
X26626243Y-75509049D01*
X26062270Y-75274867D01*
X25451609Y-75274335D01*
X24887229Y-75507532D01*
X24709759Y-75684692D01*
X24653927Y-75549901D01*
X24475298Y-75371273D01*
X24241909Y-75274600D01*
X23501350Y-75274600D01*
X23342600Y-75433350D01*
X23088600Y-75433350D01*
X22929850Y-75274600D01*
X22189291Y-75274600D01*
X21955902Y-75371273D01*
X21777273Y-75549901D01*
X21680600Y-75783290D01*
X19716369Y-75783290D01*
X19650927Y-75625301D01*
X19472298Y-75446673D01*
X19238909Y-75350000D01*
X18548350Y-75350000D01*
X18389600Y-75508750D01*
X18135600Y-75508750D01*
X17976850Y-75350000D01*
X17286291Y-75350000D01*
X17052902Y-75446673D01*
X16874273Y-75625301D01*
X16777600Y-75858690D01*
X15315400Y-75858690D01*
X15315400Y-66097150D01*
X70188200Y-66097150D01*
X70188200Y-66437710D01*
X70284873Y-66671099D01*
X70463502Y-66849727D01*
X70696891Y-66946400D01*
X71037450Y-66946400D01*
X71196200Y-66787650D01*
X71196200Y-65938400D01*
X71450200Y-65938400D01*
X71450200Y-66787650D01*
X71608950Y-66946400D01*
X71949509Y-66946400D01*
X72182898Y-66849727D01*
X72361527Y-66671099D01*
X72458200Y-66437710D01*
X72458200Y-66097150D01*
X72299450Y-65938400D01*
X71450200Y-65938400D01*
X71196200Y-65938400D01*
X70346950Y-65938400D01*
X70188200Y-66097150D01*
X15315400Y-66097150D01*
X15315400Y-61389061D01*
X15696958Y-61389061D01*
X15909190Y-61902703D01*
X16301830Y-62296029D01*
X16815100Y-62509157D01*
X17370861Y-62509642D01*
X17884503Y-62297410D01*
X18277829Y-61904770D01*
X18490957Y-61391500D01*
X18491019Y-61320713D01*
X18724732Y-61087000D01*
X27594307Y-61087000D01*
X27707346Y-61655285D01*
X28029253Y-62137054D01*
X28511022Y-62458961D01*
X29079307Y-62572000D01*
X29137493Y-62572000D01*
X29705778Y-62458961D01*
X30187547Y-62137054D01*
X30378400Y-61851422D01*
X30569253Y-62137054D01*
X31051022Y-62458961D01*
X31619307Y-62572000D01*
X31677493Y-62572000D01*
X32245778Y-62458961D01*
X32727547Y-62137054D01*
X33049454Y-61655285D01*
X33102409Y-61389061D01*
X43636958Y-61389061D01*
X43849190Y-61902703D01*
X44241830Y-62296029D01*
X44755100Y-62509157D01*
X45310861Y-62509642D01*
X45824503Y-62297410D01*
X46217829Y-61904770D01*
X46430957Y-61391500D01*
X46431442Y-60835739D01*
X46219210Y-60322097D01*
X45826570Y-59928771D01*
X45634473Y-59849005D01*
X45765343Y-59794797D01*
X45834808Y-59552613D01*
X45034200Y-58752005D01*
X44233592Y-59552613D01*
X44303057Y-59794797D01*
X44443518Y-59844909D01*
X44243897Y-59927390D01*
X43850571Y-60320030D01*
X43637443Y-60833300D01*
X43636958Y-61389061D01*
X33102409Y-61389061D01*
X33162493Y-61087000D01*
X33049454Y-60518715D01*
X32727547Y-60036946D01*
X32386847Y-59809298D01*
X32529758Y-59742183D01*
X32920045Y-59313924D01*
X33089876Y-58903890D01*
X32968555Y-58674000D01*
X31775400Y-58674000D01*
X31775400Y-58694000D01*
X31521400Y-58694000D01*
X31521400Y-58674000D01*
X29235400Y-58674000D01*
X29235400Y-58694000D01*
X28981400Y-58694000D01*
X28981400Y-58674000D01*
X27788245Y-58674000D01*
X27666924Y-58903890D01*
X27836755Y-59313924D01*
X28227042Y-59742183D01*
X28369953Y-59809298D01*
X28029253Y-60036946D01*
X27707346Y-60518715D01*
X27594307Y-61087000D01*
X18724732Y-61087000D01*
X24043566Y-55768166D01*
X24194819Y-55541800D01*
X24289603Y-55399946D01*
X24376000Y-54965600D01*
X24376000Y-28067000D01*
X27594307Y-28067000D01*
X27707346Y-28635285D01*
X28029253Y-29117054D01*
X28358426Y-29337000D01*
X28029253Y-29556946D01*
X27707346Y-30038715D01*
X27594307Y-30607000D01*
X27707346Y-31175285D01*
X28029253Y-31657054D01*
X28358426Y-31877000D01*
X28029253Y-32096946D01*
X27707346Y-32578715D01*
X27594307Y-33147000D01*
X27707346Y-33715285D01*
X28029253Y-34197054D01*
X28358426Y-34417000D01*
X28029253Y-34636946D01*
X27707346Y-35118715D01*
X27594307Y-35687000D01*
X27707346Y-36255285D01*
X28029253Y-36737054D01*
X28358426Y-36957000D01*
X28029253Y-37176946D01*
X27707346Y-37658715D01*
X27594307Y-38227000D01*
X27707346Y-38795285D01*
X28029253Y-39277054D01*
X28358426Y-39497000D01*
X28029253Y-39716946D01*
X27707346Y-40198715D01*
X27594307Y-40767000D01*
X27707346Y-41335285D01*
X28029253Y-41817054D01*
X28358426Y-42037000D01*
X28029253Y-42256946D01*
X27707346Y-42738715D01*
X27594307Y-43307000D01*
X27707346Y-43875285D01*
X28029253Y-44357054D01*
X28358426Y-44577000D01*
X28029253Y-44796946D01*
X27707346Y-45278715D01*
X27594307Y-45847000D01*
X27707346Y-46415285D01*
X28029253Y-46897054D01*
X28369953Y-47124702D01*
X28227042Y-47191817D01*
X27836755Y-47620076D01*
X27666924Y-48030110D01*
X27788245Y-48260000D01*
X28981400Y-48260000D01*
X28981400Y-48240000D01*
X29235400Y-48240000D01*
X29235400Y-48260000D01*
X29255400Y-48260000D01*
X29255400Y-48514000D01*
X29235400Y-48514000D01*
X29235400Y-48534000D01*
X28981400Y-48534000D01*
X28981400Y-48514000D01*
X27788245Y-48514000D01*
X27666924Y-48743890D01*
X27836755Y-49153924D01*
X28227042Y-49582183D01*
X28369953Y-49649298D01*
X28029253Y-49876946D01*
X27707346Y-50358715D01*
X27594307Y-50927000D01*
X27707346Y-51495285D01*
X28029253Y-51977054D01*
X28358426Y-52197000D01*
X28029253Y-52416946D01*
X27707346Y-52898715D01*
X27594307Y-53467000D01*
X27707346Y-54035285D01*
X28029253Y-54517054D01*
X28358426Y-54737000D01*
X28029253Y-54956946D01*
X27707346Y-55438715D01*
X27594307Y-56007000D01*
X27707346Y-56575285D01*
X28029253Y-57057054D01*
X28369953Y-57284702D01*
X28227042Y-57351817D01*
X27836755Y-57780076D01*
X27666924Y-58190110D01*
X27788245Y-58420000D01*
X28981400Y-58420000D01*
X28981400Y-58400000D01*
X29235400Y-58400000D01*
X29235400Y-58420000D01*
X31521400Y-58420000D01*
X31521400Y-58400000D01*
X31775400Y-58400000D01*
X31775400Y-58420000D01*
X32968555Y-58420000D01*
X32997737Y-58364702D01*
X43625056Y-58364702D01*
X43652838Y-58919768D01*
X43811803Y-59303543D01*
X44053987Y-59373008D01*
X44854595Y-58572400D01*
X45213805Y-58572400D01*
X46014413Y-59373008D01*
X46256597Y-59303543D01*
X46443344Y-58780098D01*
X46415562Y-58225032D01*
X46256597Y-57841257D01*
X46014413Y-57771792D01*
X45213805Y-58572400D01*
X44854595Y-58572400D01*
X44053987Y-57771792D01*
X43811803Y-57841257D01*
X43625056Y-58364702D01*
X32997737Y-58364702D01*
X33089876Y-58190110D01*
X32920045Y-57780076D01*
X32529758Y-57351817D01*
X32386847Y-57284702D01*
X32727547Y-57057054D01*
X33049454Y-56575285D01*
X33162493Y-56007000D01*
X33049454Y-55438715D01*
X32727547Y-54956946D01*
X32398374Y-54737000D01*
X32727547Y-54517054D01*
X33049454Y-54035285D01*
X33162493Y-53467000D01*
X33049454Y-52898715D01*
X32727547Y-52416946D01*
X32398374Y-52197000D01*
X32727547Y-51977054D01*
X33049454Y-51495285D01*
X33162493Y-50927000D01*
X33049454Y-50358715D01*
X32727547Y-49876946D01*
X32398374Y-49657000D01*
X32727547Y-49437054D01*
X33049454Y-48955285D01*
X33162493Y-48387000D01*
X33049454Y-47818715D01*
X32727547Y-47336946D01*
X32398374Y-47117000D01*
X32727547Y-46897054D01*
X33049454Y-46415285D01*
X33162493Y-45847000D01*
X33049454Y-45278715D01*
X32727547Y-44796946D01*
X32398374Y-44577000D01*
X32727547Y-44357054D01*
X33049454Y-43875285D01*
X33162493Y-43307000D01*
X33049454Y-42738715D01*
X32727547Y-42256946D01*
X32386847Y-42029298D01*
X32529758Y-41962183D01*
X32920045Y-41533924D01*
X33089876Y-41123890D01*
X32968555Y-40894000D01*
X31775400Y-40894000D01*
X31775400Y-40914000D01*
X31521400Y-40914000D01*
X31521400Y-40894000D01*
X31501400Y-40894000D01*
X31501400Y-40640000D01*
X31521400Y-40640000D01*
X31521400Y-40620000D01*
X31775400Y-40620000D01*
X31775400Y-40640000D01*
X32968555Y-40640000D01*
X32997737Y-40584702D01*
X43625056Y-40584702D01*
X43652838Y-41139768D01*
X43811803Y-41523543D01*
X44053987Y-41593008D01*
X44854595Y-40792400D01*
X45213805Y-40792400D01*
X46014413Y-41593008D01*
X46256597Y-41523543D01*
X46443344Y-41000098D01*
X46415562Y-40445032D01*
X46256597Y-40061257D01*
X46014413Y-39991792D01*
X45213805Y-40792400D01*
X44854595Y-40792400D01*
X44053987Y-39991792D01*
X43811803Y-40061257D01*
X43625056Y-40584702D01*
X32997737Y-40584702D01*
X33089876Y-40410110D01*
X32920045Y-40000076D01*
X32529758Y-39571817D01*
X32386847Y-39504702D01*
X32727547Y-39277054D01*
X33049454Y-38795285D01*
X33162493Y-38227000D01*
X33049454Y-37658715D01*
X32727547Y-37176946D01*
X32398374Y-36957000D01*
X32727547Y-36737054D01*
X33049454Y-36255285D01*
X33162493Y-35687000D01*
X33049454Y-35118715D01*
X32727547Y-34636946D01*
X32398374Y-34417000D01*
X32727547Y-34197054D01*
X33049454Y-33715285D01*
X33162493Y-33147000D01*
X33049454Y-32578715D01*
X32727547Y-32096946D01*
X32398374Y-31877000D01*
X32727547Y-31657054D01*
X33049454Y-31175285D01*
X33162493Y-30607000D01*
X33049454Y-30038715D01*
X32727547Y-29556946D01*
X32398374Y-29337000D01*
X32727547Y-29117054D01*
X33049454Y-28635285D01*
X33162493Y-28067000D01*
X33049454Y-27498715D01*
X32727547Y-27016946D01*
X32398374Y-26797000D01*
X32727547Y-26577054D01*
X33049454Y-26095285D01*
X33162493Y-25527000D01*
X33049454Y-24958715D01*
X32727547Y-24476946D01*
X32512416Y-24333200D01*
X38006400Y-24333200D01*
X38006400Y-32359600D01*
X38092797Y-32793946D01*
X38302255Y-33107421D01*
X38338834Y-33162166D01*
X43637018Y-38460350D01*
X43636958Y-38529061D01*
X43849190Y-39042703D01*
X44241830Y-39436029D01*
X44433927Y-39515795D01*
X44303057Y-39570003D01*
X44233592Y-39812187D01*
X45034200Y-40612795D01*
X45834808Y-39812187D01*
X45765343Y-39570003D01*
X45624882Y-39519891D01*
X45824503Y-39437410D01*
X46217829Y-39044770D01*
X46377326Y-38660658D01*
X53983000Y-46266332D01*
X53983000Y-46510468D01*
X50002366Y-42529834D01*
X49964352Y-42504434D01*
X49634146Y-42283797D01*
X49199800Y-42197400D01*
X45875114Y-42197400D01*
X45826570Y-42148771D01*
X45634473Y-42069005D01*
X45765343Y-42014797D01*
X45834808Y-41772613D01*
X45034200Y-40972005D01*
X44233592Y-41772613D01*
X44303057Y-42014797D01*
X44443518Y-42064909D01*
X44243897Y-42147390D01*
X43850571Y-42540030D01*
X43637443Y-43053300D01*
X43636958Y-43609061D01*
X43849190Y-44122703D01*
X44241830Y-44516029D01*
X44449712Y-44602349D01*
X44243897Y-44687390D01*
X43850571Y-45080030D01*
X43637443Y-45593300D01*
X43636958Y-46149061D01*
X43849190Y-46662703D01*
X44241830Y-47056029D01*
X44449712Y-47142349D01*
X44243897Y-47227390D01*
X43850571Y-47620030D01*
X43637443Y-48133300D01*
X43636958Y-48689061D01*
X43849190Y-49202703D01*
X44241830Y-49596029D01*
X44449712Y-49682349D01*
X44243897Y-49767390D01*
X43850571Y-50160030D01*
X43637443Y-50673300D01*
X43636958Y-51229061D01*
X43849190Y-51742703D01*
X44241830Y-52136029D01*
X44449712Y-52222349D01*
X44243897Y-52307390D01*
X43850571Y-52700030D01*
X43637443Y-53213300D01*
X43636958Y-53769061D01*
X43849190Y-54282703D01*
X44241830Y-54676029D01*
X44449712Y-54762349D01*
X44243897Y-54847390D01*
X43850571Y-55240030D01*
X43637443Y-55753300D01*
X43636958Y-56309061D01*
X43849190Y-56822703D01*
X44241830Y-57216029D01*
X44433927Y-57295795D01*
X44303057Y-57350003D01*
X44233592Y-57592187D01*
X45034200Y-58392795D01*
X45834808Y-57592187D01*
X45765343Y-57350003D01*
X45624882Y-57299891D01*
X45824503Y-57217410D01*
X46217829Y-56824770D01*
X46430957Y-56311500D01*
X46431442Y-55755739D01*
X46219210Y-55242097D01*
X45826570Y-54848771D01*
X45618688Y-54762451D01*
X45824503Y-54677410D01*
X46217829Y-54284770D01*
X46430957Y-53771500D01*
X46431442Y-53215739D01*
X46219210Y-52702097D01*
X45826570Y-52308771D01*
X45618688Y-52222451D01*
X45824503Y-52137410D01*
X46217829Y-51744770D01*
X46430957Y-51231500D01*
X46431442Y-50675739D01*
X46219210Y-50162097D01*
X45826570Y-49768771D01*
X45618688Y-49682451D01*
X45824503Y-49597410D01*
X46217829Y-49204770D01*
X46430957Y-48691500D01*
X46431442Y-48135739D01*
X46219210Y-47622097D01*
X45826570Y-47228771D01*
X45618688Y-47142451D01*
X45824503Y-47057410D01*
X46217829Y-46664770D01*
X46430957Y-46151500D01*
X46431442Y-45595739D01*
X46219210Y-45082097D01*
X45826570Y-44688771D01*
X45618688Y-44602451D01*
X45824503Y-44517410D01*
X45874600Y-44467400D01*
X48729668Y-44467400D01*
X52484400Y-48222132D01*
X52484400Y-52011369D01*
X52460690Y-51995169D01*
X52208800Y-51944160D01*
X50508800Y-51944160D01*
X50273483Y-51988438D01*
X50057359Y-52127510D01*
X49912369Y-52339710D01*
X49861360Y-52591600D01*
X49861360Y-54291600D01*
X49905638Y-54526917D01*
X50044710Y-54743041D01*
X50256910Y-54888031D01*
X50324341Y-54901686D01*
X50279653Y-54931546D01*
X49957746Y-55413315D01*
X49844707Y-55981600D01*
X49957746Y-56549885D01*
X50279653Y-57031654D01*
X50761422Y-57353561D01*
X51329707Y-57466600D01*
X51387893Y-57466600D01*
X51956178Y-57353561D01*
X52437947Y-57031654D01*
X52484400Y-56962132D01*
X52484400Y-60121800D01*
X52570797Y-60556146D01*
X52754085Y-60830455D01*
X52816834Y-60924366D01*
X56107663Y-64215195D01*
X56030146Y-64604900D01*
X56131767Y-65115782D01*
X56421158Y-65548888D01*
X56854264Y-65838279D01*
X57365146Y-65939900D01*
X57417454Y-65939900D01*
X57928336Y-65838279D01*
X58361442Y-65548888D01*
X58650833Y-65115782D01*
X58699864Y-64869283D01*
X63676069Y-64869283D01*
X63878882Y-65360129D01*
X64254096Y-65735998D01*
X64744587Y-65939668D01*
X65275683Y-65940131D01*
X65766529Y-65737318D01*
X66142398Y-65362104D01*
X66346068Y-64871613D01*
X66346159Y-64766175D01*
X68918003Y-64766175D01*
X69090433Y-65183486D01*
X69409435Y-65503045D01*
X69826444Y-65676203D01*
X70277975Y-65676597D01*
X70321261Y-65658711D01*
X70346950Y-65684400D01*
X71196200Y-65684400D01*
X71196200Y-64835150D01*
X71450200Y-64835150D01*
X71450200Y-65684400D01*
X72299450Y-65684400D01*
X72458200Y-65525650D01*
X72458200Y-65185090D01*
X72361527Y-64951701D01*
X72182898Y-64773073D01*
X71949509Y-64676400D01*
X71608950Y-64676400D01*
X71450200Y-64835150D01*
X71196200Y-64835150D01*
X71170752Y-64809702D01*
X71188003Y-64768156D01*
X71188319Y-64406283D01*
X71547975Y-64406597D01*
X71965286Y-64234167D01*
X72284845Y-63915165D01*
X72458003Y-63498156D01*
X72458397Y-63046625D01*
X72285967Y-62629314D01*
X71966965Y-62309755D01*
X71549956Y-62136597D01*
X71098425Y-62136203D01*
X70681114Y-62308633D01*
X70361555Y-62627635D01*
X70188397Y-63044644D01*
X70188081Y-63406517D01*
X69828425Y-63406203D01*
X69411114Y-63578633D01*
X69091555Y-63897635D01*
X68918397Y-64314644D01*
X68918003Y-64766175D01*
X66346159Y-64766175D01*
X66346531Y-64340517D01*
X66143718Y-63849671D01*
X65768504Y-63473802D01*
X65278013Y-63270132D01*
X64746917Y-63269669D01*
X64256071Y-63472482D01*
X63880202Y-63847696D01*
X63676532Y-64338187D01*
X63676069Y-64869283D01*
X58699864Y-64869283D01*
X58752454Y-64604900D01*
X58650833Y-64094018D01*
X58524163Y-63904442D01*
X58526300Y-63893700D01*
X58439903Y-63459355D01*
X58193866Y-63091134D01*
X55738882Y-60636150D01*
X70264400Y-60636150D01*
X70264400Y-60976710D01*
X70361073Y-61210099D01*
X70539702Y-61388727D01*
X70773091Y-61485400D01*
X71113650Y-61485400D01*
X71272400Y-61326650D01*
X71272400Y-60477400D01*
X71526400Y-60477400D01*
X71526400Y-61326650D01*
X71685150Y-61485400D01*
X72025709Y-61485400D01*
X72259098Y-61388727D01*
X72437727Y-61210099D01*
X72534400Y-60976710D01*
X72534400Y-60636150D01*
X72375650Y-60477400D01*
X71526400Y-60477400D01*
X71272400Y-60477400D01*
X70423150Y-60477400D01*
X70264400Y-60636150D01*
X55738882Y-60636150D01*
X54754400Y-59651668D01*
X54754400Y-55648332D01*
X56205500Y-57099432D01*
X56205500Y-58421240D01*
X56080967Y-58607618D01*
X55979346Y-59118500D01*
X56080967Y-59629382D01*
X56370358Y-60062488D01*
X56803464Y-60351879D01*
X57314346Y-60453500D01*
X57366654Y-60453500D01*
X57877536Y-60351879D01*
X58310642Y-60062488D01*
X58600033Y-59629382D01*
X58649064Y-59382883D01*
X63625269Y-59382883D01*
X63828082Y-59873729D01*
X64203296Y-60249598D01*
X64693787Y-60453268D01*
X65224883Y-60453731D01*
X65715729Y-60250918D01*
X66091598Y-59875704D01*
X66295268Y-59385213D01*
X66295337Y-59305175D01*
X68994203Y-59305175D01*
X69166633Y-59722486D01*
X69485635Y-60042045D01*
X69902644Y-60215203D01*
X70354175Y-60215597D01*
X70397461Y-60197711D01*
X70423150Y-60223400D01*
X71272400Y-60223400D01*
X71272400Y-59374150D01*
X71526400Y-59374150D01*
X71526400Y-60223400D01*
X72375650Y-60223400D01*
X72534400Y-60064650D01*
X72534400Y-59724090D01*
X72437727Y-59490701D01*
X72259098Y-59312073D01*
X72025709Y-59215400D01*
X71685150Y-59215400D01*
X71526400Y-59374150D01*
X71272400Y-59374150D01*
X71246952Y-59348702D01*
X71264203Y-59307156D01*
X71264519Y-58945283D01*
X71624175Y-58945597D01*
X72041486Y-58773167D01*
X72361045Y-58454165D01*
X72534203Y-58037156D01*
X72534597Y-57585625D01*
X72362167Y-57168314D01*
X72043165Y-56848755D01*
X71626156Y-56675597D01*
X71174625Y-56675203D01*
X70757314Y-56847633D01*
X70437755Y-57166635D01*
X70264597Y-57583644D01*
X70264281Y-57945517D01*
X69904625Y-57945203D01*
X69487314Y-58117633D01*
X69167755Y-58436635D01*
X68994597Y-58853644D01*
X68994203Y-59305175D01*
X66295337Y-59305175D01*
X66295731Y-58854117D01*
X66092918Y-58363271D01*
X65717704Y-57987402D01*
X65227213Y-57783732D01*
X64696117Y-57783269D01*
X64205271Y-57986082D01*
X63829402Y-58361296D01*
X63625732Y-58851787D01*
X63625269Y-59382883D01*
X58649064Y-59382883D01*
X58701654Y-59118500D01*
X58600033Y-58607618D01*
X58475500Y-58421240D01*
X58475500Y-56629300D01*
X58459703Y-56549885D01*
X58389104Y-56194955D01*
X58143066Y-55826734D01*
X57389882Y-55073550D01*
X70188200Y-55073550D01*
X70188200Y-55414110D01*
X70284873Y-55647499D01*
X70463502Y-55826127D01*
X70696891Y-55922800D01*
X71037450Y-55922800D01*
X71196200Y-55764050D01*
X71196200Y-54914800D01*
X71450200Y-54914800D01*
X71450200Y-55764050D01*
X71608950Y-55922800D01*
X71949509Y-55922800D01*
X72182898Y-55826127D01*
X72361527Y-55647499D01*
X72458200Y-55414110D01*
X72458200Y-55073550D01*
X72299450Y-54914800D01*
X71450200Y-54914800D01*
X71196200Y-54914800D01*
X70346950Y-54914800D01*
X70188200Y-55073550D01*
X57389882Y-55073550D01*
X57074869Y-54758537D01*
X57082864Y-54763879D01*
X57593746Y-54865500D01*
X57646054Y-54865500D01*
X58156936Y-54763879D01*
X58590042Y-54474488D01*
X58879433Y-54041382D01*
X58928464Y-53794883D01*
X63904669Y-53794883D01*
X64107482Y-54285729D01*
X64482696Y-54661598D01*
X64973187Y-54865268D01*
X65504283Y-54865731D01*
X65995129Y-54662918D01*
X66370998Y-54287704D01*
X66574668Y-53797213D01*
X66574715Y-53742575D01*
X68918003Y-53742575D01*
X69090433Y-54159886D01*
X69409435Y-54479445D01*
X69826444Y-54652603D01*
X70277975Y-54652997D01*
X70321261Y-54635111D01*
X70346950Y-54660800D01*
X71196200Y-54660800D01*
X71196200Y-53811550D01*
X71450200Y-53811550D01*
X71450200Y-54660800D01*
X72299450Y-54660800D01*
X72458200Y-54502050D01*
X72458200Y-54161490D01*
X72361527Y-53928101D01*
X72182898Y-53749473D01*
X71949509Y-53652800D01*
X71608950Y-53652800D01*
X71450200Y-53811550D01*
X71196200Y-53811550D01*
X71170752Y-53786102D01*
X71188003Y-53744556D01*
X71188319Y-53382683D01*
X71547975Y-53382997D01*
X71965286Y-53210567D01*
X72284845Y-52891565D01*
X72458003Y-52474556D01*
X72458397Y-52023025D01*
X72285967Y-51605714D01*
X71966965Y-51286155D01*
X71549956Y-51112997D01*
X71098425Y-51112603D01*
X70681114Y-51285033D01*
X70361555Y-51604035D01*
X70188397Y-52021044D01*
X70188081Y-52382917D01*
X69828425Y-52382603D01*
X69411114Y-52555033D01*
X69091555Y-52874035D01*
X68918397Y-53291044D01*
X68918003Y-53742575D01*
X66574715Y-53742575D01*
X66575131Y-53266117D01*
X66372318Y-52775271D01*
X65997104Y-52399402D01*
X65506613Y-52195732D01*
X64975517Y-52195269D01*
X64484671Y-52398082D01*
X64108802Y-52773296D01*
X63905132Y-53263787D01*
X63904669Y-53794883D01*
X58928464Y-53794883D01*
X58981054Y-53530500D01*
X58879433Y-53019618D01*
X58754900Y-52833240D01*
X58754900Y-45758100D01*
X58738058Y-45673431D01*
X58668504Y-45323755D01*
X58422466Y-44955534D01*
X56773932Y-43307000D01*
X63843679Y-43307000D01*
X63969354Y-43938810D01*
X64327246Y-44474433D01*
X64480748Y-44577000D01*
X64327246Y-44679567D01*
X63969354Y-45215190D01*
X63843679Y-45847000D01*
X63969354Y-46478810D01*
X64327246Y-47014433D01*
X64862869Y-47372325D01*
X65494679Y-47498000D01*
X66077321Y-47498000D01*
X66709131Y-47372325D01*
X66961671Y-47203583D01*
X68717969Y-47203583D01*
X68920782Y-47694429D01*
X69295996Y-48070298D01*
X69786487Y-48273968D01*
X70317583Y-48274431D01*
X70808429Y-48071618D01*
X71184298Y-47696404D01*
X71387968Y-47205913D01*
X71388431Y-46674817D01*
X71185618Y-46183971D01*
X70810404Y-45808102D01*
X70319913Y-45604432D01*
X69788817Y-45603969D01*
X69297971Y-45806782D01*
X68922102Y-46181996D01*
X68718432Y-46672487D01*
X68717969Y-47203583D01*
X66961671Y-47203583D01*
X67244754Y-47014433D01*
X67602646Y-46478810D01*
X67728321Y-45847000D01*
X67602646Y-45215190D01*
X67244754Y-44679567D01*
X67091252Y-44577000D01*
X67244754Y-44474433D01*
X67602646Y-43938810D01*
X67728321Y-43307000D01*
X67602646Y-42675190D01*
X67244754Y-42139567D01*
X67070219Y-42022946D01*
X67297236Y-41844630D01*
X67613926Y-41281477D01*
X67645975Y-41149944D01*
X67526836Y-40894000D01*
X65913000Y-40894000D01*
X65913000Y-40914000D01*
X65659000Y-40914000D01*
X65659000Y-40894000D01*
X64045164Y-40894000D01*
X63926025Y-41149944D01*
X63958074Y-41281477D01*
X64274764Y-41844630D01*
X64501781Y-42022946D01*
X64327246Y-42139567D01*
X63969354Y-42675190D01*
X63843679Y-43307000D01*
X56773932Y-43307000D01*
X53850988Y-40384056D01*
X63926025Y-40384056D01*
X64045164Y-40640000D01*
X65659000Y-40640000D01*
X65659000Y-39116000D01*
X65913000Y-39116000D01*
X65913000Y-40640000D01*
X67526836Y-40640000D01*
X67645975Y-40384056D01*
X67613926Y-40252523D01*
X67297236Y-39689370D01*
X67250336Y-39652531D01*
X68760473Y-39652531D01*
X68986436Y-40121863D01*
X69374804Y-40468997D01*
X69719871Y-40611916D01*
X69926200Y-40488574D01*
X69926200Y-39446200D01*
X70180200Y-39446200D01*
X70180200Y-40488574D01*
X70386529Y-40611916D01*
X70731596Y-40468997D01*
X71119964Y-40121863D01*
X71345927Y-39652531D01*
X71223406Y-39446200D01*
X70180200Y-39446200D01*
X69926200Y-39446200D01*
X68882994Y-39446200D01*
X68760473Y-39652531D01*
X67250336Y-39652531D01*
X66789143Y-39290276D01*
X66167000Y-39116000D01*
X65913000Y-39116000D01*
X65659000Y-39116000D01*
X65405000Y-39116000D01*
X64782857Y-39290276D01*
X64274764Y-39689370D01*
X63958074Y-40252523D01*
X63926025Y-40384056D01*
X53850988Y-40384056D01*
X52452801Y-38985869D01*
X68760473Y-38985869D01*
X68882994Y-39192200D01*
X69926200Y-39192200D01*
X69926200Y-38149826D01*
X70180200Y-38149826D01*
X70180200Y-39192200D01*
X71223406Y-39192200D01*
X71345927Y-38985869D01*
X71119964Y-38516537D01*
X70731596Y-38169403D01*
X70386529Y-38026484D01*
X70180200Y-38149826D01*
X69926200Y-38149826D01*
X69719871Y-38026484D01*
X69374804Y-38169403D01*
X68986436Y-38516537D01*
X68760473Y-38985869D01*
X52452801Y-38985869D01*
X49363482Y-35896550D01*
X70239000Y-35896550D01*
X70239000Y-36237110D01*
X70335673Y-36470499D01*
X70514302Y-36649127D01*
X70747691Y-36745800D01*
X71088250Y-36745800D01*
X71247000Y-36587050D01*
X71247000Y-35737800D01*
X71501000Y-35737800D01*
X71501000Y-36587050D01*
X71659750Y-36745800D01*
X72000309Y-36745800D01*
X72233698Y-36649127D01*
X72412327Y-36470499D01*
X72509000Y-36237110D01*
X72509000Y-35896550D01*
X72350250Y-35737800D01*
X71501000Y-35737800D01*
X71247000Y-35737800D01*
X70397750Y-35737800D01*
X70239000Y-35896550D01*
X49363482Y-35896550D01*
X47807732Y-34340800D01*
X54417246Y-34340800D01*
X54518867Y-34851682D01*
X54808258Y-35284788D01*
X55241364Y-35574179D01*
X55752246Y-35675800D01*
X55804554Y-35675800D01*
X56315436Y-35574179D01*
X56748542Y-35284788D01*
X57037933Y-34851682D01*
X57086964Y-34605183D01*
X62063169Y-34605183D01*
X62265982Y-35096029D01*
X62641196Y-35471898D01*
X63131687Y-35675568D01*
X63662783Y-35676031D01*
X64153629Y-35473218D01*
X64529498Y-35098004D01*
X64733168Y-34607513D01*
X64733204Y-34565575D01*
X68968803Y-34565575D01*
X69141233Y-34982886D01*
X69460235Y-35302445D01*
X69877244Y-35475603D01*
X70328775Y-35475997D01*
X70372061Y-35458111D01*
X70397750Y-35483800D01*
X71247000Y-35483800D01*
X71247000Y-34634550D01*
X71501000Y-34634550D01*
X71501000Y-35483800D01*
X72350250Y-35483800D01*
X72509000Y-35325050D01*
X72509000Y-34984490D01*
X72412327Y-34751101D01*
X72233698Y-34572473D01*
X72000309Y-34475800D01*
X71659750Y-34475800D01*
X71501000Y-34634550D01*
X71247000Y-34634550D01*
X71221552Y-34609102D01*
X71238803Y-34567556D01*
X71239119Y-34205683D01*
X71598775Y-34205997D01*
X72016086Y-34033567D01*
X72335645Y-33714565D01*
X72508803Y-33297556D01*
X72509197Y-32846025D01*
X72336767Y-32428714D01*
X72017765Y-32109155D01*
X71600756Y-31935997D01*
X71149225Y-31935603D01*
X70731914Y-32108033D01*
X70412355Y-32427035D01*
X70239197Y-32844044D01*
X70238881Y-33205917D01*
X69879225Y-33205603D01*
X69461914Y-33378033D01*
X69142355Y-33697035D01*
X68969197Y-34114044D01*
X68968803Y-34565575D01*
X64733204Y-34565575D01*
X64733631Y-34076417D01*
X64530818Y-33585571D01*
X64155604Y-33209702D01*
X63665113Y-33006032D01*
X63134017Y-33005569D01*
X62643171Y-33208382D01*
X62267302Y-33583596D01*
X62063632Y-34074087D01*
X62063169Y-34605183D01*
X57086964Y-34605183D01*
X57139554Y-34340800D01*
X57037933Y-33829918D01*
X56748542Y-33396812D01*
X56315436Y-33107421D01*
X55804554Y-33005800D01*
X55752246Y-33005800D01*
X55241364Y-33107421D01*
X54808258Y-33396812D01*
X54518867Y-33829918D01*
X54417246Y-34340800D01*
X47807732Y-34340800D01*
X46431382Y-32964450D01*
X46431442Y-32895739D01*
X46219210Y-32382097D01*
X45826570Y-31988771D01*
X45618688Y-31902451D01*
X45824503Y-31817410D01*
X46217829Y-31424770D01*
X46430957Y-30911500D01*
X46431442Y-30355739D01*
X46411944Y-30308550D01*
X70264400Y-30308550D01*
X70264400Y-30649110D01*
X70361073Y-30882499D01*
X70539702Y-31061127D01*
X70773091Y-31157800D01*
X71113650Y-31157800D01*
X71272400Y-30999050D01*
X71272400Y-30149800D01*
X71526400Y-30149800D01*
X71526400Y-30999050D01*
X71685150Y-31157800D01*
X72025709Y-31157800D01*
X72259098Y-31061127D01*
X72437727Y-30882499D01*
X72534400Y-30649110D01*
X72534400Y-30308550D01*
X72375650Y-30149800D01*
X71526400Y-30149800D01*
X71272400Y-30149800D01*
X70423150Y-30149800D01*
X70264400Y-30308550D01*
X46411944Y-30308550D01*
X46219210Y-29842097D01*
X45826570Y-29448771D01*
X45618688Y-29362451D01*
X45824503Y-29277410D01*
X46217829Y-28884770D01*
X46251533Y-28803600D01*
X54442646Y-28803600D01*
X54544267Y-29314482D01*
X54833658Y-29747588D01*
X55266764Y-30036979D01*
X55777646Y-30138600D01*
X55829954Y-30138600D01*
X56340836Y-30036979D01*
X56773942Y-29747588D01*
X57063333Y-29314482D01*
X57112364Y-29067983D01*
X62088569Y-29067983D01*
X62291382Y-29558829D01*
X62666596Y-29934698D01*
X63157087Y-30138368D01*
X63688183Y-30138831D01*
X64179029Y-29936018D01*
X64554898Y-29560804D01*
X64758568Y-29070313D01*
X64758648Y-28977575D01*
X68994203Y-28977575D01*
X69166633Y-29394886D01*
X69485635Y-29714445D01*
X69902644Y-29887603D01*
X70354175Y-29887997D01*
X70397461Y-29870111D01*
X70423150Y-29895800D01*
X71272400Y-29895800D01*
X71272400Y-29046550D01*
X71526400Y-29046550D01*
X71526400Y-29895800D01*
X72375650Y-29895800D01*
X72534400Y-29737050D01*
X72534400Y-29396490D01*
X72437727Y-29163101D01*
X72259098Y-28984473D01*
X72025709Y-28887800D01*
X71685150Y-28887800D01*
X71526400Y-29046550D01*
X71272400Y-29046550D01*
X71246952Y-29021102D01*
X71264203Y-28979556D01*
X71264519Y-28617683D01*
X71624175Y-28617997D01*
X72041486Y-28445567D01*
X72361045Y-28126565D01*
X72534203Y-27709556D01*
X72534597Y-27258025D01*
X72362167Y-26840714D01*
X72043165Y-26521155D01*
X71626156Y-26347997D01*
X71174625Y-26347603D01*
X70757314Y-26520033D01*
X70437755Y-26839035D01*
X70264597Y-27256044D01*
X70264281Y-27617917D01*
X69904625Y-27617603D01*
X69487314Y-27790033D01*
X69167755Y-28109035D01*
X68994597Y-28526044D01*
X68994203Y-28977575D01*
X64758648Y-28977575D01*
X64759031Y-28539217D01*
X64556218Y-28048371D01*
X64181004Y-27672502D01*
X63690513Y-27468832D01*
X63159417Y-27468369D01*
X62668571Y-27671182D01*
X62292702Y-28046396D01*
X62089032Y-28536887D01*
X62088569Y-29067983D01*
X57112364Y-29067983D01*
X57164954Y-28803600D01*
X57063333Y-28292718D01*
X56773942Y-27859612D01*
X56340836Y-27570221D01*
X55829954Y-27468600D01*
X55777646Y-27468600D01*
X55266764Y-27570221D01*
X54833658Y-27859612D01*
X54544267Y-28292718D01*
X54442646Y-28803600D01*
X46251533Y-28803600D01*
X46430957Y-28371500D01*
X46431442Y-27815739D01*
X46219210Y-27302097D01*
X45826570Y-26908771D01*
X45618688Y-26822451D01*
X45824503Y-26737410D01*
X46217829Y-26344770D01*
X46293721Y-26162000D01*
X80701555Y-26162000D01*
X80815629Y-26735489D01*
X81140485Y-27221670D01*
X81455266Y-27432000D01*
X81140485Y-27642330D01*
X80815629Y-28128511D01*
X80701555Y-28702000D01*
X80815629Y-29275489D01*
X81140485Y-29761670D01*
X81455266Y-29972000D01*
X81140485Y-30182330D01*
X80815629Y-30668511D01*
X80701555Y-31242000D01*
X80815629Y-31815489D01*
X81140485Y-32301670D01*
X81626666Y-32626526D01*
X82200155Y-32740600D01*
X82569645Y-32740600D01*
X83143134Y-32626526D01*
X83629315Y-32301670D01*
X83954171Y-31815489D01*
X84068245Y-31242000D01*
X83954171Y-30668511D01*
X83629315Y-30182330D01*
X83314534Y-29972000D01*
X83629315Y-29761670D01*
X83954171Y-29275489D01*
X84068245Y-28702000D01*
X83954171Y-28128511D01*
X83629315Y-27642330D01*
X83314534Y-27432000D01*
X83629315Y-27221670D01*
X83954171Y-26735489D01*
X84068245Y-26162000D01*
X83954171Y-25588511D01*
X83629315Y-25102330D01*
X83614987Y-25092757D01*
X83636217Y-25088762D01*
X83852341Y-24949690D01*
X83997331Y-24737490D01*
X84048340Y-24485600D01*
X84048340Y-22758400D01*
X84004062Y-22523083D01*
X83864990Y-22306959D01*
X83652790Y-22161969D01*
X83400900Y-22110960D01*
X81368900Y-22110960D01*
X81133583Y-22155238D01*
X80917459Y-22294310D01*
X80772469Y-22506510D01*
X80721460Y-22758400D01*
X80721460Y-24485600D01*
X80765738Y-24720917D01*
X80904810Y-24937041D01*
X81117010Y-25082031D01*
X81158339Y-25090400D01*
X81140485Y-25102330D01*
X80815629Y-25588511D01*
X80701555Y-26162000D01*
X46293721Y-26162000D01*
X46430957Y-25831500D01*
X46431442Y-25275739D01*
X46233529Y-24796750D01*
X70213600Y-24796750D01*
X70213600Y-25137310D01*
X70310273Y-25370699D01*
X70488902Y-25549327D01*
X70722291Y-25646000D01*
X71062850Y-25646000D01*
X71221600Y-25487250D01*
X71221600Y-24638000D01*
X71475600Y-24638000D01*
X71475600Y-25487250D01*
X71634350Y-25646000D01*
X71974909Y-25646000D01*
X72208298Y-25549327D01*
X72386927Y-25370699D01*
X72483600Y-25137310D01*
X72483600Y-24796750D01*
X72324850Y-24638000D01*
X71475600Y-24638000D01*
X71221600Y-24638000D01*
X70372350Y-24638000D01*
X70213600Y-24796750D01*
X46233529Y-24796750D01*
X46219210Y-24762097D01*
X45826570Y-24368771D01*
X45313300Y-24155643D01*
X44757539Y-24155158D01*
X44243897Y-24367390D01*
X43850571Y-24760030D01*
X43637443Y-25273300D01*
X43636958Y-25829061D01*
X43849190Y-26342703D01*
X44241830Y-26736029D01*
X44449712Y-26822349D01*
X44243897Y-26907390D01*
X43850571Y-27300030D01*
X43637443Y-27813300D01*
X43636958Y-28369061D01*
X43849190Y-28882703D01*
X44241830Y-29276029D01*
X44449712Y-29362349D01*
X44243897Y-29447390D01*
X43850571Y-29840030D01*
X43637443Y-30353300D01*
X43636958Y-30909061D01*
X43849190Y-31422703D01*
X44241830Y-31816029D01*
X44449712Y-31902349D01*
X44243897Y-31987390D01*
X43850571Y-32380030D01*
X43637443Y-32893300D01*
X43636958Y-33449061D01*
X43849190Y-33962703D01*
X44241830Y-34356029D01*
X44449712Y-34442349D01*
X44243897Y-34527390D01*
X43850571Y-34920030D01*
X43691074Y-35304142D01*
X40276400Y-31889468D01*
X40276400Y-24333200D01*
X40190003Y-23898854D01*
X39943966Y-23530634D01*
X39575746Y-23284597D01*
X39484264Y-23266400D01*
X54645846Y-23266400D01*
X54747467Y-23777282D01*
X55036858Y-24210388D01*
X55469964Y-24499779D01*
X55980846Y-24601400D01*
X56033154Y-24601400D01*
X56544036Y-24499779D01*
X56977142Y-24210388D01*
X57266533Y-23777282D01*
X57315564Y-23530783D01*
X62291769Y-23530783D01*
X62494582Y-24021629D01*
X62869796Y-24397498D01*
X63360287Y-24601168D01*
X63891383Y-24601631D01*
X64382229Y-24398818D01*
X64758098Y-24023604D01*
X64961768Y-23533113D01*
X64961826Y-23465775D01*
X68943403Y-23465775D01*
X69115833Y-23883086D01*
X69434835Y-24202645D01*
X69851844Y-24375803D01*
X70303375Y-24376197D01*
X70346661Y-24358311D01*
X70372350Y-24384000D01*
X71221600Y-24384000D01*
X71221600Y-23534750D01*
X71475600Y-23534750D01*
X71475600Y-24384000D01*
X72324850Y-24384000D01*
X72483600Y-24225250D01*
X72483600Y-23884690D01*
X72386927Y-23651301D01*
X72208298Y-23472673D01*
X71974909Y-23376000D01*
X71634350Y-23376000D01*
X71475600Y-23534750D01*
X71221600Y-23534750D01*
X71196152Y-23509302D01*
X71213403Y-23467756D01*
X71213719Y-23105883D01*
X71573375Y-23106197D01*
X71990686Y-22933767D01*
X72310245Y-22614765D01*
X72483403Y-22197756D01*
X72483797Y-21746225D01*
X72311367Y-21328914D01*
X71992365Y-21009355D01*
X71575356Y-20836197D01*
X71123825Y-20835803D01*
X70706514Y-21008233D01*
X70386955Y-21327235D01*
X70213797Y-21744244D01*
X70213481Y-22106117D01*
X69853825Y-22105803D01*
X69436514Y-22278233D01*
X69116955Y-22597235D01*
X68943797Y-23014244D01*
X68943403Y-23465775D01*
X64961826Y-23465775D01*
X64962231Y-23002017D01*
X64759418Y-22511171D01*
X64384204Y-22135302D01*
X63893713Y-21931632D01*
X63362617Y-21931169D01*
X62871771Y-22133982D01*
X62495902Y-22509196D01*
X62292232Y-22999687D01*
X62291769Y-23530783D01*
X57315564Y-23530783D01*
X57368154Y-23266400D01*
X57266533Y-22755518D01*
X56977142Y-22322412D01*
X56544036Y-22033021D01*
X56033154Y-21931400D01*
X55980846Y-21931400D01*
X55469964Y-22033021D01*
X55036858Y-22322412D01*
X54747467Y-22755518D01*
X54645846Y-23266400D01*
X39484264Y-23266400D01*
X39141400Y-23198200D01*
X38707054Y-23284597D01*
X38338834Y-23530634D01*
X38092797Y-23898854D01*
X38006400Y-24333200D01*
X32512416Y-24333200D01*
X32245778Y-24155039D01*
X31677493Y-24042000D01*
X31619307Y-24042000D01*
X31051022Y-24155039D01*
X30569253Y-24476946D01*
X30568429Y-24478179D01*
X30561562Y-24441683D01*
X30422490Y-24225559D01*
X30210290Y-24080569D01*
X29958400Y-24029560D01*
X28258400Y-24029560D01*
X28023083Y-24073838D01*
X27806959Y-24212910D01*
X27661969Y-24425110D01*
X27610960Y-24677000D01*
X27610960Y-26377000D01*
X27655238Y-26612317D01*
X27794310Y-26828441D01*
X28006510Y-26973431D01*
X28073941Y-26987086D01*
X28029253Y-27016946D01*
X27707346Y-27498715D01*
X27594307Y-28067000D01*
X24376000Y-28067000D01*
X24376000Y-23380932D01*
X24777932Y-22979000D01*
X53035200Y-22979000D01*
X53469546Y-22892603D01*
X53837766Y-22646566D01*
X58534532Y-17949800D01*
X64110808Y-17949800D01*
X64217910Y-18116241D01*
X64430110Y-18261231D01*
X64682000Y-18312240D01*
X66382000Y-18312240D01*
X66617317Y-18267962D01*
X66833441Y-18128890D01*
X66978431Y-17916690D01*
X67029440Y-17664800D01*
X67029440Y-15964800D01*
X66985162Y-15729483D01*
X66846090Y-15513359D01*
X66633890Y-15368369D01*
X66382000Y-15317360D01*
X64682000Y-15317360D01*
X64446683Y-15361638D01*
X64230559Y-15500710D01*
X64108192Y-15679800D01*
X58064400Y-15679800D01*
X57630054Y-15766197D01*
X57332824Y-15964800D01*
X57261834Y-16012234D01*
X52565068Y-20709000D01*
X24307800Y-20709000D01*
X23873454Y-20795397D01*
X23812393Y-20836197D01*
X23505234Y-21041434D01*
X22438434Y-22108234D01*
X22192397Y-22476454D01*
X22106000Y-22910800D01*
X22106000Y-54495468D01*
X18446529Y-58154939D01*
X18316597Y-57841257D01*
X18074413Y-57771792D01*
X17273805Y-58572400D01*
X17287948Y-58586543D01*
X17108343Y-58766148D01*
X17094200Y-58752005D01*
X16293592Y-59552613D01*
X16363057Y-59794797D01*
X16503518Y-59844909D01*
X16303897Y-59927390D01*
X15910571Y-60320030D01*
X15697443Y-60833300D01*
X15696958Y-61389061D01*
X15315400Y-61389061D01*
X15315400Y-58364702D01*
X15685056Y-58364702D01*
X15712838Y-58919768D01*
X15871803Y-59303543D01*
X16113987Y-59373008D01*
X16914595Y-58572400D01*
X16113987Y-57771792D01*
X15871803Y-57841257D01*
X15685056Y-58364702D01*
X15315400Y-58364702D01*
X15315400Y-51229061D01*
X15696958Y-51229061D01*
X15909190Y-51742703D01*
X16301830Y-52136029D01*
X16509712Y-52222349D01*
X16303897Y-52307390D01*
X15910571Y-52700030D01*
X15697443Y-53213300D01*
X15696958Y-53769061D01*
X15909190Y-54282703D01*
X16301830Y-54676029D01*
X16509712Y-54762349D01*
X16303897Y-54847390D01*
X15910571Y-55240030D01*
X15697443Y-55753300D01*
X15696958Y-56309061D01*
X15909190Y-56822703D01*
X16301830Y-57216029D01*
X16493927Y-57295795D01*
X16363057Y-57350003D01*
X16293592Y-57592187D01*
X17094200Y-58392795D01*
X17894808Y-57592187D01*
X17825343Y-57350003D01*
X17684882Y-57299891D01*
X17884503Y-57217410D01*
X18277829Y-56824770D01*
X18490957Y-56311500D01*
X18491442Y-55755739D01*
X18279210Y-55242097D01*
X17886570Y-54848771D01*
X17678688Y-54762451D01*
X17884503Y-54677410D01*
X18277829Y-54284770D01*
X18490957Y-53771500D01*
X18491442Y-53215739D01*
X18279210Y-52702097D01*
X17886570Y-52308771D01*
X17678688Y-52222451D01*
X17884503Y-52137410D01*
X18277829Y-51744770D01*
X18490957Y-51231500D01*
X18491442Y-50675739D01*
X18279210Y-50162097D01*
X17886570Y-49768771D01*
X17694473Y-49689005D01*
X17825343Y-49634797D01*
X17894808Y-49392613D01*
X17094200Y-48592005D01*
X16293592Y-49392613D01*
X16363057Y-49634797D01*
X16503518Y-49684909D01*
X16303897Y-49767390D01*
X15910571Y-50160030D01*
X15697443Y-50673300D01*
X15696958Y-51229061D01*
X15315400Y-51229061D01*
X15315400Y-48204702D01*
X15685056Y-48204702D01*
X15712838Y-48759768D01*
X15871803Y-49143543D01*
X16113987Y-49213008D01*
X16914595Y-48412400D01*
X17273805Y-48412400D01*
X18074413Y-49213008D01*
X18316597Y-49143543D01*
X18503344Y-48620098D01*
X18475562Y-48065032D01*
X18316597Y-47681257D01*
X18074413Y-47611792D01*
X17273805Y-48412400D01*
X16914595Y-48412400D01*
X16113987Y-47611792D01*
X15871803Y-47681257D01*
X15685056Y-48204702D01*
X15315400Y-48204702D01*
X15315400Y-25829061D01*
X15696958Y-25829061D01*
X15909190Y-26342703D01*
X16301830Y-26736029D01*
X16509712Y-26822349D01*
X16303897Y-26907390D01*
X15910571Y-27300030D01*
X15697443Y-27813300D01*
X15696958Y-28369061D01*
X15909190Y-28882703D01*
X16301830Y-29276029D01*
X16509712Y-29362349D01*
X16303897Y-29447390D01*
X15910571Y-29840030D01*
X15697443Y-30353300D01*
X15696958Y-30909061D01*
X15909190Y-31422703D01*
X16301830Y-31816029D01*
X16509712Y-31902349D01*
X16303897Y-31987390D01*
X15910571Y-32380030D01*
X15697443Y-32893300D01*
X15696958Y-33449061D01*
X15909190Y-33962703D01*
X16301830Y-34356029D01*
X16509712Y-34442349D01*
X16303897Y-34527390D01*
X15910571Y-34920030D01*
X15697443Y-35433300D01*
X15696958Y-35989061D01*
X15909190Y-36502703D01*
X16301830Y-36896029D01*
X16509712Y-36982349D01*
X16303897Y-37067390D01*
X15910571Y-37460030D01*
X15697443Y-37973300D01*
X15696958Y-38529061D01*
X15909190Y-39042703D01*
X16301830Y-39436029D01*
X16509712Y-39522349D01*
X16303897Y-39607390D01*
X15910571Y-40000030D01*
X15697443Y-40513300D01*
X15696958Y-41069061D01*
X15909190Y-41582703D01*
X16301830Y-41976029D01*
X16509712Y-42062349D01*
X16303897Y-42147390D01*
X15910571Y-42540030D01*
X15697443Y-43053300D01*
X15696958Y-43609061D01*
X15909190Y-44122703D01*
X16301830Y-44516029D01*
X16509712Y-44602349D01*
X16303897Y-44687390D01*
X15910571Y-45080030D01*
X15697443Y-45593300D01*
X15696958Y-46149061D01*
X15909190Y-46662703D01*
X16301830Y-47056029D01*
X16493927Y-47135795D01*
X16363057Y-47190003D01*
X16293592Y-47432187D01*
X17094200Y-48232795D01*
X17894808Y-47432187D01*
X17825343Y-47190003D01*
X17684882Y-47139891D01*
X17884503Y-47057410D01*
X18277829Y-46664770D01*
X18490957Y-46151500D01*
X18491442Y-45595739D01*
X18279210Y-45082097D01*
X17886570Y-44688771D01*
X17678688Y-44602451D01*
X17884503Y-44517410D01*
X18277829Y-44124770D01*
X18490957Y-43611500D01*
X18491442Y-43055739D01*
X18279210Y-42542097D01*
X17886570Y-42148771D01*
X17678688Y-42062451D01*
X17884503Y-41977410D01*
X18277829Y-41584770D01*
X18490957Y-41071500D01*
X18491442Y-40515739D01*
X18279210Y-40002097D01*
X17886570Y-39608771D01*
X17678688Y-39522451D01*
X17884503Y-39437410D01*
X18277829Y-39044770D01*
X18490957Y-38531500D01*
X18491442Y-37975739D01*
X18279210Y-37462097D01*
X17886570Y-37068771D01*
X17678688Y-36982451D01*
X17884503Y-36897410D01*
X18277829Y-36504770D01*
X18490957Y-35991500D01*
X18491442Y-35435739D01*
X18279210Y-34922097D01*
X17886570Y-34528771D01*
X17678688Y-34442451D01*
X17884503Y-34357410D01*
X18277829Y-33964770D01*
X18490957Y-33451500D01*
X18491442Y-32895739D01*
X18279210Y-32382097D01*
X17886570Y-31988771D01*
X17678688Y-31902451D01*
X17884503Y-31817410D01*
X18277829Y-31424770D01*
X18490957Y-30911500D01*
X18491442Y-30355739D01*
X18279210Y-29842097D01*
X17886570Y-29448771D01*
X17678688Y-29362451D01*
X17884503Y-29277410D01*
X18277829Y-28884770D01*
X18490957Y-28371500D01*
X18491442Y-27815739D01*
X18279210Y-27302097D01*
X17886570Y-26908771D01*
X17678688Y-26822451D01*
X17884503Y-26737410D01*
X18277829Y-26344770D01*
X18490957Y-25831500D01*
X18491442Y-25275739D01*
X18279210Y-24762097D01*
X17886570Y-24368771D01*
X17373300Y-24155643D01*
X16817539Y-24155158D01*
X16303897Y-24367390D01*
X15910571Y-24760030D01*
X15697443Y-25273300D01*
X15696958Y-25829061D01*
X15315400Y-25829061D01*
X15315400Y-15914000D01*
X51131360Y-15914000D01*
X51131360Y-17614000D01*
X51175638Y-17849317D01*
X51314710Y-18065441D01*
X51526910Y-18210431D01*
X51778800Y-18261440D01*
X53478800Y-18261440D01*
X53714117Y-18217162D01*
X53930241Y-18078090D01*
X54075231Y-17865890D01*
X54126240Y-17614000D01*
X54126240Y-15914000D01*
X54081962Y-15678683D01*
X53942890Y-15462559D01*
X53730690Y-15317569D01*
X53478800Y-15266560D01*
X51778800Y-15266560D01*
X51543483Y-15310838D01*
X51327359Y-15449910D01*
X51182369Y-15662110D01*
X51131360Y-15914000D01*
X15315400Y-15914000D01*
X15315400Y-14401000D01*
X107912700Y-14401000D01*
X107912700Y-102997800D01*
X107912700Y-102997800D01*
G37*
X107912700Y-102997800D02*
X15315400Y-102997800D01*
X15315400Y-92419600D01*
X19737760Y-92419600D01*
X19737760Y-94219600D01*
X19782038Y-94454917D01*
X19921110Y-94671041D01*
X20133310Y-94816031D01*
X20153734Y-94820167D01*
X19984649Y-94988957D01*
X19750467Y-95552930D01*
X19749935Y-96163591D01*
X19983132Y-96727971D01*
X20414557Y-97160151D01*
X20978530Y-97394333D01*
X21589191Y-97394865D01*
X22153571Y-97161668D01*
X22320931Y-96994600D01*
X27132562Y-96994600D01*
X27221757Y-97083951D01*
X27785730Y-97318133D01*
X28396391Y-97318665D01*
X28960771Y-97085468D01*
X29128131Y-96918400D01*
X33711295Y-96918400D01*
X33876557Y-97083951D01*
X34440530Y-97318133D01*
X34526600Y-97318208D01*
X34526600Y-99416808D01*
X34360159Y-99523910D01*
X34215169Y-99736110D01*
X34164160Y-99988000D01*
X34164160Y-101688000D01*
X34208438Y-101923317D01*
X34347510Y-102139441D01*
X34559710Y-102284431D01*
X34811600Y-102335440D01*
X36511600Y-102335440D01*
X36746917Y-102291162D01*
X36963041Y-102152090D01*
X37108031Y-101939890D01*
X37159040Y-101688000D01*
X37159040Y-99988000D01*
X37114762Y-99752683D01*
X36975690Y-99536559D01*
X36796600Y-99414192D01*
X36796600Y-96918400D01*
X40594695Y-96918400D01*
X40759957Y-97083951D01*
X41323930Y-97318133D01*
X41934591Y-97318665D01*
X42498971Y-97085468D01*
X42666331Y-96918400D01*
X47325740Y-96918400D01*
X47516357Y-97109351D01*
X48080330Y-97343533D01*
X48690991Y-97344065D01*
X49255371Y-97110868D01*
X49422731Y-96943800D01*
X54107495Y-96943800D01*
X54272757Y-97109351D01*
X54836730Y-97343533D01*
X55447391Y-97344065D01*
X56011771Y-97110868D01*
X56229219Y-96893800D01*
X60965495Y-96893800D01*
X61130757Y-97059351D01*
X61694730Y-97293533D01*
X62305391Y-97294065D01*
X62869771Y-97060868D01*
X63037131Y-96893800D01*
X67773538Y-96893800D01*
X67963357Y-97083951D01*
X68527330Y-97318133D01*
X69137991Y-97318665D01*
X69702371Y-97085468D01*
X69869731Y-96918400D01*
X74554495Y-96918400D01*
X74719757Y-97083951D01*
X75283730Y-97318133D01*
X75894391Y-97318665D01*
X76458771Y-97085468D01*
X76626131Y-96918400D01*
X81209295Y-96918400D01*
X81374557Y-97083951D01*
X81938530Y-97318133D01*
X82549191Y-97318665D01*
X83113571Y-97085468D01*
X83280931Y-96918400D01*
X87790400Y-96918400D01*
X87790400Y-98120200D01*
X87876797Y-98554546D01*
X88105057Y-98896161D01*
X88122834Y-98922766D01*
X89189634Y-99989566D01*
X89557854Y-100235603D01*
X89992200Y-100322000D01*
X101981000Y-100322000D01*
X102415346Y-100235603D01*
X102783566Y-99989566D01*
X102997216Y-99669816D01*
X103316966Y-99456166D01*
X103563003Y-99087946D01*
X103649400Y-98653600D01*
X103649400Y-75234800D01*
X103563003Y-74800454D01*
X103316966Y-74432233D01*
X89346966Y-60462234D01*
X88978745Y-60216197D01*
X88544400Y-60129800D01*
X88110055Y-60216197D01*
X87741834Y-60462234D01*
X87495797Y-60830455D01*
X87409400Y-61264800D01*
X87495797Y-61699145D01*
X87741834Y-62067366D01*
X101379400Y-75704933D01*
X101379400Y-98052000D01*
X90462332Y-98052000D01*
X90060400Y-97650068D01*
X90060400Y-96918400D01*
X95077695Y-96918400D01*
X95242957Y-97083951D01*
X95806930Y-97318133D01*
X96417591Y-97318665D01*
X96981971Y-97085468D01*
X97414151Y-96654043D01*
X97648333Y-96090070D01*
X97648865Y-95479409D01*
X97415668Y-94915029D01*
X97247720Y-94746787D01*
X97248917Y-94746562D01*
X97465041Y-94607490D01*
X97610031Y-94395290D01*
X97661040Y-94143400D01*
X97661040Y-92343400D01*
X97616762Y-92108083D01*
X97477690Y-91891959D01*
X97265490Y-91746969D01*
X97013600Y-91695960D01*
X95213600Y-91695960D01*
X94978283Y-91740238D01*
X94762159Y-91879310D01*
X94617169Y-92091510D01*
X94613749Y-92108400D01*
X90428622Y-92108400D01*
X90428562Y-92108083D01*
X90289490Y-91891959D01*
X90077290Y-91746969D01*
X89825400Y-91695960D01*
X88025400Y-91695960D01*
X87790083Y-91740238D01*
X87573959Y-91879310D01*
X87428969Y-92091510D01*
X87425549Y-92108400D01*
X83748422Y-92108400D01*
X83748362Y-92108083D01*
X83609290Y-91891959D01*
X83397090Y-91746969D01*
X83145200Y-91695960D01*
X81345200Y-91695960D01*
X81109883Y-91740238D01*
X80893759Y-91879310D01*
X80748769Y-92091510D01*
X80745349Y-92108400D01*
X77093622Y-92108400D01*
X77093562Y-92108083D01*
X76954490Y-91891959D01*
X76742290Y-91746969D01*
X76573000Y-91712687D01*
X76573000Y-55753000D01*
X80955555Y-55753000D01*
X81069629Y-56326489D01*
X81394485Y-56812670D01*
X81709266Y-57023000D01*
X81394485Y-57233330D01*
X81069629Y-57719511D01*
X80955555Y-58293000D01*
X81069629Y-58866489D01*
X81394485Y-59352670D01*
X81709266Y-59563000D01*
X81394485Y-59773330D01*
X81069629Y-60259511D01*
X80955555Y-60833000D01*
X81069629Y-61406489D01*
X81394485Y-61892670D01*
X81880666Y-62217526D01*
X82454155Y-62331600D01*
X82823645Y-62331600D01*
X83397134Y-62217526D01*
X83883315Y-61892670D01*
X84208171Y-61406489D01*
X84322245Y-60833000D01*
X84208171Y-60259511D01*
X83883315Y-59773330D01*
X83568534Y-59563000D01*
X83883315Y-59352670D01*
X84208171Y-58866489D01*
X84322245Y-58293000D01*
X84208171Y-57719511D01*
X83883315Y-57233330D01*
X83568534Y-57023000D01*
X83883315Y-56812670D01*
X84208171Y-56326489D01*
X84322245Y-55753000D01*
X84208171Y-55179511D01*
X83883315Y-54693330D01*
X83868987Y-54683757D01*
X83890217Y-54679762D01*
X84106341Y-54540690D01*
X84251331Y-54328490D01*
X84302340Y-54076600D01*
X84302340Y-52349400D01*
X84258062Y-52114083D01*
X84118990Y-51897959D01*
X83906790Y-51752969D01*
X83654900Y-51701960D01*
X81622900Y-51701960D01*
X81387583Y-51746238D01*
X81171459Y-51885310D01*
X81026469Y-52097510D01*
X80975460Y-52349400D01*
X80975460Y-54076600D01*
X81019738Y-54311917D01*
X81158810Y-54528041D01*
X81371010Y-54673031D01*
X81412339Y-54681400D01*
X81394485Y-54693330D01*
X81069629Y-55179511D01*
X80955555Y-55753000D01*
X76573000Y-55753000D01*
X76573000Y-46609000D01*
X76486603Y-46174654D01*
X76240566Y-45806434D01*
X76090400Y-45706096D01*
X76090400Y-44004260D01*
X76214933Y-43817882D01*
X76263964Y-43571383D01*
X81240169Y-43571383D01*
X81442982Y-44062229D01*
X81818196Y-44438098D01*
X82308687Y-44641768D01*
X82839783Y-44642231D01*
X83330629Y-44439418D01*
X83706498Y-44064204D01*
X83910168Y-43573713D01*
X83910204Y-43531775D01*
X85910603Y-43531775D01*
X86083033Y-43949086D01*
X86402035Y-44268645D01*
X86819044Y-44441803D01*
X87168360Y-44442108D01*
X87168360Y-45077000D01*
X87212638Y-45312317D01*
X87351710Y-45528441D01*
X87563910Y-45673431D01*
X87815800Y-45724440D01*
X88815800Y-45724440D01*
X89051117Y-45680162D01*
X89267241Y-45541090D01*
X89412231Y-45328890D01*
X89463240Y-45077000D01*
X89463240Y-44077000D01*
X89418962Y-43841683D01*
X89279890Y-43625559D01*
X89067690Y-43480569D01*
X88815800Y-43429560D01*
X88180694Y-43429560D01*
X88180919Y-43171883D01*
X88540575Y-43172197D01*
X88957886Y-42999767D01*
X89277445Y-42680765D01*
X89450603Y-42263756D01*
X89450997Y-41812225D01*
X89278567Y-41394914D01*
X88959565Y-41075355D01*
X88542556Y-40902197D01*
X88091025Y-40901803D01*
X87673714Y-41074233D01*
X87354155Y-41393235D01*
X87180997Y-41810244D01*
X87180681Y-42172117D01*
X86821025Y-42171803D01*
X86403714Y-42344233D01*
X86084155Y-42663235D01*
X85910997Y-43080244D01*
X85910603Y-43531775D01*
X83910204Y-43531775D01*
X83910631Y-43042617D01*
X83707818Y-42551771D01*
X83332604Y-42175902D01*
X82842113Y-41972232D01*
X82311017Y-41971769D01*
X81820171Y-42174582D01*
X81444302Y-42549796D01*
X81240632Y-43040287D01*
X81240169Y-43571383D01*
X76263964Y-43571383D01*
X76316554Y-43307000D01*
X76214933Y-42796118D01*
X75925542Y-42363012D01*
X75492436Y-42073621D01*
X74981554Y-41972000D01*
X74929246Y-41972000D01*
X74418364Y-42073621D01*
X73985258Y-42363012D01*
X73695867Y-42796118D01*
X73594246Y-43307000D01*
X73695867Y-43817882D01*
X73820400Y-44004260D01*
X73820400Y-46126400D01*
X73906797Y-46560746D01*
X74152834Y-46928966D01*
X74303000Y-47029304D01*
X74303000Y-91838101D01*
X74238959Y-91879310D01*
X74093969Y-92091510D01*
X74090549Y-92108400D01*
X70337222Y-92108400D01*
X70337162Y-92108083D01*
X70198090Y-91891959D01*
X69985890Y-91746969D01*
X69734000Y-91695960D01*
X67934000Y-91695960D01*
X67698683Y-91740238D01*
X67482559Y-91879310D01*
X67337569Y-92091510D01*
X67334149Y-92108400D01*
X63509250Y-92108400D01*
X63504562Y-92083483D01*
X63365490Y-91867359D01*
X63153290Y-91722369D01*
X62901400Y-91671360D01*
X61101400Y-91671360D01*
X60866083Y-91715638D01*
X60649959Y-91854710D01*
X60504969Y-92066910D01*
X60501549Y-92083800D01*
X56614592Y-92083800D01*
X56507490Y-91917359D01*
X56295290Y-91772369D01*
X56043400Y-91721360D01*
X54243400Y-91721360D01*
X54008083Y-91765638D01*
X53791959Y-91904710D01*
X53646969Y-92116910D01*
X53643549Y-92133800D01*
X49890222Y-92133800D01*
X49890162Y-92133483D01*
X49751090Y-91917359D01*
X49538890Y-91772369D01*
X49287000Y-91721360D01*
X47487000Y-91721360D01*
X47251683Y-91765638D01*
X47035559Y-91904710D01*
X46896384Y-92108400D01*
X43133822Y-92108400D01*
X43133762Y-92108083D01*
X42994690Y-91891959D01*
X42782490Y-91746969D01*
X42530600Y-91695960D01*
X40730600Y-91695960D01*
X40495283Y-91740238D01*
X40279159Y-91879310D01*
X40134169Y-92091510D01*
X40130749Y-92108400D01*
X36250422Y-92108400D01*
X36250362Y-92108083D01*
X36111290Y-91891959D01*
X35899090Y-91746969D01*
X35647200Y-91695960D01*
X33847200Y-91695960D01*
X33611883Y-91740238D01*
X33395759Y-91879310D01*
X33250769Y-92091510D01*
X33247349Y-92108400D01*
X29595622Y-92108400D01*
X29595562Y-92108083D01*
X29456490Y-91891959D01*
X29244290Y-91746969D01*
X28992400Y-91695960D01*
X27192400Y-91695960D01*
X26957083Y-91740238D01*
X26740959Y-91879310D01*
X26595969Y-92091510D01*
X26592549Y-92108400D01*
X22739533Y-92108400D01*
X22649290Y-91968159D01*
X22437090Y-91823169D01*
X22185200Y-91772160D01*
X20385200Y-91772160D01*
X20149883Y-91816438D01*
X19933759Y-91955510D01*
X19788769Y-92167710D01*
X19737760Y-92419600D01*
X15315400Y-92419600D01*
X15315400Y-85430583D01*
X24420369Y-85430583D01*
X24623182Y-85921429D01*
X24998396Y-86297298D01*
X25488887Y-86500968D01*
X26019983Y-86501431D01*
X26510829Y-86298618D01*
X26886698Y-85923404D01*
X27090368Y-85432913D01*
X27090600Y-85166200D01*
X32014446Y-85166200D01*
X32116067Y-85677082D01*
X32405458Y-86110188D01*
X32838564Y-86399579D01*
X33349446Y-86501200D01*
X33401754Y-86501200D01*
X33912636Y-86399579D01*
X34345742Y-86110188D01*
X34635133Y-85677082D01*
X34736754Y-85166200D01*
X34635133Y-84655318D01*
X34345742Y-84222212D01*
X33912636Y-83932821D01*
X33401754Y-83831200D01*
X33349446Y-83831200D01*
X32838564Y-83932821D01*
X32405458Y-84222212D01*
X32116067Y-84655318D01*
X32014446Y-85166200D01*
X27090600Y-85166200D01*
X27090831Y-84901817D01*
X26888018Y-84410971D01*
X26512804Y-84035102D01*
X26022313Y-83831432D01*
X25491217Y-83830969D01*
X25000371Y-84033782D01*
X24624502Y-84408996D01*
X24420832Y-84899487D01*
X24420369Y-85430583D01*
X15315400Y-85430583D01*
X15315400Y-82271890D01*
X16821124Y-82271890D01*
X16990955Y-82681924D01*
X17381242Y-83110183D01*
X17905708Y-83356486D01*
X18135600Y-83235819D01*
X18135600Y-82042000D01*
X18389600Y-82042000D01*
X18389600Y-83235819D01*
X18619492Y-83356486D01*
X19143958Y-83110183D01*
X19534245Y-82681924D01*
X19704076Y-82271890D01*
X19582755Y-82042000D01*
X18389600Y-82042000D01*
X18135600Y-82042000D01*
X16942445Y-82042000D01*
X16821124Y-82271890D01*
X15315400Y-82271890D01*
X15315400Y-79731890D01*
X16821124Y-79731890D01*
X16990955Y-80141924D01*
X17381242Y-80570183D01*
X17540554Y-80645000D01*
X17381242Y-80719817D01*
X16990955Y-81148076D01*
X16821124Y-81558110D01*
X16942445Y-81788000D01*
X18135600Y-81788000D01*
X18135600Y-79502000D01*
X18389600Y-79502000D01*
X18389600Y-81788000D01*
X19582755Y-81788000D01*
X19704076Y-81558110D01*
X19534245Y-81148076D01*
X19143958Y-80719817D01*
X18984646Y-80645000D01*
X19143958Y-80570183D01*
X19534245Y-80141924D01*
X19704076Y-79731890D01*
X19582755Y-79502000D01*
X18389600Y-79502000D01*
X18135600Y-79502000D01*
X16942445Y-79502000D01*
X16821124Y-79731890D01*
X15315400Y-79731890D01*
X15315400Y-77120750D01*
X16777600Y-77120750D01*
X16777600Y-77811310D01*
X16874273Y-78044699D01*
X17052902Y-78223327D01*
X17262478Y-78310136D01*
X16990955Y-78608076D01*
X16821124Y-79018110D01*
X16942445Y-79248000D01*
X18135600Y-79248000D01*
X18135600Y-76962000D01*
X18389600Y-76962000D01*
X18389600Y-79248000D01*
X19582755Y-79248000D01*
X19704076Y-79018110D01*
X19534245Y-78608076D01*
X19262722Y-78310136D01*
X19472298Y-78223327D01*
X19650927Y-78044699D01*
X19747600Y-77811310D01*
X19747600Y-77120750D01*
X19722200Y-77095350D01*
X21680600Y-77095350D01*
X21680600Y-77835910D01*
X21777273Y-78069299D01*
X21955902Y-78247927D01*
X22189291Y-78344600D01*
X22929850Y-78344600D01*
X23088600Y-78185850D01*
X23088600Y-76936600D01*
X21839350Y-76936600D01*
X21680600Y-77095350D01*
X19722200Y-77095350D01*
X19588850Y-76962000D01*
X18389600Y-76962000D01*
X18135600Y-76962000D01*
X16936350Y-76962000D01*
X16777600Y-77120750D01*
X15315400Y-77120750D01*
X15315400Y-75858690D01*
X16777600Y-75858690D01*
X16777600Y-76549250D01*
X16936350Y-76708000D01*
X18135600Y-76708000D01*
X18135600Y-75508750D01*
X18389600Y-75508750D01*
X18389600Y-76708000D01*
X19588850Y-76708000D01*
X19747600Y-76549250D01*
X19747600Y-75858690D01*
X19716369Y-75783290D01*
X21680600Y-75783290D01*
X21680600Y-76523850D01*
X21839350Y-76682600D01*
X23088600Y-76682600D01*
X23088600Y-75433350D01*
X23342600Y-75433350D01*
X23342600Y-76682600D01*
X23362600Y-76682600D01*
X23362600Y-76936600D01*
X23342600Y-76936600D01*
X23342600Y-78185850D01*
X23501350Y-78344600D01*
X24241909Y-78344600D01*
X24475298Y-78247927D01*
X24653927Y-78069299D01*
X24709719Y-77934606D01*
X24884957Y-78110151D01*
X25448930Y-78344333D01*
X26059591Y-78344865D01*
X26623971Y-78111668D01*
X27056151Y-77680243D01*
X27290333Y-77116270D01*
X27290865Y-76505609D01*
X27057668Y-75941229D01*
X26626243Y-75509049D01*
X26062270Y-75274867D01*
X25451609Y-75274335D01*
X24887229Y-75507532D01*
X24709759Y-75684692D01*
X24653927Y-75549901D01*
X24475298Y-75371273D01*
X24241909Y-75274600D01*
X23501350Y-75274600D01*
X23342600Y-75433350D01*
X23088600Y-75433350D01*
X22929850Y-75274600D01*
X22189291Y-75274600D01*
X21955902Y-75371273D01*
X21777273Y-75549901D01*
X21680600Y-75783290D01*
X19716369Y-75783290D01*
X19650927Y-75625301D01*
X19472298Y-75446673D01*
X19238909Y-75350000D01*
X18548350Y-75350000D01*
X18389600Y-75508750D01*
X18135600Y-75508750D01*
X17976850Y-75350000D01*
X17286291Y-75350000D01*
X17052902Y-75446673D01*
X16874273Y-75625301D01*
X16777600Y-75858690D01*
X15315400Y-75858690D01*
X15315400Y-66097150D01*
X70188200Y-66097150D01*
X70188200Y-66437710D01*
X70284873Y-66671099D01*
X70463502Y-66849727D01*
X70696891Y-66946400D01*
X71037450Y-66946400D01*
X71196200Y-66787650D01*
X71196200Y-65938400D01*
X71450200Y-65938400D01*
X71450200Y-66787650D01*
X71608950Y-66946400D01*
X71949509Y-66946400D01*
X72182898Y-66849727D01*
X72361527Y-66671099D01*
X72458200Y-66437710D01*
X72458200Y-66097150D01*
X72299450Y-65938400D01*
X71450200Y-65938400D01*
X71196200Y-65938400D01*
X70346950Y-65938400D01*
X70188200Y-66097150D01*
X15315400Y-66097150D01*
X15315400Y-61389061D01*
X15696958Y-61389061D01*
X15909190Y-61902703D01*
X16301830Y-62296029D01*
X16815100Y-62509157D01*
X17370861Y-62509642D01*
X17884503Y-62297410D01*
X18277829Y-61904770D01*
X18490957Y-61391500D01*
X18491019Y-61320713D01*
X18724732Y-61087000D01*
X27594307Y-61087000D01*
X27707346Y-61655285D01*
X28029253Y-62137054D01*
X28511022Y-62458961D01*
X29079307Y-62572000D01*
X29137493Y-62572000D01*
X29705778Y-62458961D01*
X30187547Y-62137054D01*
X30378400Y-61851422D01*
X30569253Y-62137054D01*
X31051022Y-62458961D01*
X31619307Y-62572000D01*
X31677493Y-62572000D01*
X32245778Y-62458961D01*
X32727547Y-62137054D01*
X33049454Y-61655285D01*
X33102409Y-61389061D01*
X43636958Y-61389061D01*
X43849190Y-61902703D01*
X44241830Y-62296029D01*
X44755100Y-62509157D01*
X45310861Y-62509642D01*
X45824503Y-62297410D01*
X46217829Y-61904770D01*
X46430957Y-61391500D01*
X46431442Y-60835739D01*
X46219210Y-60322097D01*
X45826570Y-59928771D01*
X45634473Y-59849005D01*
X45765343Y-59794797D01*
X45834808Y-59552613D01*
X45034200Y-58752005D01*
X44233592Y-59552613D01*
X44303057Y-59794797D01*
X44443518Y-59844909D01*
X44243897Y-59927390D01*
X43850571Y-60320030D01*
X43637443Y-60833300D01*
X43636958Y-61389061D01*
X33102409Y-61389061D01*
X33162493Y-61087000D01*
X33049454Y-60518715D01*
X32727547Y-60036946D01*
X32386847Y-59809298D01*
X32529758Y-59742183D01*
X32920045Y-59313924D01*
X33089876Y-58903890D01*
X32968555Y-58674000D01*
X31775400Y-58674000D01*
X31775400Y-58694000D01*
X31521400Y-58694000D01*
X31521400Y-58674000D01*
X29235400Y-58674000D01*
X29235400Y-58694000D01*
X28981400Y-58694000D01*
X28981400Y-58674000D01*
X27788245Y-58674000D01*
X27666924Y-58903890D01*
X27836755Y-59313924D01*
X28227042Y-59742183D01*
X28369953Y-59809298D01*
X28029253Y-60036946D01*
X27707346Y-60518715D01*
X27594307Y-61087000D01*
X18724732Y-61087000D01*
X24043566Y-55768166D01*
X24194819Y-55541800D01*
X24289603Y-55399946D01*
X24376000Y-54965600D01*
X24376000Y-28067000D01*
X27594307Y-28067000D01*
X27707346Y-28635285D01*
X28029253Y-29117054D01*
X28358426Y-29337000D01*
X28029253Y-29556946D01*
X27707346Y-30038715D01*
X27594307Y-30607000D01*
X27707346Y-31175285D01*
X28029253Y-31657054D01*
X28358426Y-31877000D01*
X28029253Y-32096946D01*
X27707346Y-32578715D01*
X27594307Y-33147000D01*
X27707346Y-33715285D01*
X28029253Y-34197054D01*
X28358426Y-34417000D01*
X28029253Y-34636946D01*
X27707346Y-35118715D01*
X27594307Y-35687000D01*
X27707346Y-36255285D01*
X28029253Y-36737054D01*
X28358426Y-36957000D01*
X28029253Y-37176946D01*
X27707346Y-37658715D01*
X27594307Y-38227000D01*
X27707346Y-38795285D01*
X28029253Y-39277054D01*
X28358426Y-39497000D01*
X28029253Y-39716946D01*
X27707346Y-40198715D01*
X27594307Y-40767000D01*
X27707346Y-41335285D01*
X28029253Y-41817054D01*
X28358426Y-42037000D01*
X28029253Y-42256946D01*
X27707346Y-42738715D01*
X27594307Y-43307000D01*
X27707346Y-43875285D01*
X28029253Y-44357054D01*
X28358426Y-44577000D01*
X28029253Y-44796946D01*
X27707346Y-45278715D01*
X27594307Y-45847000D01*
X27707346Y-46415285D01*
X28029253Y-46897054D01*
X28369953Y-47124702D01*
X28227042Y-47191817D01*
X27836755Y-47620076D01*
X27666924Y-48030110D01*
X27788245Y-48260000D01*
X28981400Y-48260000D01*
X28981400Y-48240000D01*
X29235400Y-48240000D01*
X29235400Y-48260000D01*
X29255400Y-48260000D01*
X29255400Y-48514000D01*
X29235400Y-48514000D01*
X29235400Y-48534000D01*
X28981400Y-48534000D01*
X28981400Y-48514000D01*
X27788245Y-48514000D01*
X27666924Y-48743890D01*
X27836755Y-49153924D01*
X28227042Y-49582183D01*
X28369953Y-49649298D01*
X28029253Y-49876946D01*
X27707346Y-50358715D01*
X27594307Y-50927000D01*
X27707346Y-51495285D01*
X28029253Y-51977054D01*
X28358426Y-52197000D01*
X28029253Y-52416946D01*
X27707346Y-52898715D01*
X27594307Y-53467000D01*
X27707346Y-54035285D01*
X28029253Y-54517054D01*
X28358426Y-54737000D01*
X28029253Y-54956946D01*
X27707346Y-55438715D01*
X27594307Y-56007000D01*
X27707346Y-56575285D01*
X28029253Y-57057054D01*
X28369953Y-57284702D01*
X28227042Y-57351817D01*
X27836755Y-57780076D01*
X27666924Y-58190110D01*
X27788245Y-58420000D01*
X28981400Y-58420000D01*
X28981400Y-58400000D01*
X29235400Y-58400000D01*
X29235400Y-58420000D01*
X31521400Y-58420000D01*
X31521400Y-58400000D01*
X31775400Y-58400000D01*
X31775400Y-58420000D01*
X32968555Y-58420000D01*
X32997737Y-58364702D01*
X43625056Y-58364702D01*
X43652838Y-58919768D01*
X43811803Y-59303543D01*
X44053987Y-59373008D01*
X44854595Y-58572400D01*
X45213805Y-58572400D01*
X46014413Y-59373008D01*
X46256597Y-59303543D01*
X46443344Y-58780098D01*
X46415562Y-58225032D01*
X46256597Y-57841257D01*
X46014413Y-57771792D01*
X45213805Y-58572400D01*
X44854595Y-58572400D01*
X44053987Y-57771792D01*
X43811803Y-57841257D01*
X43625056Y-58364702D01*
X32997737Y-58364702D01*
X33089876Y-58190110D01*
X32920045Y-57780076D01*
X32529758Y-57351817D01*
X32386847Y-57284702D01*
X32727547Y-57057054D01*
X33049454Y-56575285D01*
X33162493Y-56007000D01*
X33049454Y-55438715D01*
X32727547Y-54956946D01*
X32398374Y-54737000D01*
X32727547Y-54517054D01*
X33049454Y-54035285D01*
X33162493Y-53467000D01*
X33049454Y-52898715D01*
X32727547Y-52416946D01*
X32398374Y-52197000D01*
X32727547Y-51977054D01*
X33049454Y-51495285D01*
X33162493Y-50927000D01*
X33049454Y-50358715D01*
X32727547Y-49876946D01*
X32398374Y-49657000D01*
X32727547Y-49437054D01*
X33049454Y-48955285D01*
X33162493Y-48387000D01*
X33049454Y-47818715D01*
X32727547Y-47336946D01*
X32398374Y-47117000D01*
X32727547Y-46897054D01*
X33049454Y-46415285D01*
X33162493Y-45847000D01*
X33049454Y-45278715D01*
X32727547Y-44796946D01*
X32398374Y-44577000D01*
X32727547Y-44357054D01*
X33049454Y-43875285D01*
X33162493Y-43307000D01*
X33049454Y-42738715D01*
X32727547Y-42256946D01*
X32386847Y-42029298D01*
X32529758Y-41962183D01*
X32920045Y-41533924D01*
X33089876Y-41123890D01*
X32968555Y-40894000D01*
X31775400Y-40894000D01*
X31775400Y-40914000D01*
X31521400Y-40914000D01*
X31521400Y-40894000D01*
X31501400Y-40894000D01*
X31501400Y-40640000D01*
X31521400Y-40640000D01*
X31521400Y-40620000D01*
X31775400Y-40620000D01*
X31775400Y-40640000D01*
X32968555Y-40640000D01*
X32997737Y-40584702D01*
X43625056Y-40584702D01*
X43652838Y-41139768D01*
X43811803Y-41523543D01*
X44053987Y-41593008D01*
X44854595Y-40792400D01*
X45213805Y-40792400D01*
X46014413Y-41593008D01*
X46256597Y-41523543D01*
X46443344Y-41000098D01*
X46415562Y-40445032D01*
X46256597Y-40061257D01*
X46014413Y-39991792D01*
X45213805Y-40792400D01*
X44854595Y-40792400D01*
X44053987Y-39991792D01*
X43811803Y-40061257D01*
X43625056Y-40584702D01*
X32997737Y-40584702D01*
X33089876Y-40410110D01*
X32920045Y-40000076D01*
X32529758Y-39571817D01*
X32386847Y-39504702D01*
X32727547Y-39277054D01*
X33049454Y-38795285D01*
X33162493Y-38227000D01*
X33049454Y-37658715D01*
X32727547Y-37176946D01*
X32398374Y-36957000D01*
X32727547Y-36737054D01*
X33049454Y-36255285D01*
X33162493Y-35687000D01*
X33049454Y-35118715D01*
X32727547Y-34636946D01*
X32398374Y-34417000D01*
X32727547Y-34197054D01*
X33049454Y-33715285D01*
X33162493Y-33147000D01*
X33049454Y-32578715D01*
X32727547Y-32096946D01*
X32398374Y-31877000D01*
X32727547Y-31657054D01*
X33049454Y-31175285D01*
X33162493Y-30607000D01*
X33049454Y-30038715D01*
X32727547Y-29556946D01*
X32398374Y-29337000D01*
X32727547Y-29117054D01*
X33049454Y-28635285D01*
X33162493Y-28067000D01*
X33049454Y-27498715D01*
X32727547Y-27016946D01*
X32398374Y-26797000D01*
X32727547Y-26577054D01*
X33049454Y-26095285D01*
X33162493Y-25527000D01*
X33049454Y-24958715D01*
X32727547Y-24476946D01*
X32512416Y-24333200D01*
X38006400Y-24333200D01*
X38006400Y-32359600D01*
X38092797Y-32793946D01*
X38302255Y-33107421D01*
X38338834Y-33162166D01*
X43637018Y-38460350D01*
X43636958Y-38529061D01*
X43849190Y-39042703D01*
X44241830Y-39436029D01*
X44433927Y-39515795D01*
X44303057Y-39570003D01*
X44233592Y-39812187D01*
X45034200Y-40612795D01*
X45834808Y-39812187D01*
X45765343Y-39570003D01*
X45624882Y-39519891D01*
X45824503Y-39437410D01*
X46217829Y-39044770D01*
X46377326Y-38660658D01*
X53983000Y-46266332D01*
X53983000Y-46510468D01*
X50002366Y-42529834D01*
X49964352Y-42504434D01*
X49634146Y-42283797D01*
X49199800Y-42197400D01*
X45875114Y-42197400D01*
X45826570Y-42148771D01*
X45634473Y-42069005D01*
X45765343Y-42014797D01*
X45834808Y-41772613D01*
X45034200Y-40972005D01*
X44233592Y-41772613D01*
X44303057Y-42014797D01*
X44443518Y-42064909D01*
X44243897Y-42147390D01*
X43850571Y-42540030D01*
X43637443Y-43053300D01*
X43636958Y-43609061D01*
X43849190Y-44122703D01*
X44241830Y-44516029D01*
X44449712Y-44602349D01*
X44243897Y-44687390D01*
X43850571Y-45080030D01*
X43637443Y-45593300D01*
X43636958Y-46149061D01*
X43849190Y-46662703D01*
X44241830Y-47056029D01*
X44449712Y-47142349D01*
X44243897Y-47227390D01*
X43850571Y-47620030D01*
X43637443Y-48133300D01*
X43636958Y-48689061D01*
X43849190Y-49202703D01*
X44241830Y-49596029D01*
X44449712Y-49682349D01*
X44243897Y-49767390D01*
X43850571Y-50160030D01*
X43637443Y-50673300D01*
X43636958Y-51229061D01*
X43849190Y-51742703D01*
X44241830Y-52136029D01*
X44449712Y-52222349D01*
X44243897Y-52307390D01*
X43850571Y-52700030D01*
X43637443Y-53213300D01*
X43636958Y-53769061D01*
X43849190Y-54282703D01*
X44241830Y-54676029D01*
X44449712Y-54762349D01*
X44243897Y-54847390D01*
X43850571Y-55240030D01*
X43637443Y-55753300D01*
X43636958Y-56309061D01*
X43849190Y-56822703D01*
X44241830Y-57216029D01*
X44433927Y-57295795D01*
X44303057Y-57350003D01*
X44233592Y-57592187D01*
X45034200Y-58392795D01*
X45834808Y-57592187D01*
X45765343Y-57350003D01*
X45624882Y-57299891D01*
X45824503Y-57217410D01*
X46217829Y-56824770D01*
X46430957Y-56311500D01*
X46431442Y-55755739D01*
X46219210Y-55242097D01*
X45826570Y-54848771D01*
X45618688Y-54762451D01*
X45824503Y-54677410D01*
X46217829Y-54284770D01*
X46430957Y-53771500D01*
X46431442Y-53215739D01*
X46219210Y-52702097D01*
X45826570Y-52308771D01*
X45618688Y-52222451D01*
X45824503Y-52137410D01*
X46217829Y-51744770D01*
X46430957Y-51231500D01*
X46431442Y-50675739D01*
X46219210Y-50162097D01*
X45826570Y-49768771D01*
X45618688Y-49682451D01*
X45824503Y-49597410D01*
X46217829Y-49204770D01*
X46430957Y-48691500D01*
X46431442Y-48135739D01*
X46219210Y-47622097D01*
X45826570Y-47228771D01*
X45618688Y-47142451D01*
X45824503Y-47057410D01*
X46217829Y-46664770D01*
X46430957Y-46151500D01*
X46431442Y-45595739D01*
X46219210Y-45082097D01*
X45826570Y-44688771D01*
X45618688Y-44602451D01*
X45824503Y-44517410D01*
X45874600Y-44467400D01*
X48729668Y-44467400D01*
X52484400Y-48222132D01*
X52484400Y-52011369D01*
X52460690Y-51995169D01*
X52208800Y-51944160D01*
X50508800Y-51944160D01*
X50273483Y-51988438D01*
X50057359Y-52127510D01*
X49912369Y-52339710D01*
X49861360Y-52591600D01*
X49861360Y-54291600D01*
X49905638Y-54526917D01*
X50044710Y-54743041D01*
X50256910Y-54888031D01*
X50324341Y-54901686D01*
X50279653Y-54931546D01*
X49957746Y-55413315D01*
X49844707Y-55981600D01*
X49957746Y-56549885D01*
X50279653Y-57031654D01*
X50761422Y-57353561D01*
X51329707Y-57466600D01*
X51387893Y-57466600D01*
X51956178Y-57353561D01*
X52437947Y-57031654D01*
X52484400Y-56962132D01*
X52484400Y-60121800D01*
X52570797Y-60556146D01*
X52754085Y-60830455D01*
X52816834Y-60924366D01*
X56107663Y-64215195D01*
X56030146Y-64604900D01*
X56131767Y-65115782D01*
X56421158Y-65548888D01*
X56854264Y-65838279D01*
X57365146Y-65939900D01*
X57417454Y-65939900D01*
X57928336Y-65838279D01*
X58361442Y-65548888D01*
X58650833Y-65115782D01*
X58699864Y-64869283D01*
X63676069Y-64869283D01*
X63878882Y-65360129D01*
X64254096Y-65735998D01*
X64744587Y-65939668D01*
X65275683Y-65940131D01*
X65766529Y-65737318D01*
X66142398Y-65362104D01*
X66346068Y-64871613D01*
X66346159Y-64766175D01*
X68918003Y-64766175D01*
X69090433Y-65183486D01*
X69409435Y-65503045D01*
X69826444Y-65676203D01*
X70277975Y-65676597D01*
X70321261Y-65658711D01*
X70346950Y-65684400D01*
X71196200Y-65684400D01*
X71196200Y-64835150D01*
X71450200Y-64835150D01*
X71450200Y-65684400D01*
X72299450Y-65684400D01*
X72458200Y-65525650D01*
X72458200Y-65185090D01*
X72361527Y-64951701D01*
X72182898Y-64773073D01*
X71949509Y-64676400D01*
X71608950Y-64676400D01*
X71450200Y-64835150D01*
X71196200Y-64835150D01*
X71170752Y-64809702D01*
X71188003Y-64768156D01*
X71188319Y-64406283D01*
X71547975Y-64406597D01*
X71965286Y-64234167D01*
X72284845Y-63915165D01*
X72458003Y-63498156D01*
X72458397Y-63046625D01*
X72285967Y-62629314D01*
X71966965Y-62309755D01*
X71549956Y-62136597D01*
X71098425Y-62136203D01*
X70681114Y-62308633D01*
X70361555Y-62627635D01*
X70188397Y-63044644D01*
X70188081Y-63406517D01*
X69828425Y-63406203D01*
X69411114Y-63578633D01*
X69091555Y-63897635D01*
X68918397Y-64314644D01*
X68918003Y-64766175D01*
X66346159Y-64766175D01*
X66346531Y-64340517D01*
X66143718Y-63849671D01*
X65768504Y-63473802D01*
X65278013Y-63270132D01*
X64746917Y-63269669D01*
X64256071Y-63472482D01*
X63880202Y-63847696D01*
X63676532Y-64338187D01*
X63676069Y-64869283D01*
X58699864Y-64869283D01*
X58752454Y-64604900D01*
X58650833Y-64094018D01*
X58524163Y-63904442D01*
X58526300Y-63893700D01*
X58439903Y-63459355D01*
X58193866Y-63091134D01*
X55738882Y-60636150D01*
X70264400Y-60636150D01*
X70264400Y-60976710D01*
X70361073Y-61210099D01*
X70539702Y-61388727D01*
X70773091Y-61485400D01*
X71113650Y-61485400D01*
X71272400Y-61326650D01*
X71272400Y-60477400D01*
X71526400Y-60477400D01*
X71526400Y-61326650D01*
X71685150Y-61485400D01*
X72025709Y-61485400D01*
X72259098Y-61388727D01*
X72437727Y-61210099D01*
X72534400Y-60976710D01*
X72534400Y-60636150D01*
X72375650Y-60477400D01*
X71526400Y-60477400D01*
X71272400Y-60477400D01*
X70423150Y-60477400D01*
X70264400Y-60636150D01*
X55738882Y-60636150D01*
X54754400Y-59651668D01*
X54754400Y-55648332D01*
X56205500Y-57099432D01*
X56205500Y-58421240D01*
X56080967Y-58607618D01*
X55979346Y-59118500D01*
X56080967Y-59629382D01*
X56370358Y-60062488D01*
X56803464Y-60351879D01*
X57314346Y-60453500D01*
X57366654Y-60453500D01*
X57877536Y-60351879D01*
X58310642Y-60062488D01*
X58600033Y-59629382D01*
X58649064Y-59382883D01*
X63625269Y-59382883D01*
X63828082Y-59873729D01*
X64203296Y-60249598D01*
X64693787Y-60453268D01*
X65224883Y-60453731D01*
X65715729Y-60250918D01*
X66091598Y-59875704D01*
X66295268Y-59385213D01*
X66295337Y-59305175D01*
X68994203Y-59305175D01*
X69166633Y-59722486D01*
X69485635Y-60042045D01*
X69902644Y-60215203D01*
X70354175Y-60215597D01*
X70397461Y-60197711D01*
X70423150Y-60223400D01*
X71272400Y-60223400D01*
X71272400Y-59374150D01*
X71526400Y-59374150D01*
X71526400Y-60223400D01*
X72375650Y-60223400D01*
X72534400Y-60064650D01*
X72534400Y-59724090D01*
X72437727Y-59490701D01*
X72259098Y-59312073D01*
X72025709Y-59215400D01*
X71685150Y-59215400D01*
X71526400Y-59374150D01*
X71272400Y-59374150D01*
X71246952Y-59348702D01*
X71264203Y-59307156D01*
X71264519Y-58945283D01*
X71624175Y-58945597D01*
X72041486Y-58773167D01*
X72361045Y-58454165D01*
X72534203Y-58037156D01*
X72534597Y-57585625D01*
X72362167Y-57168314D01*
X72043165Y-56848755D01*
X71626156Y-56675597D01*
X71174625Y-56675203D01*
X70757314Y-56847633D01*
X70437755Y-57166635D01*
X70264597Y-57583644D01*
X70264281Y-57945517D01*
X69904625Y-57945203D01*
X69487314Y-58117633D01*
X69167755Y-58436635D01*
X68994597Y-58853644D01*
X68994203Y-59305175D01*
X66295337Y-59305175D01*
X66295731Y-58854117D01*
X66092918Y-58363271D01*
X65717704Y-57987402D01*
X65227213Y-57783732D01*
X64696117Y-57783269D01*
X64205271Y-57986082D01*
X63829402Y-58361296D01*
X63625732Y-58851787D01*
X63625269Y-59382883D01*
X58649064Y-59382883D01*
X58701654Y-59118500D01*
X58600033Y-58607618D01*
X58475500Y-58421240D01*
X58475500Y-56629300D01*
X58459703Y-56549885D01*
X58389104Y-56194955D01*
X58143066Y-55826734D01*
X57389882Y-55073550D01*
X70188200Y-55073550D01*
X70188200Y-55414110D01*
X70284873Y-55647499D01*
X70463502Y-55826127D01*
X70696891Y-55922800D01*
X71037450Y-55922800D01*
X71196200Y-55764050D01*
X71196200Y-54914800D01*
X71450200Y-54914800D01*
X71450200Y-55764050D01*
X71608950Y-55922800D01*
X71949509Y-55922800D01*
X72182898Y-55826127D01*
X72361527Y-55647499D01*
X72458200Y-55414110D01*
X72458200Y-55073550D01*
X72299450Y-54914800D01*
X71450200Y-54914800D01*
X71196200Y-54914800D01*
X70346950Y-54914800D01*
X70188200Y-55073550D01*
X57389882Y-55073550D01*
X57074869Y-54758537D01*
X57082864Y-54763879D01*
X57593746Y-54865500D01*
X57646054Y-54865500D01*
X58156936Y-54763879D01*
X58590042Y-54474488D01*
X58879433Y-54041382D01*
X58928464Y-53794883D01*
X63904669Y-53794883D01*
X64107482Y-54285729D01*
X64482696Y-54661598D01*
X64973187Y-54865268D01*
X65504283Y-54865731D01*
X65995129Y-54662918D01*
X66370998Y-54287704D01*
X66574668Y-53797213D01*
X66574715Y-53742575D01*
X68918003Y-53742575D01*
X69090433Y-54159886D01*
X69409435Y-54479445D01*
X69826444Y-54652603D01*
X70277975Y-54652997D01*
X70321261Y-54635111D01*
X70346950Y-54660800D01*
X71196200Y-54660800D01*
X71196200Y-53811550D01*
X71450200Y-53811550D01*
X71450200Y-54660800D01*
X72299450Y-54660800D01*
X72458200Y-54502050D01*
X72458200Y-54161490D01*
X72361527Y-53928101D01*
X72182898Y-53749473D01*
X71949509Y-53652800D01*
X71608950Y-53652800D01*
X71450200Y-53811550D01*
X71196200Y-53811550D01*
X71170752Y-53786102D01*
X71188003Y-53744556D01*
X71188319Y-53382683D01*
X71547975Y-53382997D01*
X71965286Y-53210567D01*
X72284845Y-52891565D01*
X72458003Y-52474556D01*
X72458397Y-52023025D01*
X72285967Y-51605714D01*
X71966965Y-51286155D01*
X71549956Y-51112997D01*
X71098425Y-51112603D01*
X70681114Y-51285033D01*
X70361555Y-51604035D01*
X70188397Y-52021044D01*
X70188081Y-52382917D01*
X69828425Y-52382603D01*
X69411114Y-52555033D01*
X69091555Y-52874035D01*
X68918397Y-53291044D01*
X68918003Y-53742575D01*
X66574715Y-53742575D01*
X66575131Y-53266117D01*
X66372318Y-52775271D01*
X65997104Y-52399402D01*
X65506613Y-52195732D01*
X64975517Y-52195269D01*
X64484671Y-52398082D01*
X64108802Y-52773296D01*
X63905132Y-53263787D01*
X63904669Y-53794883D01*
X58928464Y-53794883D01*
X58981054Y-53530500D01*
X58879433Y-53019618D01*
X58754900Y-52833240D01*
X58754900Y-45758100D01*
X58738058Y-45673431D01*
X58668504Y-45323755D01*
X58422466Y-44955534D01*
X56773932Y-43307000D01*
X63843679Y-43307000D01*
X63969354Y-43938810D01*
X64327246Y-44474433D01*
X64480748Y-44577000D01*
X64327246Y-44679567D01*
X63969354Y-45215190D01*
X63843679Y-45847000D01*
X63969354Y-46478810D01*
X64327246Y-47014433D01*
X64862869Y-47372325D01*
X65494679Y-47498000D01*
X66077321Y-47498000D01*
X66709131Y-47372325D01*
X66961671Y-47203583D01*
X68717969Y-47203583D01*
X68920782Y-47694429D01*
X69295996Y-48070298D01*
X69786487Y-48273968D01*
X70317583Y-48274431D01*
X70808429Y-48071618D01*
X71184298Y-47696404D01*
X71387968Y-47205913D01*
X71388431Y-46674817D01*
X71185618Y-46183971D01*
X70810404Y-45808102D01*
X70319913Y-45604432D01*
X69788817Y-45603969D01*
X69297971Y-45806782D01*
X68922102Y-46181996D01*
X68718432Y-46672487D01*
X68717969Y-47203583D01*
X66961671Y-47203583D01*
X67244754Y-47014433D01*
X67602646Y-46478810D01*
X67728321Y-45847000D01*
X67602646Y-45215190D01*
X67244754Y-44679567D01*
X67091252Y-44577000D01*
X67244754Y-44474433D01*
X67602646Y-43938810D01*
X67728321Y-43307000D01*
X67602646Y-42675190D01*
X67244754Y-42139567D01*
X67070219Y-42022946D01*
X67297236Y-41844630D01*
X67613926Y-41281477D01*
X67645975Y-41149944D01*
X67526836Y-40894000D01*
X65913000Y-40894000D01*
X65913000Y-40914000D01*
X65659000Y-40914000D01*
X65659000Y-40894000D01*
X64045164Y-40894000D01*
X63926025Y-41149944D01*
X63958074Y-41281477D01*
X64274764Y-41844630D01*
X64501781Y-42022946D01*
X64327246Y-42139567D01*
X63969354Y-42675190D01*
X63843679Y-43307000D01*
X56773932Y-43307000D01*
X53850988Y-40384056D01*
X63926025Y-40384056D01*
X64045164Y-40640000D01*
X65659000Y-40640000D01*
X65659000Y-39116000D01*
X65913000Y-39116000D01*
X65913000Y-40640000D01*
X67526836Y-40640000D01*
X67645975Y-40384056D01*
X67613926Y-40252523D01*
X67297236Y-39689370D01*
X67250336Y-39652531D01*
X68760473Y-39652531D01*
X68986436Y-40121863D01*
X69374804Y-40468997D01*
X69719871Y-40611916D01*
X69926200Y-40488574D01*
X69926200Y-39446200D01*
X70180200Y-39446200D01*
X70180200Y-40488574D01*
X70386529Y-40611916D01*
X70731596Y-40468997D01*
X71119964Y-40121863D01*
X71345927Y-39652531D01*
X71223406Y-39446200D01*
X70180200Y-39446200D01*
X69926200Y-39446200D01*
X68882994Y-39446200D01*
X68760473Y-39652531D01*
X67250336Y-39652531D01*
X66789143Y-39290276D01*
X66167000Y-39116000D01*
X65913000Y-39116000D01*
X65659000Y-39116000D01*
X65405000Y-39116000D01*
X64782857Y-39290276D01*
X64274764Y-39689370D01*
X63958074Y-40252523D01*
X63926025Y-40384056D01*
X53850988Y-40384056D01*
X52452801Y-38985869D01*
X68760473Y-38985869D01*
X68882994Y-39192200D01*
X69926200Y-39192200D01*
X69926200Y-38149826D01*
X70180200Y-38149826D01*
X70180200Y-39192200D01*
X71223406Y-39192200D01*
X71345927Y-38985869D01*
X71119964Y-38516537D01*
X70731596Y-38169403D01*
X70386529Y-38026484D01*
X70180200Y-38149826D01*
X69926200Y-38149826D01*
X69719871Y-38026484D01*
X69374804Y-38169403D01*
X68986436Y-38516537D01*
X68760473Y-38985869D01*
X52452801Y-38985869D01*
X49363482Y-35896550D01*
X70239000Y-35896550D01*
X70239000Y-36237110D01*
X70335673Y-36470499D01*
X70514302Y-36649127D01*
X70747691Y-36745800D01*
X71088250Y-36745800D01*
X71247000Y-36587050D01*
X71247000Y-35737800D01*
X71501000Y-35737800D01*
X71501000Y-36587050D01*
X71659750Y-36745800D01*
X72000309Y-36745800D01*
X72233698Y-36649127D01*
X72412327Y-36470499D01*
X72509000Y-36237110D01*
X72509000Y-35896550D01*
X72350250Y-35737800D01*
X71501000Y-35737800D01*
X71247000Y-35737800D01*
X70397750Y-35737800D01*
X70239000Y-35896550D01*
X49363482Y-35896550D01*
X47807732Y-34340800D01*
X54417246Y-34340800D01*
X54518867Y-34851682D01*
X54808258Y-35284788D01*
X55241364Y-35574179D01*
X55752246Y-35675800D01*
X55804554Y-35675800D01*
X56315436Y-35574179D01*
X56748542Y-35284788D01*
X57037933Y-34851682D01*
X57086964Y-34605183D01*
X62063169Y-34605183D01*
X62265982Y-35096029D01*
X62641196Y-35471898D01*
X63131687Y-35675568D01*
X63662783Y-35676031D01*
X64153629Y-35473218D01*
X64529498Y-35098004D01*
X64733168Y-34607513D01*
X64733204Y-34565575D01*
X68968803Y-34565575D01*
X69141233Y-34982886D01*
X69460235Y-35302445D01*
X69877244Y-35475603D01*
X70328775Y-35475997D01*
X70372061Y-35458111D01*
X70397750Y-35483800D01*
X71247000Y-35483800D01*
X71247000Y-34634550D01*
X71501000Y-34634550D01*
X71501000Y-35483800D01*
X72350250Y-35483800D01*
X72509000Y-35325050D01*
X72509000Y-34984490D01*
X72412327Y-34751101D01*
X72233698Y-34572473D01*
X72000309Y-34475800D01*
X71659750Y-34475800D01*
X71501000Y-34634550D01*
X71247000Y-34634550D01*
X71221552Y-34609102D01*
X71238803Y-34567556D01*
X71239119Y-34205683D01*
X71598775Y-34205997D01*
X72016086Y-34033567D01*
X72335645Y-33714565D01*
X72508803Y-33297556D01*
X72509197Y-32846025D01*
X72336767Y-32428714D01*
X72017765Y-32109155D01*
X71600756Y-31935997D01*
X71149225Y-31935603D01*
X70731914Y-32108033D01*
X70412355Y-32427035D01*
X70239197Y-32844044D01*
X70238881Y-33205917D01*
X69879225Y-33205603D01*
X69461914Y-33378033D01*
X69142355Y-33697035D01*
X68969197Y-34114044D01*
X68968803Y-34565575D01*
X64733204Y-34565575D01*
X64733631Y-34076417D01*
X64530818Y-33585571D01*
X64155604Y-33209702D01*
X63665113Y-33006032D01*
X63134017Y-33005569D01*
X62643171Y-33208382D01*
X62267302Y-33583596D01*
X62063632Y-34074087D01*
X62063169Y-34605183D01*
X57086964Y-34605183D01*
X57139554Y-34340800D01*
X57037933Y-33829918D01*
X56748542Y-33396812D01*
X56315436Y-33107421D01*
X55804554Y-33005800D01*
X55752246Y-33005800D01*
X55241364Y-33107421D01*
X54808258Y-33396812D01*
X54518867Y-33829918D01*
X54417246Y-34340800D01*
X47807732Y-34340800D01*
X46431382Y-32964450D01*
X46431442Y-32895739D01*
X46219210Y-32382097D01*
X45826570Y-31988771D01*
X45618688Y-31902451D01*
X45824503Y-31817410D01*
X46217829Y-31424770D01*
X46430957Y-30911500D01*
X46431442Y-30355739D01*
X46411944Y-30308550D01*
X70264400Y-30308550D01*
X70264400Y-30649110D01*
X70361073Y-30882499D01*
X70539702Y-31061127D01*
X70773091Y-31157800D01*
X71113650Y-31157800D01*
X71272400Y-30999050D01*
X71272400Y-30149800D01*
X71526400Y-30149800D01*
X71526400Y-30999050D01*
X71685150Y-31157800D01*
X72025709Y-31157800D01*
X72259098Y-31061127D01*
X72437727Y-30882499D01*
X72534400Y-30649110D01*
X72534400Y-30308550D01*
X72375650Y-30149800D01*
X71526400Y-30149800D01*
X71272400Y-30149800D01*
X70423150Y-30149800D01*
X70264400Y-30308550D01*
X46411944Y-30308550D01*
X46219210Y-29842097D01*
X45826570Y-29448771D01*
X45618688Y-29362451D01*
X45824503Y-29277410D01*
X46217829Y-28884770D01*
X46251533Y-28803600D01*
X54442646Y-28803600D01*
X54544267Y-29314482D01*
X54833658Y-29747588D01*
X55266764Y-30036979D01*
X55777646Y-30138600D01*
X55829954Y-30138600D01*
X56340836Y-30036979D01*
X56773942Y-29747588D01*
X57063333Y-29314482D01*
X57112364Y-29067983D01*
X62088569Y-29067983D01*
X62291382Y-29558829D01*
X62666596Y-29934698D01*
X63157087Y-30138368D01*
X63688183Y-30138831D01*
X64179029Y-29936018D01*
X64554898Y-29560804D01*
X64758568Y-29070313D01*
X64758648Y-28977575D01*
X68994203Y-28977575D01*
X69166633Y-29394886D01*
X69485635Y-29714445D01*
X69902644Y-29887603D01*
X70354175Y-29887997D01*
X70397461Y-29870111D01*
X70423150Y-29895800D01*
X71272400Y-29895800D01*
X71272400Y-29046550D01*
X71526400Y-29046550D01*
X71526400Y-29895800D01*
X72375650Y-29895800D01*
X72534400Y-29737050D01*
X72534400Y-29396490D01*
X72437727Y-29163101D01*
X72259098Y-28984473D01*
X72025709Y-28887800D01*
X71685150Y-28887800D01*
X71526400Y-29046550D01*
X71272400Y-29046550D01*
X71246952Y-29021102D01*
X71264203Y-28979556D01*
X71264519Y-28617683D01*
X71624175Y-28617997D01*
X72041486Y-28445567D01*
X72361045Y-28126565D01*
X72534203Y-27709556D01*
X72534597Y-27258025D01*
X72362167Y-26840714D01*
X72043165Y-26521155D01*
X71626156Y-26347997D01*
X71174625Y-26347603D01*
X70757314Y-26520033D01*
X70437755Y-26839035D01*
X70264597Y-27256044D01*
X70264281Y-27617917D01*
X69904625Y-27617603D01*
X69487314Y-27790033D01*
X69167755Y-28109035D01*
X68994597Y-28526044D01*
X68994203Y-28977575D01*
X64758648Y-28977575D01*
X64759031Y-28539217D01*
X64556218Y-28048371D01*
X64181004Y-27672502D01*
X63690513Y-27468832D01*
X63159417Y-27468369D01*
X62668571Y-27671182D01*
X62292702Y-28046396D01*
X62089032Y-28536887D01*
X62088569Y-29067983D01*
X57112364Y-29067983D01*
X57164954Y-28803600D01*
X57063333Y-28292718D01*
X56773942Y-27859612D01*
X56340836Y-27570221D01*
X55829954Y-27468600D01*
X55777646Y-27468600D01*
X55266764Y-27570221D01*
X54833658Y-27859612D01*
X54544267Y-28292718D01*
X54442646Y-28803600D01*
X46251533Y-28803600D01*
X46430957Y-28371500D01*
X46431442Y-27815739D01*
X46219210Y-27302097D01*
X45826570Y-26908771D01*
X45618688Y-26822451D01*
X45824503Y-26737410D01*
X46217829Y-26344770D01*
X46293721Y-26162000D01*
X80701555Y-26162000D01*
X80815629Y-26735489D01*
X81140485Y-27221670D01*
X81455266Y-27432000D01*
X81140485Y-27642330D01*
X80815629Y-28128511D01*
X80701555Y-28702000D01*
X80815629Y-29275489D01*
X81140485Y-29761670D01*
X81455266Y-29972000D01*
X81140485Y-30182330D01*
X80815629Y-30668511D01*
X80701555Y-31242000D01*
X80815629Y-31815489D01*
X81140485Y-32301670D01*
X81626666Y-32626526D01*
X82200155Y-32740600D01*
X82569645Y-32740600D01*
X83143134Y-32626526D01*
X83629315Y-32301670D01*
X83954171Y-31815489D01*
X84068245Y-31242000D01*
X83954171Y-30668511D01*
X83629315Y-30182330D01*
X83314534Y-29972000D01*
X83629315Y-29761670D01*
X83954171Y-29275489D01*
X84068245Y-28702000D01*
X83954171Y-28128511D01*
X83629315Y-27642330D01*
X83314534Y-27432000D01*
X83629315Y-27221670D01*
X83954171Y-26735489D01*
X84068245Y-26162000D01*
X83954171Y-25588511D01*
X83629315Y-25102330D01*
X83614987Y-25092757D01*
X83636217Y-25088762D01*
X83852341Y-24949690D01*
X83997331Y-24737490D01*
X84048340Y-24485600D01*
X84048340Y-22758400D01*
X84004062Y-22523083D01*
X83864990Y-22306959D01*
X83652790Y-22161969D01*
X83400900Y-22110960D01*
X81368900Y-22110960D01*
X81133583Y-22155238D01*
X80917459Y-22294310D01*
X80772469Y-22506510D01*
X80721460Y-22758400D01*
X80721460Y-24485600D01*
X80765738Y-24720917D01*
X80904810Y-24937041D01*
X81117010Y-25082031D01*
X81158339Y-25090400D01*
X81140485Y-25102330D01*
X80815629Y-25588511D01*
X80701555Y-26162000D01*
X46293721Y-26162000D01*
X46430957Y-25831500D01*
X46431442Y-25275739D01*
X46233529Y-24796750D01*
X70213600Y-24796750D01*
X70213600Y-25137310D01*
X70310273Y-25370699D01*
X70488902Y-25549327D01*
X70722291Y-25646000D01*
X71062850Y-25646000D01*
X71221600Y-25487250D01*
X71221600Y-24638000D01*
X71475600Y-24638000D01*
X71475600Y-25487250D01*
X71634350Y-25646000D01*
X71974909Y-25646000D01*
X72208298Y-25549327D01*
X72386927Y-25370699D01*
X72483600Y-25137310D01*
X72483600Y-24796750D01*
X72324850Y-24638000D01*
X71475600Y-24638000D01*
X71221600Y-24638000D01*
X70372350Y-24638000D01*
X70213600Y-24796750D01*
X46233529Y-24796750D01*
X46219210Y-24762097D01*
X45826570Y-24368771D01*
X45313300Y-24155643D01*
X44757539Y-24155158D01*
X44243897Y-24367390D01*
X43850571Y-24760030D01*
X43637443Y-25273300D01*
X43636958Y-25829061D01*
X43849190Y-26342703D01*
X44241830Y-26736029D01*
X44449712Y-26822349D01*
X44243897Y-26907390D01*
X43850571Y-27300030D01*
X43637443Y-27813300D01*
X43636958Y-28369061D01*
X43849190Y-28882703D01*
X44241830Y-29276029D01*
X44449712Y-29362349D01*
X44243897Y-29447390D01*
X43850571Y-29840030D01*
X43637443Y-30353300D01*
X43636958Y-30909061D01*
X43849190Y-31422703D01*
X44241830Y-31816029D01*
X44449712Y-31902349D01*
X44243897Y-31987390D01*
X43850571Y-32380030D01*
X43637443Y-32893300D01*
X43636958Y-33449061D01*
X43849190Y-33962703D01*
X44241830Y-34356029D01*
X44449712Y-34442349D01*
X44243897Y-34527390D01*
X43850571Y-34920030D01*
X43691074Y-35304142D01*
X40276400Y-31889468D01*
X40276400Y-24333200D01*
X40190003Y-23898854D01*
X39943966Y-23530634D01*
X39575746Y-23284597D01*
X39484264Y-23266400D01*
X54645846Y-23266400D01*
X54747467Y-23777282D01*
X55036858Y-24210388D01*
X55469964Y-24499779D01*
X55980846Y-24601400D01*
X56033154Y-24601400D01*
X56544036Y-24499779D01*
X56977142Y-24210388D01*
X57266533Y-23777282D01*
X57315564Y-23530783D01*
X62291769Y-23530783D01*
X62494582Y-24021629D01*
X62869796Y-24397498D01*
X63360287Y-24601168D01*
X63891383Y-24601631D01*
X64382229Y-24398818D01*
X64758098Y-24023604D01*
X64961768Y-23533113D01*
X64961826Y-23465775D01*
X68943403Y-23465775D01*
X69115833Y-23883086D01*
X69434835Y-24202645D01*
X69851844Y-24375803D01*
X70303375Y-24376197D01*
X70346661Y-24358311D01*
X70372350Y-24384000D01*
X71221600Y-24384000D01*
X71221600Y-23534750D01*
X71475600Y-23534750D01*
X71475600Y-24384000D01*
X72324850Y-24384000D01*
X72483600Y-24225250D01*
X72483600Y-23884690D01*
X72386927Y-23651301D01*
X72208298Y-23472673D01*
X71974909Y-23376000D01*
X71634350Y-23376000D01*
X71475600Y-23534750D01*
X71221600Y-23534750D01*
X71196152Y-23509302D01*
X71213403Y-23467756D01*
X71213719Y-23105883D01*
X71573375Y-23106197D01*
X71990686Y-22933767D01*
X72310245Y-22614765D01*
X72483403Y-22197756D01*
X72483797Y-21746225D01*
X72311367Y-21328914D01*
X71992365Y-21009355D01*
X71575356Y-20836197D01*
X71123825Y-20835803D01*
X70706514Y-21008233D01*
X70386955Y-21327235D01*
X70213797Y-21744244D01*
X70213481Y-22106117D01*
X69853825Y-22105803D01*
X69436514Y-22278233D01*
X69116955Y-22597235D01*
X68943797Y-23014244D01*
X68943403Y-23465775D01*
X64961826Y-23465775D01*
X64962231Y-23002017D01*
X64759418Y-22511171D01*
X64384204Y-22135302D01*
X63893713Y-21931632D01*
X63362617Y-21931169D01*
X62871771Y-22133982D01*
X62495902Y-22509196D01*
X62292232Y-22999687D01*
X62291769Y-23530783D01*
X57315564Y-23530783D01*
X57368154Y-23266400D01*
X57266533Y-22755518D01*
X56977142Y-22322412D01*
X56544036Y-22033021D01*
X56033154Y-21931400D01*
X55980846Y-21931400D01*
X55469964Y-22033021D01*
X55036858Y-22322412D01*
X54747467Y-22755518D01*
X54645846Y-23266400D01*
X39484264Y-23266400D01*
X39141400Y-23198200D01*
X38707054Y-23284597D01*
X38338834Y-23530634D01*
X38092797Y-23898854D01*
X38006400Y-24333200D01*
X32512416Y-24333200D01*
X32245778Y-24155039D01*
X31677493Y-24042000D01*
X31619307Y-24042000D01*
X31051022Y-24155039D01*
X30569253Y-24476946D01*
X30568429Y-24478179D01*
X30561562Y-24441683D01*
X30422490Y-24225559D01*
X30210290Y-24080569D01*
X29958400Y-24029560D01*
X28258400Y-24029560D01*
X28023083Y-24073838D01*
X27806959Y-24212910D01*
X27661969Y-24425110D01*
X27610960Y-24677000D01*
X27610960Y-26377000D01*
X27655238Y-26612317D01*
X27794310Y-26828441D01*
X28006510Y-26973431D01*
X28073941Y-26987086D01*
X28029253Y-27016946D01*
X27707346Y-27498715D01*
X27594307Y-28067000D01*
X24376000Y-28067000D01*
X24376000Y-23380932D01*
X24777932Y-22979000D01*
X53035200Y-22979000D01*
X53469546Y-22892603D01*
X53837766Y-22646566D01*
X58534532Y-17949800D01*
X64110808Y-17949800D01*
X64217910Y-18116241D01*
X64430110Y-18261231D01*
X64682000Y-18312240D01*
X66382000Y-18312240D01*
X66617317Y-18267962D01*
X66833441Y-18128890D01*
X66978431Y-17916690D01*
X67029440Y-17664800D01*
X67029440Y-15964800D01*
X66985162Y-15729483D01*
X66846090Y-15513359D01*
X66633890Y-15368369D01*
X66382000Y-15317360D01*
X64682000Y-15317360D01*
X64446683Y-15361638D01*
X64230559Y-15500710D01*
X64108192Y-15679800D01*
X58064400Y-15679800D01*
X57630054Y-15766197D01*
X57332824Y-15964800D01*
X57261834Y-16012234D01*
X52565068Y-20709000D01*
X24307800Y-20709000D01*
X23873454Y-20795397D01*
X23812393Y-20836197D01*
X23505234Y-21041434D01*
X22438434Y-22108234D01*
X22192397Y-22476454D01*
X22106000Y-22910800D01*
X22106000Y-54495468D01*
X18446529Y-58154939D01*
X18316597Y-57841257D01*
X18074413Y-57771792D01*
X17273805Y-58572400D01*
X17287948Y-58586543D01*
X17108343Y-58766148D01*
X17094200Y-58752005D01*
X16293592Y-59552613D01*
X16363057Y-59794797D01*
X16503518Y-59844909D01*
X16303897Y-59927390D01*
X15910571Y-60320030D01*
X15697443Y-60833300D01*
X15696958Y-61389061D01*
X15315400Y-61389061D01*
X15315400Y-58364702D01*
X15685056Y-58364702D01*
X15712838Y-58919768D01*
X15871803Y-59303543D01*
X16113987Y-59373008D01*
X16914595Y-58572400D01*
X16113987Y-57771792D01*
X15871803Y-57841257D01*
X15685056Y-58364702D01*
X15315400Y-58364702D01*
X15315400Y-51229061D01*
X15696958Y-51229061D01*
X15909190Y-51742703D01*
X16301830Y-52136029D01*
X16509712Y-52222349D01*
X16303897Y-52307390D01*
X15910571Y-52700030D01*
X15697443Y-53213300D01*
X15696958Y-53769061D01*
X15909190Y-54282703D01*
X16301830Y-54676029D01*
X16509712Y-54762349D01*
X16303897Y-54847390D01*
X15910571Y-55240030D01*
X15697443Y-55753300D01*
X15696958Y-56309061D01*
X15909190Y-56822703D01*
X16301830Y-57216029D01*
X16493927Y-57295795D01*
X16363057Y-57350003D01*
X16293592Y-57592187D01*
X17094200Y-58392795D01*
X17894808Y-57592187D01*
X17825343Y-57350003D01*
X17684882Y-57299891D01*
X17884503Y-57217410D01*
X18277829Y-56824770D01*
X18490957Y-56311500D01*
X18491442Y-55755739D01*
X18279210Y-55242097D01*
X17886570Y-54848771D01*
X17678688Y-54762451D01*
X17884503Y-54677410D01*
X18277829Y-54284770D01*
X18490957Y-53771500D01*
X18491442Y-53215739D01*
X18279210Y-52702097D01*
X17886570Y-52308771D01*
X17678688Y-52222451D01*
X17884503Y-52137410D01*
X18277829Y-51744770D01*
X18490957Y-51231500D01*
X18491442Y-50675739D01*
X18279210Y-50162097D01*
X17886570Y-49768771D01*
X17694473Y-49689005D01*
X17825343Y-49634797D01*
X17894808Y-49392613D01*
X17094200Y-48592005D01*
X16293592Y-49392613D01*
X16363057Y-49634797D01*
X16503518Y-49684909D01*
X16303897Y-49767390D01*
X15910571Y-50160030D01*
X15697443Y-50673300D01*
X15696958Y-51229061D01*
X15315400Y-51229061D01*
X15315400Y-48204702D01*
X15685056Y-48204702D01*
X15712838Y-48759768D01*
X15871803Y-49143543D01*
X16113987Y-49213008D01*
X16914595Y-48412400D01*
X17273805Y-48412400D01*
X18074413Y-49213008D01*
X18316597Y-49143543D01*
X18503344Y-48620098D01*
X18475562Y-48065032D01*
X18316597Y-47681257D01*
X18074413Y-47611792D01*
X17273805Y-48412400D01*
X16914595Y-48412400D01*
X16113987Y-47611792D01*
X15871803Y-47681257D01*
X15685056Y-48204702D01*
X15315400Y-48204702D01*
X15315400Y-25829061D01*
X15696958Y-25829061D01*
X15909190Y-26342703D01*
X16301830Y-26736029D01*
X16509712Y-26822349D01*
X16303897Y-26907390D01*
X15910571Y-27300030D01*
X15697443Y-27813300D01*
X15696958Y-28369061D01*
X15909190Y-28882703D01*
X16301830Y-29276029D01*
X16509712Y-29362349D01*
X16303897Y-29447390D01*
X15910571Y-29840030D01*
X15697443Y-30353300D01*
X15696958Y-30909061D01*
X15909190Y-31422703D01*
X16301830Y-31816029D01*
X16509712Y-31902349D01*
X16303897Y-31987390D01*
X15910571Y-32380030D01*
X15697443Y-32893300D01*
X15696958Y-33449061D01*
X15909190Y-33962703D01*
X16301830Y-34356029D01*
X16509712Y-34442349D01*
X16303897Y-34527390D01*
X15910571Y-34920030D01*
X15697443Y-35433300D01*
X15696958Y-35989061D01*
X15909190Y-36502703D01*
X16301830Y-36896029D01*
X16509712Y-36982349D01*
X16303897Y-37067390D01*
X15910571Y-37460030D01*
X15697443Y-37973300D01*
X15696958Y-38529061D01*
X15909190Y-39042703D01*
X16301830Y-39436029D01*
X16509712Y-39522349D01*
X16303897Y-39607390D01*
X15910571Y-40000030D01*
X15697443Y-40513300D01*
X15696958Y-41069061D01*
X15909190Y-41582703D01*
X16301830Y-41976029D01*
X16509712Y-42062349D01*
X16303897Y-42147390D01*
X15910571Y-42540030D01*
X15697443Y-43053300D01*
X15696958Y-43609061D01*
X15909190Y-44122703D01*
X16301830Y-44516029D01*
X16509712Y-44602349D01*
X16303897Y-44687390D01*
X15910571Y-45080030D01*
X15697443Y-45593300D01*
X15696958Y-46149061D01*
X15909190Y-46662703D01*
X16301830Y-47056029D01*
X16493927Y-47135795D01*
X16363057Y-47190003D01*
X16293592Y-47432187D01*
X17094200Y-48232795D01*
X17894808Y-47432187D01*
X17825343Y-47190003D01*
X17684882Y-47139891D01*
X17884503Y-47057410D01*
X18277829Y-46664770D01*
X18490957Y-46151500D01*
X18491442Y-45595739D01*
X18279210Y-45082097D01*
X17886570Y-44688771D01*
X17678688Y-44602451D01*
X17884503Y-44517410D01*
X18277829Y-44124770D01*
X18490957Y-43611500D01*
X18491442Y-43055739D01*
X18279210Y-42542097D01*
X17886570Y-42148771D01*
X17678688Y-42062451D01*
X17884503Y-41977410D01*
X18277829Y-41584770D01*
X18490957Y-41071500D01*
X18491442Y-40515739D01*
X18279210Y-40002097D01*
X17886570Y-39608771D01*
X17678688Y-39522451D01*
X17884503Y-39437410D01*
X18277829Y-39044770D01*
X18490957Y-38531500D01*
X18491442Y-37975739D01*
X18279210Y-37462097D01*
X17886570Y-37068771D01*
X17678688Y-36982451D01*
X17884503Y-36897410D01*
X18277829Y-36504770D01*
X18490957Y-35991500D01*
X18491442Y-35435739D01*
X18279210Y-34922097D01*
X17886570Y-34528771D01*
X17678688Y-34442451D01*
X17884503Y-34357410D01*
X18277829Y-33964770D01*
X18490957Y-33451500D01*
X18491442Y-32895739D01*
X18279210Y-32382097D01*
X17886570Y-31988771D01*
X17678688Y-31902451D01*
X17884503Y-31817410D01*
X18277829Y-31424770D01*
X18490957Y-30911500D01*
X18491442Y-30355739D01*
X18279210Y-29842097D01*
X17886570Y-29448771D01*
X17678688Y-29362451D01*
X17884503Y-29277410D01*
X18277829Y-28884770D01*
X18490957Y-28371500D01*
X18491442Y-27815739D01*
X18279210Y-27302097D01*
X17886570Y-26908771D01*
X17678688Y-26822451D01*
X17884503Y-26737410D01*
X18277829Y-26344770D01*
X18490957Y-25831500D01*
X18491442Y-25275739D01*
X18279210Y-24762097D01*
X17886570Y-24368771D01*
X17373300Y-24155643D01*
X16817539Y-24155158D01*
X16303897Y-24367390D01*
X15910571Y-24760030D01*
X15697443Y-25273300D01*
X15696958Y-25829061D01*
X15315400Y-25829061D01*
X15315400Y-15914000D01*
X51131360Y-15914000D01*
X51131360Y-17614000D01*
X51175638Y-17849317D01*
X51314710Y-18065441D01*
X51526910Y-18210431D01*
X51778800Y-18261440D01*
X53478800Y-18261440D01*
X53714117Y-18217162D01*
X53930241Y-18078090D01*
X54075231Y-17865890D01*
X54126240Y-17614000D01*
X54126240Y-15914000D01*
X54081962Y-15678683D01*
X53942890Y-15462559D01*
X53730690Y-15317569D01*
X53478800Y-15266560D01*
X51778800Y-15266560D01*
X51543483Y-15310838D01*
X51327359Y-15449910D01*
X51182369Y-15662110D01*
X51131360Y-15914000D01*
X15315400Y-15914000D01*
X15315400Y-14401000D01*
X107912700Y-14401000D01*
X107912700Y-102997800D01*
M02*
