%TF.GenerationSoftware,KiCad,Pcbnew,4.0.5+dfsg1-4*%
%TF.CreationDate,2018-11-05T18:37:42-05:00*%
%TF.ProjectId,ButtonLEDsController,427574746F6E4C454473436F6E74726F,rev?*%
%TF.FileFunction,Legend,Top*%
%FSLAX46Y46*%
G04 Gerber Fmt 4.6, Leading zero omitted, Abs format (unit mm)*
G04 Created by KiCad (PCBNEW 4.0.5+dfsg1-4) date Mon Nov  5 18:37:42 2018*
%MOMM*%
%LPD*%
G01*
G04 APERTURE LIST*
%ADD10C,0.100000*%
%ADD11C,0.120000*%
%ADD12C,0.150000*%
G04 APERTURE END LIST*
D10*
D11*
X27475600Y-76810062D02*
G75*
G03X21925600Y-75264770I-2990000J462D01*
G01*
X27475600Y-76809138D02*
G75*
G02X21925600Y-78354430I-2990000J-462D01*
G01*
X26985600Y-76809600D02*
G75*
G03X26985600Y-76809600I-2500000J0D01*
G01*
X21925600Y-75264600D02*
X21925600Y-78354600D01*
D12*
X64135000Y-38481000D02*
X67564000Y-38481000D01*
X64135000Y-48133000D02*
X67564000Y-48133000D01*
X62992000Y-37973000D02*
X62992000Y-48641000D01*
X64008000Y-41529000D02*
X62738000Y-41529000D01*
X64008000Y-45085000D02*
X62738000Y-45085000D01*
X64135000Y-48641000D02*
X64135000Y-37973000D01*
X67564000Y-37973000D02*
X67564000Y-48641000D01*
X62738000Y-48641000D02*
X67564000Y-48641000D01*
X62738000Y-37973000D02*
X67564000Y-37973000D01*
X62738000Y-37973000D02*
X62738000Y-48641000D01*
D11*
X69193200Y-44989200D02*
X70913200Y-44989200D01*
X70913200Y-44989200D02*
X70913200Y-41269200D01*
X70913200Y-41269200D02*
X69193200Y-41269200D01*
X69193200Y-41269200D02*
X69193200Y-44989200D01*
X70053200Y-46059200D02*
X70053200Y-44989200D01*
X70053200Y-40199200D02*
X70053200Y-41269200D01*
X80625400Y-44167000D02*
X80625400Y-42447000D01*
X80625400Y-42447000D02*
X76905400Y-42447000D01*
X76905400Y-42447000D02*
X76905400Y-44167000D01*
X76905400Y-44167000D02*
X80625400Y-44167000D01*
X81695400Y-43307000D02*
X80625400Y-43307000D01*
X75835400Y-43307000D02*
X76905400Y-43307000D01*
X27705600Y-84306200D02*
X27705600Y-86026200D01*
X27705600Y-86026200D02*
X31425600Y-86026200D01*
X31425600Y-86026200D02*
X31425600Y-84306200D01*
X31425600Y-84306200D02*
X27705600Y-84306200D01*
X26635600Y-85166200D02*
X27705600Y-85166200D01*
X32495600Y-85166200D02*
X31425600Y-85166200D01*
X61677000Y-24126400D02*
X61677000Y-22406400D01*
X61677000Y-22406400D02*
X57957000Y-22406400D01*
X57957000Y-22406400D02*
X57957000Y-24126400D01*
X57957000Y-24126400D02*
X61677000Y-24126400D01*
X62747000Y-23266400D02*
X61677000Y-23266400D01*
X56887000Y-23266400D02*
X57957000Y-23266400D01*
X61473800Y-29663600D02*
X61473800Y-27943600D01*
X61473800Y-27943600D02*
X57753800Y-27943600D01*
X57753800Y-27943600D02*
X57753800Y-29663600D01*
X57753800Y-29663600D02*
X61473800Y-29663600D01*
X62543800Y-28803600D02*
X61473800Y-28803600D01*
X56683800Y-28803600D02*
X57753800Y-28803600D01*
X61448400Y-35200800D02*
X61448400Y-33480800D01*
X61448400Y-33480800D02*
X57728400Y-33480800D01*
X57728400Y-33480800D02*
X57728400Y-35200800D01*
X57728400Y-35200800D02*
X61448400Y-35200800D01*
X62518400Y-34340800D02*
X61448400Y-34340800D01*
X56658400Y-34340800D02*
X57728400Y-34340800D01*
X63289900Y-54390500D02*
X63289900Y-52670500D01*
X63289900Y-52670500D02*
X59569900Y-52670500D01*
X59569900Y-52670500D02*
X59569900Y-54390500D01*
X59569900Y-54390500D02*
X63289900Y-54390500D01*
X64359900Y-53530500D02*
X63289900Y-53530500D01*
X58499900Y-53530500D02*
X59569900Y-53530500D01*
X63010500Y-59978500D02*
X63010500Y-58258500D01*
X63010500Y-58258500D02*
X59290500Y-58258500D01*
X59290500Y-58258500D02*
X59290500Y-59978500D01*
X59290500Y-59978500D02*
X63010500Y-59978500D01*
X64080500Y-59118500D02*
X63010500Y-59118500D01*
X58220500Y-59118500D02*
X59290500Y-59118500D01*
X63061300Y-65464900D02*
X63061300Y-63744900D01*
X63061300Y-63744900D02*
X59341300Y-63744900D01*
X59341300Y-63744900D02*
X59341300Y-65464900D01*
X59341300Y-65464900D02*
X63061300Y-65464900D01*
X64131300Y-64604900D02*
X63061300Y-64604900D01*
X58271300Y-64604900D02*
X59341300Y-64604900D01*
D12*
X45560251Y-70002400D02*
G75*
G03X45560251Y-70002400I-1796051J0D01*
G01*
X20160251Y-70002400D02*
G75*
G03X20160251Y-70002400I-1796051J0D01*
G01*
X20160251Y-17932400D02*
G75*
G03X20160251Y-17932400I-1796051J0D01*
G01*
X45560251Y-17932400D02*
G75*
G03X45560251Y-17932400I-1796051J0D01*
G01*
X46314200Y-15372400D02*
X16314200Y-15372400D01*
X16314200Y-15372400D02*
X15814200Y-15372400D01*
X15814200Y-15372400D02*
X15814200Y-72372400D01*
X15814200Y-72372400D02*
X46314200Y-72372400D01*
X46314200Y-72372400D02*
X46314200Y-15372400D01*
D11*
X90165800Y-45107000D02*
X90165800Y-41507000D01*
X90154278Y-45145478D02*
G75*
G02X85715800Y-43307000I-1838478J1838478D01*
G01*
X90154278Y-41468522D02*
G75*
G03X85715800Y-43307000I-1838478J-1838478D01*
G01*
X73198600Y-25041000D02*
X73198600Y-21441000D01*
X73187078Y-25079478D02*
G75*
G02X68748600Y-23241000I-1838478J1838478D01*
G01*
X73187078Y-21402522D02*
G75*
G03X68748600Y-23241000I-1838478J-1838478D01*
G01*
X73249400Y-30552800D02*
X73249400Y-26952800D01*
X73237878Y-30591278D02*
G75*
G02X68799400Y-28752800I-1838478J1838478D01*
G01*
X73237878Y-26914322D02*
G75*
G03X68799400Y-28752800I-1838478J-1838478D01*
G01*
X73224000Y-36140800D02*
X73224000Y-32540800D01*
X73212478Y-36179278D02*
G75*
G02X68774000Y-34340800I-1838478J1838478D01*
G01*
X73212478Y-32502322D02*
G75*
G03X68774000Y-34340800I-1838478J-1838478D01*
G01*
X73173200Y-55317800D02*
X73173200Y-51717800D01*
X73161678Y-55356278D02*
G75*
G02X68723200Y-53517800I-1838478J1838478D01*
G01*
X73161678Y-51679322D02*
G75*
G03X68723200Y-53517800I-1838478J-1838478D01*
G01*
X73249400Y-60880400D02*
X73249400Y-57280400D01*
X73237878Y-60918878D02*
G75*
G02X68799400Y-59080400I-1838478J1838478D01*
G01*
X73237878Y-57241922D02*
G75*
G03X68799400Y-59080400I-1838478J-1838478D01*
G01*
X73173200Y-66341400D02*
X73173200Y-62741400D01*
X73161678Y-66379878D02*
G75*
G02X68723200Y-64541400I-1838478J1838478D01*
G01*
X73161678Y-62702922D02*
G75*
G03X68723200Y-64541400I-1838478J-1838478D01*
G01*
X27778400Y-62417000D02*
X32978400Y-62417000D01*
X27778400Y-26797000D02*
X27778400Y-62417000D01*
X32978400Y-24197000D02*
X32978400Y-62417000D01*
X27778400Y-26797000D02*
X30378400Y-26797000D01*
X30378400Y-26797000D02*
X30378400Y-24197000D01*
X30378400Y-24197000D02*
X32978400Y-24197000D01*
X27778400Y-25527000D02*
X27778400Y-24197000D01*
X27778400Y-24197000D02*
X29108400Y-24197000D01*
X16932600Y-83245000D02*
X19592600Y-83245000D01*
X16932600Y-78105000D02*
X16932600Y-83245000D01*
X19592600Y-78105000D02*
X19592600Y-83245000D01*
X16932600Y-78105000D02*
X19592600Y-78105000D01*
X16932600Y-76835000D02*
X16932600Y-75505000D01*
X16932600Y-75505000D02*
X18262600Y-75505000D01*
X34331600Y-102168000D02*
X36991600Y-102168000D01*
X34331600Y-102108000D02*
X34331600Y-102168000D01*
X36991600Y-102108000D02*
X36991600Y-102168000D01*
X34331600Y-102108000D02*
X36991600Y-102108000D01*
X34331600Y-100838000D02*
X34331600Y-99508000D01*
X34331600Y-99508000D02*
X35661600Y-99508000D01*
X64202000Y-18144800D02*
X66862000Y-18144800D01*
X64202000Y-18084800D02*
X64202000Y-18144800D01*
X66862000Y-18084800D02*
X66862000Y-18144800D01*
X64202000Y-18084800D02*
X66862000Y-18084800D01*
X64202000Y-16814800D02*
X64202000Y-15484800D01*
X64202000Y-15484800D02*
X65532000Y-15484800D01*
X51298800Y-18094000D02*
X53958800Y-18094000D01*
X51298800Y-18034000D02*
X51298800Y-18094000D01*
X53958800Y-18034000D02*
X53958800Y-18094000D01*
X51298800Y-18034000D02*
X53958800Y-18034000D01*
X51298800Y-16764000D02*
X51298800Y-15434000D01*
X51298800Y-15434000D02*
X52628800Y-15434000D01*
X50028800Y-54711600D02*
X50028800Y-57311600D01*
X50028800Y-57311600D02*
X52688800Y-57311600D01*
X52688800Y-57311600D02*
X52688800Y-54711600D01*
X52688800Y-54711600D02*
X50028800Y-54711600D01*
X50028800Y-53441600D02*
X50028800Y-52111600D01*
X50028800Y-52111600D02*
X51358800Y-52111600D01*
D12*
X81114900Y-24892000D02*
X81114900Y-32512000D01*
X83654900Y-24892000D02*
X83654900Y-32512000D01*
X83934900Y-22072000D02*
X83934900Y-23622000D01*
X81114900Y-32512000D02*
X83654900Y-32512000D01*
X83654900Y-24892000D02*
X81114900Y-24892000D01*
X80834900Y-23622000D02*
X80834900Y-22072000D01*
X80834900Y-22072000D02*
X83934900Y-22072000D01*
X81368900Y-54483000D02*
X81368900Y-62103000D01*
X83908900Y-54483000D02*
X83908900Y-62103000D01*
X84188900Y-51663000D02*
X84188900Y-53213000D01*
X81368900Y-62103000D02*
X83908900Y-62103000D01*
X83908900Y-54483000D02*
X81368900Y-54483000D01*
X81088900Y-53213000D02*
X81088900Y-51663000D01*
X81088900Y-51663000D02*
X84188900Y-51663000D01*
X21721914Y-81427581D02*
X21721914Y-80427581D01*
X21960009Y-80427581D01*
X22102867Y-80475200D01*
X22198105Y-80570438D01*
X22245724Y-80665676D01*
X22293343Y-80856152D01*
X22293343Y-80999010D01*
X22245724Y-81189486D01*
X22198105Y-81284724D01*
X22102867Y-81379962D01*
X21960009Y-81427581D01*
X21721914Y-81427581D01*
X23245724Y-81427581D02*
X22674295Y-81427581D01*
X22960009Y-81427581D02*
X22960009Y-80427581D01*
X22864771Y-80570438D01*
X22769533Y-80665676D01*
X22674295Y-80713295D01*
X23579057Y-80427581D02*
X24198105Y-80427581D01*
X23864771Y-80808533D01*
X24007629Y-80808533D01*
X24102867Y-80856152D01*
X24150486Y-80903771D01*
X24198105Y-80999010D01*
X24198105Y-81237105D01*
X24150486Y-81332343D01*
X24102867Y-81379962D01*
X24007629Y-81427581D01*
X23721914Y-81427581D01*
X23626676Y-81379962D01*
X23579057Y-81332343D01*
X62015619Y-43402238D02*
X61968000Y-43497476D01*
X61872762Y-43592714D01*
X61729905Y-43735571D01*
X61682286Y-43830810D01*
X61682286Y-43926048D01*
X61920381Y-43878429D02*
X61872762Y-43973667D01*
X61777524Y-44068905D01*
X61587048Y-44116524D01*
X61253714Y-44116524D01*
X61063238Y-44068905D01*
X60968000Y-43973667D01*
X60920381Y-43878429D01*
X60920381Y-43687952D01*
X60968000Y-43592714D01*
X61063238Y-43497476D01*
X61253714Y-43449857D01*
X61587048Y-43449857D01*
X61777524Y-43497476D01*
X61872762Y-43592714D01*
X61920381Y-43687952D01*
X61920381Y-43878429D01*
X61920381Y-42497476D02*
X61920381Y-43068905D01*
X61920381Y-42783191D02*
X60920381Y-42783191D01*
X61063238Y-42878429D01*
X61158476Y-42973667D01*
X61206095Y-43068905D01*
X72096334Y-40635181D02*
X71763000Y-40158990D01*
X71524905Y-40635181D02*
X71524905Y-39635181D01*
X71905858Y-39635181D01*
X72001096Y-39682800D01*
X72048715Y-39730419D01*
X72096334Y-39825657D01*
X72096334Y-39968514D01*
X72048715Y-40063752D01*
X72001096Y-40111371D01*
X71905858Y-40158990D01*
X71524905Y-40158990D01*
X73048715Y-40635181D02*
X72477286Y-40635181D01*
X72763000Y-40635181D02*
X72763000Y-39635181D01*
X72667762Y-39778038D01*
X72572524Y-39873276D01*
X72477286Y-39920895D01*
X78598734Y-45619381D02*
X78265400Y-45143190D01*
X78027305Y-45619381D02*
X78027305Y-44619381D01*
X78408258Y-44619381D01*
X78503496Y-44667000D01*
X78551115Y-44714619D01*
X78598734Y-44809857D01*
X78598734Y-44952714D01*
X78551115Y-45047952D01*
X78503496Y-45095571D01*
X78408258Y-45143190D01*
X78027305Y-45143190D01*
X78979686Y-44714619D02*
X79027305Y-44667000D01*
X79122543Y-44619381D01*
X79360639Y-44619381D01*
X79455877Y-44667000D01*
X79503496Y-44714619D01*
X79551115Y-44809857D01*
X79551115Y-44905095D01*
X79503496Y-45047952D01*
X78932067Y-45619381D01*
X79551115Y-45619381D01*
X29398934Y-83758581D02*
X29065600Y-83282390D01*
X28827505Y-83758581D02*
X28827505Y-82758581D01*
X29208458Y-82758581D01*
X29303696Y-82806200D01*
X29351315Y-82853819D01*
X29398934Y-82949057D01*
X29398934Y-83091914D01*
X29351315Y-83187152D01*
X29303696Y-83234771D01*
X29208458Y-83282390D01*
X28827505Y-83282390D01*
X29732267Y-82758581D02*
X30351315Y-82758581D01*
X30017981Y-83139533D01*
X30160839Y-83139533D01*
X30256077Y-83187152D01*
X30303696Y-83234771D01*
X30351315Y-83330010D01*
X30351315Y-83568105D01*
X30303696Y-83663343D01*
X30256077Y-83710962D01*
X30160839Y-83758581D01*
X29875124Y-83758581D01*
X29779886Y-83710962D01*
X29732267Y-83663343D01*
X59650334Y-25578781D02*
X59317000Y-25102590D01*
X59078905Y-25578781D02*
X59078905Y-24578781D01*
X59459858Y-24578781D01*
X59555096Y-24626400D01*
X59602715Y-24674019D01*
X59650334Y-24769257D01*
X59650334Y-24912114D01*
X59602715Y-25007352D01*
X59555096Y-25054971D01*
X59459858Y-25102590D01*
X59078905Y-25102590D01*
X60507477Y-24912114D02*
X60507477Y-25578781D01*
X60269381Y-24531162D02*
X60031286Y-25245448D01*
X60650334Y-25245448D01*
X59447134Y-31115981D02*
X59113800Y-30639790D01*
X58875705Y-31115981D02*
X58875705Y-30115981D01*
X59256658Y-30115981D01*
X59351896Y-30163600D01*
X59399515Y-30211219D01*
X59447134Y-30306457D01*
X59447134Y-30449314D01*
X59399515Y-30544552D01*
X59351896Y-30592171D01*
X59256658Y-30639790D01*
X58875705Y-30639790D01*
X60351896Y-30115981D02*
X59875705Y-30115981D01*
X59828086Y-30592171D01*
X59875705Y-30544552D01*
X59970943Y-30496933D01*
X60209039Y-30496933D01*
X60304277Y-30544552D01*
X60351896Y-30592171D01*
X60399515Y-30687410D01*
X60399515Y-30925505D01*
X60351896Y-31020743D01*
X60304277Y-31068362D01*
X60209039Y-31115981D01*
X59970943Y-31115981D01*
X59875705Y-31068362D01*
X59828086Y-31020743D01*
X59421734Y-36653181D02*
X59088400Y-36176990D01*
X58850305Y-36653181D02*
X58850305Y-35653181D01*
X59231258Y-35653181D01*
X59326496Y-35700800D01*
X59374115Y-35748419D01*
X59421734Y-35843657D01*
X59421734Y-35986514D01*
X59374115Y-36081752D01*
X59326496Y-36129371D01*
X59231258Y-36176990D01*
X58850305Y-36176990D01*
X60278877Y-35653181D02*
X60088400Y-35653181D01*
X59993162Y-35700800D01*
X59945543Y-35748419D01*
X59850305Y-35891276D01*
X59802686Y-36081752D01*
X59802686Y-36462705D01*
X59850305Y-36557943D01*
X59897924Y-36605562D01*
X59993162Y-36653181D01*
X60183639Y-36653181D01*
X60278877Y-36605562D01*
X60326496Y-36557943D01*
X60374115Y-36462705D01*
X60374115Y-36224610D01*
X60326496Y-36129371D01*
X60278877Y-36081752D01*
X60183639Y-36034133D01*
X59993162Y-36034133D01*
X59897924Y-36081752D01*
X59850305Y-36129371D01*
X59802686Y-36224610D01*
X61263234Y-55842881D02*
X60929900Y-55366690D01*
X60691805Y-55842881D02*
X60691805Y-54842881D01*
X61072758Y-54842881D01*
X61167996Y-54890500D01*
X61215615Y-54938119D01*
X61263234Y-55033357D01*
X61263234Y-55176214D01*
X61215615Y-55271452D01*
X61167996Y-55319071D01*
X61072758Y-55366690D01*
X60691805Y-55366690D01*
X61596567Y-54842881D02*
X62263234Y-54842881D01*
X61834662Y-55842881D01*
X60983834Y-61430881D02*
X60650500Y-60954690D01*
X60412405Y-61430881D02*
X60412405Y-60430881D01*
X60793358Y-60430881D01*
X60888596Y-60478500D01*
X60936215Y-60526119D01*
X60983834Y-60621357D01*
X60983834Y-60764214D01*
X60936215Y-60859452D01*
X60888596Y-60907071D01*
X60793358Y-60954690D01*
X60412405Y-60954690D01*
X61555262Y-60859452D02*
X61460024Y-60811833D01*
X61412405Y-60764214D01*
X61364786Y-60668976D01*
X61364786Y-60621357D01*
X61412405Y-60526119D01*
X61460024Y-60478500D01*
X61555262Y-60430881D01*
X61745739Y-60430881D01*
X61840977Y-60478500D01*
X61888596Y-60526119D01*
X61936215Y-60621357D01*
X61936215Y-60668976D01*
X61888596Y-60764214D01*
X61840977Y-60811833D01*
X61745739Y-60859452D01*
X61555262Y-60859452D01*
X61460024Y-60907071D01*
X61412405Y-60954690D01*
X61364786Y-61049929D01*
X61364786Y-61240405D01*
X61412405Y-61335643D01*
X61460024Y-61383262D01*
X61555262Y-61430881D01*
X61745739Y-61430881D01*
X61840977Y-61383262D01*
X61888596Y-61335643D01*
X61936215Y-61240405D01*
X61936215Y-61049929D01*
X61888596Y-60954690D01*
X61840977Y-60907071D01*
X61745739Y-60859452D01*
X61034634Y-66917281D02*
X60701300Y-66441090D01*
X60463205Y-66917281D02*
X60463205Y-65917281D01*
X60844158Y-65917281D01*
X60939396Y-65964900D01*
X60987015Y-66012519D01*
X61034634Y-66107757D01*
X61034634Y-66250614D01*
X60987015Y-66345852D01*
X60939396Y-66393471D01*
X60844158Y-66441090D01*
X60463205Y-66441090D01*
X61510824Y-66917281D02*
X61701300Y-66917281D01*
X61796539Y-66869662D01*
X61844158Y-66822043D01*
X61939396Y-66679186D01*
X61987015Y-66488710D01*
X61987015Y-66107757D01*
X61939396Y-66012519D01*
X61891777Y-65964900D01*
X61796539Y-65917281D01*
X61606062Y-65917281D01*
X61510824Y-65964900D01*
X61463205Y-66012519D01*
X61415586Y-66107757D01*
X61415586Y-66345852D01*
X61463205Y-66441090D01*
X61510824Y-66488710D01*
X61606062Y-66536329D01*
X61796539Y-66536329D01*
X61891777Y-66488710D01*
X61939396Y-66441090D01*
X61987015Y-66345852D01*
X30302295Y-45324781D02*
X30302295Y-46134305D01*
X30349914Y-46229543D01*
X30397533Y-46277162D01*
X30492771Y-46324781D01*
X30683248Y-46324781D01*
X30778486Y-46277162D01*
X30826105Y-46229543D01*
X30873724Y-46134305D01*
X30873724Y-45324781D01*
X31873724Y-46324781D02*
X31302295Y-46324781D01*
X31588009Y-46324781D02*
X31588009Y-45324781D01*
X31492771Y-45467638D01*
X31397533Y-45562876D01*
X31302295Y-45610495D01*
X18538962Y-60564781D02*
X18872295Y-61564781D01*
X19205629Y-60564781D01*
X19538962Y-61564781D02*
X19538962Y-60564781D01*
X20015152Y-61564781D02*
X20015152Y-60564781D01*
X20586581Y-61564781D01*
X20586581Y-60564781D01*
X19896105Y-58072400D02*
X19800867Y-58024781D01*
X19658010Y-58024781D01*
X19515152Y-58072400D01*
X19419914Y-58167638D01*
X19372295Y-58262876D01*
X19324676Y-58453352D01*
X19324676Y-58596210D01*
X19372295Y-58786686D01*
X19419914Y-58881924D01*
X19515152Y-58977162D01*
X19658010Y-59024781D01*
X19753248Y-59024781D01*
X19896105Y-58977162D01*
X19943724Y-58929543D01*
X19943724Y-58596210D01*
X19753248Y-58596210D01*
X19086581Y-56484781D02*
X18753247Y-56008590D01*
X18515152Y-56484781D02*
X18515152Y-55484781D01*
X18896105Y-55484781D01*
X18991343Y-55532400D01*
X19038962Y-55580019D01*
X19086581Y-55675257D01*
X19086581Y-55818114D01*
X19038962Y-55913352D01*
X18991343Y-55960971D01*
X18896105Y-56008590D01*
X18515152Y-56008590D01*
X19467533Y-56437162D02*
X19610390Y-56484781D01*
X19848486Y-56484781D01*
X19943724Y-56437162D01*
X19991343Y-56389543D01*
X20038962Y-56294305D01*
X20038962Y-56199067D01*
X19991343Y-56103829D01*
X19943724Y-56056210D01*
X19848486Y-56008590D01*
X19658009Y-55960971D01*
X19562771Y-55913352D01*
X19515152Y-55865733D01*
X19467533Y-55770495D01*
X19467533Y-55675257D01*
X19515152Y-55580019D01*
X19562771Y-55532400D01*
X19658009Y-55484781D01*
X19896105Y-55484781D01*
X20038962Y-55532400D01*
X20324676Y-55484781D02*
X20896105Y-55484781D01*
X20610390Y-56484781D02*
X20610390Y-55484781D01*
X18896105Y-53420971D02*
X19229439Y-53420971D01*
X19372296Y-53944781D02*
X18896105Y-53944781D01*
X18896105Y-52944781D01*
X19372296Y-52944781D01*
X19800867Y-53944781D02*
X19800867Y-52944781D01*
X20372296Y-53944781D01*
X20372296Y-52944781D01*
X18872295Y-50404781D02*
X19491343Y-50404781D01*
X19158009Y-50785733D01*
X19300867Y-50785733D01*
X19396105Y-50833352D01*
X19443724Y-50880971D01*
X19491343Y-50976210D01*
X19491343Y-51214305D01*
X19443724Y-51309543D01*
X19396105Y-51357162D01*
X19300867Y-51404781D01*
X19015152Y-51404781D01*
X18919914Y-51357162D01*
X18872295Y-51309543D01*
X19777057Y-50404781D02*
X20110390Y-51404781D01*
X20443724Y-50404781D01*
X19896105Y-47912400D02*
X19800867Y-47864781D01*
X19658010Y-47864781D01*
X19515152Y-47912400D01*
X19419914Y-48007638D01*
X19372295Y-48102876D01*
X19324676Y-48293352D01*
X19324676Y-48436210D01*
X19372295Y-48626686D01*
X19419914Y-48721924D01*
X19515152Y-48817162D01*
X19658010Y-48864781D01*
X19753248Y-48864781D01*
X19896105Y-48817162D01*
X19943724Y-48769543D01*
X19943724Y-48436210D01*
X19753248Y-48436210D01*
X18848486Y-46277162D02*
X18991343Y-46324781D01*
X19229439Y-46324781D01*
X19324677Y-46277162D01*
X19372296Y-46229543D01*
X19419915Y-46134305D01*
X19419915Y-46039067D01*
X19372296Y-45943829D01*
X19324677Y-45896210D01*
X19229439Y-45848590D01*
X19038962Y-45800971D01*
X18943724Y-45753352D01*
X18896105Y-45705733D01*
X18848486Y-45610495D01*
X18848486Y-45515257D01*
X18896105Y-45420019D01*
X18943724Y-45372400D01*
X19038962Y-45324781D01*
X19277058Y-45324781D01*
X19419915Y-45372400D01*
X19848486Y-46324781D02*
X19848486Y-45324781D01*
X20419915Y-46324781D02*
X19991343Y-45753352D01*
X20419915Y-45324781D02*
X19848486Y-45896210D01*
X18824676Y-43737162D02*
X18967533Y-43784781D01*
X19205629Y-43784781D01*
X19300867Y-43737162D01*
X19348486Y-43689543D01*
X19396105Y-43594305D01*
X19396105Y-43499067D01*
X19348486Y-43403829D01*
X19300867Y-43356210D01*
X19205629Y-43308590D01*
X19015152Y-43260971D01*
X18919914Y-43213352D01*
X18872295Y-43165733D01*
X18824676Y-43070495D01*
X18824676Y-42975257D01*
X18872295Y-42880019D01*
X18919914Y-42832400D01*
X19015152Y-42784781D01*
X19253248Y-42784781D01*
X19396105Y-42832400D01*
X20015152Y-42784781D02*
X20205629Y-42784781D01*
X20300867Y-42832400D01*
X20396105Y-42927638D01*
X20443724Y-43118114D01*
X20443724Y-43451448D01*
X20396105Y-43641924D01*
X20300867Y-43737162D01*
X20205629Y-43784781D01*
X20015152Y-43784781D01*
X19919914Y-43737162D01*
X19824676Y-43641924D01*
X19777057Y-43451448D01*
X19777057Y-43118114D01*
X19824676Y-42927638D01*
X19919914Y-42832400D01*
X20015152Y-42784781D01*
X18848486Y-41197162D02*
X18991343Y-41244781D01*
X19229439Y-41244781D01*
X19324677Y-41197162D01*
X19372296Y-41149543D01*
X19419915Y-41054305D01*
X19419915Y-40959067D01*
X19372296Y-40863829D01*
X19324677Y-40816210D01*
X19229439Y-40768590D01*
X19038962Y-40720971D01*
X18943724Y-40673352D01*
X18896105Y-40625733D01*
X18848486Y-40530495D01*
X18848486Y-40435257D01*
X18896105Y-40340019D01*
X18943724Y-40292400D01*
X19038962Y-40244781D01*
X19277058Y-40244781D01*
X19419915Y-40292400D01*
X20419915Y-41149543D02*
X20372296Y-41197162D01*
X20229439Y-41244781D01*
X20134201Y-41244781D01*
X19991343Y-41197162D01*
X19896105Y-41101924D01*
X19848486Y-41006686D01*
X19800867Y-40816210D01*
X19800867Y-40673352D01*
X19848486Y-40482876D01*
X19896105Y-40387638D01*
X19991343Y-40292400D01*
X20134201Y-40244781D01*
X20229439Y-40244781D01*
X20372296Y-40292400D01*
X20419915Y-40340019D01*
X18872295Y-38657162D02*
X19015152Y-38704781D01*
X19253248Y-38704781D01*
X19348486Y-38657162D01*
X19396105Y-38609543D01*
X19443724Y-38514305D01*
X19443724Y-38419067D01*
X19396105Y-38323829D01*
X19348486Y-38276210D01*
X19253248Y-38228590D01*
X19062771Y-38180971D01*
X18967533Y-38133352D01*
X18919914Y-38085733D01*
X18872295Y-37990495D01*
X18872295Y-37895257D01*
X18919914Y-37800019D01*
X18967533Y-37752400D01*
X19062771Y-37704781D01*
X19300867Y-37704781D01*
X19443724Y-37752400D01*
X20396105Y-38704781D02*
X19824676Y-38704781D01*
X20110390Y-38704781D02*
X20110390Y-37704781D01*
X20015152Y-37847638D01*
X19919914Y-37942876D01*
X19824676Y-37990495D01*
X18872295Y-36117162D02*
X19015152Y-36164781D01*
X19253248Y-36164781D01*
X19348486Y-36117162D01*
X19396105Y-36069543D01*
X19443724Y-35974305D01*
X19443724Y-35879067D01*
X19396105Y-35783829D01*
X19348486Y-35736210D01*
X19253248Y-35688590D01*
X19062771Y-35640971D01*
X18967533Y-35593352D01*
X18919914Y-35545733D01*
X18872295Y-35450495D01*
X18872295Y-35355257D01*
X18919914Y-35260019D01*
X18967533Y-35212400D01*
X19062771Y-35164781D01*
X19300867Y-35164781D01*
X19443724Y-35212400D01*
X19824676Y-35260019D02*
X19872295Y-35212400D01*
X19967533Y-35164781D01*
X20205629Y-35164781D01*
X20300867Y-35212400D01*
X20348486Y-35260019D01*
X20396105Y-35355257D01*
X20396105Y-35450495D01*
X20348486Y-35593352D01*
X19777057Y-36164781D01*
X20396105Y-36164781D01*
X18872295Y-33577162D02*
X19015152Y-33624781D01*
X19253248Y-33624781D01*
X19348486Y-33577162D01*
X19396105Y-33529543D01*
X19443724Y-33434305D01*
X19443724Y-33339067D01*
X19396105Y-33243829D01*
X19348486Y-33196210D01*
X19253248Y-33148590D01*
X19062771Y-33100971D01*
X18967533Y-33053352D01*
X18919914Y-33005733D01*
X18872295Y-32910495D01*
X18872295Y-32815257D01*
X18919914Y-32720019D01*
X18967533Y-32672400D01*
X19062771Y-32624781D01*
X19300867Y-32624781D01*
X19443724Y-32672400D01*
X19777057Y-32624781D02*
X20396105Y-32624781D01*
X20062771Y-33005733D01*
X20205629Y-33005733D01*
X20300867Y-33053352D01*
X20348486Y-33100971D01*
X20396105Y-33196210D01*
X20396105Y-33434305D01*
X20348486Y-33529543D01*
X20300867Y-33577162D01*
X20205629Y-33624781D01*
X19919914Y-33624781D01*
X19824676Y-33577162D01*
X19777057Y-33529543D01*
X18777057Y-30084781D02*
X19110390Y-31084781D01*
X19443724Y-30084781D01*
X19777057Y-30084781D02*
X19777057Y-30894305D01*
X19824676Y-30989543D01*
X19872295Y-31037162D01*
X19967533Y-31084781D01*
X20158010Y-31084781D01*
X20253248Y-31037162D01*
X20300867Y-30989543D01*
X20348486Y-30894305D01*
X20348486Y-30084781D01*
X19896105Y-27592400D02*
X19800867Y-27544781D01*
X19658010Y-27544781D01*
X19515152Y-27592400D01*
X19419914Y-27687638D01*
X19372295Y-27782876D01*
X19324676Y-27973352D01*
X19324676Y-28116210D01*
X19372295Y-28306686D01*
X19419914Y-28401924D01*
X19515152Y-28497162D01*
X19658010Y-28544781D01*
X19753248Y-28544781D01*
X19896105Y-28497162D01*
X19943724Y-28449543D01*
X19943724Y-28116210D01*
X19753248Y-28116210D01*
X18919914Y-25719067D02*
X19396105Y-25719067D01*
X18824676Y-26004781D02*
X19158009Y-25004781D01*
X19491343Y-26004781D01*
X20015152Y-25004781D02*
X20110391Y-25004781D01*
X20205629Y-25052400D01*
X20253248Y-25100019D01*
X20300867Y-25195257D01*
X20348486Y-25385733D01*
X20348486Y-25623829D01*
X20300867Y-25814305D01*
X20253248Y-25909543D01*
X20205629Y-25957162D01*
X20110391Y-26004781D01*
X20015152Y-26004781D01*
X19919914Y-25957162D01*
X19872295Y-25909543D01*
X19824676Y-25814305D01*
X19777057Y-25623829D01*
X19777057Y-25385733D01*
X19824676Y-25195257D01*
X19872295Y-25100019D01*
X19919914Y-25052400D01*
X20015152Y-25004781D01*
X41732295Y-60564781D02*
X42351343Y-60564781D01*
X42018009Y-60945733D01*
X42160867Y-60945733D01*
X42256105Y-60993352D01*
X42303724Y-61040971D01*
X42351343Y-61136210D01*
X42351343Y-61374305D01*
X42303724Y-61469543D01*
X42256105Y-61517162D01*
X42160867Y-61564781D01*
X41875152Y-61564781D01*
X41779914Y-61517162D01*
X41732295Y-61469543D01*
X42637057Y-60564781D02*
X42970390Y-61564781D01*
X43303724Y-60564781D01*
X42756105Y-58072400D02*
X42660867Y-58024781D01*
X42518010Y-58024781D01*
X42375152Y-58072400D01*
X42279914Y-58167638D01*
X42232295Y-58262876D01*
X42184676Y-58453352D01*
X42184676Y-58596210D01*
X42232295Y-58786686D01*
X42279914Y-58881924D01*
X42375152Y-58977162D01*
X42518010Y-59024781D01*
X42613248Y-59024781D01*
X42756105Y-58977162D01*
X42803724Y-58929543D01*
X42803724Y-58596210D01*
X42613248Y-58596210D01*
X41732295Y-55484781D02*
X42303724Y-55484781D01*
X42018009Y-56484781D02*
X42018009Y-55484781D01*
X42541819Y-55484781D02*
X43208486Y-56484781D01*
X43208486Y-55484781D02*
X42541819Y-56484781D01*
X42327534Y-53944781D02*
X41994200Y-53468590D01*
X41756105Y-53944781D02*
X41756105Y-52944781D01*
X42137058Y-52944781D01*
X42232296Y-52992400D01*
X42279915Y-53040019D01*
X42327534Y-53135257D01*
X42327534Y-53278114D01*
X42279915Y-53373352D01*
X42232296Y-53420971D01*
X42137058Y-53468590D01*
X41756105Y-53468590D01*
X42660867Y-52944781D02*
X43327534Y-53944781D01*
X43327534Y-52944781D02*
X42660867Y-53944781D01*
X41756105Y-51404781D02*
X41756105Y-50404781D01*
X41994200Y-50404781D01*
X42137058Y-50452400D01*
X42232296Y-50547638D01*
X42279915Y-50642876D01*
X42327534Y-50833352D01*
X42327534Y-50976210D01*
X42279915Y-51166686D01*
X42232296Y-51261924D01*
X42137058Y-51357162D01*
X41994200Y-51404781D01*
X41756105Y-51404781D01*
X42898962Y-50833352D02*
X42803724Y-50785733D01*
X42756105Y-50738114D01*
X42708486Y-50642876D01*
X42708486Y-50595257D01*
X42756105Y-50500019D01*
X42803724Y-50452400D01*
X42898962Y-50404781D01*
X43089439Y-50404781D01*
X43184677Y-50452400D01*
X43232296Y-50500019D01*
X43279915Y-50595257D01*
X43279915Y-50642876D01*
X43232296Y-50738114D01*
X43184677Y-50785733D01*
X43089439Y-50833352D01*
X42898962Y-50833352D01*
X42803724Y-50880971D01*
X42756105Y-50928590D01*
X42708486Y-51023829D01*
X42708486Y-51214305D01*
X42756105Y-51309543D01*
X42803724Y-51357162D01*
X42898962Y-51404781D01*
X43089439Y-51404781D01*
X43184677Y-51357162D01*
X43232296Y-51309543D01*
X43279915Y-51214305D01*
X43279915Y-51023829D01*
X43232296Y-50928590D01*
X43184677Y-50880971D01*
X43089439Y-50833352D01*
X41756105Y-48864781D02*
X41756105Y-47864781D01*
X41994200Y-47864781D01*
X42137058Y-47912400D01*
X42232296Y-48007638D01*
X42279915Y-48102876D01*
X42327534Y-48293352D01*
X42327534Y-48436210D01*
X42279915Y-48626686D01*
X42232296Y-48721924D01*
X42137058Y-48817162D01*
X41994200Y-48864781D01*
X41756105Y-48864781D01*
X42660867Y-47864781D02*
X43327534Y-47864781D01*
X42898962Y-48864781D01*
X41756105Y-46324781D02*
X41756105Y-45324781D01*
X41994200Y-45324781D01*
X42137058Y-45372400D01*
X42232296Y-45467638D01*
X42279915Y-45562876D01*
X42327534Y-45753352D01*
X42327534Y-45896210D01*
X42279915Y-46086686D01*
X42232296Y-46181924D01*
X42137058Y-46277162D01*
X41994200Y-46324781D01*
X41756105Y-46324781D01*
X43184677Y-45324781D02*
X42994200Y-45324781D01*
X42898962Y-45372400D01*
X42851343Y-45420019D01*
X42756105Y-45562876D01*
X42708486Y-45753352D01*
X42708486Y-46134305D01*
X42756105Y-46229543D01*
X42803724Y-46277162D01*
X42898962Y-46324781D01*
X43089439Y-46324781D01*
X43184677Y-46277162D01*
X43232296Y-46229543D01*
X43279915Y-46134305D01*
X43279915Y-45896210D01*
X43232296Y-45800971D01*
X43184677Y-45753352D01*
X43089439Y-45705733D01*
X42898962Y-45705733D01*
X42803724Y-45753352D01*
X42756105Y-45800971D01*
X42708486Y-45896210D01*
X41756105Y-43784781D02*
X41756105Y-42784781D01*
X41994200Y-42784781D01*
X42137058Y-42832400D01*
X42232296Y-42927638D01*
X42279915Y-43022876D01*
X42327534Y-43213352D01*
X42327534Y-43356210D01*
X42279915Y-43546686D01*
X42232296Y-43641924D01*
X42137058Y-43737162D01*
X41994200Y-43784781D01*
X41756105Y-43784781D01*
X43232296Y-42784781D02*
X42756105Y-42784781D01*
X42708486Y-43260971D01*
X42756105Y-43213352D01*
X42851343Y-43165733D01*
X43089439Y-43165733D01*
X43184677Y-43213352D01*
X43232296Y-43260971D01*
X43279915Y-43356210D01*
X43279915Y-43594305D01*
X43232296Y-43689543D01*
X43184677Y-43737162D01*
X43089439Y-43784781D01*
X42851343Y-43784781D01*
X42756105Y-43737162D01*
X42708486Y-43689543D01*
X42756105Y-40292400D02*
X42660867Y-40244781D01*
X42518010Y-40244781D01*
X42375152Y-40292400D01*
X42279914Y-40387638D01*
X42232295Y-40482876D01*
X42184676Y-40673352D01*
X42184676Y-40816210D01*
X42232295Y-41006686D01*
X42279914Y-41101924D01*
X42375152Y-41197162D01*
X42518010Y-41244781D01*
X42613248Y-41244781D01*
X42756105Y-41197162D01*
X42803724Y-41149543D01*
X42803724Y-40816210D01*
X42613248Y-40816210D01*
X41732295Y-37704781D02*
X42351343Y-37704781D01*
X42018009Y-38085733D01*
X42160867Y-38085733D01*
X42256105Y-38133352D01*
X42303724Y-38180971D01*
X42351343Y-38276210D01*
X42351343Y-38514305D01*
X42303724Y-38609543D01*
X42256105Y-38657162D01*
X42160867Y-38704781D01*
X41875152Y-38704781D01*
X41779914Y-38657162D01*
X41732295Y-38609543D01*
X42637057Y-37704781D02*
X42970390Y-38704781D01*
X43303724Y-37704781D01*
X41756105Y-36164781D02*
X41756105Y-35164781D01*
X41994200Y-35164781D01*
X42137058Y-35212400D01*
X42232296Y-35307638D01*
X42279915Y-35402876D01*
X42327534Y-35593352D01*
X42327534Y-35736210D01*
X42279915Y-35926686D01*
X42232296Y-36021924D01*
X42137058Y-36117162D01*
X41994200Y-36164781D01*
X41756105Y-36164781D01*
X43184677Y-35498114D02*
X43184677Y-36164781D01*
X42946581Y-35117162D02*
X42708486Y-35831448D01*
X43327534Y-35831448D01*
X41756105Y-33624781D02*
X41756105Y-32624781D01*
X41994200Y-32624781D01*
X42137058Y-32672400D01*
X42232296Y-32767638D01*
X42279915Y-32862876D01*
X42327534Y-33053352D01*
X42327534Y-33196210D01*
X42279915Y-33386686D01*
X42232296Y-33481924D01*
X42137058Y-33577162D01*
X41994200Y-33624781D01*
X41756105Y-33624781D01*
X42660867Y-32624781D02*
X43279915Y-32624781D01*
X42946581Y-33005733D01*
X43089439Y-33005733D01*
X43184677Y-33053352D01*
X43232296Y-33100971D01*
X43279915Y-33196210D01*
X43279915Y-33434305D01*
X43232296Y-33529543D01*
X43184677Y-33577162D01*
X43089439Y-33624781D01*
X42803724Y-33624781D01*
X42708486Y-33577162D01*
X42660867Y-33529543D01*
X41756105Y-31084781D02*
X41756105Y-30084781D01*
X41994200Y-30084781D01*
X42137058Y-30132400D01*
X42232296Y-30227638D01*
X42279915Y-30322876D01*
X42327534Y-30513352D01*
X42327534Y-30656210D01*
X42279915Y-30846686D01*
X42232296Y-30941924D01*
X42137058Y-31037162D01*
X41994200Y-31084781D01*
X41756105Y-31084781D01*
X42708486Y-30180019D02*
X42756105Y-30132400D01*
X42851343Y-30084781D01*
X43089439Y-30084781D01*
X43184677Y-30132400D01*
X43232296Y-30180019D01*
X43279915Y-30275257D01*
X43279915Y-30370495D01*
X43232296Y-30513352D01*
X42660867Y-31084781D01*
X43279915Y-31084781D01*
X41756105Y-28544781D02*
X41756105Y-27544781D01*
X41994200Y-27544781D01*
X42137058Y-27592400D01*
X42232296Y-27687638D01*
X42279915Y-27782876D01*
X42327534Y-27973352D01*
X42327534Y-28116210D01*
X42279915Y-28306686D01*
X42232296Y-28401924D01*
X42137058Y-28497162D01*
X41994200Y-28544781D01*
X41756105Y-28544781D01*
X43279915Y-28544781D02*
X42708486Y-28544781D01*
X42994200Y-28544781D02*
X42994200Y-27544781D01*
X42898962Y-27687638D01*
X42803724Y-27782876D01*
X42708486Y-27830495D01*
X41756105Y-26004781D02*
X41756105Y-25004781D01*
X41994200Y-25004781D01*
X42137058Y-25052400D01*
X42232296Y-25147638D01*
X42279915Y-25242876D01*
X42327534Y-25433352D01*
X42327534Y-25576210D01*
X42279915Y-25766686D01*
X42232296Y-25861924D01*
X42137058Y-25957162D01*
X41994200Y-26004781D01*
X41756105Y-26004781D01*
X42946581Y-25004781D02*
X43041820Y-25004781D01*
X43137058Y-25052400D01*
X43184677Y-25100019D01*
X43232296Y-25195257D01*
X43279915Y-25385733D01*
X43279915Y-25623829D01*
X43232296Y-25814305D01*
X43184677Y-25909543D01*
X43137058Y-25957162D01*
X43041820Y-26004781D01*
X42946581Y-26004781D01*
X42851343Y-25957162D01*
X42803724Y-25909543D01*
X42756105Y-25814305D01*
X42708486Y-25623829D01*
X42708486Y-25385733D01*
X42756105Y-25195257D01*
X42803724Y-25100019D01*
X42851343Y-25052400D01*
X42946581Y-25004781D01*
X88118962Y-40324019D02*
X88023724Y-40276400D01*
X87928486Y-40181162D01*
X87785629Y-40038305D01*
X87690390Y-39990686D01*
X87595152Y-39990686D01*
X87642771Y-40228781D02*
X87547533Y-40181162D01*
X87452295Y-40085924D01*
X87404676Y-39895448D01*
X87404676Y-39562114D01*
X87452295Y-39371638D01*
X87547533Y-39276400D01*
X87642771Y-39228781D01*
X87833248Y-39228781D01*
X87928486Y-39276400D01*
X88023724Y-39371638D01*
X88071343Y-39562114D01*
X88071343Y-39895448D01*
X88023724Y-40085924D01*
X87928486Y-40181162D01*
X87833248Y-40228781D01*
X87642771Y-40228781D01*
X88452295Y-39324019D02*
X88499914Y-39276400D01*
X88595152Y-39228781D01*
X88833248Y-39228781D01*
X88928486Y-39276400D01*
X88976105Y-39324019D01*
X89023724Y-39419257D01*
X89023724Y-39514495D01*
X88976105Y-39657352D01*
X88404676Y-40228781D01*
X89023724Y-40228781D01*
X68336219Y-23336238D02*
X68288600Y-23431476D01*
X68193362Y-23526714D01*
X68050505Y-23669571D01*
X68002886Y-23764810D01*
X68002886Y-23860048D01*
X68240981Y-23812429D02*
X68193362Y-23907667D01*
X68098124Y-24002905D01*
X67907648Y-24050524D01*
X67574314Y-24050524D01*
X67383838Y-24002905D01*
X67288600Y-23907667D01*
X67240981Y-23812429D01*
X67240981Y-23621952D01*
X67288600Y-23526714D01*
X67383838Y-23431476D01*
X67574314Y-23383857D01*
X67907648Y-23383857D01*
X68098124Y-23431476D01*
X68193362Y-23526714D01*
X68240981Y-23621952D01*
X68240981Y-23812429D01*
X67240981Y-23050524D02*
X67240981Y-22431476D01*
X67621933Y-22764810D01*
X67621933Y-22621952D01*
X67669552Y-22526714D01*
X67717171Y-22479095D01*
X67812410Y-22431476D01*
X68050505Y-22431476D01*
X68145743Y-22479095D01*
X68193362Y-22526714D01*
X68240981Y-22621952D01*
X68240981Y-22907667D01*
X68193362Y-23002905D01*
X68145743Y-23050524D01*
X68387019Y-28848038D02*
X68339400Y-28943276D01*
X68244162Y-29038514D01*
X68101305Y-29181371D01*
X68053686Y-29276610D01*
X68053686Y-29371848D01*
X68291781Y-29324229D02*
X68244162Y-29419467D01*
X68148924Y-29514705D01*
X67958448Y-29562324D01*
X67625114Y-29562324D01*
X67434638Y-29514705D01*
X67339400Y-29419467D01*
X67291781Y-29324229D01*
X67291781Y-29133752D01*
X67339400Y-29038514D01*
X67434638Y-28943276D01*
X67625114Y-28895657D01*
X67958448Y-28895657D01*
X68148924Y-28943276D01*
X68244162Y-29038514D01*
X68291781Y-29133752D01*
X68291781Y-29324229D01*
X67625114Y-28038514D02*
X68291781Y-28038514D01*
X67244162Y-28276610D02*
X67958448Y-28514705D01*
X67958448Y-27895657D01*
X68361619Y-34436038D02*
X68314000Y-34531276D01*
X68218762Y-34626514D01*
X68075905Y-34769371D01*
X68028286Y-34864610D01*
X68028286Y-34959848D01*
X68266381Y-34912229D02*
X68218762Y-35007467D01*
X68123524Y-35102705D01*
X67933048Y-35150324D01*
X67599714Y-35150324D01*
X67409238Y-35102705D01*
X67314000Y-35007467D01*
X67266381Y-34912229D01*
X67266381Y-34721752D01*
X67314000Y-34626514D01*
X67409238Y-34531276D01*
X67599714Y-34483657D01*
X67933048Y-34483657D01*
X68123524Y-34531276D01*
X68218762Y-34626514D01*
X68266381Y-34721752D01*
X68266381Y-34912229D01*
X67266381Y-33578895D02*
X67266381Y-34055086D01*
X67742571Y-34102705D01*
X67694952Y-34055086D01*
X67647333Y-33959848D01*
X67647333Y-33721752D01*
X67694952Y-33626514D01*
X67742571Y-33578895D01*
X67837810Y-33531276D01*
X68075905Y-33531276D01*
X68171143Y-33578895D01*
X68218762Y-33626514D01*
X68266381Y-33721752D01*
X68266381Y-33959848D01*
X68218762Y-34055086D01*
X68171143Y-34102705D01*
X68310819Y-53613038D02*
X68263200Y-53708276D01*
X68167962Y-53803514D01*
X68025105Y-53946371D01*
X67977486Y-54041610D01*
X67977486Y-54136848D01*
X68215581Y-54089229D02*
X68167962Y-54184467D01*
X68072724Y-54279705D01*
X67882248Y-54327324D01*
X67548914Y-54327324D01*
X67358438Y-54279705D01*
X67263200Y-54184467D01*
X67215581Y-54089229D01*
X67215581Y-53898752D01*
X67263200Y-53803514D01*
X67358438Y-53708276D01*
X67548914Y-53660657D01*
X67882248Y-53660657D01*
X68072724Y-53708276D01*
X68167962Y-53803514D01*
X68215581Y-53898752D01*
X68215581Y-54089229D01*
X67215581Y-52803514D02*
X67215581Y-52993991D01*
X67263200Y-53089229D01*
X67310819Y-53136848D01*
X67453676Y-53232086D01*
X67644152Y-53279705D01*
X68025105Y-53279705D01*
X68120343Y-53232086D01*
X68167962Y-53184467D01*
X68215581Y-53089229D01*
X68215581Y-52898752D01*
X68167962Y-52803514D01*
X68120343Y-52755895D01*
X68025105Y-52708276D01*
X67787010Y-52708276D01*
X67691771Y-52755895D01*
X67644152Y-52803514D01*
X67596533Y-52898752D01*
X67596533Y-53089229D01*
X67644152Y-53184467D01*
X67691771Y-53232086D01*
X67787010Y-53279705D01*
X68387019Y-59175638D02*
X68339400Y-59270876D01*
X68244162Y-59366114D01*
X68101305Y-59508971D01*
X68053686Y-59604210D01*
X68053686Y-59699448D01*
X68291781Y-59651829D02*
X68244162Y-59747067D01*
X68148924Y-59842305D01*
X67958448Y-59889924D01*
X67625114Y-59889924D01*
X67434638Y-59842305D01*
X67339400Y-59747067D01*
X67291781Y-59651829D01*
X67291781Y-59461352D01*
X67339400Y-59366114D01*
X67434638Y-59270876D01*
X67625114Y-59223257D01*
X67958448Y-59223257D01*
X68148924Y-59270876D01*
X68244162Y-59366114D01*
X68291781Y-59461352D01*
X68291781Y-59651829D01*
X67291781Y-58889924D02*
X67291781Y-58223257D01*
X68291781Y-58651829D01*
X68310819Y-64636638D02*
X68263200Y-64731876D01*
X68167962Y-64827114D01*
X68025105Y-64969971D01*
X67977486Y-65065210D01*
X67977486Y-65160448D01*
X68215581Y-65112829D02*
X68167962Y-65208067D01*
X68072724Y-65303305D01*
X67882248Y-65350924D01*
X67548914Y-65350924D01*
X67358438Y-65303305D01*
X67263200Y-65208067D01*
X67215581Y-65112829D01*
X67215581Y-64922352D01*
X67263200Y-64827114D01*
X67358438Y-64731876D01*
X67548914Y-64684257D01*
X67882248Y-64684257D01*
X68072724Y-64731876D01*
X68167962Y-64827114D01*
X68215581Y-64922352D01*
X68215581Y-65112829D01*
X67644152Y-64112829D02*
X67596533Y-64208067D01*
X67548914Y-64255686D01*
X67453676Y-64303305D01*
X67406057Y-64303305D01*
X67310819Y-64255686D01*
X67263200Y-64208067D01*
X67215581Y-64112829D01*
X67215581Y-63922352D01*
X67263200Y-63827114D01*
X67310819Y-63779495D01*
X67406057Y-63731876D01*
X67453676Y-63731876D01*
X67548914Y-63779495D01*
X67596533Y-63827114D01*
X67644152Y-63922352D01*
X67644152Y-64112829D01*
X67691771Y-64208067D01*
X67739390Y-64255686D01*
X67834629Y-64303305D01*
X68025105Y-64303305D01*
X68120343Y-64255686D01*
X68167962Y-64208067D01*
X68215581Y-64112829D01*
X68215581Y-63922352D01*
X68167962Y-63827114D01*
X68120343Y-63779495D01*
X68025105Y-63731876D01*
X67834629Y-63731876D01*
X67739390Y-63779495D01*
X67691771Y-63827114D01*
X67644152Y-63922352D01*
X30045067Y-22649381D02*
X30045067Y-23363667D01*
X29997447Y-23506524D01*
X29902209Y-23601762D01*
X29759352Y-23649381D01*
X29664114Y-23649381D01*
X31045067Y-23649381D02*
X30473638Y-23649381D01*
X30759352Y-23649381D02*
X30759352Y-22649381D01*
X30664114Y-22792238D01*
X30568876Y-22887476D01*
X30473638Y-22935095D01*
X17929267Y-73957381D02*
X17929267Y-74671667D01*
X17881647Y-74814524D01*
X17786409Y-74909762D01*
X17643552Y-74957381D01*
X17548314Y-74957381D01*
X18357838Y-74052619D02*
X18405457Y-74005000D01*
X18500695Y-73957381D01*
X18738791Y-73957381D01*
X18834029Y-74005000D01*
X18881648Y-74052619D01*
X18929267Y-74147857D01*
X18929267Y-74243095D01*
X18881648Y-74385952D01*
X18310219Y-74957381D01*
X18929267Y-74957381D01*
X38477867Y-100366581D02*
X38477867Y-101080867D01*
X38430247Y-101223724D01*
X38335009Y-101318962D01*
X38192152Y-101366581D01*
X38096914Y-101366581D01*
X38858819Y-100366581D02*
X39477867Y-100366581D01*
X39144533Y-100747533D01*
X39287391Y-100747533D01*
X39382629Y-100795152D01*
X39430248Y-100842771D01*
X39477867Y-100938010D01*
X39477867Y-101176105D01*
X39430248Y-101271343D01*
X39382629Y-101318962D01*
X39287391Y-101366581D01*
X39001676Y-101366581D01*
X38906438Y-101318962D01*
X38858819Y-101271343D01*
X68068867Y-14717781D02*
X68068867Y-15432067D01*
X68021247Y-15574924D01*
X67926009Y-15670162D01*
X67783152Y-15717781D01*
X67687914Y-15717781D01*
X68973629Y-15051114D02*
X68973629Y-15717781D01*
X68735533Y-14670162D02*
X68497438Y-15384448D01*
X69116486Y-15384448D01*
X55241867Y-15022581D02*
X55241867Y-15736867D01*
X55194247Y-15879724D01*
X55099009Y-15974962D01*
X54956152Y-16022581D01*
X54860914Y-16022581D01*
X56194248Y-15022581D02*
X55718057Y-15022581D01*
X55670438Y-15498771D01*
X55718057Y-15451152D01*
X55813295Y-15403533D01*
X56051391Y-15403533D01*
X56146629Y-15451152D01*
X56194248Y-15498771D01*
X56241867Y-15594010D01*
X56241867Y-15832105D01*
X56194248Y-15927343D01*
X56146629Y-15974962D01*
X56051391Y-16022581D01*
X55813295Y-16022581D01*
X55718057Y-15974962D01*
X55670438Y-15927343D01*
X51025467Y-50563981D02*
X51025467Y-51278267D01*
X50977847Y-51421124D01*
X50882609Y-51516362D01*
X50739752Y-51563981D01*
X50644514Y-51563981D01*
X51930229Y-50563981D02*
X51739752Y-50563981D01*
X51644514Y-50611600D01*
X51596895Y-50659219D01*
X51501657Y-50802076D01*
X51454038Y-50992552D01*
X51454038Y-51373505D01*
X51501657Y-51468743D01*
X51549276Y-51516362D01*
X51644514Y-51563981D01*
X51834991Y-51563981D01*
X51930229Y-51516362D01*
X51977848Y-51468743D01*
X52025467Y-51373505D01*
X52025467Y-51135410D01*
X51977848Y-51040171D01*
X51930229Y-50992552D01*
X51834991Y-50944933D01*
X51644514Y-50944933D01*
X51549276Y-50992552D01*
X51501657Y-51040171D01*
X51454038Y-51135410D01*
X81170614Y-18974381D02*
X81170614Y-17974381D01*
X81408709Y-17974381D01*
X81551567Y-18022000D01*
X81646805Y-18117238D01*
X81694424Y-18212476D01*
X81742043Y-18402952D01*
X81742043Y-18545810D01*
X81694424Y-18736286D01*
X81646805Y-18831524D01*
X81551567Y-18926762D01*
X81408709Y-18974381D01*
X81170614Y-18974381D01*
X82694424Y-18974381D02*
X82122995Y-18974381D01*
X82408709Y-18974381D02*
X82408709Y-17974381D01*
X82313471Y-18117238D01*
X82218233Y-18212476D01*
X82122995Y-18260095D01*
X83551567Y-18307714D02*
X83551567Y-18974381D01*
X83313471Y-17926762D02*
X83075376Y-18641048D01*
X83694424Y-18641048D01*
X81424614Y-48565381D02*
X81424614Y-47565381D01*
X81662709Y-47565381D01*
X81805567Y-47613000D01*
X81900805Y-47708238D01*
X81948424Y-47803476D01*
X81996043Y-47993952D01*
X81996043Y-48136810D01*
X81948424Y-48327286D01*
X81900805Y-48422524D01*
X81805567Y-48517762D01*
X81662709Y-48565381D01*
X81424614Y-48565381D01*
X82948424Y-48565381D02*
X82376995Y-48565381D01*
X82662709Y-48565381D02*
X82662709Y-47565381D01*
X82567471Y-47708238D01*
X82472233Y-47803476D01*
X82376995Y-47851095D01*
X83853186Y-47565381D02*
X83376995Y-47565381D01*
X83329376Y-48041571D01*
X83376995Y-47993952D01*
X83472233Y-47946333D01*
X83710329Y-47946333D01*
X83805567Y-47993952D01*
X83853186Y-48041571D01*
X83900805Y-48136810D01*
X83900805Y-48374905D01*
X83853186Y-48470143D01*
X83805567Y-48517762D01*
X83710329Y-48565381D01*
X83472233Y-48565381D01*
X83376995Y-48517762D01*
X83329376Y-48470143D01*
M02*
