%TF.GenerationSoftware,KiCad,Pcbnew,4.0.5+dfsg1-4*%
%TF.CreationDate,2018-11-05T18:37:42-05:00*%
%TF.ProjectId,ButtonLEDsController,427574746F6E4C454473436F6E74726F,rev?*%
%TF.FileFunction,Legend,Bot*%
%FSLAX46Y46*%
G04 Gerber Fmt 4.6, Leading zero omitted, Abs format (unit mm)*
G04 Created by KiCad (PCBNEW 4.0.5+dfsg1-4) date Mon Nov  5 18:37:42 2018*
%MOMM*%
%LPD*%
G01*
G04 APERTURE LIST*
%ADD10C,0.100000*%
%ADD11C,0.120000*%
%ADD12C,0.150000*%
G04 APERTURE END LIST*
D10*
D11*
X21285662Y-97579600D02*
G75*
G02X19740370Y-92029600I-462J2990000D01*
G01*
X21284738Y-97579600D02*
G75*
G03X22830030Y-92029600I462J2990000D01*
G01*
X23785200Y-94589600D02*
G75*
G03X23785200Y-94589600I-2500000J0D01*
G01*
X19740200Y-92029600D02*
X22830200Y-92029600D01*
X28092862Y-97503400D02*
G75*
G02X26547570Y-91953400I-462J2990000D01*
G01*
X28091938Y-97503400D02*
G75*
G03X29637230Y-91953400I462J2990000D01*
G01*
X30592400Y-94513400D02*
G75*
G03X30592400Y-94513400I-2500000J0D01*
G01*
X26547400Y-91953400D02*
X29637400Y-91953400D01*
X34747662Y-97503400D02*
G75*
G02X33202370Y-91953400I-462J2990000D01*
G01*
X34746738Y-97503400D02*
G75*
G03X36292030Y-91953400I462J2990000D01*
G01*
X37247200Y-94513400D02*
G75*
G03X37247200Y-94513400I-2500000J0D01*
G01*
X33202200Y-91953400D02*
X36292200Y-91953400D01*
X41631062Y-97503400D02*
G75*
G02X40085770Y-91953400I-462J2990000D01*
G01*
X41630138Y-97503400D02*
G75*
G03X43175430Y-91953400I462J2990000D01*
G01*
X44130600Y-94513400D02*
G75*
G03X44130600Y-94513400I-2500000J0D01*
G01*
X40085600Y-91953400D02*
X43175600Y-91953400D01*
X48387462Y-97528800D02*
G75*
G02X46842170Y-91978800I-462J2990000D01*
G01*
X48386538Y-97528800D02*
G75*
G03X49931830Y-91978800I462J2990000D01*
G01*
X50887000Y-94538800D02*
G75*
G03X50887000Y-94538800I-2500000J0D01*
G01*
X46842000Y-91978800D02*
X49932000Y-91978800D01*
X55143862Y-97528800D02*
G75*
G02X53598570Y-91978800I-462J2990000D01*
G01*
X55142938Y-97528800D02*
G75*
G03X56688230Y-91978800I462J2990000D01*
G01*
X57643400Y-94538800D02*
G75*
G03X57643400Y-94538800I-2500000J0D01*
G01*
X53598400Y-91978800D02*
X56688400Y-91978800D01*
X62001862Y-97478800D02*
G75*
G02X60456570Y-91928800I-462J2990000D01*
G01*
X62000938Y-97478800D02*
G75*
G03X63546230Y-91928800I462J2990000D01*
G01*
X64501400Y-94488800D02*
G75*
G03X64501400Y-94488800I-2500000J0D01*
G01*
X60456400Y-91928800D02*
X63546400Y-91928800D01*
X68834462Y-97503400D02*
G75*
G02X67289170Y-91953400I-462J2990000D01*
G01*
X68833538Y-97503400D02*
G75*
G03X70378830Y-91953400I462J2990000D01*
G01*
X71334000Y-94513400D02*
G75*
G03X71334000Y-94513400I-2500000J0D01*
G01*
X67289000Y-91953400D02*
X70379000Y-91953400D01*
X75590862Y-97503400D02*
G75*
G02X74045570Y-91953400I-462J2990000D01*
G01*
X75589938Y-97503400D02*
G75*
G03X77135230Y-91953400I462J2990000D01*
G01*
X78090400Y-94513400D02*
G75*
G03X78090400Y-94513400I-2500000J0D01*
G01*
X74045400Y-91953400D02*
X77135400Y-91953400D01*
X82245662Y-97503400D02*
G75*
G02X80700370Y-91953400I-462J2990000D01*
G01*
X82244738Y-97503400D02*
G75*
G03X83790030Y-91953400I462J2990000D01*
G01*
X84745200Y-94513400D02*
G75*
G03X84745200Y-94513400I-2500000J0D01*
G01*
X80700200Y-91953400D02*
X83790200Y-91953400D01*
X88925862Y-97503400D02*
G75*
G02X87380570Y-91953400I-462J2990000D01*
G01*
X88924938Y-97503400D02*
G75*
G03X90470230Y-91953400I462J2990000D01*
G01*
X91425400Y-94513400D02*
G75*
G03X91425400Y-94513400I-2500000J0D01*
G01*
X87380400Y-91953400D02*
X90470400Y-91953400D01*
X96114062Y-97503400D02*
G75*
G02X94568770Y-91953400I-462J2990000D01*
G01*
X96113138Y-97503400D02*
G75*
G03X97658430Y-91953400I462J2990000D01*
G01*
X98613600Y-94513400D02*
G75*
G03X98613600Y-94513400I-2500000J0D01*
G01*
X94568600Y-91953400D02*
X97658600Y-91953400D01*
D12*
X17777581Y-93851505D02*
X16777581Y-93851505D01*
X16777581Y-94089600D01*
X16825200Y-94232458D01*
X16920438Y-94327696D01*
X17015676Y-94375315D01*
X17206152Y-94422934D01*
X17349010Y-94422934D01*
X17539486Y-94375315D01*
X17634724Y-94327696D01*
X17729962Y-94232458D01*
X17777581Y-94089600D01*
X17777581Y-93851505D01*
X17777581Y-95375315D02*
X17777581Y-94803886D01*
X17777581Y-95089600D02*
X16777581Y-95089600D01*
X16920438Y-94994362D01*
X17015676Y-94899124D01*
X17063295Y-94803886D01*
X24584781Y-93775305D02*
X23584781Y-93775305D01*
X23584781Y-94013400D01*
X23632400Y-94156258D01*
X23727638Y-94251496D01*
X23822876Y-94299115D01*
X24013352Y-94346734D01*
X24156210Y-94346734D01*
X24346686Y-94299115D01*
X24441924Y-94251496D01*
X24537162Y-94156258D01*
X24584781Y-94013400D01*
X24584781Y-93775305D01*
X23680019Y-94727686D02*
X23632400Y-94775305D01*
X23584781Y-94870543D01*
X23584781Y-95108639D01*
X23632400Y-95203877D01*
X23680019Y-95251496D01*
X23775257Y-95299115D01*
X23870495Y-95299115D01*
X24013352Y-95251496D01*
X24584781Y-94680067D01*
X24584781Y-95299115D01*
X31239581Y-93775305D02*
X30239581Y-93775305D01*
X30239581Y-94013400D01*
X30287200Y-94156258D01*
X30382438Y-94251496D01*
X30477676Y-94299115D01*
X30668152Y-94346734D01*
X30811010Y-94346734D01*
X31001486Y-94299115D01*
X31096724Y-94251496D01*
X31191962Y-94156258D01*
X31239581Y-94013400D01*
X31239581Y-93775305D01*
X30239581Y-94680067D02*
X30239581Y-95299115D01*
X30620533Y-94965781D01*
X30620533Y-95108639D01*
X30668152Y-95203877D01*
X30715771Y-95251496D01*
X30811010Y-95299115D01*
X31049105Y-95299115D01*
X31144343Y-95251496D01*
X31191962Y-95203877D01*
X31239581Y-95108639D01*
X31239581Y-94822924D01*
X31191962Y-94727686D01*
X31144343Y-94680067D01*
X38122981Y-93775305D02*
X37122981Y-93775305D01*
X37122981Y-94013400D01*
X37170600Y-94156258D01*
X37265838Y-94251496D01*
X37361076Y-94299115D01*
X37551552Y-94346734D01*
X37694410Y-94346734D01*
X37884886Y-94299115D01*
X37980124Y-94251496D01*
X38075362Y-94156258D01*
X38122981Y-94013400D01*
X38122981Y-93775305D01*
X37456314Y-95203877D02*
X38122981Y-95203877D01*
X37075362Y-94965781D02*
X37789648Y-94727686D01*
X37789648Y-95346734D01*
X44879381Y-93800705D02*
X43879381Y-93800705D01*
X43879381Y-94038800D01*
X43927000Y-94181658D01*
X44022238Y-94276896D01*
X44117476Y-94324515D01*
X44307952Y-94372134D01*
X44450810Y-94372134D01*
X44641286Y-94324515D01*
X44736524Y-94276896D01*
X44831762Y-94181658D01*
X44879381Y-94038800D01*
X44879381Y-93800705D01*
X43879381Y-95276896D02*
X43879381Y-94800705D01*
X44355571Y-94753086D01*
X44307952Y-94800705D01*
X44260333Y-94895943D01*
X44260333Y-95134039D01*
X44307952Y-95229277D01*
X44355571Y-95276896D01*
X44450810Y-95324515D01*
X44688905Y-95324515D01*
X44784143Y-95276896D01*
X44831762Y-95229277D01*
X44879381Y-95134039D01*
X44879381Y-94895943D01*
X44831762Y-94800705D01*
X44784143Y-94753086D01*
X51635781Y-93800705D02*
X50635781Y-93800705D01*
X50635781Y-94038800D01*
X50683400Y-94181658D01*
X50778638Y-94276896D01*
X50873876Y-94324515D01*
X51064352Y-94372134D01*
X51207210Y-94372134D01*
X51397686Y-94324515D01*
X51492924Y-94276896D01*
X51588162Y-94181658D01*
X51635781Y-94038800D01*
X51635781Y-93800705D01*
X50635781Y-95229277D02*
X50635781Y-95038800D01*
X50683400Y-94943562D01*
X50731019Y-94895943D01*
X50873876Y-94800705D01*
X51064352Y-94753086D01*
X51445305Y-94753086D01*
X51540543Y-94800705D01*
X51588162Y-94848324D01*
X51635781Y-94943562D01*
X51635781Y-95134039D01*
X51588162Y-95229277D01*
X51540543Y-95276896D01*
X51445305Y-95324515D01*
X51207210Y-95324515D01*
X51111971Y-95276896D01*
X51064352Y-95229277D01*
X51016733Y-95134039D01*
X51016733Y-94943562D01*
X51064352Y-94848324D01*
X51111971Y-94800705D01*
X51207210Y-94753086D01*
X58493781Y-93750705D02*
X57493781Y-93750705D01*
X57493781Y-93988800D01*
X57541400Y-94131658D01*
X57636638Y-94226896D01*
X57731876Y-94274515D01*
X57922352Y-94322134D01*
X58065210Y-94322134D01*
X58255686Y-94274515D01*
X58350924Y-94226896D01*
X58446162Y-94131658D01*
X58493781Y-93988800D01*
X58493781Y-93750705D01*
X57493781Y-94655467D02*
X57493781Y-95322134D01*
X58493781Y-94893562D01*
X65326381Y-93775305D02*
X64326381Y-93775305D01*
X64326381Y-94013400D01*
X64374000Y-94156258D01*
X64469238Y-94251496D01*
X64564476Y-94299115D01*
X64754952Y-94346734D01*
X64897810Y-94346734D01*
X65088286Y-94299115D01*
X65183524Y-94251496D01*
X65278762Y-94156258D01*
X65326381Y-94013400D01*
X65326381Y-93775305D01*
X64754952Y-94918162D02*
X64707333Y-94822924D01*
X64659714Y-94775305D01*
X64564476Y-94727686D01*
X64516857Y-94727686D01*
X64421619Y-94775305D01*
X64374000Y-94822924D01*
X64326381Y-94918162D01*
X64326381Y-95108639D01*
X64374000Y-95203877D01*
X64421619Y-95251496D01*
X64516857Y-95299115D01*
X64564476Y-95299115D01*
X64659714Y-95251496D01*
X64707333Y-95203877D01*
X64754952Y-95108639D01*
X64754952Y-94918162D01*
X64802571Y-94822924D01*
X64850190Y-94775305D01*
X64945429Y-94727686D01*
X65135905Y-94727686D01*
X65231143Y-94775305D01*
X65278762Y-94822924D01*
X65326381Y-94918162D01*
X65326381Y-95108639D01*
X65278762Y-95203877D01*
X65231143Y-95251496D01*
X65135905Y-95299115D01*
X64945429Y-95299115D01*
X64850190Y-95251496D01*
X64802571Y-95203877D01*
X64754952Y-95108639D01*
X72082781Y-93775305D02*
X71082781Y-93775305D01*
X71082781Y-94013400D01*
X71130400Y-94156258D01*
X71225638Y-94251496D01*
X71320876Y-94299115D01*
X71511352Y-94346734D01*
X71654210Y-94346734D01*
X71844686Y-94299115D01*
X71939924Y-94251496D01*
X72035162Y-94156258D01*
X72082781Y-94013400D01*
X72082781Y-93775305D01*
X72082781Y-94822924D02*
X72082781Y-95013400D01*
X72035162Y-95108639D01*
X71987543Y-95156258D01*
X71844686Y-95251496D01*
X71654210Y-95299115D01*
X71273257Y-95299115D01*
X71178019Y-95251496D01*
X71130400Y-95203877D01*
X71082781Y-95108639D01*
X71082781Y-94918162D01*
X71130400Y-94822924D01*
X71178019Y-94775305D01*
X71273257Y-94727686D01*
X71511352Y-94727686D01*
X71606590Y-94775305D01*
X71654210Y-94822924D01*
X71701829Y-94918162D01*
X71701829Y-95108639D01*
X71654210Y-95203877D01*
X71606590Y-95251496D01*
X71511352Y-95299115D01*
X78737581Y-93299114D02*
X77737581Y-93299114D01*
X77737581Y-93537209D01*
X77785200Y-93680067D01*
X77880438Y-93775305D01*
X77975676Y-93822924D01*
X78166152Y-93870543D01*
X78309010Y-93870543D01*
X78499486Y-93822924D01*
X78594724Y-93775305D01*
X78689962Y-93680067D01*
X78737581Y-93537209D01*
X78737581Y-93299114D01*
X78737581Y-94822924D02*
X78737581Y-94251495D01*
X78737581Y-94537209D02*
X77737581Y-94537209D01*
X77880438Y-94441971D01*
X77975676Y-94346733D01*
X78023295Y-94251495D01*
X77737581Y-95441971D02*
X77737581Y-95537210D01*
X77785200Y-95632448D01*
X77832819Y-95680067D01*
X77928057Y-95727686D01*
X78118533Y-95775305D01*
X78356629Y-95775305D01*
X78547105Y-95727686D01*
X78642343Y-95680067D01*
X78689962Y-95632448D01*
X78737581Y-95537210D01*
X78737581Y-95441971D01*
X78689962Y-95346733D01*
X78642343Y-95299114D01*
X78547105Y-95251495D01*
X78356629Y-95203876D01*
X78118533Y-95203876D01*
X77928057Y-95251495D01*
X77832819Y-95299114D01*
X77785200Y-95346733D01*
X77737581Y-95441971D01*
X85417781Y-93299114D02*
X84417781Y-93299114D01*
X84417781Y-93537209D01*
X84465400Y-93680067D01*
X84560638Y-93775305D01*
X84655876Y-93822924D01*
X84846352Y-93870543D01*
X84989210Y-93870543D01*
X85179686Y-93822924D01*
X85274924Y-93775305D01*
X85370162Y-93680067D01*
X85417781Y-93537209D01*
X85417781Y-93299114D01*
X85417781Y-94822924D02*
X85417781Y-94251495D01*
X85417781Y-94537209D02*
X84417781Y-94537209D01*
X84560638Y-94441971D01*
X84655876Y-94346733D01*
X84703495Y-94251495D01*
X85417781Y-95775305D02*
X85417781Y-95203876D01*
X85417781Y-95489590D02*
X84417781Y-95489590D01*
X84560638Y-95394352D01*
X84655876Y-95299114D01*
X84703495Y-95203876D01*
X92605981Y-93299114D02*
X91605981Y-93299114D01*
X91605981Y-93537209D01*
X91653600Y-93680067D01*
X91748838Y-93775305D01*
X91844076Y-93822924D01*
X92034552Y-93870543D01*
X92177410Y-93870543D01*
X92367886Y-93822924D01*
X92463124Y-93775305D01*
X92558362Y-93680067D01*
X92605981Y-93537209D01*
X92605981Y-93299114D01*
X92605981Y-94822924D02*
X92605981Y-94251495D01*
X92605981Y-94537209D02*
X91605981Y-94537209D01*
X91748838Y-94441971D01*
X91844076Y-94346733D01*
X91891695Y-94251495D01*
X91701219Y-95203876D02*
X91653600Y-95251495D01*
X91605981Y-95346733D01*
X91605981Y-95584829D01*
X91653600Y-95680067D01*
X91701219Y-95727686D01*
X91796457Y-95775305D01*
X91891695Y-95775305D01*
X92034552Y-95727686D01*
X92605981Y-95156257D01*
X92605981Y-95775305D01*
M02*
