M48
;DRILL file {KiCad 4.0.5+dfsg1-4} date Mon Nov  5 18:37:46 2018
;FORMAT={-:-/ absolute / inch / decimal}
FMAT,2
INCH,TZ
T1C0.016
T2C0.024
T3C0.028
T4C0.030
T5C0.035
T6C0.039
T7C0.040
T8C0.045
%
G90
G05
M72
T1
X1.539Y-0.956
X3.486Y-2.412
T2
X2.758Y-2.107
X2.758Y-2.541
X2.759Y-0.915
X2.76Y-1.352
X2.761Y-1.132
X2.761Y-2.326
X2.808Y-2.057
X2.808Y-2.157
X2.808Y-2.491
X2.808Y-2.591
X2.809Y-0.865
X2.809Y-0.965
X2.81Y-1.302
X2.81Y-1.402
X2.811Y-1.082
X2.811Y-1.182
X2.811Y-2.276
X2.811Y-2.376
X3.427Y-1.705
X3.477Y-1.655
X3.477Y-1.755
T3
X1.014Y-3.353
X1.314Y-3.353
X2.196Y-1.352
X2.197Y-1.134
X2.205Y-0.916
X2.2575Y-2.3275
X2.2595Y-2.5435
X2.2685Y-2.1075
X2.496Y-1.352
X2.497Y-1.134
X2.505Y-0.916
X2.5575Y-2.3275
X2.5595Y-2.5435
X2.5685Y-2.1075
X2.758Y-1.548
X2.758Y-1.848
X2.951Y-1.705
X3.251Y-1.705
T4
X0.673Y-1.006
X0.673Y-1.106
X0.673Y-1.206
X0.673Y-1.306
X0.673Y-1.406
X0.673Y-1.506
X0.673Y-1.606
X0.673Y-1.706
X0.673Y-1.806
X0.673Y-1.906
X0.673Y-2.006
X0.673Y-2.106
X0.673Y-2.206
X0.673Y-2.306
X0.673Y-2.406
X1.773Y-1.006
X1.773Y-1.106
X1.773Y-1.206
X1.773Y-1.306
X1.773Y-1.406
X1.773Y-1.506
X1.773Y-1.606
X1.773Y-1.706
X1.773Y-1.806
X1.773Y-1.906
X1.773Y-2.006
X1.773Y-2.106
X1.773Y-2.206
X1.773Y-2.306
X1.773Y-2.406
T5
X0.838Y-3.674
X0.838Y-3.774
X0.914Y-3.024
X1.014Y-3.024
X1.106Y-3.671
X1.106Y-3.771
X1.368Y-3.671
X1.368Y-3.771
X1.639Y-3.671
X1.639Y-3.771
X1.905Y-3.672
X1.905Y-3.772
X2.171Y-3.672
X2.171Y-3.772
X2.441Y-3.67
X2.441Y-3.77
X2.71Y-3.671
X2.71Y-3.771
X2.976Y-3.671
X2.976Y-3.771
X3.238Y-3.671
X3.238Y-3.771
X3.501Y-3.671
X3.501Y-3.771
X3.784Y-3.671
X3.784Y-3.771
T6
X0.719Y-3.025
X0.719Y-3.125
X0.719Y-3.225
X1.146Y-1.005
X1.146Y-1.105
X1.146Y-1.205
X1.146Y-1.305
X1.146Y-1.405
X1.146Y-1.505
X1.146Y-1.605
X1.146Y-1.705
X1.146Y-1.805
X1.146Y-1.905
X1.146Y-2.005
X1.146Y-2.105
X1.146Y-2.205
X1.146Y-2.305
X1.146Y-2.405
X1.246Y-1.005
X1.246Y-1.105
X1.246Y-1.205
X1.246Y-1.305
X1.246Y-1.405
X1.246Y-1.505
X1.246Y-1.605
X1.246Y-1.705
X1.246Y-1.805
X1.246Y-1.905
X1.246Y-2.005
X1.246Y-2.105
X1.246Y-2.205
X1.246Y-2.305
X1.246Y-2.405
X1.404Y-3.97
X2.022Y-2.104
X2.022Y-2.204
X2.072Y-0.66
X2.58Y-0.662
T7
X3.2435Y-0.93
X3.2435Y-1.03
X3.2435Y-1.13
X3.2435Y-1.23
X3.2535Y-2.095
X3.2535Y-2.195
X3.2535Y-2.295
X3.2535Y-2.395
T8
X2.59Y-1.605
X2.59Y-1.705
X2.59Y-1.805
T0
M30
