%TF.GenerationSoftware,KiCad,Pcbnew,4.0.5+dfsg1-4*%
%TF.CreationDate,2018-11-05T17:45:36-05:00*%
%TF.ProjectId,ControlUnitInput,436F6E74726F6C556E6974496E707574,rev?*%
%TF.FileFunction,Copper,L1,Top,Signal*%
%FSLAX46Y46*%
G04 Gerber Fmt 4.6, Leading zero omitted, Abs format (unit mm)*
G04 Created by KiCad (PCBNEW 4.0.5+dfsg1-4) date Mon Nov  5 17:45:36 2018*
%MOMM*%
%LPD*%
G01*
G04 APERTURE LIST*
%ADD10C,0.100000*%
%ADD11R,1.700000X1.700000*%
%ADD12O,1.700000X1.700000*%
%ADD13C,1.400000*%
%ADD14O,1.400000X1.400000*%
%ADD15C,2.000000*%
%ADD16C,1.524000*%
%ADD17R,1.600000X1.600000*%
%ADD18O,1.600000X1.600000*%
%ADD19C,0.600000*%
%ADD20C,0.250000*%
%ADD21C,0.500000*%
%ADD22C,0.254000*%
G04 APERTURE END LIST*
D10*
D11*
X15240000Y-63500000D03*
D12*
X15240000Y-66040000D03*
D13*
X73660000Y-20116800D03*
D14*
X66040000Y-20116800D03*
D13*
X66040000Y-15595600D03*
D14*
X73660000Y-15595600D03*
D13*
X94107000Y-14681200D03*
D14*
X94107000Y-22301200D03*
D13*
X94107000Y-24358600D03*
D14*
X94107000Y-31978600D03*
D13*
X94107000Y-34086800D03*
D14*
X94107000Y-41706800D03*
D13*
X94157800Y-44272200D03*
D14*
X94157800Y-51892200D03*
D13*
X94208600Y-54025800D03*
D14*
X94208600Y-61645800D03*
D13*
X94208600Y-64490600D03*
D14*
X94208600Y-72110600D03*
D13*
X95300800Y-74879200D03*
D14*
X95300800Y-82499200D03*
D13*
X95910400Y-85013800D03*
D14*
X95910400Y-92633800D03*
D13*
X66040000Y-54178200D03*
D14*
X73660000Y-54178200D03*
D13*
X73634600Y-48666400D03*
D14*
X66014600Y-48666400D03*
D13*
X45643800Y-80111600D03*
D14*
X45643800Y-87731600D03*
D13*
X35483800Y-80086200D03*
D14*
X35483800Y-87706200D03*
D13*
X25400000Y-80111600D03*
D14*
X25400000Y-87731600D03*
D13*
X15163800Y-80111600D03*
D14*
X15163800Y-87731600D03*
D13*
X86766400Y-79857600D03*
D14*
X86766400Y-87477600D03*
D13*
X76454000Y-79857600D03*
D14*
X76454000Y-87477600D03*
D13*
X65913000Y-79857600D03*
D14*
X65913000Y-87477600D03*
D13*
X55575200Y-80137000D03*
D14*
X55575200Y-87757000D03*
D15*
X99466400Y-21518000D03*
X99466400Y-17018000D03*
X105966400Y-21518000D03*
X105966400Y-17018000D03*
X99466400Y-31678000D03*
X99466400Y-27178000D03*
X105966400Y-31678000D03*
X105966400Y-27178000D03*
X99466400Y-41838000D03*
X99466400Y-37338000D03*
X105966400Y-41838000D03*
X105966400Y-37338000D03*
X99466400Y-51998000D03*
X99466400Y-47498000D03*
X105966400Y-51998000D03*
X105966400Y-47498000D03*
X99466400Y-62158000D03*
X99466400Y-57658000D03*
X105966400Y-62158000D03*
X105966400Y-57658000D03*
X99466400Y-72318000D03*
X99466400Y-67818000D03*
X105966400Y-72318000D03*
X105966400Y-67818000D03*
X99466400Y-82478000D03*
X99466400Y-77978000D03*
X105966400Y-82478000D03*
X105966400Y-77978000D03*
X99466400Y-92638000D03*
X99466400Y-88138000D03*
X105966400Y-92638000D03*
X105966400Y-88138000D03*
X45639600Y-91973400D03*
X50139600Y-91973400D03*
X45639600Y-98473400D03*
X50139600Y-98473400D03*
X35479600Y-91973400D03*
X39979600Y-91973400D03*
X35479600Y-98473400D03*
X39979600Y-98473400D03*
X25319600Y-91973400D03*
X29819600Y-91973400D03*
X25319600Y-98473400D03*
X29819600Y-98473400D03*
X15159600Y-92024200D03*
X19659600Y-92024200D03*
X15159600Y-98524200D03*
X19659600Y-98524200D03*
X86686000Y-91719400D03*
X91186000Y-91719400D03*
X86686000Y-98219400D03*
X91186000Y-98219400D03*
X76475200Y-91694000D03*
X80975200Y-91694000D03*
X76475200Y-98194000D03*
X80975200Y-98194000D03*
X65908800Y-91592400D03*
X70408800Y-91592400D03*
X65908800Y-98092400D03*
X70408800Y-98092400D03*
X55647200Y-91592400D03*
X60147200Y-91592400D03*
X55647200Y-98092400D03*
X60147200Y-98092400D03*
D16*
X17780000Y-24130000D03*
X17780000Y-26670000D03*
X17780000Y-29210000D03*
X17780000Y-31750000D03*
X17780000Y-34290000D03*
X17780000Y-36830000D03*
X17780000Y-39370000D03*
X17780000Y-41910000D03*
X17780000Y-44450000D03*
X17780000Y-46990000D03*
X17780000Y-49530000D03*
X17780000Y-52070000D03*
X17780000Y-54610000D03*
X17780000Y-57150000D03*
X17780000Y-59690000D03*
X45720000Y-59690000D03*
X45720000Y-57150000D03*
X45720000Y-54610000D03*
X45720000Y-52070000D03*
X45720000Y-49530000D03*
X45720000Y-46990000D03*
X45720000Y-44450000D03*
X45720000Y-41910000D03*
X45720000Y-39370000D03*
X45720000Y-36830000D03*
X45720000Y-34290000D03*
X45720000Y-31750000D03*
X45720000Y-29210000D03*
X45720000Y-26670000D03*
X45720000Y-24130000D03*
D17*
X66040000Y-25400000D03*
D18*
X73660000Y-43180000D03*
X66040000Y-27940000D03*
X73660000Y-40640000D03*
X66040000Y-30480000D03*
X73660000Y-38100000D03*
X66040000Y-33020000D03*
X73660000Y-35560000D03*
X66040000Y-35560000D03*
X73660000Y-33020000D03*
X66040000Y-38100000D03*
X73660000Y-30480000D03*
X66040000Y-40640000D03*
X73660000Y-27940000D03*
X66040000Y-43180000D03*
X73660000Y-25400000D03*
D17*
X66040000Y-58420000D03*
D18*
X73660000Y-76200000D03*
X66040000Y-60960000D03*
X73660000Y-73660000D03*
X66040000Y-63500000D03*
X73660000Y-71120000D03*
X66040000Y-66040000D03*
X73660000Y-68580000D03*
X66040000Y-68580000D03*
X73660000Y-66040000D03*
X66040000Y-71120000D03*
X73660000Y-63500000D03*
X66040000Y-73660000D03*
X73660000Y-60960000D03*
X66040000Y-76200000D03*
X73660000Y-58420000D03*
D11*
X15240000Y-24130000D03*
D12*
X15240000Y-26670000D03*
X15240000Y-29210000D03*
X15240000Y-31750000D03*
X15240000Y-34290000D03*
X15240000Y-36830000D03*
X15240000Y-39370000D03*
X15240000Y-41910000D03*
X15240000Y-44450000D03*
X15240000Y-46990000D03*
X15240000Y-49530000D03*
X15240000Y-52070000D03*
X15240000Y-54610000D03*
X15240000Y-57150000D03*
X15240000Y-59690000D03*
D11*
X48260000Y-59690000D03*
D12*
X48260000Y-57150000D03*
X48260000Y-54610000D03*
X48260000Y-52070000D03*
X48260000Y-49530000D03*
X48260000Y-46990000D03*
X48260000Y-44450000D03*
X48260000Y-41910000D03*
X48260000Y-39370000D03*
X48260000Y-36830000D03*
X48260000Y-34290000D03*
X48260000Y-31750000D03*
X48260000Y-29210000D03*
X48260000Y-26670000D03*
X48260000Y-24130000D03*
D11*
X15240000Y-71120000D03*
D12*
X15240000Y-73660000D03*
D19*
X58420000Y-27940000D03*
X58420000Y-31750000D03*
X58420000Y-55880000D03*
X84556600Y-57658000D03*
X86004400Y-67843400D03*
X87553800Y-78003400D03*
X53467000Y-66040000D03*
X45720000Y-68554600D03*
X34975800Y-71196200D03*
D20*
X15240000Y-24130000D02*
X17780000Y-24130000D01*
D21*
X45720000Y-24130000D02*
X48260000Y-24130000D01*
X48260000Y-26670000D02*
X57150000Y-26670000D01*
X57150000Y-26670000D02*
X58420000Y-27940000D01*
X73660000Y-27940000D02*
X68580000Y-22860000D01*
D20*
X52070000Y-26670000D02*
X48260000Y-26670000D01*
D21*
X55880000Y-22860000D02*
X52070000Y-26670000D01*
X68580000Y-22860000D02*
X55880000Y-22860000D01*
D20*
X45720000Y-26670000D02*
X48260000Y-26670000D01*
D21*
X73634600Y-48666400D02*
X75412600Y-48666400D01*
X75412600Y-48666400D02*
X76200000Y-49453800D01*
X76200000Y-49453800D02*
X76200000Y-58420000D01*
X76200000Y-58420000D02*
X73660000Y-60960000D01*
D20*
X45796200Y-26746200D02*
X45720000Y-26670000D01*
D21*
X49530000Y-30480000D02*
X48260000Y-29210000D01*
X57150000Y-30480000D02*
X49530000Y-30480000D01*
X58420000Y-31750000D02*
X57150000Y-30480000D01*
D20*
X73660000Y-30480000D02*
X72390000Y-30480000D01*
D21*
X71120000Y-29210000D02*
X48260000Y-29210000D01*
X72390000Y-30480000D02*
X71120000Y-29210000D01*
X45720000Y-29210000D02*
X48260000Y-29210000D01*
D20*
X15240000Y-31750000D02*
X17780000Y-31750000D01*
D21*
X52070000Y-41910000D02*
X58420000Y-48260000D01*
D20*
X58420000Y-48260000D02*
X58420000Y-55880000D01*
D21*
X48260000Y-41910000D02*
X52070000Y-41910000D01*
X73660000Y-33020000D02*
X72390000Y-33020000D01*
X57150000Y-36830000D02*
X52070000Y-41910000D01*
X68580000Y-36830000D02*
X57150000Y-36830000D01*
X72390000Y-33020000D02*
X68580000Y-36830000D01*
D20*
X45720000Y-41910000D02*
X48260000Y-41910000D01*
X73660000Y-66040000D02*
X73939400Y-66040000D01*
X17780000Y-34290000D02*
X15240000Y-34290000D01*
X45720000Y-34290000D02*
X48260000Y-34290000D01*
X15240000Y-36830000D02*
X17780000Y-36830000D01*
D21*
X66040000Y-58420000D02*
X66040000Y-54178200D01*
X17780000Y-49530000D02*
X22860000Y-49530000D01*
X33020000Y-59690000D02*
X45720000Y-59690000D01*
X22860000Y-49530000D02*
X33020000Y-59690000D01*
X66040000Y-58420000D02*
X52070000Y-58420000D01*
X50800000Y-59690000D02*
X48260000Y-59690000D01*
X52070000Y-58420000D02*
X50800000Y-59690000D01*
D20*
X15240000Y-49530000D02*
X17780000Y-49530000D01*
X45720000Y-36830000D02*
X48260000Y-36830000D01*
X45720000Y-59690000D02*
X48260000Y-59690000D01*
D21*
X66040000Y-54178200D02*
X66040000Y-48691800D01*
D20*
X66040000Y-48691800D02*
X66014600Y-48666400D01*
X66040000Y-63500000D02*
X66040000Y-60960000D01*
X66040000Y-60960000D02*
X66040000Y-58420000D01*
D21*
X73660000Y-58420000D02*
X66040000Y-58420000D01*
D20*
X15240000Y-39370000D02*
X17780000Y-39370000D01*
X15240000Y-73558400D02*
X15036800Y-73761600D01*
X15240000Y-41910000D02*
X17780000Y-41910000D01*
X15240000Y-44450000D02*
X17780000Y-44450000D01*
X45720000Y-44450000D02*
X48260000Y-44450000D01*
X45720000Y-46990000D02*
X48260000Y-46990000D01*
X45720000Y-49530000D02*
X48260000Y-49530000D01*
X15240000Y-52070000D02*
X17780000Y-52070000D01*
X45720000Y-52070000D02*
X48260000Y-52070000D01*
X15240000Y-54610000D02*
X17780000Y-54610000D01*
X45720000Y-54610000D02*
X48260000Y-54610000D01*
X15240000Y-59690000D02*
X15240000Y-63500000D01*
X15240000Y-59690000D02*
X17780000Y-59690000D01*
D21*
X105966400Y-21518000D02*
X99466400Y-21518000D01*
D20*
X99466400Y-21518000D02*
X98683200Y-22301200D01*
D21*
X98683200Y-22301200D02*
X94107000Y-22301200D01*
X105966400Y-31678000D02*
X99466400Y-31678000D01*
D20*
X99466400Y-31678000D02*
X99165800Y-31978600D01*
D21*
X99165800Y-31978600D02*
X94107000Y-31978600D01*
X105966400Y-41838000D02*
X99466400Y-41838000D01*
D20*
X99466400Y-41838000D02*
X99335200Y-41706800D01*
D21*
X99335200Y-41706800D02*
X94107000Y-41706800D01*
X105966400Y-51998000D02*
X99466400Y-51998000D01*
D20*
X99466400Y-51998000D02*
X99360600Y-51892200D01*
D21*
X99360600Y-51892200D02*
X94157800Y-51892200D01*
X105966400Y-62158000D02*
X99466400Y-62158000D01*
D20*
X99466400Y-62158000D02*
X98954200Y-61645800D01*
D21*
X98954200Y-61645800D02*
X94208600Y-61645800D01*
X105966400Y-72318000D02*
X99466400Y-72318000D01*
D20*
X99466400Y-72318000D02*
X99259000Y-72110600D01*
D21*
X99259000Y-72110600D02*
X94208600Y-72110600D01*
X105966400Y-82478000D02*
X99466400Y-82478000D01*
D20*
X99466400Y-82478000D02*
X99445200Y-82499200D01*
D21*
X99445200Y-82499200D02*
X95300800Y-82499200D01*
X105966400Y-92638000D02*
X99466400Y-92638000D01*
D20*
X99466400Y-92638000D02*
X99462200Y-92633800D01*
D21*
X99462200Y-92633800D02*
X95910400Y-92633800D01*
X45639600Y-98473400D02*
X45639600Y-91973400D01*
X45639600Y-91973400D02*
X45639600Y-87735800D01*
D20*
X45639600Y-87735800D02*
X45643800Y-87731600D01*
D21*
X35479600Y-91973400D02*
X35479600Y-87710400D01*
D20*
X35479600Y-87710400D02*
X35483800Y-87706200D01*
D21*
X35479600Y-98473400D02*
X35479600Y-91973400D01*
X25319600Y-91973400D02*
X25319600Y-87812000D01*
D20*
X25319600Y-87812000D02*
X25400000Y-87731600D01*
D21*
X25319600Y-98473400D02*
X25319600Y-91973400D01*
X15159600Y-98524200D02*
X15159600Y-92024200D01*
X15159600Y-92024200D02*
X15159600Y-87735800D01*
D20*
X15159600Y-87735800D02*
X15163800Y-87731600D01*
D21*
X86686000Y-91719400D02*
X86686000Y-87558000D01*
D20*
X86686000Y-87558000D02*
X86766400Y-87477600D01*
D21*
X86686000Y-98219400D02*
X86686000Y-91719400D01*
X76475200Y-91694000D02*
X76475200Y-98194000D01*
X76454000Y-87477600D02*
X76454000Y-91672800D01*
D20*
X76454000Y-91672800D02*
X76475200Y-91694000D01*
D21*
X65908800Y-91592400D02*
X65908800Y-87481800D01*
D20*
X65908800Y-87481800D02*
X65913000Y-87477600D01*
D21*
X65908800Y-98092400D02*
X65908800Y-91592400D01*
X55647200Y-98092400D02*
X55647200Y-91592400D01*
X55575200Y-87757000D02*
X55575200Y-91520400D01*
D20*
X55575200Y-91520400D02*
X55647200Y-91592400D01*
X84556600Y-57658000D02*
X84378800Y-57480200D01*
D21*
X84378800Y-57480200D02*
X84378800Y-53898800D01*
X84378800Y-53898800D02*
X73660000Y-43180000D01*
X86004400Y-67843400D02*
X86004400Y-51790600D01*
X86004400Y-51790600D02*
X74853800Y-40640000D01*
D20*
X74853800Y-40640000D02*
X73660000Y-40640000D01*
D21*
X87553800Y-78003400D02*
X87553800Y-51206400D01*
X87553800Y-51206400D02*
X74447400Y-38100000D01*
D20*
X74447400Y-38100000D02*
X73660000Y-38100000D01*
D21*
X105966400Y-88138000D02*
X99466400Y-88138000D01*
X99466400Y-88138000D02*
X97942400Y-86614000D01*
X97942400Y-86614000D02*
X93827600Y-86614000D01*
X93827600Y-86614000D02*
X88823800Y-81610200D01*
X88823800Y-81610200D02*
X88823800Y-50723800D01*
X88823800Y-50723800D02*
X73660000Y-35560000D01*
X50139600Y-98473400D02*
X50139600Y-91973400D01*
X53467000Y-66040000D02*
X66040000Y-66040000D01*
X45745400Y-68580000D02*
X66040000Y-68580000D01*
D20*
X45720000Y-68554600D02*
X45745400Y-68580000D01*
D21*
X39979600Y-98473400D02*
X39979600Y-91973400D01*
X35052000Y-71120000D02*
X66040000Y-71120000D01*
D20*
X34975800Y-71196200D02*
X35052000Y-71120000D01*
D21*
X29819600Y-98473400D02*
X29819600Y-91973400D01*
X19659600Y-92024200D02*
X19659600Y-78689200D01*
X24688800Y-73660000D02*
X66040000Y-73660000D01*
X19659600Y-78689200D02*
X24688800Y-73660000D01*
X19659600Y-98524200D02*
X19659600Y-92024200D01*
X91186000Y-91719400D02*
X91186000Y-89001600D01*
X78384400Y-76200000D02*
X73660000Y-76200000D01*
X91186000Y-89001600D02*
X78384400Y-76200000D01*
X91186000Y-98219400D02*
X91186000Y-91719400D01*
X80975200Y-91694000D02*
X80975200Y-89687400D01*
D20*
X72567800Y-73660000D02*
X73660000Y-73660000D01*
D21*
X71577200Y-74650600D02*
X72567800Y-73660000D01*
X71577200Y-80289400D02*
X71577200Y-74650600D01*
X80975200Y-89687400D02*
X71577200Y-80289400D01*
X80975200Y-98194000D02*
X80975200Y-91694000D01*
X70408800Y-91592400D02*
X70408800Y-73660000D01*
X70408800Y-73660000D02*
X72948800Y-71120000D01*
D20*
X72948800Y-71120000D02*
X73660000Y-71120000D01*
D21*
X70408800Y-98092400D02*
X70408800Y-91592400D01*
X60147200Y-91592400D02*
X60147200Y-87249000D01*
X68961000Y-73279000D02*
X73660000Y-68580000D01*
X68961000Y-83642200D02*
X68961000Y-73279000D01*
D20*
X69088000Y-83769200D02*
X68961000Y-83642200D01*
D21*
X63627000Y-83769200D02*
X69088000Y-83769200D01*
X60147200Y-87249000D02*
X63627000Y-83769200D01*
X60147200Y-98092400D02*
X60147200Y-91592400D01*
X45720000Y-31750000D02*
X48260000Y-31750000D01*
D22*
G36*
X93413169Y-13510158D02*
X93351331Y-13745925D01*
X94107000Y-14501595D01*
X94862669Y-13745925D01*
X94800831Y-13510158D01*
X94516358Y-13410000D01*
X108078200Y-13410000D01*
X108078200Y-101906000D01*
X13410000Y-101906000D01*
X13410000Y-92347995D01*
X13524316Y-92347995D01*
X13772706Y-92949143D01*
X14232237Y-93409478D01*
X14274600Y-93427069D01*
X14274600Y-97120802D01*
X14234657Y-97137306D01*
X13774322Y-97596837D01*
X13524884Y-98197552D01*
X13524316Y-98847995D01*
X13772706Y-99449143D01*
X14232237Y-99909478D01*
X14832952Y-100158916D01*
X15483395Y-100159484D01*
X16084543Y-99911094D01*
X16544878Y-99451563D01*
X16794316Y-98850848D01*
X16794884Y-98200405D01*
X16546494Y-97599257D01*
X16086963Y-97138922D01*
X16044600Y-97121331D01*
X16044600Y-93427598D01*
X16084543Y-93411094D01*
X16544878Y-92951563D01*
X16794316Y-92350848D01*
X16794884Y-91700405D01*
X16546494Y-91099257D01*
X16086963Y-90638922D01*
X16044600Y-90621331D01*
X16044600Y-88743963D01*
X16107788Y-88701742D01*
X16397179Y-88268636D01*
X16498800Y-87757754D01*
X16498800Y-87705446D01*
X16397179Y-87194564D01*
X16107788Y-86761458D01*
X15674682Y-86472067D01*
X15163800Y-86370446D01*
X14652918Y-86472067D01*
X14219812Y-86761458D01*
X13930421Y-87194564D01*
X13828800Y-87705446D01*
X13828800Y-87757754D01*
X13930421Y-88268636D01*
X14219812Y-88701742D01*
X14274600Y-88738350D01*
X14274600Y-90620802D01*
X14234657Y-90637306D01*
X13774322Y-91096837D01*
X13524884Y-91697552D01*
X13524316Y-92347995D01*
X13410000Y-92347995D01*
X13410000Y-81046875D01*
X14408131Y-81046875D01*
X14469969Y-81282642D01*
X14970922Y-81459019D01*
X15501240Y-81430264D01*
X15857631Y-81282642D01*
X15919469Y-81046875D01*
X15163800Y-80291205D01*
X14408131Y-81046875D01*
X13410000Y-81046875D01*
X13410000Y-79918722D01*
X13816381Y-79918722D01*
X13845136Y-80449040D01*
X13992758Y-80805431D01*
X14228525Y-80867269D01*
X14984195Y-80111600D01*
X15343405Y-80111600D01*
X16099075Y-80867269D01*
X16334842Y-80805431D01*
X16511219Y-80304478D01*
X16482464Y-79774160D01*
X16334842Y-79417769D01*
X16099075Y-79355931D01*
X15343405Y-80111600D01*
X14984195Y-80111600D01*
X14228525Y-79355931D01*
X13992758Y-79417769D01*
X13816381Y-79918722D01*
X13410000Y-79918722D01*
X13410000Y-79176325D01*
X14408131Y-79176325D01*
X15163800Y-79931995D01*
X15919469Y-79176325D01*
X15857631Y-78940558D01*
X15356678Y-78764181D01*
X14826360Y-78792936D01*
X14469969Y-78940558D01*
X14408131Y-79176325D01*
X13410000Y-79176325D01*
X13410000Y-74016890D01*
X13798524Y-74016890D01*
X13968355Y-74426924D01*
X14358642Y-74855183D01*
X14883108Y-75101486D01*
X15113000Y-74980819D01*
X15113000Y-73787000D01*
X15367000Y-73787000D01*
X15367000Y-74980819D01*
X15596892Y-75101486D01*
X16121358Y-74855183D01*
X16511645Y-74426924D01*
X16681476Y-74016890D01*
X16560155Y-73787000D01*
X15367000Y-73787000D01*
X15113000Y-73787000D01*
X13919845Y-73787000D01*
X13798524Y-74016890D01*
X13410000Y-74016890D01*
X13410000Y-70270000D01*
X13742560Y-70270000D01*
X13742560Y-71970000D01*
X13786838Y-72205317D01*
X13925910Y-72421441D01*
X14138110Y-72566431D01*
X14246107Y-72588301D01*
X13968355Y-72893076D01*
X13798524Y-73303110D01*
X13919845Y-73533000D01*
X15113000Y-73533000D01*
X15113000Y-73513000D01*
X15367000Y-73513000D01*
X15367000Y-73533000D01*
X16560155Y-73533000D01*
X16681476Y-73303110D01*
X16511645Y-72893076D01*
X16235499Y-72590063D01*
X16325317Y-72573162D01*
X16541441Y-72434090D01*
X16686431Y-72221890D01*
X16737440Y-71970000D01*
X16737440Y-70270000D01*
X16693162Y-70034683D01*
X16554090Y-69818559D01*
X16341890Y-69673569D01*
X16090000Y-69622560D01*
X14390000Y-69622560D01*
X14154683Y-69666838D01*
X13938559Y-69805910D01*
X13793569Y-70018110D01*
X13742560Y-70270000D01*
X13410000Y-70270000D01*
X13410000Y-66396890D01*
X13798524Y-66396890D01*
X13968355Y-66806924D01*
X14358642Y-67235183D01*
X14883108Y-67481486D01*
X15113000Y-67360819D01*
X15113000Y-66167000D01*
X15367000Y-66167000D01*
X15367000Y-67360819D01*
X15596892Y-67481486D01*
X16121358Y-67235183D01*
X16511645Y-66806924D01*
X16681476Y-66396890D01*
X16560155Y-66167000D01*
X15367000Y-66167000D01*
X15113000Y-66167000D01*
X13919845Y-66167000D01*
X13798524Y-66396890D01*
X13410000Y-66396890D01*
X13410000Y-26670000D01*
X13725907Y-26670000D01*
X13838946Y-27238285D01*
X14160853Y-27720054D01*
X14490026Y-27940000D01*
X14160853Y-28159946D01*
X13838946Y-28641715D01*
X13725907Y-29210000D01*
X13838946Y-29778285D01*
X14160853Y-30260054D01*
X14490026Y-30480000D01*
X14160853Y-30699946D01*
X13838946Y-31181715D01*
X13725907Y-31750000D01*
X13838946Y-32318285D01*
X14160853Y-32800054D01*
X14490026Y-33020000D01*
X14160853Y-33239946D01*
X13838946Y-33721715D01*
X13725907Y-34290000D01*
X13838946Y-34858285D01*
X14160853Y-35340054D01*
X14490026Y-35560000D01*
X14160853Y-35779946D01*
X13838946Y-36261715D01*
X13725907Y-36830000D01*
X13838946Y-37398285D01*
X14160853Y-37880054D01*
X14490026Y-38100000D01*
X14160853Y-38319946D01*
X13838946Y-38801715D01*
X13725907Y-39370000D01*
X13838946Y-39938285D01*
X14160853Y-40420054D01*
X14490026Y-40640000D01*
X14160853Y-40859946D01*
X13838946Y-41341715D01*
X13725907Y-41910000D01*
X13838946Y-42478285D01*
X14160853Y-42960054D01*
X14490026Y-43180000D01*
X14160853Y-43399946D01*
X13838946Y-43881715D01*
X13725907Y-44450000D01*
X13838946Y-45018285D01*
X14160853Y-45500054D01*
X14501553Y-45727702D01*
X14358642Y-45794817D01*
X13968355Y-46223076D01*
X13798524Y-46633110D01*
X13919845Y-46863000D01*
X15113000Y-46863000D01*
X15113000Y-46843000D01*
X15367000Y-46843000D01*
X15367000Y-46863000D01*
X15387000Y-46863000D01*
X15387000Y-47117000D01*
X15367000Y-47117000D01*
X15367000Y-47137000D01*
X15113000Y-47137000D01*
X15113000Y-47117000D01*
X13919845Y-47117000D01*
X13798524Y-47346890D01*
X13968355Y-47756924D01*
X14358642Y-48185183D01*
X14501553Y-48252298D01*
X14160853Y-48479946D01*
X13838946Y-48961715D01*
X13725907Y-49530000D01*
X13838946Y-50098285D01*
X14160853Y-50580054D01*
X14490026Y-50800000D01*
X14160853Y-51019946D01*
X13838946Y-51501715D01*
X13725907Y-52070000D01*
X13838946Y-52638285D01*
X14160853Y-53120054D01*
X14490026Y-53340000D01*
X14160853Y-53559946D01*
X13838946Y-54041715D01*
X13725907Y-54610000D01*
X13838946Y-55178285D01*
X14160853Y-55660054D01*
X14501553Y-55887702D01*
X14358642Y-55954817D01*
X13968355Y-56383076D01*
X13798524Y-56793110D01*
X13919845Y-57023000D01*
X15113000Y-57023000D01*
X15113000Y-57003000D01*
X15367000Y-57003000D01*
X15367000Y-57023000D01*
X15387000Y-57023000D01*
X15387000Y-57277000D01*
X15367000Y-57277000D01*
X15367000Y-57297000D01*
X15113000Y-57297000D01*
X15113000Y-57277000D01*
X13919845Y-57277000D01*
X13798524Y-57506890D01*
X13968355Y-57916924D01*
X14358642Y-58345183D01*
X14501553Y-58412298D01*
X14160853Y-58639946D01*
X13838946Y-59121715D01*
X13725907Y-59690000D01*
X13838946Y-60258285D01*
X14160853Y-60740054D01*
X14480000Y-60953301D01*
X14480000Y-62002560D01*
X14390000Y-62002560D01*
X14154683Y-62046838D01*
X13938559Y-62185910D01*
X13793569Y-62398110D01*
X13742560Y-62650000D01*
X13742560Y-64350000D01*
X13786838Y-64585317D01*
X13925910Y-64801441D01*
X14138110Y-64946431D01*
X14246107Y-64968301D01*
X13968355Y-65273076D01*
X13798524Y-65683110D01*
X13919845Y-65913000D01*
X15113000Y-65913000D01*
X15113000Y-65893000D01*
X15367000Y-65893000D01*
X15367000Y-65913000D01*
X16560155Y-65913000D01*
X16681476Y-65683110D01*
X16511645Y-65273076D01*
X16235499Y-64970063D01*
X16325317Y-64953162D01*
X16541441Y-64814090D01*
X16686431Y-64601890D01*
X16737440Y-64350000D01*
X16737440Y-62650000D01*
X16693162Y-62414683D01*
X16554090Y-62198559D01*
X16341890Y-62053569D01*
X16090000Y-62002560D01*
X16000000Y-62002560D01*
X16000000Y-60953301D01*
X16319147Y-60740054D01*
X16512954Y-60450000D01*
X16582469Y-60450000D01*
X16594990Y-60480303D01*
X16987630Y-60873629D01*
X17500900Y-61086757D01*
X18056661Y-61087242D01*
X18570303Y-60875010D01*
X18963629Y-60482370D01*
X19176757Y-59969100D01*
X19177242Y-59413339D01*
X18965010Y-58899697D01*
X18572370Y-58506371D01*
X18380273Y-58426605D01*
X18511143Y-58372397D01*
X18580608Y-58130213D01*
X17780000Y-57329605D01*
X16979392Y-58130213D01*
X17048857Y-58372397D01*
X17189318Y-58422509D01*
X16989697Y-58504990D01*
X16596371Y-58897630D01*
X16582930Y-58930000D01*
X16512954Y-58930000D01*
X16319147Y-58639946D01*
X15978447Y-58412298D01*
X16121358Y-58345183D01*
X16511645Y-57916924D01*
X16542034Y-57843555D01*
X16557603Y-57881143D01*
X16799787Y-57950608D01*
X17600395Y-57150000D01*
X17959605Y-57150000D01*
X18760213Y-57950608D01*
X19002397Y-57881143D01*
X19189144Y-57357698D01*
X19161362Y-56802632D01*
X19002397Y-56418857D01*
X18760213Y-56349392D01*
X17959605Y-57150000D01*
X17600395Y-57150000D01*
X16799787Y-56349392D01*
X16557603Y-56418857D01*
X16543194Y-56459246D01*
X16511645Y-56383076D01*
X16121358Y-55954817D01*
X15978447Y-55887702D01*
X16319147Y-55660054D01*
X16512954Y-55370000D01*
X16582469Y-55370000D01*
X16594990Y-55400303D01*
X16987630Y-55793629D01*
X17179727Y-55873395D01*
X17048857Y-55927603D01*
X16979392Y-56169787D01*
X17780000Y-56970395D01*
X18580608Y-56169787D01*
X18511143Y-55927603D01*
X18370682Y-55877491D01*
X18570303Y-55795010D01*
X18963629Y-55402370D01*
X19176757Y-54889100D01*
X19177242Y-54333339D01*
X18965010Y-53819697D01*
X18572370Y-53426371D01*
X18364488Y-53340051D01*
X18570303Y-53255010D01*
X18963629Y-52862370D01*
X19176757Y-52349100D01*
X19177242Y-51793339D01*
X18965010Y-51279697D01*
X18572370Y-50886371D01*
X18364488Y-50800051D01*
X18570303Y-50715010D01*
X18870837Y-50415000D01*
X22493420Y-50415000D01*
X32394208Y-60315787D01*
X32394210Y-60315790D01*
X32681325Y-60507633D01*
X32737516Y-60518810D01*
X33020000Y-60575001D01*
X33020005Y-60575000D01*
X44629522Y-60575000D01*
X44927630Y-60873629D01*
X45440900Y-61086757D01*
X45996661Y-61087242D01*
X46510303Y-60875010D01*
X46775738Y-60610037D01*
X46806838Y-60775317D01*
X46945910Y-60991441D01*
X47158110Y-61136431D01*
X47410000Y-61187440D01*
X49110000Y-61187440D01*
X49345317Y-61143162D01*
X49561441Y-61004090D01*
X49706431Y-60791890D01*
X49750352Y-60575000D01*
X50799995Y-60575000D01*
X50800000Y-60575001D01*
X51082484Y-60518810D01*
X51138675Y-60507633D01*
X51425790Y-60315790D01*
X52436579Y-59305000D01*
X64608554Y-59305000D01*
X64636838Y-59455317D01*
X64775910Y-59671441D01*
X64988110Y-59816431D01*
X65143089Y-59847815D01*
X64997189Y-59945302D01*
X64686120Y-60410849D01*
X64576887Y-60960000D01*
X64686120Y-61509151D01*
X64997189Y-61974698D01*
X65280000Y-62163667D01*
X65280000Y-62296333D01*
X64997189Y-62485302D01*
X64686120Y-62950849D01*
X64576887Y-63500000D01*
X64686120Y-64049151D01*
X64997189Y-64514698D01*
X65379275Y-64770000D01*
X64997189Y-65025302D01*
X64910527Y-65155000D01*
X53773822Y-65155000D01*
X53653799Y-65105162D01*
X53281833Y-65104838D01*
X52938057Y-65246883D01*
X52674808Y-65509673D01*
X52532162Y-65853201D01*
X52531838Y-66225167D01*
X52673883Y-66568943D01*
X52936673Y-66832192D01*
X53280201Y-66974838D01*
X53652167Y-66975162D01*
X53773569Y-66925000D01*
X64910527Y-66925000D01*
X64997189Y-67054698D01*
X65379275Y-67310000D01*
X64997189Y-67565302D01*
X64910527Y-67695000D01*
X46087991Y-67695000D01*
X45906799Y-67619762D01*
X45534833Y-67619438D01*
X45191057Y-67761483D01*
X44927808Y-68024273D01*
X44785162Y-68367801D01*
X44784838Y-68739767D01*
X44926883Y-69083543D01*
X45189673Y-69346792D01*
X45533201Y-69489438D01*
X45905167Y-69489762D01*
X45965096Y-69465000D01*
X64910527Y-69465000D01*
X64997189Y-69594698D01*
X65379275Y-69850000D01*
X64997189Y-70105302D01*
X64910527Y-70235000D01*
X35052000Y-70235000D01*
X34920530Y-70261151D01*
X34790633Y-70261038D01*
X34446857Y-70403083D01*
X34183608Y-70665873D01*
X34040962Y-71009401D01*
X34040638Y-71381367D01*
X34182683Y-71725143D01*
X34445473Y-71988392D01*
X34789001Y-72131038D01*
X35160967Y-72131362D01*
X35466787Y-72005000D01*
X64910527Y-72005000D01*
X64997189Y-72134698D01*
X65379275Y-72390000D01*
X64997189Y-72645302D01*
X64910527Y-72775000D01*
X24688805Y-72775000D01*
X24688800Y-72774999D01*
X24406316Y-72831190D01*
X24350125Y-72842367D01*
X24063010Y-73034210D01*
X24063008Y-73034213D01*
X19033810Y-78063410D01*
X18841967Y-78350525D01*
X18841967Y-78350526D01*
X18774599Y-78689200D01*
X18774600Y-78689205D01*
X18774600Y-90620802D01*
X18734657Y-90637306D01*
X18274322Y-91096837D01*
X18024884Y-91697552D01*
X18024316Y-92347995D01*
X18272706Y-92949143D01*
X18732237Y-93409478D01*
X18774600Y-93427069D01*
X18774600Y-97120802D01*
X18734657Y-97137306D01*
X18274322Y-97596837D01*
X18024884Y-98197552D01*
X18024316Y-98847995D01*
X18272706Y-99449143D01*
X18732237Y-99909478D01*
X19332952Y-100158916D01*
X19983395Y-100159484D01*
X20584543Y-99911094D01*
X21044878Y-99451563D01*
X21294316Y-98850848D01*
X21294884Y-98200405D01*
X21046494Y-97599257D01*
X20586963Y-97138922D01*
X20544600Y-97121331D01*
X20544600Y-93427598D01*
X20584543Y-93411094D01*
X21044878Y-92951563D01*
X21294316Y-92350848D01*
X21294362Y-92297195D01*
X23684316Y-92297195D01*
X23932706Y-92898343D01*
X24392237Y-93358678D01*
X24434600Y-93376269D01*
X24434600Y-97070002D01*
X24394657Y-97086506D01*
X23934322Y-97546037D01*
X23684884Y-98146752D01*
X23684316Y-98797195D01*
X23932706Y-99398343D01*
X24392237Y-99858678D01*
X24992952Y-100108116D01*
X25643395Y-100108684D01*
X26244543Y-99860294D01*
X26704878Y-99400763D01*
X26954316Y-98800048D01*
X26954884Y-98149605D01*
X26706494Y-97548457D01*
X26246963Y-97088122D01*
X26204600Y-97070531D01*
X26204600Y-93376798D01*
X26244543Y-93360294D01*
X26704878Y-92900763D01*
X26954316Y-92300048D01*
X26954318Y-92297195D01*
X28184316Y-92297195D01*
X28432706Y-92898343D01*
X28892237Y-93358678D01*
X28934600Y-93376269D01*
X28934600Y-97070002D01*
X28894657Y-97086506D01*
X28434322Y-97546037D01*
X28184884Y-98146752D01*
X28184316Y-98797195D01*
X28432706Y-99398343D01*
X28892237Y-99858678D01*
X29492952Y-100108116D01*
X30143395Y-100108684D01*
X30744543Y-99860294D01*
X31204878Y-99400763D01*
X31454316Y-98800048D01*
X31454884Y-98149605D01*
X31206494Y-97548457D01*
X30746963Y-97088122D01*
X30704600Y-97070531D01*
X30704600Y-93376798D01*
X30744543Y-93360294D01*
X31204878Y-92900763D01*
X31454316Y-92300048D01*
X31454318Y-92297195D01*
X33844316Y-92297195D01*
X34092706Y-92898343D01*
X34552237Y-93358678D01*
X34594600Y-93376269D01*
X34594600Y-97070002D01*
X34554657Y-97086506D01*
X34094322Y-97546037D01*
X33844884Y-98146752D01*
X33844316Y-98797195D01*
X34092706Y-99398343D01*
X34552237Y-99858678D01*
X35152952Y-100108116D01*
X35803395Y-100108684D01*
X36404543Y-99860294D01*
X36864878Y-99400763D01*
X37114316Y-98800048D01*
X37114884Y-98149605D01*
X36866494Y-97548457D01*
X36406963Y-97088122D01*
X36364600Y-97070531D01*
X36364600Y-93376798D01*
X36404543Y-93360294D01*
X36864878Y-92900763D01*
X37114316Y-92300048D01*
X37114318Y-92297195D01*
X38344316Y-92297195D01*
X38592706Y-92898343D01*
X39052237Y-93358678D01*
X39094600Y-93376269D01*
X39094600Y-97070002D01*
X39054657Y-97086506D01*
X38594322Y-97546037D01*
X38344884Y-98146752D01*
X38344316Y-98797195D01*
X38592706Y-99398343D01*
X39052237Y-99858678D01*
X39652952Y-100108116D01*
X40303395Y-100108684D01*
X40904543Y-99860294D01*
X41364878Y-99400763D01*
X41614316Y-98800048D01*
X41614884Y-98149605D01*
X41366494Y-97548457D01*
X40906963Y-97088122D01*
X40864600Y-97070531D01*
X40864600Y-93376798D01*
X40904543Y-93360294D01*
X41364878Y-92900763D01*
X41614316Y-92300048D01*
X41614318Y-92297195D01*
X44004316Y-92297195D01*
X44252706Y-92898343D01*
X44712237Y-93358678D01*
X44754600Y-93376269D01*
X44754600Y-97070002D01*
X44714657Y-97086506D01*
X44254322Y-97546037D01*
X44004884Y-98146752D01*
X44004316Y-98797195D01*
X44252706Y-99398343D01*
X44712237Y-99858678D01*
X45312952Y-100108116D01*
X45963395Y-100108684D01*
X46564543Y-99860294D01*
X47024878Y-99400763D01*
X47274316Y-98800048D01*
X47274884Y-98149605D01*
X47026494Y-97548457D01*
X46566963Y-97088122D01*
X46524600Y-97070531D01*
X46524600Y-93376798D01*
X46564543Y-93360294D01*
X47024878Y-92900763D01*
X47274316Y-92300048D01*
X47274318Y-92297195D01*
X48504316Y-92297195D01*
X48752706Y-92898343D01*
X49212237Y-93358678D01*
X49254600Y-93376269D01*
X49254600Y-97070002D01*
X49214657Y-97086506D01*
X48754322Y-97546037D01*
X48504884Y-98146752D01*
X48504316Y-98797195D01*
X48752706Y-99398343D01*
X49212237Y-99858678D01*
X49812952Y-100108116D01*
X50463395Y-100108684D01*
X51064543Y-99860294D01*
X51524878Y-99400763D01*
X51774316Y-98800048D01*
X51774884Y-98149605D01*
X51526494Y-97548457D01*
X51066963Y-97088122D01*
X51024600Y-97070531D01*
X51024600Y-93376798D01*
X51064543Y-93360294D01*
X51524878Y-92900763D01*
X51774316Y-92300048D01*
X51774651Y-91916195D01*
X54011916Y-91916195D01*
X54260306Y-92517343D01*
X54719837Y-92977678D01*
X54762200Y-92995269D01*
X54762200Y-96689002D01*
X54722257Y-96705506D01*
X54261922Y-97165037D01*
X54012484Y-97765752D01*
X54011916Y-98416195D01*
X54260306Y-99017343D01*
X54719837Y-99477678D01*
X55320552Y-99727116D01*
X55970995Y-99727684D01*
X56572143Y-99479294D01*
X57032478Y-99019763D01*
X57281916Y-98419048D01*
X57282484Y-97768605D01*
X57034094Y-97167457D01*
X56574563Y-96707122D01*
X56532200Y-96689531D01*
X56532200Y-92995798D01*
X56572143Y-92979294D01*
X57032478Y-92519763D01*
X57281916Y-91919048D01*
X57282484Y-91268605D01*
X57034094Y-90667457D01*
X56574563Y-90207122D01*
X56460200Y-90159634D01*
X56460200Y-88766556D01*
X56519188Y-88727142D01*
X56808579Y-88294036D01*
X56910200Y-87783154D01*
X56910200Y-87730846D01*
X56808579Y-87219964D01*
X56519188Y-86786858D01*
X56086082Y-86497467D01*
X55575200Y-86395846D01*
X55064318Y-86497467D01*
X54631212Y-86786858D01*
X54341821Y-87219964D01*
X54240200Y-87730846D01*
X54240200Y-87783154D01*
X54341821Y-88294036D01*
X54631212Y-88727142D01*
X54690200Y-88766556D01*
X54690200Y-90237507D01*
X54261922Y-90665037D01*
X54012484Y-91265752D01*
X54011916Y-91916195D01*
X51774651Y-91916195D01*
X51774884Y-91649605D01*
X51526494Y-91048457D01*
X51066963Y-90588122D01*
X50466248Y-90338684D01*
X49815805Y-90338116D01*
X49214657Y-90586506D01*
X48754322Y-91046037D01*
X48504884Y-91646752D01*
X48504316Y-92297195D01*
X47274318Y-92297195D01*
X47274884Y-91649605D01*
X47026494Y-91048457D01*
X46566963Y-90588122D01*
X46524600Y-90570531D01*
X46524600Y-88743963D01*
X46587788Y-88701742D01*
X46877179Y-88268636D01*
X46978800Y-87757754D01*
X46978800Y-87705446D01*
X46877179Y-87194564D01*
X46587788Y-86761458D01*
X46154682Y-86472067D01*
X45643800Y-86370446D01*
X45132918Y-86472067D01*
X44699812Y-86761458D01*
X44410421Y-87194564D01*
X44308800Y-87705446D01*
X44308800Y-87757754D01*
X44410421Y-88268636D01*
X44699812Y-88701742D01*
X44754600Y-88738350D01*
X44754600Y-90570002D01*
X44714657Y-90586506D01*
X44254322Y-91046037D01*
X44004884Y-91646752D01*
X44004316Y-92297195D01*
X41614318Y-92297195D01*
X41614884Y-91649605D01*
X41366494Y-91048457D01*
X40906963Y-90588122D01*
X40306248Y-90338684D01*
X39655805Y-90338116D01*
X39054657Y-90586506D01*
X38594322Y-91046037D01*
X38344884Y-91646752D01*
X38344316Y-92297195D01*
X37114318Y-92297195D01*
X37114884Y-91649605D01*
X36866494Y-91048457D01*
X36406963Y-90588122D01*
X36364600Y-90570531D01*
X36364600Y-88718563D01*
X36427788Y-88676342D01*
X36717179Y-88243236D01*
X36818800Y-87732354D01*
X36818800Y-87680046D01*
X36717179Y-87169164D01*
X36427788Y-86736058D01*
X35994682Y-86446667D01*
X35483800Y-86345046D01*
X34972918Y-86446667D01*
X34539812Y-86736058D01*
X34250421Y-87169164D01*
X34148800Y-87680046D01*
X34148800Y-87732354D01*
X34250421Y-88243236D01*
X34539812Y-88676342D01*
X34594600Y-88712950D01*
X34594600Y-90570002D01*
X34554657Y-90586506D01*
X34094322Y-91046037D01*
X33844884Y-91646752D01*
X33844316Y-92297195D01*
X31454318Y-92297195D01*
X31454884Y-91649605D01*
X31206494Y-91048457D01*
X30746963Y-90588122D01*
X30146248Y-90338684D01*
X29495805Y-90338116D01*
X28894657Y-90586506D01*
X28434322Y-91046037D01*
X28184884Y-91646752D01*
X28184316Y-92297195D01*
X26954318Y-92297195D01*
X26954884Y-91649605D01*
X26706494Y-91048457D01*
X26246963Y-90588122D01*
X26204600Y-90570531D01*
X26204600Y-88794878D01*
X26343988Y-88701742D01*
X26633379Y-88268636D01*
X26735000Y-87757754D01*
X26735000Y-87705446D01*
X26633379Y-87194564D01*
X26343988Y-86761458D01*
X25910882Y-86472067D01*
X25400000Y-86370446D01*
X24889118Y-86472067D01*
X24456012Y-86761458D01*
X24166621Y-87194564D01*
X24065000Y-87705446D01*
X24065000Y-87757754D01*
X24166621Y-88268636D01*
X24434600Y-88669697D01*
X24434600Y-90570002D01*
X24394657Y-90586506D01*
X23934322Y-91046037D01*
X23684884Y-91646752D01*
X23684316Y-92297195D01*
X21294362Y-92297195D01*
X21294884Y-91700405D01*
X21046494Y-91099257D01*
X20586963Y-90638922D01*
X20544600Y-90621331D01*
X20544600Y-81046875D01*
X24644331Y-81046875D01*
X24706169Y-81282642D01*
X25207122Y-81459019D01*
X25737440Y-81430264D01*
X26093831Y-81282642D01*
X26155669Y-81046875D01*
X26130270Y-81021475D01*
X34728131Y-81021475D01*
X34789969Y-81257242D01*
X35290922Y-81433619D01*
X35821240Y-81404864D01*
X36177631Y-81257242D01*
X36232806Y-81046875D01*
X44888131Y-81046875D01*
X44949969Y-81282642D01*
X45450922Y-81459019D01*
X45981240Y-81430264D01*
X46337631Y-81282642D01*
X46392806Y-81072275D01*
X54819531Y-81072275D01*
X54881369Y-81308042D01*
X55382322Y-81484419D01*
X55912640Y-81455664D01*
X56269031Y-81308042D01*
X56330869Y-81072275D01*
X55575200Y-80316605D01*
X54819531Y-81072275D01*
X46392806Y-81072275D01*
X46399469Y-81046875D01*
X45643800Y-80291205D01*
X44888131Y-81046875D01*
X36232806Y-81046875D01*
X36239469Y-81021475D01*
X35483800Y-80265805D01*
X34728131Y-81021475D01*
X26130270Y-81021475D01*
X25400000Y-80291205D01*
X24644331Y-81046875D01*
X20544600Y-81046875D01*
X20544600Y-79918722D01*
X24052581Y-79918722D01*
X24081336Y-80449040D01*
X24228958Y-80805431D01*
X24464725Y-80867269D01*
X25220395Y-80111600D01*
X25579605Y-80111600D01*
X26335275Y-80867269D01*
X26571042Y-80805431D01*
X26747419Y-80304478D01*
X26725126Y-79893322D01*
X34136381Y-79893322D01*
X34165136Y-80423640D01*
X34312758Y-80780031D01*
X34548525Y-80841869D01*
X35304195Y-80086200D01*
X35663405Y-80086200D01*
X36419075Y-80841869D01*
X36654842Y-80780031D01*
X36831219Y-80279078D01*
X36811680Y-79918722D01*
X44296381Y-79918722D01*
X44325136Y-80449040D01*
X44472758Y-80805431D01*
X44708525Y-80867269D01*
X45464195Y-80111600D01*
X45823405Y-80111600D01*
X46579075Y-80867269D01*
X46814842Y-80805431D01*
X46991219Y-80304478D01*
X46971680Y-79944122D01*
X54227781Y-79944122D01*
X54256536Y-80474440D01*
X54404158Y-80830831D01*
X54639925Y-80892669D01*
X55395595Y-80137000D01*
X55754805Y-80137000D01*
X56510475Y-80892669D01*
X56746242Y-80830831D01*
X56759605Y-80792875D01*
X65157331Y-80792875D01*
X65219169Y-81028642D01*
X65720122Y-81205019D01*
X66250440Y-81176264D01*
X66606831Y-81028642D01*
X66668669Y-80792875D01*
X65913000Y-80037205D01*
X65157331Y-80792875D01*
X56759605Y-80792875D01*
X56922619Y-80329878D01*
X56893864Y-79799560D01*
X56838013Y-79664722D01*
X64565581Y-79664722D01*
X64594336Y-80195040D01*
X64741958Y-80551431D01*
X64977725Y-80613269D01*
X65733395Y-79857600D01*
X66092605Y-79857600D01*
X66848275Y-80613269D01*
X67084042Y-80551431D01*
X67260419Y-80050478D01*
X67231664Y-79520160D01*
X67084042Y-79163769D01*
X66848275Y-79101931D01*
X66092605Y-79857600D01*
X65733395Y-79857600D01*
X64977725Y-79101931D01*
X64741958Y-79163769D01*
X64565581Y-79664722D01*
X56838013Y-79664722D01*
X56746242Y-79443169D01*
X56510475Y-79381331D01*
X55754805Y-80137000D01*
X55395595Y-80137000D01*
X54639925Y-79381331D01*
X54404158Y-79443169D01*
X54227781Y-79944122D01*
X46971680Y-79944122D01*
X46962464Y-79774160D01*
X46814842Y-79417769D01*
X46579075Y-79355931D01*
X45823405Y-80111600D01*
X45464195Y-80111600D01*
X44708525Y-79355931D01*
X44472758Y-79417769D01*
X44296381Y-79918722D01*
X36811680Y-79918722D01*
X36802464Y-79748760D01*
X36654842Y-79392369D01*
X36419075Y-79330531D01*
X35663405Y-80086200D01*
X35304195Y-80086200D01*
X34548525Y-79330531D01*
X34312758Y-79392369D01*
X34136381Y-79893322D01*
X26725126Y-79893322D01*
X26718664Y-79774160D01*
X26571042Y-79417769D01*
X26335275Y-79355931D01*
X25579605Y-80111600D01*
X25220395Y-80111600D01*
X24464725Y-79355931D01*
X24228958Y-79417769D01*
X24052581Y-79918722D01*
X20544600Y-79918722D01*
X20544600Y-79176325D01*
X24644331Y-79176325D01*
X25400000Y-79931995D01*
X26155669Y-79176325D01*
X26149007Y-79150925D01*
X34728131Y-79150925D01*
X35483800Y-79906595D01*
X36214069Y-79176325D01*
X44888131Y-79176325D01*
X45643800Y-79931995D01*
X46374069Y-79201725D01*
X54819531Y-79201725D01*
X55575200Y-79957395D01*
X56330869Y-79201725D01*
X56269031Y-78965958D01*
X56145103Y-78922325D01*
X65157331Y-78922325D01*
X65913000Y-79677995D01*
X66668669Y-78922325D01*
X66606831Y-78686558D01*
X66105878Y-78510181D01*
X65575560Y-78538936D01*
X65219169Y-78686558D01*
X65157331Y-78922325D01*
X56145103Y-78922325D01*
X55768078Y-78789581D01*
X55237760Y-78818336D01*
X54881369Y-78965958D01*
X54819531Y-79201725D01*
X46374069Y-79201725D01*
X46399469Y-79176325D01*
X46337631Y-78940558D01*
X45836678Y-78764181D01*
X45306360Y-78792936D01*
X44949969Y-78940558D01*
X44888131Y-79176325D01*
X36214069Y-79176325D01*
X36239469Y-79150925D01*
X36177631Y-78915158D01*
X35676678Y-78738781D01*
X35146360Y-78767536D01*
X34789969Y-78915158D01*
X34728131Y-79150925D01*
X26149007Y-79150925D01*
X26093831Y-78940558D01*
X25592878Y-78764181D01*
X25062560Y-78792936D01*
X24706169Y-78940558D01*
X24644331Y-79176325D01*
X20544600Y-79176325D01*
X20544600Y-79055780D01*
X23051340Y-76549039D01*
X64648096Y-76549039D01*
X64808959Y-76937423D01*
X65184866Y-77352389D01*
X65690959Y-77591914D01*
X65913000Y-77470629D01*
X65913000Y-76327000D01*
X66167000Y-76327000D01*
X66167000Y-77470629D01*
X66389041Y-77591914D01*
X66895134Y-77352389D01*
X67271041Y-76937423D01*
X67431904Y-76549039D01*
X67309915Y-76327000D01*
X66167000Y-76327000D01*
X65913000Y-76327000D01*
X64770085Y-76327000D01*
X64648096Y-76549039D01*
X23051340Y-76549039D01*
X25055379Y-74545000D01*
X64910527Y-74545000D01*
X64997189Y-74674698D01*
X65401703Y-74944986D01*
X65184866Y-75047611D01*
X64808959Y-75462577D01*
X64648096Y-75850961D01*
X64770085Y-76073000D01*
X65913000Y-76073000D01*
X65913000Y-76053000D01*
X66167000Y-76053000D01*
X66167000Y-76073000D01*
X67309915Y-76073000D01*
X67431904Y-75850961D01*
X67271041Y-75462577D01*
X66895134Y-75047611D01*
X66678297Y-74944986D01*
X67082811Y-74674698D01*
X67393880Y-74209151D01*
X67503113Y-73660000D01*
X67393880Y-73110849D01*
X67082811Y-72645302D01*
X66700725Y-72390000D01*
X67082811Y-72134698D01*
X67393880Y-71669151D01*
X67503113Y-71120000D01*
X67393880Y-70570849D01*
X67082811Y-70105302D01*
X66700725Y-69850000D01*
X67082811Y-69594698D01*
X67393880Y-69129151D01*
X67503113Y-68580000D01*
X67393880Y-68030849D01*
X67082811Y-67565302D01*
X66700725Y-67310000D01*
X67082811Y-67054698D01*
X67393880Y-66589151D01*
X67503113Y-66040000D01*
X67393880Y-65490849D01*
X67082811Y-65025302D01*
X66700725Y-64770000D01*
X67082811Y-64514698D01*
X67393880Y-64049151D01*
X67503113Y-63500000D01*
X67393880Y-62950849D01*
X67082811Y-62485302D01*
X66800000Y-62296333D01*
X66800000Y-62163667D01*
X67082811Y-61974698D01*
X67393880Y-61509151D01*
X67503113Y-60960000D01*
X67393880Y-60410849D01*
X67082811Y-59945302D01*
X66938535Y-59848899D01*
X67075317Y-59823162D01*
X67291441Y-59684090D01*
X67436431Y-59471890D01*
X67470227Y-59305000D01*
X72530527Y-59305000D01*
X72617189Y-59434698D01*
X72999275Y-59690000D01*
X72617189Y-59945302D01*
X72306120Y-60410849D01*
X72196887Y-60960000D01*
X72306120Y-61509151D01*
X72617189Y-61974698D01*
X72999275Y-62230000D01*
X72617189Y-62485302D01*
X72306120Y-62950849D01*
X72196887Y-63500000D01*
X72306120Y-64049151D01*
X72617189Y-64514698D01*
X72999275Y-64770000D01*
X72617189Y-65025302D01*
X72306120Y-65490849D01*
X72196887Y-66040000D01*
X72306120Y-66589151D01*
X72617189Y-67054698D01*
X72999275Y-67310000D01*
X72617189Y-67565302D01*
X72306120Y-68030849D01*
X72196887Y-68580000D01*
X72231983Y-68756438D01*
X68335210Y-72653210D01*
X68143367Y-72940325D01*
X68143367Y-72940326D01*
X68075999Y-73279000D01*
X68076000Y-73279005D01*
X68076000Y-82884200D01*
X63627000Y-82884200D01*
X63288325Y-82951567D01*
X63001210Y-83143410D01*
X63001208Y-83143413D01*
X59521410Y-86623210D01*
X59329567Y-86910325D01*
X59329567Y-86910326D01*
X59262199Y-87249000D01*
X59262200Y-87249005D01*
X59262200Y-90189002D01*
X59222257Y-90205506D01*
X58761922Y-90665037D01*
X58512484Y-91265752D01*
X58511916Y-91916195D01*
X58760306Y-92517343D01*
X59219837Y-92977678D01*
X59262200Y-92995269D01*
X59262200Y-96689002D01*
X59222257Y-96705506D01*
X58761922Y-97165037D01*
X58512484Y-97765752D01*
X58511916Y-98416195D01*
X58760306Y-99017343D01*
X59219837Y-99477678D01*
X59820552Y-99727116D01*
X60470995Y-99727684D01*
X61072143Y-99479294D01*
X61532478Y-99019763D01*
X61781916Y-98419048D01*
X61782484Y-97768605D01*
X61534094Y-97167457D01*
X61074563Y-96707122D01*
X61032200Y-96689531D01*
X61032200Y-92995798D01*
X61072143Y-92979294D01*
X61532478Y-92519763D01*
X61781916Y-91919048D01*
X61781918Y-91916195D01*
X64273516Y-91916195D01*
X64521906Y-92517343D01*
X64981437Y-92977678D01*
X65023800Y-92995269D01*
X65023800Y-96689002D01*
X64983857Y-96705506D01*
X64523522Y-97165037D01*
X64274084Y-97765752D01*
X64273516Y-98416195D01*
X64521906Y-99017343D01*
X64981437Y-99477678D01*
X65582152Y-99727116D01*
X66232595Y-99727684D01*
X66833743Y-99479294D01*
X67294078Y-99019763D01*
X67543516Y-98419048D01*
X67544084Y-97768605D01*
X67295694Y-97167457D01*
X66836163Y-96707122D01*
X66793800Y-96689531D01*
X66793800Y-92995798D01*
X66833743Y-92979294D01*
X67294078Y-92519763D01*
X67543516Y-91919048D01*
X67544084Y-91268605D01*
X67295694Y-90667457D01*
X66836163Y-90207122D01*
X66793800Y-90189531D01*
X66793800Y-88489963D01*
X66856988Y-88447742D01*
X67146379Y-88014636D01*
X67248000Y-87503754D01*
X67248000Y-87451446D01*
X67146379Y-86940564D01*
X66856988Y-86507458D01*
X66423882Y-86218067D01*
X65913000Y-86116446D01*
X65402118Y-86218067D01*
X64969012Y-86507458D01*
X64679621Y-86940564D01*
X64578000Y-87451446D01*
X64578000Y-87503754D01*
X64679621Y-88014636D01*
X64969012Y-88447742D01*
X65023800Y-88484350D01*
X65023800Y-90189002D01*
X64983857Y-90205506D01*
X64523522Y-90665037D01*
X64274084Y-91265752D01*
X64273516Y-91916195D01*
X61781918Y-91916195D01*
X61782484Y-91268605D01*
X61534094Y-90667457D01*
X61074563Y-90207122D01*
X61032200Y-90189531D01*
X61032200Y-87615580D01*
X63993579Y-84654200D01*
X69088000Y-84654200D01*
X69426675Y-84586833D01*
X69523800Y-84521937D01*
X69523800Y-90189002D01*
X69483857Y-90205506D01*
X69023522Y-90665037D01*
X68774084Y-91265752D01*
X68773516Y-91916195D01*
X69021906Y-92517343D01*
X69481437Y-92977678D01*
X69523800Y-92995269D01*
X69523800Y-96689002D01*
X69483857Y-96705506D01*
X69023522Y-97165037D01*
X68774084Y-97765752D01*
X68773516Y-98416195D01*
X69021906Y-99017343D01*
X69481437Y-99477678D01*
X70082152Y-99727116D01*
X70732595Y-99727684D01*
X71333743Y-99479294D01*
X71794078Y-99019763D01*
X72043516Y-98419048D01*
X72044084Y-97768605D01*
X71795694Y-97167457D01*
X71336163Y-96707122D01*
X71293800Y-96689531D01*
X71293800Y-92995798D01*
X71333743Y-92979294D01*
X71794078Y-92519763D01*
X72043516Y-91919048D01*
X72044084Y-91268605D01*
X71795694Y-90667457D01*
X71336163Y-90207122D01*
X71293800Y-90189531D01*
X71293800Y-81257580D01*
X76202661Y-86166441D01*
X75943118Y-86218067D01*
X75510012Y-86507458D01*
X75220621Y-86940564D01*
X75119000Y-87451446D01*
X75119000Y-87503754D01*
X75220621Y-88014636D01*
X75510012Y-88447742D01*
X75569000Y-88487156D01*
X75569000Y-90299362D01*
X75550257Y-90307106D01*
X75089922Y-90766637D01*
X74840484Y-91367352D01*
X74839916Y-92017795D01*
X75088306Y-92618943D01*
X75547837Y-93079278D01*
X75590200Y-93096869D01*
X75590200Y-96790602D01*
X75550257Y-96807106D01*
X75089922Y-97266637D01*
X74840484Y-97867352D01*
X74839916Y-98517795D01*
X75088306Y-99118943D01*
X75547837Y-99579278D01*
X76148552Y-99828716D01*
X76798995Y-99829284D01*
X77400143Y-99580894D01*
X77860478Y-99121363D01*
X78109916Y-98520648D01*
X78110484Y-97870205D01*
X77862094Y-97269057D01*
X77402563Y-96808722D01*
X77360200Y-96791131D01*
X77360200Y-93097398D01*
X77400143Y-93080894D01*
X77860478Y-92621363D01*
X78109916Y-92020648D01*
X78110484Y-91370205D01*
X77862094Y-90769057D01*
X77402563Y-90308722D01*
X77339000Y-90282328D01*
X77339000Y-88487156D01*
X77397988Y-88447742D01*
X77687379Y-88014636D01*
X77747684Y-87711463D01*
X80090200Y-90053979D01*
X80090200Y-90290602D01*
X80050257Y-90307106D01*
X79589922Y-90766637D01*
X79340484Y-91367352D01*
X79339916Y-92017795D01*
X79588306Y-92618943D01*
X80047837Y-93079278D01*
X80090200Y-93096869D01*
X80090200Y-96790602D01*
X80050257Y-96807106D01*
X79589922Y-97266637D01*
X79340484Y-97867352D01*
X79339916Y-98517795D01*
X79588306Y-99118943D01*
X80047837Y-99579278D01*
X80648552Y-99828716D01*
X81298995Y-99829284D01*
X81900143Y-99580894D01*
X82360478Y-99121363D01*
X82609916Y-98520648D01*
X82610484Y-97870205D01*
X82362094Y-97269057D01*
X81902563Y-96808722D01*
X81860200Y-96791131D01*
X81860200Y-93097398D01*
X81900143Y-93080894D01*
X82360478Y-92621363D01*
X82609916Y-92020648D01*
X82610484Y-91370205D01*
X82362094Y-90769057D01*
X81902563Y-90308722D01*
X81860200Y-90291131D01*
X81860200Y-89687405D01*
X81860201Y-89687400D01*
X81792833Y-89348726D01*
X81792833Y-89348725D01*
X81600990Y-89061610D01*
X81600987Y-89061608D01*
X73332255Y-80792875D01*
X75698331Y-80792875D01*
X75760169Y-81028642D01*
X76261122Y-81205019D01*
X76791440Y-81176264D01*
X77147831Y-81028642D01*
X77209669Y-80792875D01*
X76454000Y-80037205D01*
X75698331Y-80792875D01*
X73332255Y-80792875D01*
X72462200Y-79922820D01*
X72462200Y-79664722D01*
X75106581Y-79664722D01*
X75135336Y-80195040D01*
X75282958Y-80551431D01*
X75518725Y-80613269D01*
X76274395Y-79857600D01*
X76633605Y-79857600D01*
X77389275Y-80613269D01*
X77625042Y-80551431D01*
X77801419Y-80050478D01*
X77772664Y-79520160D01*
X77625042Y-79163769D01*
X77389275Y-79101931D01*
X76633605Y-79857600D01*
X76274395Y-79857600D01*
X75518725Y-79101931D01*
X75282958Y-79163769D01*
X75106581Y-79664722D01*
X72462200Y-79664722D01*
X72462200Y-78922325D01*
X75698331Y-78922325D01*
X76454000Y-79677995D01*
X77209669Y-78922325D01*
X77147831Y-78686558D01*
X76646878Y-78510181D01*
X76116560Y-78538936D01*
X75760169Y-78686558D01*
X75698331Y-78922325D01*
X72462200Y-78922325D01*
X72462200Y-76982741D01*
X72617189Y-77214698D01*
X73082736Y-77525767D01*
X73631887Y-77635000D01*
X73688113Y-77635000D01*
X74237264Y-77525767D01*
X74702811Y-77214698D01*
X74789473Y-77085000D01*
X78017820Y-77085000D01*
X87119504Y-86186683D01*
X86766400Y-86116446D01*
X86255518Y-86218067D01*
X85822412Y-86507458D01*
X85533021Y-86940564D01*
X85431400Y-87451446D01*
X85431400Y-87503754D01*
X85533021Y-88014636D01*
X85801000Y-88415697D01*
X85801000Y-90316002D01*
X85761057Y-90332506D01*
X85300722Y-90792037D01*
X85051284Y-91392752D01*
X85050716Y-92043195D01*
X85299106Y-92644343D01*
X85758637Y-93104678D01*
X85801000Y-93122269D01*
X85801000Y-96816002D01*
X85761057Y-96832506D01*
X85300722Y-97292037D01*
X85051284Y-97892752D01*
X85050716Y-98543195D01*
X85299106Y-99144343D01*
X85758637Y-99604678D01*
X86359352Y-99854116D01*
X87009795Y-99854684D01*
X87610943Y-99606294D01*
X88071278Y-99146763D01*
X88320716Y-98546048D01*
X88321284Y-97895605D01*
X88072894Y-97294457D01*
X87613363Y-96834122D01*
X87571000Y-96816531D01*
X87571000Y-93122798D01*
X87610943Y-93106294D01*
X88071278Y-92646763D01*
X88320716Y-92046048D01*
X88321284Y-91395605D01*
X88072894Y-90794457D01*
X87613363Y-90334122D01*
X87571000Y-90316531D01*
X87571000Y-88540878D01*
X87710388Y-88447742D01*
X87999779Y-88014636D01*
X88101400Y-87503754D01*
X88101400Y-87451446D01*
X88031163Y-87098342D01*
X90301000Y-89368179D01*
X90301000Y-90316002D01*
X90261057Y-90332506D01*
X89800722Y-90792037D01*
X89551284Y-91392752D01*
X89550716Y-92043195D01*
X89799106Y-92644343D01*
X90258637Y-93104678D01*
X90301000Y-93122269D01*
X90301000Y-96816002D01*
X90261057Y-96832506D01*
X89800722Y-97292037D01*
X89551284Y-97892752D01*
X89550716Y-98543195D01*
X89799106Y-99144343D01*
X90258637Y-99604678D01*
X90859352Y-99854116D01*
X91509795Y-99854684D01*
X92110943Y-99606294D01*
X92571278Y-99146763D01*
X92820716Y-98546048D01*
X92821284Y-97895605D01*
X92572894Y-97294457D01*
X92113363Y-96834122D01*
X92071000Y-96816531D01*
X92071000Y-93122798D01*
X92110943Y-93106294D01*
X92571278Y-92646763D01*
X92587520Y-92607646D01*
X94575400Y-92607646D01*
X94575400Y-92659954D01*
X94677021Y-93170836D01*
X94966412Y-93603942D01*
X95399518Y-93893333D01*
X95910400Y-93994954D01*
X96421282Y-93893333D01*
X96854388Y-93603942D01*
X96911278Y-93518800D01*
X98061266Y-93518800D01*
X98079506Y-93562943D01*
X98539037Y-94023278D01*
X99139752Y-94272716D01*
X99790195Y-94273284D01*
X100391343Y-94024894D01*
X100851678Y-93565363D01*
X100869269Y-93523000D01*
X104563002Y-93523000D01*
X104579506Y-93562943D01*
X105039037Y-94023278D01*
X105639752Y-94272716D01*
X106290195Y-94273284D01*
X106891343Y-94024894D01*
X107351678Y-93565363D01*
X107601116Y-92964648D01*
X107601684Y-92314205D01*
X107353294Y-91713057D01*
X106893763Y-91252722D01*
X106293048Y-91003284D01*
X105642605Y-91002716D01*
X105041457Y-91251106D01*
X104581122Y-91710637D01*
X104563531Y-91753000D01*
X100869798Y-91753000D01*
X100853294Y-91713057D01*
X100393763Y-91252722D01*
X99793048Y-91003284D01*
X99142605Y-91002716D01*
X98541457Y-91251106D01*
X98081122Y-91710637D01*
X98065275Y-91748800D01*
X96911278Y-91748800D01*
X96854388Y-91663658D01*
X96421282Y-91374267D01*
X95910400Y-91272646D01*
X95399518Y-91374267D01*
X94966412Y-91663658D01*
X94677021Y-92096764D01*
X94575400Y-92607646D01*
X92587520Y-92607646D01*
X92820716Y-92046048D01*
X92821284Y-91395605D01*
X92572894Y-90794457D01*
X92113363Y-90334122D01*
X92071000Y-90316531D01*
X92071000Y-89001600D01*
X92003633Y-88662925D01*
X91811790Y-88375810D01*
X91811787Y-88375808D01*
X84228855Y-80792875D01*
X86010731Y-80792875D01*
X86072569Y-81028642D01*
X86573522Y-81205019D01*
X87103840Y-81176264D01*
X87460231Y-81028642D01*
X87522069Y-80792875D01*
X86766400Y-80037205D01*
X86010731Y-80792875D01*
X84228855Y-80792875D01*
X83100702Y-79664722D01*
X85418981Y-79664722D01*
X85447736Y-80195040D01*
X85595358Y-80551431D01*
X85831125Y-80613269D01*
X86586795Y-79857600D01*
X85831125Y-79101931D01*
X85595358Y-79163769D01*
X85418981Y-79664722D01*
X83100702Y-79664722D01*
X79010190Y-75574210D01*
X78843118Y-75462577D01*
X78723075Y-75382367D01*
X78666884Y-75371190D01*
X78384400Y-75314999D01*
X78384395Y-75315000D01*
X74789473Y-75315000D01*
X74702811Y-75185302D01*
X74320725Y-74930000D01*
X74702811Y-74674698D01*
X75013880Y-74209151D01*
X75123113Y-73660000D01*
X75013880Y-73110849D01*
X74702811Y-72645302D01*
X74320725Y-72390000D01*
X74702811Y-72134698D01*
X75013880Y-71669151D01*
X75123113Y-71120000D01*
X75013880Y-70570849D01*
X74702811Y-70105302D01*
X74320725Y-69850000D01*
X74702811Y-69594698D01*
X75013880Y-69129151D01*
X75123113Y-68580000D01*
X75013880Y-68030849D01*
X74702811Y-67565302D01*
X74320725Y-67310000D01*
X74702811Y-67054698D01*
X75013880Y-66589151D01*
X75123113Y-66040000D01*
X75013880Y-65490849D01*
X74702811Y-65025302D01*
X74320725Y-64770000D01*
X74702811Y-64514698D01*
X75013880Y-64049151D01*
X75123113Y-63500000D01*
X75013880Y-62950849D01*
X74702811Y-62485302D01*
X74320725Y-62230000D01*
X74702811Y-61974698D01*
X75013880Y-61509151D01*
X75123113Y-60960000D01*
X75088017Y-60783562D01*
X76825787Y-59045792D01*
X76825790Y-59045790D01*
X77017633Y-58758675D01*
X77085000Y-58420000D01*
X77085000Y-49453805D01*
X77085001Y-49453800D01*
X77017633Y-49115126D01*
X77017633Y-49115125D01*
X76825790Y-48828010D01*
X76825787Y-48828008D01*
X76038390Y-48040610D01*
X76037558Y-48040054D01*
X75751275Y-47848767D01*
X75695084Y-47837590D01*
X75412600Y-47781399D01*
X75412595Y-47781400D01*
X74637473Y-47781400D01*
X74391804Y-47535302D01*
X73901313Y-47331632D01*
X73370217Y-47331169D01*
X72879371Y-47533982D01*
X72503502Y-47909196D01*
X72299832Y-48399687D01*
X72299369Y-48930783D01*
X72502182Y-49421629D01*
X72877396Y-49797498D01*
X73367887Y-50001168D01*
X73898983Y-50001631D01*
X74389829Y-49798818D01*
X74637679Y-49551400D01*
X75046020Y-49551400D01*
X75315000Y-49820379D01*
X75315000Y-58053421D01*
X75094130Y-58274291D01*
X75013880Y-57870849D01*
X74702811Y-57405302D01*
X74237264Y-57094233D01*
X73688113Y-56985000D01*
X73631887Y-56985000D01*
X73082736Y-57094233D01*
X72617189Y-57405302D01*
X72530527Y-57535000D01*
X67471446Y-57535000D01*
X67443162Y-57384683D01*
X67304090Y-57168559D01*
X67091890Y-57023569D01*
X66925000Y-56989773D01*
X66925000Y-55181073D01*
X67171098Y-54935404D01*
X67374768Y-54444913D01*
X67375000Y-54178200D01*
X72298846Y-54178200D01*
X72400467Y-54689082D01*
X72689858Y-55122188D01*
X73122964Y-55411579D01*
X73633846Y-55513200D01*
X73686154Y-55513200D01*
X74197036Y-55411579D01*
X74630142Y-55122188D01*
X74919533Y-54689082D01*
X75021154Y-54178200D01*
X74919533Y-53667318D01*
X74630142Y-53234212D01*
X74197036Y-52944821D01*
X73686154Y-52843200D01*
X73633846Y-52843200D01*
X73122964Y-52944821D01*
X72689858Y-53234212D01*
X72400467Y-53667318D01*
X72298846Y-54178200D01*
X67375000Y-54178200D01*
X67375231Y-53913817D01*
X67172418Y-53422971D01*
X66925000Y-53175121D01*
X66925000Y-49650306D01*
X66984742Y-49610388D01*
X67274133Y-49177282D01*
X67375754Y-48666400D01*
X67274133Y-48155518D01*
X66984742Y-47722412D01*
X66551636Y-47433021D01*
X66040754Y-47331400D01*
X65988446Y-47331400D01*
X65477564Y-47433021D01*
X65044458Y-47722412D01*
X64755067Y-48155518D01*
X64653446Y-48666400D01*
X64755067Y-49177282D01*
X65044458Y-49610388D01*
X65155000Y-49684250D01*
X65155000Y-53175327D01*
X64908902Y-53420996D01*
X64705232Y-53911487D01*
X64704769Y-54442583D01*
X64907582Y-54933429D01*
X65155000Y-55181279D01*
X65155000Y-56988554D01*
X65004683Y-57016838D01*
X64788559Y-57155910D01*
X64643569Y-57368110D01*
X64609773Y-57535000D01*
X52070005Y-57535000D01*
X52070000Y-57534999D01*
X51731325Y-57602367D01*
X51444210Y-57794210D01*
X51444208Y-57794213D01*
X50433420Y-58805000D01*
X49750854Y-58805000D01*
X49713162Y-58604683D01*
X49574090Y-58388559D01*
X49361890Y-58243569D01*
X49253893Y-58221699D01*
X49531645Y-57916924D01*
X49701476Y-57506890D01*
X49580155Y-57277000D01*
X48387000Y-57277000D01*
X48387000Y-57297000D01*
X48133000Y-57297000D01*
X48133000Y-57277000D01*
X48113000Y-57277000D01*
X48113000Y-57023000D01*
X48133000Y-57023000D01*
X48133000Y-57003000D01*
X48387000Y-57003000D01*
X48387000Y-57023000D01*
X49580155Y-57023000D01*
X49701476Y-56793110D01*
X49531645Y-56383076D01*
X49141358Y-55954817D01*
X48998447Y-55887702D01*
X49339147Y-55660054D01*
X49661054Y-55178285D01*
X49774093Y-54610000D01*
X49661054Y-54041715D01*
X49339147Y-53559946D01*
X49009974Y-53340000D01*
X49339147Y-53120054D01*
X49661054Y-52638285D01*
X49774093Y-52070000D01*
X49661054Y-51501715D01*
X49339147Y-51019946D01*
X49009974Y-50800000D01*
X49339147Y-50580054D01*
X49661054Y-50098285D01*
X49774093Y-49530000D01*
X49661054Y-48961715D01*
X49339147Y-48479946D01*
X49009974Y-48260000D01*
X49339147Y-48040054D01*
X49661054Y-47558285D01*
X49774093Y-46990000D01*
X49661054Y-46421715D01*
X49339147Y-45939946D01*
X49009974Y-45720000D01*
X49339147Y-45500054D01*
X49661054Y-45018285D01*
X49774093Y-44450000D01*
X49661054Y-43881715D01*
X49339147Y-43399946D01*
X49009974Y-43180000D01*
X49339147Y-42960054D01*
X49449432Y-42795000D01*
X51703420Y-42795000D01*
X57660000Y-48751579D01*
X57660000Y-55317537D01*
X57627808Y-55349673D01*
X57485162Y-55693201D01*
X57484838Y-56065167D01*
X57626883Y-56408943D01*
X57889673Y-56672192D01*
X58233201Y-56814838D01*
X58605167Y-56815162D01*
X58948943Y-56673117D01*
X59212192Y-56410327D01*
X59354838Y-56066799D01*
X59355162Y-55694833D01*
X59213117Y-55351057D01*
X59180000Y-55317882D01*
X59180000Y-48684928D01*
X59237633Y-48598674D01*
X59305001Y-48260000D01*
X59237633Y-47921325D01*
X59045789Y-47634210D01*
X54940619Y-43529039D01*
X64648096Y-43529039D01*
X64808959Y-43917423D01*
X65184866Y-44332389D01*
X65690959Y-44571914D01*
X65913000Y-44450629D01*
X65913000Y-43307000D01*
X66167000Y-43307000D01*
X66167000Y-44450629D01*
X66389041Y-44571914D01*
X66895134Y-44332389D01*
X67271041Y-43917423D01*
X67431904Y-43529039D01*
X67309915Y-43307000D01*
X66167000Y-43307000D01*
X65913000Y-43307000D01*
X64770085Y-43307000D01*
X64648096Y-43529039D01*
X54940619Y-43529039D01*
X53321580Y-41910000D01*
X57516579Y-37715000D01*
X64653468Y-37715000D01*
X64576887Y-38100000D01*
X64686120Y-38649151D01*
X64997189Y-39114698D01*
X65379275Y-39370000D01*
X64997189Y-39625302D01*
X64686120Y-40090849D01*
X64576887Y-40640000D01*
X64686120Y-41189151D01*
X64997189Y-41654698D01*
X65401703Y-41924986D01*
X65184866Y-42027611D01*
X64808959Y-42442577D01*
X64648096Y-42830961D01*
X64770085Y-43053000D01*
X65913000Y-43053000D01*
X65913000Y-43033000D01*
X66167000Y-43033000D01*
X66167000Y-43053000D01*
X67309915Y-43053000D01*
X67431904Y-42830961D01*
X67271041Y-42442577D01*
X66895134Y-42027611D01*
X66678297Y-41924986D01*
X67082811Y-41654698D01*
X67393880Y-41189151D01*
X67503113Y-40640000D01*
X67393880Y-40090849D01*
X67082811Y-39625302D01*
X66700725Y-39370000D01*
X67082811Y-39114698D01*
X67393880Y-38649151D01*
X67503113Y-38100000D01*
X67426532Y-37715000D01*
X68579995Y-37715000D01*
X68580000Y-37715001D01*
X68862484Y-37658810D01*
X68918675Y-37647633D01*
X69205790Y-37455790D01*
X69205791Y-37455789D01*
X72622999Y-34038580D01*
X72999275Y-34290000D01*
X72617189Y-34545302D01*
X72306120Y-35010849D01*
X72196887Y-35560000D01*
X72306120Y-36109151D01*
X72617189Y-36574698D01*
X72999275Y-36830000D01*
X72617189Y-37085302D01*
X72306120Y-37550849D01*
X72196887Y-38100000D01*
X72306120Y-38649151D01*
X72617189Y-39114698D01*
X72999275Y-39370000D01*
X72617189Y-39625302D01*
X72306120Y-40090849D01*
X72196887Y-40640000D01*
X72306120Y-41189151D01*
X72617189Y-41654698D01*
X72999275Y-41910000D01*
X72617189Y-42165302D01*
X72306120Y-42630849D01*
X72196887Y-43180000D01*
X72306120Y-43729151D01*
X72617189Y-44194698D01*
X73082736Y-44505767D01*
X73631887Y-44615000D01*
X73688113Y-44615000D01*
X73817653Y-44589233D01*
X83493800Y-54265379D01*
X83493800Y-57480200D01*
X83561167Y-57818875D01*
X83692802Y-58015882D01*
X83763483Y-58186943D01*
X84026273Y-58450192D01*
X84369801Y-58592838D01*
X84741767Y-58593162D01*
X85085543Y-58451117D01*
X85119400Y-58417319D01*
X85119400Y-67536578D01*
X85069562Y-67656601D01*
X85069238Y-68028567D01*
X85211283Y-68372343D01*
X85474073Y-68635592D01*
X85817601Y-68778238D01*
X86189567Y-68778562D01*
X86533343Y-68636517D01*
X86668800Y-68501296D01*
X86668800Y-77696578D01*
X86618962Y-77816601D01*
X86618638Y-78188567D01*
X86756078Y-78521199D01*
X86428960Y-78538936D01*
X86072569Y-78686558D01*
X86010731Y-78922325D01*
X86766400Y-79677995D01*
X86780542Y-79663852D01*
X86960148Y-79843458D01*
X86946005Y-79857600D01*
X87701675Y-80613269D01*
X87937442Y-80551431D01*
X87938800Y-80547574D01*
X87938800Y-81610195D01*
X87938799Y-81610200D01*
X87971750Y-81775852D01*
X88006167Y-81948875D01*
X88147586Y-82160525D01*
X88198010Y-82235990D01*
X93201808Y-87239787D01*
X93201810Y-87239790D01*
X93488925Y-87431633D01*
X93534809Y-87440760D01*
X93827600Y-87499001D01*
X93827605Y-87499000D01*
X97575820Y-87499000D01*
X97848258Y-87771438D01*
X97831684Y-87811352D01*
X97831116Y-88461795D01*
X98079506Y-89062943D01*
X98539037Y-89523278D01*
X99139752Y-89772716D01*
X99790195Y-89773284D01*
X100391343Y-89524894D01*
X100851678Y-89065363D01*
X100869269Y-89023000D01*
X104563002Y-89023000D01*
X104579506Y-89062943D01*
X105039037Y-89523278D01*
X105639752Y-89772716D01*
X106290195Y-89773284D01*
X106891343Y-89524894D01*
X107351678Y-89065363D01*
X107601116Y-88464648D01*
X107601684Y-87814205D01*
X107353294Y-87213057D01*
X106893763Y-86752722D01*
X106293048Y-86503284D01*
X105642605Y-86502716D01*
X105041457Y-86751106D01*
X104581122Y-87210637D01*
X104563531Y-87253000D01*
X100869798Y-87253000D01*
X100853294Y-87213057D01*
X100393763Y-86752722D01*
X99793048Y-86503284D01*
X99142605Y-86502716D01*
X99100212Y-86520232D01*
X98568190Y-85988210D01*
X98509620Y-85949075D01*
X98281075Y-85796367D01*
X98224884Y-85785190D01*
X97942400Y-85728999D01*
X97942395Y-85729000D01*
X96999969Y-85729000D01*
X97081442Y-85707631D01*
X97257819Y-85206678D01*
X97229064Y-84676360D01*
X97081442Y-84319969D01*
X96845675Y-84258131D01*
X96090005Y-85013800D01*
X96104148Y-85027942D01*
X95924542Y-85207548D01*
X95910400Y-85193405D01*
X95896258Y-85207548D01*
X95716652Y-85027942D01*
X95730795Y-85013800D01*
X94975125Y-84258131D01*
X94739358Y-84319969D01*
X94562981Y-84820922D01*
X94591736Y-85351240D01*
X94739358Y-85707631D01*
X94820831Y-85729000D01*
X94194179Y-85729000D01*
X90938226Y-82473046D01*
X93965800Y-82473046D01*
X93965800Y-82525354D01*
X94067421Y-83036236D01*
X94356812Y-83469342D01*
X94789918Y-83758733D01*
X95216359Y-83843558D01*
X95154731Y-84078525D01*
X95910400Y-84834195D01*
X96666069Y-84078525D01*
X96604231Y-83842758D01*
X96103278Y-83666381D01*
X95936351Y-83675432D01*
X96244788Y-83469342D01*
X96301678Y-83384200D01*
X98071762Y-83384200D01*
X98079506Y-83402943D01*
X98539037Y-83863278D01*
X99139752Y-84112716D01*
X99790195Y-84113284D01*
X100391343Y-83864894D01*
X100851678Y-83405363D01*
X100869269Y-83363000D01*
X104563002Y-83363000D01*
X104579506Y-83402943D01*
X105039037Y-83863278D01*
X105639752Y-84112716D01*
X106290195Y-84113284D01*
X106891343Y-83864894D01*
X107351678Y-83405363D01*
X107601116Y-82804648D01*
X107601684Y-82154205D01*
X107353294Y-81553057D01*
X106893763Y-81092722D01*
X106293048Y-80843284D01*
X105642605Y-80842716D01*
X105041457Y-81091106D01*
X104581122Y-81550637D01*
X104563531Y-81593000D01*
X100869798Y-81593000D01*
X100853294Y-81553057D01*
X100393763Y-81092722D01*
X99793048Y-80843284D01*
X99142605Y-80842716D01*
X98541457Y-81091106D01*
X98081122Y-81550637D01*
X98054728Y-81614200D01*
X96301678Y-81614200D01*
X96244788Y-81529058D01*
X95811682Y-81239667D01*
X95300800Y-81138046D01*
X94789918Y-81239667D01*
X94356812Y-81529058D01*
X94067421Y-81962164D01*
X93965800Y-82473046D01*
X90938226Y-82473046D01*
X89708800Y-81243620D01*
X89708800Y-78301795D01*
X97831116Y-78301795D01*
X98079506Y-78902943D01*
X98539037Y-79363278D01*
X99139752Y-79612716D01*
X99790195Y-79613284D01*
X100391343Y-79364894D01*
X100851678Y-78905363D01*
X101101116Y-78304648D01*
X101101118Y-78301795D01*
X104331116Y-78301795D01*
X104579506Y-78902943D01*
X105039037Y-79363278D01*
X105639752Y-79612716D01*
X106290195Y-79613284D01*
X106891343Y-79364894D01*
X107351678Y-78905363D01*
X107601116Y-78304648D01*
X107601684Y-77654205D01*
X107353294Y-77053057D01*
X106893763Y-76592722D01*
X106293048Y-76343284D01*
X105642605Y-76342716D01*
X105041457Y-76591106D01*
X104581122Y-77050637D01*
X104331684Y-77651352D01*
X104331116Y-78301795D01*
X101101118Y-78301795D01*
X101101684Y-77654205D01*
X100853294Y-77053057D01*
X100393763Y-76592722D01*
X99793048Y-76343284D01*
X99142605Y-76342716D01*
X98541457Y-76591106D01*
X98081122Y-77050637D01*
X97831684Y-77651352D01*
X97831116Y-78301795D01*
X89708800Y-78301795D01*
X89708800Y-75814475D01*
X94545131Y-75814475D01*
X94606969Y-76050242D01*
X95107922Y-76226619D01*
X95638240Y-76197864D01*
X95994631Y-76050242D01*
X96056469Y-75814475D01*
X95300800Y-75058805D01*
X94545131Y-75814475D01*
X89708800Y-75814475D01*
X89708800Y-74686322D01*
X93953381Y-74686322D01*
X93982136Y-75216640D01*
X94129758Y-75573031D01*
X94365525Y-75634869D01*
X95121195Y-74879200D01*
X95480405Y-74879200D01*
X96236075Y-75634869D01*
X96471842Y-75573031D01*
X96648219Y-75072078D01*
X96619464Y-74541760D01*
X96471842Y-74185369D01*
X96236075Y-74123531D01*
X95480405Y-74879200D01*
X95121195Y-74879200D01*
X94365525Y-74123531D01*
X94129758Y-74185369D01*
X93953381Y-74686322D01*
X89708800Y-74686322D01*
X89708800Y-73943925D01*
X94545131Y-73943925D01*
X95300800Y-74699595D01*
X96056469Y-73943925D01*
X95994631Y-73708158D01*
X95493678Y-73531781D01*
X94963360Y-73560536D01*
X94606969Y-73708158D01*
X94545131Y-73943925D01*
X89708800Y-73943925D01*
X89708800Y-72084446D01*
X92873600Y-72084446D01*
X92873600Y-72136754D01*
X92975221Y-72647636D01*
X93264612Y-73080742D01*
X93697718Y-73370133D01*
X94208600Y-73471754D01*
X94719482Y-73370133D01*
X95152588Y-73080742D01*
X95209478Y-72995600D01*
X97977306Y-72995600D01*
X98079506Y-73242943D01*
X98539037Y-73703278D01*
X99139752Y-73952716D01*
X99790195Y-73953284D01*
X100391343Y-73704894D01*
X100851678Y-73245363D01*
X100869269Y-73203000D01*
X104563002Y-73203000D01*
X104579506Y-73242943D01*
X105039037Y-73703278D01*
X105639752Y-73952716D01*
X106290195Y-73953284D01*
X106891343Y-73704894D01*
X107351678Y-73245363D01*
X107601116Y-72644648D01*
X107601684Y-71994205D01*
X107353294Y-71393057D01*
X106893763Y-70932722D01*
X106293048Y-70683284D01*
X105642605Y-70682716D01*
X105041457Y-70931106D01*
X104581122Y-71390637D01*
X104563531Y-71433000D01*
X100869798Y-71433000D01*
X100853294Y-71393057D01*
X100393763Y-70932722D01*
X99793048Y-70683284D01*
X99142605Y-70682716D01*
X98541457Y-70931106D01*
X98246448Y-71225600D01*
X95209478Y-71225600D01*
X95152588Y-71140458D01*
X94719482Y-70851067D01*
X94208600Y-70749446D01*
X93697718Y-70851067D01*
X93264612Y-71140458D01*
X92975221Y-71573564D01*
X92873600Y-72084446D01*
X89708800Y-72084446D01*
X89708800Y-68141795D01*
X97831116Y-68141795D01*
X98079506Y-68742943D01*
X98539037Y-69203278D01*
X99139752Y-69452716D01*
X99790195Y-69453284D01*
X100391343Y-69204894D01*
X100851678Y-68745363D01*
X101101116Y-68144648D01*
X101101118Y-68141795D01*
X104331116Y-68141795D01*
X104579506Y-68742943D01*
X105039037Y-69203278D01*
X105639752Y-69452716D01*
X106290195Y-69453284D01*
X106891343Y-69204894D01*
X107351678Y-68745363D01*
X107601116Y-68144648D01*
X107601684Y-67494205D01*
X107353294Y-66893057D01*
X106893763Y-66432722D01*
X106293048Y-66183284D01*
X105642605Y-66182716D01*
X105041457Y-66431106D01*
X104581122Y-66890637D01*
X104331684Y-67491352D01*
X104331116Y-68141795D01*
X101101118Y-68141795D01*
X101101684Y-67494205D01*
X100853294Y-66893057D01*
X100393763Y-66432722D01*
X99793048Y-66183284D01*
X99142605Y-66182716D01*
X98541457Y-66431106D01*
X98081122Y-66890637D01*
X97831684Y-67491352D01*
X97831116Y-68141795D01*
X89708800Y-68141795D01*
X89708800Y-65425875D01*
X93452931Y-65425875D01*
X93514769Y-65661642D01*
X94015722Y-65838019D01*
X94546040Y-65809264D01*
X94902431Y-65661642D01*
X94964269Y-65425875D01*
X94208600Y-64670205D01*
X93452931Y-65425875D01*
X89708800Y-65425875D01*
X89708800Y-64297722D01*
X92861181Y-64297722D01*
X92889936Y-64828040D01*
X93037558Y-65184431D01*
X93273325Y-65246269D01*
X94028995Y-64490600D01*
X94388205Y-64490600D01*
X95143875Y-65246269D01*
X95379642Y-65184431D01*
X95556019Y-64683478D01*
X95527264Y-64153160D01*
X95379642Y-63796769D01*
X95143875Y-63734931D01*
X94388205Y-64490600D01*
X94028995Y-64490600D01*
X93273325Y-63734931D01*
X93037558Y-63796769D01*
X92861181Y-64297722D01*
X89708800Y-64297722D01*
X89708800Y-63555325D01*
X93452931Y-63555325D01*
X94208600Y-64310995D01*
X94964269Y-63555325D01*
X94902431Y-63319558D01*
X94401478Y-63143181D01*
X93871160Y-63171936D01*
X93514769Y-63319558D01*
X93452931Y-63555325D01*
X89708800Y-63555325D01*
X89708800Y-61619646D01*
X92873600Y-61619646D01*
X92873600Y-61671954D01*
X92975221Y-62182836D01*
X93264612Y-62615942D01*
X93697718Y-62905333D01*
X94208600Y-63006954D01*
X94719482Y-62905333D01*
X95152588Y-62615942D01*
X95209478Y-62530800D01*
X97851365Y-62530800D01*
X98079506Y-63082943D01*
X98539037Y-63543278D01*
X99139752Y-63792716D01*
X99790195Y-63793284D01*
X100391343Y-63544894D01*
X100851678Y-63085363D01*
X100869269Y-63043000D01*
X104563002Y-63043000D01*
X104579506Y-63082943D01*
X105039037Y-63543278D01*
X105639752Y-63792716D01*
X106290195Y-63793284D01*
X106891343Y-63544894D01*
X107351678Y-63085363D01*
X107601116Y-62484648D01*
X107601684Y-61834205D01*
X107353294Y-61233057D01*
X106893763Y-60772722D01*
X106293048Y-60523284D01*
X105642605Y-60522716D01*
X105041457Y-60771106D01*
X104581122Y-61230637D01*
X104563531Y-61273000D01*
X100869798Y-61273000D01*
X100853294Y-61233057D01*
X100393763Y-60772722D01*
X99793048Y-60523284D01*
X99142605Y-60522716D01*
X98566399Y-60760800D01*
X95209478Y-60760800D01*
X95152588Y-60675658D01*
X94719482Y-60386267D01*
X94208600Y-60284646D01*
X93697718Y-60386267D01*
X93264612Y-60675658D01*
X92975221Y-61108764D01*
X92873600Y-61619646D01*
X89708800Y-61619646D01*
X89708800Y-57981795D01*
X97831116Y-57981795D01*
X98079506Y-58582943D01*
X98539037Y-59043278D01*
X99139752Y-59292716D01*
X99790195Y-59293284D01*
X100391343Y-59044894D01*
X100851678Y-58585363D01*
X101101116Y-57984648D01*
X101101118Y-57981795D01*
X104331116Y-57981795D01*
X104579506Y-58582943D01*
X105039037Y-59043278D01*
X105639752Y-59292716D01*
X106290195Y-59293284D01*
X106891343Y-59044894D01*
X107351678Y-58585363D01*
X107601116Y-57984648D01*
X107601684Y-57334205D01*
X107353294Y-56733057D01*
X106893763Y-56272722D01*
X106293048Y-56023284D01*
X105642605Y-56022716D01*
X105041457Y-56271106D01*
X104581122Y-56730637D01*
X104331684Y-57331352D01*
X104331116Y-57981795D01*
X101101118Y-57981795D01*
X101101684Y-57334205D01*
X100853294Y-56733057D01*
X100393763Y-56272722D01*
X99793048Y-56023284D01*
X99142605Y-56022716D01*
X98541457Y-56271106D01*
X98081122Y-56730637D01*
X97831684Y-57331352D01*
X97831116Y-57981795D01*
X89708800Y-57981795D01*
X89708800Y-54961075D01*
X93452931Y-54961075D01*
X93514769Y-55196842D01*
X94015722Y-55373219D01*
X94546040Y-55344464D01*
X94902431Y-55196842D01*
X94964269Y-54961075D01*
X94208600Y-54205405D01*
X93452931Y-54961075D01*
X89708800Y-54961075D01*
X89708800Y-53832922D01*
X92861181Y-53832922D01*
X92889936Y-54363240D01*
X93037558Y-54719631D01*
X93273325Y-54781469D01*
X94028995Y-54025800D01*
X94388205Y-54025800D01*
X95143875Y-54781469D01*
X95379642Y-54719631D01*
X95556019Y-54218678D01*
X95527264Y-53688360D01*
X95379642Y-53331969D01*
X95143875Y-53270131D01*
X94388205Y-54025800D01*
X94028995Y-54025800D01*
X93273325Y-53270131D01*
X93037558Y-53331969D01*
X92861181Y-53832922D01*
X89708800Y-53832922D01*
X89708800Y-51866046D01*
X92822800Y-51866046D01*
X92822800Y-51918354D01*
X92924421Y-52429236D01*
X93213812Y-52862342D01*
X93468198Y-53032317D01*
X93452931Y-53090525D01*
X94208600Y-53846195D01*
X94964269Y-53090525D01*
X94933851Y-52974553D01*
X95101788Y-52862342D01*
X95158678Y-52777200D01*
X98019286Y-52777200D01*
X98079506Y-52922943D01*
X98539037Y-53383278D01*
X99139752Y-53632716D01*
X99790195Y-53633284D01*
X100391343Y-53384894D01*
X100851678Y-52925363D01*
X100869269Y-52883000D01*
X104563002Y-52883000D01*
X104579506Y-52922943D01*
X105039037Y-53383278D01*
X105639752Y-53632716D01*
X106290195Y-53633284D01*
X106891343Y-53384894D01*
X107351678Y-52925363D01*
X107601116Y-52324648D01*
X107601684Y-51674205D01*
X107353294Y-51073057D01*
X106893763Y-50612722D01*
X106293048Y-50363284D01*
X105642605Y-50362716D01*
X105041457Y-50611106D01*
X104581122Y-51070637D01*
X104563531Y-51113000D01*
X100869798Y-51113000D01*
X100853294Y-51073057D01*
X100393763Y-50612722D01*
X99793048Y-50363284D01*
X99142605Y-50362716D01*
X98541457Y-50611106D01*
X98144670Y-51007200D01*
X95158678Y-51007200D01*
X95101788Y-50922058D01*
X94668682Y-50632667D01*
X94157800Y-50531046D01*
X93646918Y-50632667D01*
X93213812Y-50922058D01*
X92924421Y-51355164D01*
X92822800Y-51866046D01*
X89708800Y-51866046D01*
X89708800Y-50723805D01*
X89708801Y-50723800D01*
X89652610Y-50441316D01*
X89641433Y-50385125D01*
X89449590Y-50098010D01*
X89449587Y-50098008D01*
X87173375Y-47821795D01*
X97831116Y-47821795D01*
X98079506Y-48422943D01*
X98539037Y-48883278D01*
X99139752Y-49132716D01*
X99790195Y-49133284D01*
X100391343Y-48884894D01*
X100851678Y-48425363D01*
X101101116Y-47824648D01*
X101101118Y-47821795D01*
X104331116Y-47821795D01*
X104579506Y-48422943D01*
X105039037Y-48883278D01*
X105639752Y-49132716D01*
X106290195Y-49133284D01*
X106891343Y-48884894D01*
X107351678Y-48425363D01*
X107601116Y-47824648D01*
X107601684Y-47174205D01*
X107353294Y-46573057D01*
X106893763Y-46112722D01*
X106293048Y-45863284D01*
X105642605Y-45862716D01*
X105041457Y-46111106D01*
X104581122Y-46570637D01*
X104331684Y-47171352D01*
X104331116Y-47821795D01*
X101101118Y-47821795D01*
X101101684Y-47174205D01*
X100853294Y-46573057D01*
X100393763Y-46112722D01*
X99793048Y-45863284D01*
X99142605Y-45862716D01*
X98541457Y-46111106D01*
X98081122Y-46570637D01*
X97831684Y-47171352D01*
X97831116Y-47821795D01*
X87173375Y-47821795D01*
X84559055Y-45207475D01*
X93402131Y-45207475D01*
X93463969Y-45443242D01*
X93964922Y-45619619D01*
X94495240Y-45590864D01*
X94851631Y-45443242D01*
X94913469Y-45207475D01*
X94157800Y-44451805D01*
X93402131Y-45207475D01*
X84559055Y-45207475D01*
X83430902Y-44079322D01*
X92810381Y-44079322D01*
X92839136Y-44609640D01*
X92986758Y-44966031D01*
X93222525Y-45027869D01*
X93978195Y-44272200D01*
X94337405Y-44272200D01*
X95093075Y-45027869D01*
X95328842Y-44966031D01*
X95505219Y-44465078D01*
X95476464Y-43934760D01*
X95328842Y-43578369D01*
X95093075Y-43516531D01*
X94337405Y-44272200D01*
X93978195Y-44272200D01*
X93222525Y-43516531D01*
X92986758Y-43578369D01*
X92810381Y-44079322D01*
X83430902Y-44079322D01*
X81032226Y-41680646D01*
X92772000Y-41680646D01*
X92772000Y-41732954D01*
X92873621Y-42243836D01*
X93163012Y-42676942D01*
X93596118Y-42966333D01*
X93726739Y-42992315D01*
X93463969Y-43101158D01*
X93402131Y-43336925D01*
X94157800Y-44092595D01*
X94913469Y-43336925D01*
X94851631Y-43101158D01*
X94522553Y-42985295D01*
X94617882Y-42966333D01*
X95050988Y-42676942D01*
X95107878Y-42591800D01*
X98008791Y-42591800D01*
X98079506Y-42762943D01*
X98539037Y-43223278D01*
X99139752Y-43472716D01*
X99790195Y-43473284D01*
X100391343Y-43224894D01*
X100851678Y-42765363D01*
X100869269Y-42723000D01*
X104563002Y-42723000D01*
X104579506Y-42762943D01*
X105039037Y-43223278D01*
X105639752Y-43472716D01*
X106290195Y-43473284D01*
X106891343Y-43224894D01*
X107351678Y-42765363D01*
X107601116Y-42164648D01*
X107601684Y-41514205D01*
X107353294Y-40913057D01*
X106893763Y-40452722D01*
X106293048Y-40203284D01*
X105642605Y-40202716D01*
X105041457Y-40451106D01*
X104581122Y-40910637D01*
X104563531Y-40953000D01*
X100869798Y-40953000D01*
X100853294Y-40913057D01*
X100393763Y-40452722D01*
X99793048Y-40203284D01*
X99142605Y-40202716D01*
X98541457Y-40451106D01*
X98170114Y-40821800D01*
X95107878Y-40821800D01*
X95050988Y-40736658D01*
X94617882Y-40447267D01*
X94107000Y-40345646D01*
X93596118Y-40447267D01*
X93163012Y-40736658D01*
X92873621Y-41169764D01*
X92772000Y-41680646D01*
X81032226Y-41680646D01*
X77013375Y-37661795D01*
X97831116Y-37661795D01*
X98079506Y-38262943D01*
X98539037Y-38723278D01*
X99139752Y-38972716D01*
X99790195Y-38973284D01*
X100391343Y-38724894D01*
X100851678Y-38265363D01*
X101101116Y-37664648D01*
X101101118Y-37661795D01*
X104331116Y-37661795D01*
X104579506Y-38262943D01*
X105039037Y-38723278D01*
X105639752Y-38972716D01*
X106290195Y-38973284D01*
X106891343Y-38724894D01*
X107351678Y-38265363D01*
X107601116Y-37664648D01*
X107601684Y-37014205D01*
X107353294Y-36413057D01*
X106893763Y-35952722D01*
X106293048Y-35703284D01*
X105642605Y-35702716D01*
X105041457Y-35951106D01*
X104581122Y-36410637D01*
X104331684Y-37011352D01*
X104331116Y-37661795D01*
X101101118Y-37661795D01*
X101101684Y-37014205D01*
X100853294Y-36413057D01*
X100393763Y-35952722D01*
X99793048Y-35703284D01*
X99142605Y-35702716D01*
X98541457Y-35951106D01*
X98081122Y-36410637D01*
X97831684Y-37011352D01*
X97831116Y-37661795D01*
X77013375Y-37661795D01*
X75088017Y-35736437D01*
X75123113Y-35560000D01*
X75016113Y-35022075D01*
X93351331Y-35022075D01*
X93413169Y-35257842D01*
X93914122Y-35434219D01*
X94444440Y-35405464D01*
X94800831Y-35257842D01*
X94862669Y-35022075D01*
X94107000Y-34266405D01*
X93351331Y-35022075D01*
X75016113Y-35022075D01*
X75013880Y-35010849D01*
X74702811Y-34545302D01*
X74320725Y-34290000D01*
X74702811Y-34034698D01*
X74796874Y-33893922D01*
X92759581Y-33893922D01*
X92788336Y-34424240D01*
X92935958Y-34780631D01*
X93171725Y-34842469D01*
X93927395Y-34086800D01*
X94286605Y-34086800D01*
X95042275Y-34842469D01*
X95278042Y-34780631D01*
X95454419Y-34279678D01*
X95425664Y-33749360D01*
X95278042Y-33392969D01*
X95042275Y-33331131D01*
X94286605Y-34086800D01*
X93927395Y-34086800D01*
X93171725Y-33331131D01*
X92935958Y-33392969D01*
X92759581Y-33893922D01*
X74796874Y-33893922D01*
X75013880Y-33569151D01*
X75123113Y-33020000D01*
X75013880Y-32470849D01*
X74702811Y-32005302D01*
X74623707Y-31952446D01*
X92772000Y-31952446D01*
X92772000Y-32004754D01*
X92873621Y-32515636D01*
X93163012Y-32948742D01*
X93368505Y-33086047D01*
X93351331Y-33151525D01*
X94107000Y-33907195D01*
X94862669Y-33151525D01*
X94845495Y-33086047D01*
X95050988Y-32948742D01*
X95107878Y-32863600D01*
X98339708Y-32863600D01*
X98539037Y-33063278D01*
X99139752Y-33312716D01*
X99790195Y-33313284D01*
X100391343Y-33064894D01*
X100851678Y-32605363D01*
X100869269Y-32563000D01*
X104563002Y-32563000D01*
X104579506Y-32602943D01*
X105039037Y-33063278D01*
X105639752Y-33312716D01*
X106290195Y-33313284D01*
X106891343Y-33064894D01*
X107351678Y-32605363D01*
X107601116Y-32004648D01*
X107601684Y-31354205D01*
X107353294Y-30753057D01*
X106893763Y-30292722D01*
X106293048Y-30043284D01*
X105642605Y-30042716D01*
X105041457Y-30291106D01*
X104581122Y-30750637D01*
X104563531Y-30793000D01*
X100869798Y-30793000D01*
X100853294Y-30753057D01*
X100393763Y-30292722D01*
X99793048Y-30043284D01*
X99142605Y-30042716D01*
X98541457Y-30291106D01*
X98081122Y-30750637D01*
X97938712Y-31093600D01*
X95107878Y-31093600D01*
X95050988Y-31008458D01*
X94617882Y-30719067D01*
X94107000Y-30617446D01*
X93596118Y-30719067D01*
X93163012Y-31008458D01*
X92873621Y-31441564D01*
X92772000Y-31952446D01*
X74623707Y-31952446D01*
X74320725Y-31750000D01*
X74702811Y-31494698D01*
X75013880Y-31029151D01*
X75123113Y-30480000D01*
X75013880Y-29930849D01*
X74702811Y-29465302D01*
X74320725Y-29210000D01*
X74702811Y-28954698D01*
X75013880Y-28489151D01*
X75123113Y-27940000D01*
X75035949Y-27501795D01*
X97831116Y-27501795D01*
X98079506Y-28102943D01*
X98539037Y-28563278D01*
X99139752Y-28812716D01*
X99790195Y-28813284D01*
X100391343Y-28564894D01*
X100851678Y-28105363D01*
X101101116Y-27504648D01*
X101101118Y-27501795D01*
X104331116Y-27501795D01*
X104579506Y-28102943D01*
X105039037Y-28563278D01*
X105639752Y-28812716D01*
X106290195Y-28813284D01*
X106891343Y-28564894D01*
X107351678Y-28105363D01*
X107601116Y-27504648D01*
X107601684Y-26854205D01*
X107353294Y-26253057D01*
X106893763Y-25792722D01*
X106293048Y-25543284D01*
X105642605Y-25542716D01*
X105041457Y-25791106D01*
X104581122Y-26250637D01*
X104331684Y-26851352D01*
X104331116Y-27501795D01*
X101101118Y-27501795D01*
X101101684Y-26854205D01*
X100853294Y-26253057D01*
X100393763Y-25792722D01*
X99793048Y-25543284D01*
X99142605Y-25542716D01*
X98541457Y-25791106D01*
X98081122Y-26250637D01*
X97831684Y-26851352D01*
X97831116Y-27501795D01*
X75035949Y-27501795D01*
X75013880Y-27390849D01*
X74702811Y-26925302D01*
X74320725Y-26670000D01*
X74702811Y-26414698D01*
X75013880Y-25949151D01*
X75123113Y-25400000D01*
X75102004Y-25293875D01*
X93351331Y-25293875D01*
X93413169Y-25529642D01*
X93914122Y-25706019D01*
X94444440Y-25677264D01*
X94800831Y-25529642D01*
X94862669Y-25293875D01*
X94107000Y-24538205D01*
X93351331Y-25293875D01*
X75102004Y-25293875D01*
X75013880Y-24850849D01*
X74702811Y-24385302D01*
X74374187Y-24165722D01*
X92759581Y-24165722D01*
X92788336Y-24696040D01*
X92935958Y-25052431D01*
X93171725Y-25114269D01*
X93927395Y-24358600D01*
X94286605Y-24358600D01*
X95042275Y-25114269D01*
X95278042Y-25052431D01*
X95454419Y-24551478D01*
X95425664Y-24021160D01*
X95278042Y-23664769D01*
X95042275Y-23602931D01*
X94286605Y-24358600D01*
X93927395Y-24358600D01*
X93171725Y-23602931D01*
X92935958Y-23664769D01*
X92759581Y-24165722D01*
X74374187Y-24165722D01*
X74237264Y-24074233D01*
X73688113Y-23965000D01*
X73631887Y-23965000D01*
X73082736Y-24074233D01*
X72617189Y-24385302D01*
X72306120Y-24850849D01*
X72225870Y-25254291D01*
X69246626Y-22275046D01*
X92772000Y-22275046D01*
X92772000Y-22327354D01*
X92873621Y-22838236D01*
X93163012Y-23271342D01*
X93357168Y-23401072D01*
X93351331Y-23423325D01*
X94107000Y-24178995D01*
X94862669Y-23423325D01*
X94856832Y-23401072D01*
X95050988Y-23271342D01*
X95107878Y-23186200D01*
X98683200Y-23186200D01*
X99021875Y-23118833D01*
X99035779Y-23109543D01*
X99139752Y-23152716D01*
X99790195Y-23153284D01*
X100391343Y-22904894D01*
X100851678Y-22445363D01*
X100869269Y-22403000D01*
X104563002Y-22403000D01*
X104579506Y-22442943D01*
X105039037Y-22903278D01*
X105639752Y-23152716D01*
X106290195Y-23153284D01*
X106891343Y-22904894D01*
X107351678Y-22445363D01*
X107601116Y-21844648D01*
X107601684Y-21194205D01*
X107353294Y-20593057D01*
X106893763Y-20132722D01*
X106293048Y-19883284D01*
X105642605Y-19882716D01*
X105041457Y-20131106D01*
X104581122Y-20590637D01*
X104563531Y-20633000D01*
X100869798Y-20633000D01*
X100853294Y-20593057D01*
X100393763Y-20132722D01*
X99793048Y-19883284D01*
X99142605Y-19882716D01*
X98541457Y-20131106D01*
X98081122Y-20590637D01*
X97831684Y-21191352D01*
X97831488Y-21416200D01*
X95107878Y-21416200D01*
X95050988Y-21331058D01*
X94617882Y-21041667D01*
X94107000Y-20940046D01*
X93596118Y-21041667D01*
X93163012Y-21331058D01*
X92873621Y-21764164D01*
X92772000Y-22275046D01*
X69246626Y-22275046D01*
X69205790Y-22234210D01*
X69070466Y-22143790D01*
X68918675Y-22042367D01*
X68862484Y-22031190D01*
X68580000Y-21974999D01*
X68579995Y-21975000D01*
X55880005Y-21975000D01*
X55880000Y-21974999D01*
X55597516Y-22031190D01*
X55541325Y-22042367D01*
X55254210Y-22234210D01*
X55254208Y-22234213D01*
X51703420Y-25785000D01*
X49449432Y-25785000D01*
X49339147Y-25619946D01*
X49009974Y-25400000D01*
X49339147Y-25180054D01*
X49661054Y-24698285D01*
X49774093Y-24130000D01*
X49661054Y-23561715D01*
X49339147Y-23079946D01*
X48857378Y-22758039D01*
X48289093Y-22645000D01*
X48230907Y-22645000D01*
X47662622Y-22758039D01*
X47180853Y-23079946D01*
X47070568Y-23245000D01*
X46810478Y-23245000D01*
X46512370Y-22946371D01*
X45999100Y-22733243D01*
X45443339Y-22732758D01*
X44929697Y-22944990D01*
X44536371Y-23337630D01*
X44323243Y-23850900D01*
X44322758Y-24406661D01*
X44534990Y-24920303D01*
X44927630Y-25313629D01*
X45135512Y-25399949D01*
X44929697Y-25484990D01*
X44536371Y-25877630D01*
X44323243Y-26390900D01*
X44322758Y-26946661D01*
X44534990Y-27460303D01*
X44927630Y-27853629D01*
X45135512Y-27939949D01*
X44929697Y-28024990D01*
X44536371Y-28417630D01*
X44323243Y-28930900D01*
X44322758Y-29486661D01*
X44534990Y-30000303D01*
X44927630Y-30393629D01*
X45135512Y-30479949D01*
X44929697Y-30564990D01*
X44536371Y-30957630D01*
X44323243Y-31470900D01*
X44322758Y-32026661D01*
X44534990Y-32540303D01*
X44927630Y-32933629D01*
X45135512Y-33019949D01*
X44929697Y-33104990D01*
X44536371Y-33497630D01*
X44323243Y-34010900D01*
X44322758Y-34566661D01*
X44534990Y-35080303D01*
X44927630Y-35473629D01*
X45135512Y-35559949D01*
X44929697Y-35644990D01*
X44536371Y-36037630D01*
X44323243Y-36550900D01*
X44322758Y-37106661D01*
X44534990Y-37620303D01*
X44927630Y-38013629D01*
X45119727Y-38093395D01*
X44988857Y-38147603D01*
X44919392Y-38389787D01*
X45720000Y-39190395D01*
X46520608Y-38389787D01*
X46451143Y-38147603D01*
X46310682Y-38097491D01*
X46510303Y-38015010D01*
X46903629Y-37622370D01*
X46917070Y-37590000D01*
X46987046Y-37590000D01*
X47180853Y-37880054D01*
X47521553Y-38107702D01*
X47378642Y-38174817D01*
X46988355Y-38603076D01*
X46957966Y-38676445D01*
X46942397Y-38638857D01*
X46700213Y-38569392D01*
X45899605Y-39370000D01*
X46700213Y-40170608D01*
X46942397Y-40101143D01*
X46956806Y-40060754D01*
X46988355Y-40136924D01*
X47378642Y-40565183D01*
X47521553Y-40632298D01*
X47180853Y-40859946D01*
X46987046Y-41150000D01*
X46917531Y-41150000D01*
X46905010Y-41119697D01*
X46512370Y-40726371D01*
X46320273Y-40646605D01*
X46451143Y-40592397D01*
X46520608Y-40350213D01*
X45720000Y-39549605D01*
X44919392Y-40350213D01*
X44988857Y-40592397D01*
X45129318Y-40642509D01*
X44929697Y-40724990D01*
X44536371Y-41117630D01*
X44323243Y-41630900D01*
X44322758Y-42186661D01*
X44534990Y-42700303D01*
X44927630Y-43093629D01*
X45135512Y-43179949D01*
X44929697Y-43264990D01*
X44536371Y-43657630D01*
X44323243Y-44170900D01*
X44322758Y-44726661D01*
X44534990Y-45240303D01*
X44927630Y-45633629D01*
X45135512Y-45719949D01*
X44929697Y-45804990D01*
X44536371Y-46197630D01*
X44323243Y-46710900D01*
X44322758Y-47266661D01*
X44534990Y-47780303D01*
X44927630Y-48173629D01*
X45135512Y-48259949D01*
X44929697Y-48344990D01*
X44536371Y-48737630D01*
X44323243Y-49250900D01*
X44322758Y-49806661D01*
X44534990Y-50320303D01*
X44927630Y-50713629D01*
X45135512Y-50799949D01*
X44929697Y-50884990D01*
X44536371Y-51277630D01*
X44323243Y-51790900D01*
X44322758Y-52346661D01*
X44534990Y-52860303D01*
X44927630Y-53253629D01*
X45135512Y-53339949D01*
X44929697Y-53424990D01*
X44536371Y-53817630D01*
X44323243Y-54330900D01*
X44322758Y-54886661D01*
X44534990Y-55400303D01*
X44927630Y-55793629D01*
X45119727Y-55873395D01*
X44988857Y-55927603D01*
X44919392Y-56169787D01*
X45720000Y-56970395D01*
X46520608Y-56169787D01*
X46451143Y-55927603D01*
X46310682Y-55877491D01*
X46510303Y-55795010D01*
X46903629Y-55402370D01*
X46917070Y-55370000D01*
X46987046Y-55370000D01*
X47180853Y-55660054D01*
X47521553Y-55887702D01*
X47378642Y-55954817D01*
X46988355Y-56383076D01*
X46957966Y-56456445D01*
X46942397Y-56418857D01*
X46700213Y-56349392D01*
X45899605Y-57150000D01*
X46700213Y-57950608D01*
X46942397Y-57881143D01*
X46956806Y-57840754D01*
X46988355Y-57916924D01*
X47264501Y-58219937D01*
X47174683Y-58236838D01*
X46958559Y-58375910D01*
X46813569Y-58588110D01*
X46776534Y-58770996D01*
X46512370Y-58506371D01*
X46320273Y-58426605D01*
X46451143Y-58372397D01*
X46520608Y-58130213D01*
X45720000Y-57329605D01*
X44919392Y-58130213D01*
X44988857Y-58372397D01*
X45129318Y-58422509D01*
X44929697Y-58504990D01*
X44629163Y-58805000D01*
X33386579Y-58805000D01*
X31523882Y-56942302D01*
X44310856Y-56942302D01*
X44338638Y-57497368D01*
X44497603Y-57881143D01*
X44739787Y-57950608D01*
X45540395Y-57150000D01*
X44739787Y-56349392D01*
X44497603Y-56418857D01*
X44310856Y-56942302D01*
X31523882Y-56942302D01*
X23485790Y-48904210D01*
X23371748Y-48828010D01*
X23198675Y-48712367D01*
X23142484Y-48701190D01*
X22860000Y-48644999D01*
X22859995Y-48645000D01*
X18870478Y-48645000D01*
X18572370Y-48346371D01*
X18380273Y-48266605D01*
X18511143Y-48212397D01*
X18580608Y-47970213D01*
X17780000Y-47169605D01*
X16979392Y-47970213D01*
X17048857Y-48212397D01*
X17189318Y-48262509D01*
X16989697Y-48344990D01*
X16596371Y-48737630D01*
X16582930Y-48770000D01*
X16512954Y-48770000D01*
X16319147Y-48479946D01*
X15978447Y-48252298D01*
X16121358Y-48185183D01*
X16511645Y-47756924D01*
X16542034Y-47683555D01*
X16557603Y-47721143D01*
X16799787Y-47790608D01*
X17600395Y-46990000D01*
X17959605Y-46990000D01*
X18760213Y-47790608D01*
X19002397Y-47721143D01*
X19189144Y-47197698D01*
X19161362Y-46642632D01*
X19002397Y-46258857D01*
X18760213Y-46189392D01*
X17959605Y-46990000D01*
X17600395Y-46990000D01*
X16799787Y-46189392D01*
X16557603Y-46258857D01*
X16543194Y-46299246D01*
X16511645Y-46223076D01*
X16121358Y-45794817D01*
X15978447Y-45727702D01*
X16319147Y-45500054D01*
X16512954Y-45210000D01*
X16582469Y-45210000D01*
X16594990Y-45240303D01*
X16987630Y-45633629D01*
X17179727Y-45713395D01*
X17048857Y-45767603D01*
X16979392Y-46009787D01*
X17780000Y-46810395D01*
X18580608Y-46009787D01*
X18511143Y-45767603D01*
X18370682Y-45717491D01*
X18570303Y-45635010D01*
X18963629Y-45242370D01*
X19176757Y-44729100D01*
X19177242Y-44173339D01*
X18965010Y-43659697D01*
X18572370Y-43266371D01*
X18364488Y-43180051D01*
X18570303Y-43095010D01*
X18963629Y-42702370D01*
X19176757Y-42189100D01*
X19177242Y-41633339D01*
X18965010Y-41119697D01*
X18572370Y-40726371D01*
X18364488Y-40640051D01*
X18570303Y-40555010D01*
X18963629Y-40162370D01*
X19176757Y-39649100D01*
X19177181Y-39162302D01*
X44310856Y-39162302D01*
X44338638Y-39717368D01*
X44497603Y-40101143D01*
X44739787Y-40170608D01*
X45540395Y-39370000D01*
X44739787Y-38569392D01*
X44497603Y-38638857D01*
X44310856Y-39162302D01*
X19177181Y-39162302D01*
X19177242Y-39093339D01*
X18965010Y-38579697D01*
X18572370Y-38186371D01*
X18364488Y-38100051D01*
X18570303Y-38015010D01*
X18963629Y-37622370D01*
X19176757Y-37109100D01*
X19177242Y-36553339D01*
X18965010Y-36039697D01*
X18572370Y-35646371D01*
X18364488Y-35560051D01*
X18570303Y-35475010D01*
X18963629Y-35082370D01*
X19176757Y-34569100D01*
X19177242Y-34013339D01*
X18965010Y-33499697D01*
X18572370Y-33106371D01*
X18364488Y-33020051D01*
X18570303Y-32935010D01*
X18963629Y-32542370D01*
X19176757Y-32029100D01*
X19177242Y-31473339D01*
X18965010Y-30959697D01*
X18572370Y-30566371D01*
X18364488Y-30480051D01*
X18570303Y-30395010D01*
X18963629Y-30002370D01*
X19176757Y-29489100D01*
X19177242Y-28933339D01*
X18965010Y-28419697D01*
X18572370Y-28026371D01*
X18364488Y-27940051D01*
X18570303Y-27855010D01*
X18963629Y-27462370D01*
X19176757Y-26949100D01*
X19177242Y-26393339D01*
X18965010Y-25879697D01*
X18572370Y-25486371D01*
X18364488Y-25400051D01*
X18570303Y-25315010D01*
X18963629Y-24922370D01*
X19176757Y-24409100D01*
X19177242Y-23853339D01*
X18965010Y-23339697D01*
X18572370Y-22946371D01*
X18059100Y-22733243D01*
X17503339Y-22732758D01*
X16989697Y-22944990D01*
X16724262Y-23209963D01*
X16693162Y-23044683D01*
X16554090Y-22828559D01*
X16341890Y-22683569D01*
X16090000Y-22632560D01*
X14390000Y-22632560D01*
X14154683Y-22676838D01*
X13938559Y-22815910D01*
X13793569Y-23028110D01*
X13742560Y-23280000D01*
X13742560Y-24980000D01*
X13786838Y-25215317D01*
X13925910Y-25431441D01*
X14138110Y-25576431D01*
X14205541Y-25590086D01*
X14160853Y-25619946D01*
X13838946Y-26101715D01*
X13725907Y-26670000D01*
X13410000Y-26670000D01*
X13410000Y-20116800D01*
X64678846Y-20116800D01*
X64780467Y-20627682D01*
X65069858Y-21060788D01*
X65502964Y-21350179D01*
X66013846Y-21451800D01*
X66066154Y-21451800D01*
X66577036Y-21350179D01*
X67010142Y-21060788D01*
X67299533Y-20627682D01*
X67348564Y-20381183D01*
X72324769Y-20381183D01*
X72527582Y-20872029D01*
X72902796Y-21247898D01*
X73393287Y-21451568D01*
X73924383Y-21452031D01*
X74415229Y-21249218D01*
X74791098Y-20874004D01*
X74994768Y-20383513D01*
X74995231Y-19852417D01*
X74792418Y-19361571D01*
X74417204Y-18985702D01*
X73926713Y-18782032D01*
X73395617Y-18781569D01*
X72904771Y-18984382D01*
X72528902Y-19359596D01*
X72325232Y-19850087D01*
X72324769Y-20381183D01*
X67348564Y-20381183D01*
X67401154Y-20116800D01*
X67299533Y-19605918D01*
X67010142Y-19172812D01*
X66577036Y-18883421D01*
X66066154Y-18781800D01*
X66013846Y-18781800D01*
X65502964Y-18883421D01*
X65069858Y-19172812D01*
X64780467Y-19605918D01*
X64678846Y-20116800D01*
X13410000Y-20116800D01*
X13410000Y-17341795D01*
X97831116Y-17341795D01*
X98079506Y-17942943D01*
X98539037Y-18403278D01*
X99139752Y-18652716D01*
X99790195Y-18653284D01*
X100391343Y-18404894D01*
X100851678Y-17945363D01*
X101101116Y-17344648D01*
X101101118Y-17341795D01*
X104331116Y-17341795D01*
X104579506Y-17942943D01*
X105039037Y-18403278D01*
X105639752Y-18652716D01*
X106290195Y-18653284D01*
X106891343Y-18404894D01*
X107351678Y-17945363D01*
X107601116Y-17344648D01*
X107601684Y-16694205D01*
X107353294Y-16093057D01*
X106893763Y-15632722D01*
X106293048Y-15383284D01*
X105642605Y-15382716D01*
X105041457Y-15631106D01*
X104581122Y-16090637D01*
X104331684Y-16691352D01*
X104331116Y-17341795D01*
X101101118Y-17341795D01*
X101101684Y-16694205D01*
X100853294Y-16093057D01*
X100393763Y-15632722D01*
X99793048Y-15383284D01*
X99142605Y-15382716D01*
X98541457Y-15631106D01*
X98081122Y-16090637D01*
X97831684Y-16691352D01*
X97831116Y-17341795D01*
X13410000Y-17341795D01*
X13410000Y-15859983D01*
X64704769Y-15859983D01*
X64907582Y-16350829D01*
X65282796Y-16726698D01*
X65773287Y-16930368D01*
X66304383Y-16930831D01*
X66795229Y-16728018D01*
X67171098Y-16352804D01*
X67374768Y-15862313D01*
X67375000Y-15595600D01*
X72298846Y-15595600D01*
X72400467Y-16106482D01*
X72689858Y-16539588D01*
X73122964Y-16828979D01*
X73633846Y-16930600D01*
X73686154Y-16930600D01*
X74197036Y-16828979D01*
X74630142Y-16539588D01*
X74919533Y-16106482D01*
X75017001Y-15616475D01*
X93351331Y-15616475D01*
X93413169Y-15852242D01*
X93914122Y-16028619D01*
X94444440Y-15999864D01*
X94800831Y-15852242D01*
X94862669Y-15616475D01*
X94107000Y-14860805D01*
X93351331Y-15616475D01*
X75017001Y-15616475D01*
X75021154Y-15595600D01*
X74919533Y-15084718D01*
X74630142Y-14651612D01*
X74385761Y-14488322D01*
X92759581Y-14488322D01*
X92788336Y-15018640D01*
X92935958Y-15375031D01*
X93171725Y-15436869D01*
X93927395Y-14681200D01*
X94286605Y-14681200D01*
X95042275Y-15436869D01*
X95278042Y-15375031D01*
X95454419Y-14874078D01*
X95425664Y-14343760D01*
X95278042Y-13987369D01*
X95042275Y-13925531D01*
X94286605Y-14681200D01*
X93927395Y-14681200D01*
X93171725Y-13925531D01*
X92935958Y-13987369D01*
X92759581Y-14488322D01*
X74385761Y-14488322D01*
X74197036Y-14362221D01*
X73686154Y-14260600D01*
X73633846Y-14260600D01*
X73122964Y-14362221D01*
X72689858Y-14651612D01*
X72400467Y-15084718D01*
X72298846Y-15595600D01*
X67375000Y-15595600D01*
X67375231Y-15331217D01*
X67172418Y-14840371D01*
X66797204Y-14464502D01*
X66306713Y-14260832D01*
X65775617Y-14260369D01*
X65284771Y-14463182D01*
X64908902Y-14838396D01*
X64705232Y-15328887D01*
X64704769Y-15859983D01*
X13410000Y-15859983D01*
X13410000Y-13410000D01*
X93654972Y-13410000D01*
X93413169Y-13510158D01*
X93413169Y-13510158D01*
G37*
X93413169Y-13510158D02*
X93351331Y-13745925D01*
X94107000Y-14501595D01*
X94862669Y-13745925D01*
X94800831Y-13510158D01*
X94516358Y-13410000D01*
X108078200Y-13410000D01*
X108078200Y-101906000D01*
X13410000Y-101906000D01*
X13410000Y-92347995D01*
X13524316Y-92347995D01*
X13772706Y-92949143D01*
X14232237Y-93409478D01*
X14274600Y-93427069D01*
X14274600Y-97120802D01*
X14234657Y-97137306D01*
X13774322Y-97596837D01*
X13524884Y-98197552D01*
X13524316Y-98847995D01*
X13772706Y-99449143D01*
X14232237Y-99909478D01*
X14832952Y-100158916D01*
X15483395Y-100159484D01*
X16084543Y-99911094D01*
X16544878Y-99451563D01*
X16794316Y-98850848D01*
X16794884Y-98200405D01*
X16546494Y-97599257D01*
X16086963Y-97138922D01*
X16044600Y-97121331D01*
X16044600Y-93427598D01*
X16084543Y-93411094D01*
X16544878Y-92951563D01*
X16794316Y-92350848D01*
X16794884Y-91700405D01*
X16546494Y-91099257D01*
X16086963Y-90638922D01*
X16044600Y-90621331D01*
X16044600Y-88743963D01*
X16107788Y-88701742D01*
X16397179Y-88268636D01*
X16498800Y-87757754D01*
X16498800Y-87705446D01*
X16397179Y-87194564D01*
X16107788Y-86761458D01*
X15674682Y-86472067D01*
X15163800Y-86370446D01*
X14652918Y-86472067D01*
X14219812Y-86761458D01*
X13930421Y-87194564D01*
X13828800Y-87705446D01*
X13828800Y-87757754D01*
X13930421Y-88268636D01*
X14219812Y-88701742D01*
X14274600Y-88738350D01*
X14274600Y-90620802D01*
X14234657Y-90637306D01*
X13774322Y-91096837D01*
X13524884Y-91697552D01*
X13524316Y-92347995D01*
X13410000Y-92347995D01*
X13410000Y-81046875D01*
X14408131Y-81046875D01*
X14469969Y-81282642D01*
X14970922Y-81459019D01*
X15501240Y-81430264D01*
X15857631Y-81282642D01*
X15919469Y-81046875D01*
X15163800Y-80291205D01*
X14408131Y-81046875D01*
X13410000Y-81046875D01*
X13410000Y-79918722D01*
X13816381Y-79918722D01*
X13845136Y-80449040D01*
X13992758Y-80805431D01*
X14228525Y-80867269D01*
X14984195Y-80111600D01*
X15343405Y-80111600D01*
X16099075Y-80867269D01*
X16334842Y-80805431D01*
X16511219Y-80304478D01*
X16482464Y-79774160D01*
X16334842Y-79417769D01*
X16099075Y-79355931D01*
X15343405Y-80111600D01*
X14984195Y-80111600D01*
X14228525Y-79355931D01*
X13992758Y-79417769D01*
X13816381Y-79918722D01*
X13410000Y-79918722D01*
X13410000Y-79176325D01*
X14408131Y-79176325D01*
X15163800Y-79931995D01*
X15919469Y-79176325D01*
X15857631Y-78940558D01*
X15356678Y-78764181D01*
X14826360Y-78792936D01*
X14469969Y-78940558D01*
X14408131Y-79176325D01*
X13410000Y-79176325D01*
X13410000Y-74016890D01*
X13798524Y-74016890D01*
X13968355Y-74426924D01*
X14358642Y-74855183D01*
X14883108Y-75101486D01*
X15113000Y-74980819D01*
X15113000Y-73787000D01*
X15367000Y-73787000D01*
X15367000Y-74980819D01*
X15596892Y-75101486D01*
X16121358Y-74855183D01*
X16511645Y-74426924D01*
X16681476Y-74016890D01*
X16560155Y-73787000D01*
X15367000Y-73787000D01*
X15113000Y-73787000D01*
X13919845Y-73787000D01*
X13798524Y-74016890D01*
X13410000Y-74016890D01*
X13410000Y-70270000D01*
X13742560Y-70270000D01*
X13742560Y-71970000D01*
X13786838Y-72205317D01*
X13925910Y-72421441D01*
X14138110Y-72566431D01*
X14246107Y-72588301D01*
X13968355Y-72893076D01*
X13798524Y-73303110D01*
X13919845Y-73533000D01*
X15113000Y-73533000D01*
X15113000Y-73513000D01*
X15367000Y-73513000D01*
X15367000Y-73533000D01*
X16560155Y-73533000D01*
X16681476Y-73303110D01*
X16511645Y-72893076D01*
X16235499Y-72590063D01*
X16325317Y-72573162D01*
X16541441Y-72434090D01*
X16686431Y-72221890D01*
X16737440Y-71970000D01*
X16737440Y-70270000D01*
X16693162Y-70034683D01*
X16554090Y-69818559D01*
X16341890Y-69673569D01*
X16090000Y-69622560D01*
X14390000Y-69622560D01*
X14154683Y-69666838D01*
X13938559Y-69805910D01*
X13793569Y-70018110D01*
X13742560Y-70270000D01*
X13410000Y-70270000D01*
X13410000Y-66396890D01*
X13798524Y-66396890D01*
X13968355Y-66806924D01*
X14358642Y-67235183D01*
X14883108Y-67481486D01*
X15113000Y-67360819D01*
X15113000Y-66167000D01*
X15367000Y-66167000D01*
X15367000Y-67360819D01*
X15596892Y-67481486D01*
X16121358Y-67235183D01*
X16511645Y-66806924D01*
X16681476Y-66396890D01*
X16560155Y-66167000D01*
X15367000Y-66167000D01*
X15113000Y-66167000D01*
X13919845Y-66167000D01*
X13798524Y-66396890D01*
X13410000Y-66396890D01*
X13410000Y-26670000D01*
X13725907Y-26670000D01*
X13838946Y-27238285D01*
X14160853Y-27720054D01*
X14490026Y-27940000D01*
X14160853Y-28159946D01*
X13838946Y-28641715D01*
X13725907Y-29210000D01*
X13838946Y-29778285D01*
X14160853Y-30260054D01*
X14490026Y-30480000D01*
X14160853Y-30699946D01*
X13838946Y-31181715D01*
X13725907Y-31750000D01*
X13838946Y-32318285D01*
X14160853Y-32800054D01*
X14490026Y-33020000D01*
X14160853Y-33239946D01*
X13838946Y-33721715D01*
X13725907Y-34290000D01*
X13838946Y-34858285D01*
X14160853Y-35340054D01*
X14490026Y-35560000D01*
X14160853Y-35779946D01*
X13838946Y-36261715D01*
X13725907Y-36830000D01*
X13838946Y-37398285D01*
X14160853Y-37880054D01*
X14490026Y-38100000D01*
X14160853Y-38319946D01*
X13838946Y-38801715D01*
X13725907Y-39370000D01*
X13838946Y-39938285D01*
X14160853Y-40420054D01*
X14490026Y-40640000D01*
X14160853Y-40859946D01*
X13838946Y-41341715D01*
X13725907Y-41910000D01*
X13838946Y-42478285D01*
X14160853Y-42960054D01*
X14490026Y-43180000D01*
X14160853Y-43399946D01*
X13838946Y-43881715D01*
X13725907Y-44450000D01*
X13838946Y-45018285D01*
X14160853Y-45500054D01*
X14501553Y-45727702D01*
X14358642Y-45794817D01*
X13968355Y-46223076D01*
X13798524Y-46633110D01*
X13919845Y-46863000D01*
X15113000Y-46863000D01*
X15113000Y-46843000D01*
X15367000Y-46843000D01*
X15367000Y-46863000D01*
X15387000Y-46863000D01*
X15387000Y-47117000D01*
X15367000Y-47117000D01*
X15367000Y-47137000D01*
X15113000Y-47137000D01*
X15113000Y-47117000D01*
X13919845Y-47117000D01*
X13798524Y-47346890D01*
X13968355Y-47756924D01*
X14358642Y-48185183D01*
X14501553Y-48252298D01*
X14160853Y-48479946D01*
X13838946Y-48961715D01*
X13725907Y-49530000D01*
X13838946Y-50098285D01*
X14160853Y-50580054D01*
X14490026Y-50800000D01*
X14160853Y-51019946D01*
X13838946Y-51501715D01*
X13725907Y-52070000D01*
X13838946Y-52638285D01*
X14160853Y-53120054D01*
X14490026Y-53340000D01*
X14160853Y-53559946D01*
X13838946Y-54041715D01*
X13725907Y-54610000D01*
X13838946Y-55178285D01*
X14160853Y-55660054D01*
X14501553Y-55887702D01*
X14358642Y-55954817D01*
X13968355Y-56383076D01*
X13798524Y-56793110D01*
X13919845Y-57023000D01*
X15113000Y-57023000D01*
X15113000Y-57003000D01*
X15367000Y-57003000D01*
X15367000Y-57023000D01*
X15387000Y-57023000D01*
X15387000Y-57277000D01*
X15367000Y-57277000D01*
X15367000Y-57297000D01*
X15113000Y-57297000D01*
X15113000Y-57277000D01*
X13919845Y-57277000D01*
X13798524Y-57506890D01*
X13968355Y-57916924D01*
X14358642Y-58345183D01*
X14501553Y-58412298D01*
X14160853Y-58639946D01*
X13838946Y-59121715D01*
X13725907Y-59690000D01*
X13838946Y-60258285D01*
X14160853Y-60740054D01*
X14480000Y-60953301D01*
X14480000Y-62002560D01*
X14390000Y-62002560D01*
X14154683Y-62046838D01*
X13938559Y-62185910D01*
X13793569Y-62398110D01*
X13742560Y-62650000D01*
X13742560Y-64350000D01*
X13786838Y-64585317D01*
X13925910Y-64801441D01*
X14138110Y-64946431D01*
X14246107Y-64968301D01*
X13968355Y-65273076D01*
X13798524Y-65683110D01*
X13919845Y-65913000D01*
X15113000Y-65913000D01*
X15113000Y-65893000D01*
X15367000Y-65893000D01*
X15367000Y-65913000D01*
X16560155Y-65913000D01*
X16681476Y-65683110D01*
X16511645Y-65273076D01*
X16235499Y-64970063D01*
X16325317Y-64953162D01*
X16541441Y-64814090D01*
X16686431Y-64601890D01*
X16737440Y-64350000D01*
X16737440Y-62650000D01*
X16693162Y-62414683D01*
X16554090Y-62198559D01*
X16341890Y-62053569D01*
X16090000Y-62002560D01*
X16000000Y-62002560D01*
X16000000Y-60953301D01*
X16319147Y-60740054D01*
X16512954Y-60450000D01*
X16582469Y-60450000D01*
X16594990Y-60480303D01*
X16987630Y-60873629D01*
X17500900Y-61086757D01*
X18056661Y-61087242D01*
X18570303Y-60875010D01*
X18963629Y-60482370D01*
X19176757Y-59969100D01*
X19177242Y-59413339D01*
X18965010Y-58899697D01*
X18572370Y-58506371D01*
X18380273Y-58426605D01*
X18511143Y-58372397D01*
X18580608Y-58130213D01*
X17780000Y-57329605D01*
X16979392Y-58130213D01*
X17048857Y-58372397D01*
X17189318Y-58422509D01*
X16989697Y-58504990D01*
X16596371Y-58897630D01*
X16582930Y-58930000D01*
X16512954Y-58930000D01*
X16319147Y-58639946D01*
X15978447Y-58412298D01*
X16121358Y-58345183D01*
X16511645Y-57916924D01*
X16542034Y-57843555D01*
X16557603Y-57881143D01*
X16799787Y-57950608D01*
X17600395Y-57150000D01*
X17959605Y-57150000D01*
X18760213Y-57950608D01*
X19002397Y-57881143D01*
X19189144Y-57357698D01*
X19161362Y-56802632D01*
X19002397Y-56418857D01*
X18760213Y-56349392D01*
X17959605Y-57150000D01*
X17600395Y-57150000D01*
X16799787Y-56349392D01*
X16557603Y-56418857D01*
X16543194Y-56459246D01*
X16511645Y-56383076D01*
X16121358Y-55954817D01*
X15978447Y-55887702D01*
X16319147Y-55660054D01*
X16512954Y-55370000D01*
X16582469Y-55370000D01*
X16594990Y-55400303D01*
X16987630Y-55793629D01*
X17179727Y-55873395D01*
X17048857Y-55927603D01*
X16979392Y-56169787D01*
X17780000Y-56970395D01*
X18580608Y-56169787D01*
X18511143Y-55927603D01*
X18370682Y-55877491D01*
X18570303Y-55795010D01*
X18963629Y-55402370D01*
X19176757Y-54889100D01*
X19177242Y-54333339D01*
X18965010Y-53819697D01*
X18572370Y-53426371D01*
X18364488Y-53340051D01*
X18570303Y-53255010D01*
X18963629Y-52862370D01*
X19176757Y-52349100D01*
X19177242Y-51793339D01*
X18965010Y-51279697D01*
X18572370Y-50886371D01*
X18364488Y-50800051D01*
X18570303Y-50715010D01*
X18870837Y-50415000D01*
X22493420Y-50415000D01*
X32394208Y-60315787D01*
X32394210Y-60315790D01*
X32681325Y-60507633D01*
X32737516Y-60518810D01*
X33020000Y-60575001D01*
X33020005Y-60575000D01*
X44629522Y-60575000D01*
X44927630Y-60873629D01*
X45440900Y-61086757D01*
X45996661Y-61087242D01*
X46510303Y-60875010D01*
X46775738Y-60610037D01*
X46806838Y-60775317D01*
X46945910Y-60991441D01*
X47158110Y-61136431D01*
X47410000Y-61187440D01*
X49110000Y-61187440D01*
X49345317Y-61143162D01*
X49561441Y-61004090D01*
X49706431Y-60791890D01*
X49750352Y-60575000D01*
X50799995Y-60575000D01*
X50800000Y-60575001D01*
X51082484Y-60518810D01*
X51138675Y-60507633D01*
X51425790Y-60315790D01*
X52436579Y-59305000D01*
X64608554Y-59305000D01*
X64636838Y-59455317D01*
X64775910Y-59671441D01*
X64988110Y-59816431D01*
X65143089Y-59847815D01*
X64997189Y-59945302D01*
X64686120Y-60410849D01*
X64576887Y-60960000D01*
X64686120Y-61509151D01*
X64997189Y-61974698D01*
X65280000Y-62163667D01*
X65280000Y-62296333D01*
X64997189Y-62485302D01*
X64686120Y-62950849D01*
X64576887Y-63500000D01*
X64686120Y-64049151D01*
X64997189Y-64514698D01*
X65379275Y-64770000D01*
X64997189Y-65025302D01*
X64910527Y-65155000D01*
X53773822Y-65155000D01*
X53653799Y-65105162D01*
X53281833Y-65104838D01*
X52938057Y-65246883D01*
X52674808Y-65509673D01*
X52532162Y-65853201D01*
X52531838Y-66225167D01*
X52673883Y-66568943D01*
X52936673Y-66832192D01*
X53280201Y-66974838D01*
X53652167Y-66975162D01*
X53773569Y-66925000D01*
X64910527Y-66925000D01*
X64997189Y-67054698D01*
X65379275Y-67310000D01*
X64997189Y-67565302D01*
X64910527Y-67695000D01*
X46087991Y-67695000D01*
X45906799Y-67619762D01*
X45534833Y-67619438D01*
X45191057Y-67761483D01*
X44927808Y-68024273D01*
X44785162Y-68367801D01*
X44784838Y-68739767D01*
X44926883Y-69083543D01*
X45189673Y-69346792D01*
X45533201Y-69489438D01*
X45905167Y-69489762D01*
X45965096Y-69465000D01*
X64910527Y-69465000D01*
X64997189Y-69594698D01*
X65379275Y-69850000D01*
X64997189Y-70105302D01*
X64910527Y-70235000D01*
X35052000Y-70235000D01*
X34920530Y-70261151D01*
X34790633Y-70261038D01*
X34446857Y-70403083D01*
X34183608Y-70665873D01*
X34040962Y-71009401D01*
X34040638Y-71381367D01*
X34182683Y-71725143D01*
X34445473Y-71988392D01*
X34789001Y-72131038D01*
X35160967Y-72131362D01*
X35466787Y-72005000D01*
X64910527Y-72005000D01*
X64997189Y-72134698D01*
X65379275Y-72390000D01*
X64997189Y-72645302D01*
X64910527Y-72775000D01*
X24688805Y-72775000D01*
X24688800Y-72774999D01*
X24406316Y-72831190D01*
X24350125Y-72842367D01*
X24063010Y-73034210D01*
X24063008Y-73034213D01*
X19033810Y-78063410D01*
X18841967Y-78350525D01*
X18841967Y-78350526D01*
X18774599Y-78689200D01*
X18774600Y-78689205D01*
X18774600Y-90620802D01*
X18734657Y-90637306D01*
X18274322Y-91096837D01*
X18024884Y-91697552D01*
X18024316Y-92347995D01*
X18272706Y-92949143D01*
X18732237Y-93409478D01*
X18774600Y-93427069D01*
X18774600Y-97120802D01*
X18734657Y-97137306D01*
X18274322Y-97596837D01*
X18024884Y-98197552D01*
X18024316Y-98847995D01*
X18272706Y-99449143D01*
X18732237Y-99909478D01*
X19332952Y-100158916D01*
X19983395Y-100159484D01*
X20584543Y-99911094D01*
X21044878Y-99451563D01*
X21294316Y-98850848D01*
X21294884Y-98200405D01*
X21046494Y-97599257D01*
X20586963Y-97138922D01*
X20544600Y-97121331D01*
X20544600Y-93427598D01*
X20584543Y-93411094D01*
X21044878Y-92951563D01*
X21294316Y-92350848D01*
X21294362Y-92297195D01*
X23684316Y-92297195D01*
X23932706Y-92898343D01*
X24392237Y-93358678D01*
X24434600Y-93376269D01*
X24434600Y-97070002D01*
X24394657Y-97086506D01*
X23934322Y-97546037D01*
X23684884Y-98146752D01*
X23684316Y-98797195D01*
X23932706Y-99398343D01*
X24392237Y-99858678D01*
X24992952Y-100108116D01*
X25643395Y-100108684D01*
X26244543Y-99860294D01*
X26704878Y-99400763D01*
X26954316Y-98800048D01*
X26954884Y-98149605D01*
X26706494Y-97548457D01*
X26246963Y-97088122D01*
X26204600Y-97070531D01*
X26204600Y-93376798D01*
X26244543Y-93360294D01*
X26704878Y-92900763D01*
X26954316Y-92300048D01*
X26954318Y-92297195D01*
X28184316Y-92297195D01*
X28432706Y-92898343D01*
X28892237Y-93358678D01*
X28934600Y-93376269D01*
X28934600Y-97070002D01*
X28894657Y-97086506D01*
X28434322Y-97546037D01*
X28184884Y-98146752D01*
X28184316Y-98797195D01*
X28432706Y-99398343D01*
X28892237Y-99858678D01*
X29492952Y-100108116D01*
X30143395Y-100108684D01*
X30744543Y-99860294D01*
X31204878Y-99400763D01*
X31454316Y-98800048D01*
X31454884Y-98149605D01*
X31206494Y-97548457D01*
X30746963Y-97088122D01*
X30704600Y-97070531D01*
X30704600Y-93376798D01*
X30744543Y-93360294D01*
X31204878Y-92900763D01*
X31454316Y-92300048D01*
X31454318Y-92297195D01*
X33844316Y-92297195D01*
X34092706Y-92898343D01*
X34552237Y-93358678D01*
X34594600Y-93376269D01*
X34594600Y-97070002D01*
X34554657Y-97086506D01*
X34094322Y-97546037D01*
X33844884Y-98146752D01*
X33844316Y-98797195D01*
X34092706Y-99398343D01*
X34552237Y-99858678D01*
X35152952Y-100108116D01*
X35803395Y-100108684D01*
X36404543Y-99860294D01*
X36864878Y-99400763D01*
X37114316Y-98800048D01*
X37114884Y-98149605D01*
X36866494Y-97548457D01*
X36406963Y-97088122D01*
X36364600Y-97070531D01*
X36364600Y-93376798D01*
X36404543Y-93360294D01*
X36864878Y-92900763D01*
X37114316Y-92300048D01*
X37114318Y-92297195D01*
X38344316Y-92297195D01*
X38592706Y-92898343D01*
X39052237Y-93358678D01*
X39094600Y-93376269D01*
X39094600Y-97070002D01*
X39054657Y-97086506D01*
X38594322Y-97546037D01*
X38344884Y-98146752D01*
X38344316Y-98797195D01*
X38592706Y-99398343D01*
X39052237Y-99858678D01*
X39652952Y-100108116D01*
X40303395Y-100108684D01*
X40904543Y-99860294D01*
X41364878Y-99400763D01*
X41614316Y-98800048D01*
X41614884Y-98149605D01*
X41366494Y-97548457D01*
X40906963Y-97088122D01*
X40864600Y-97070531D01*
X40864600Y-93376798D01*
X40904543Y-93360294D01*
X41364878Y-92900763D01*
X41614316Y-92300048D01*
X41614318Y-92297195D01*
X44004316Y-92297195D01*
X44252706Y-92898343D01*
X44712237Y-93358678D01*
X44754600Y-93376269D01*
X44754600Y-97070002D01*
X44714657Y-97086506D01*
X44254322Y-97546037D01*
X44004884Y-98146752D01*
X44004316Y-98797195D01*
X44252706Y-99398343D01*
X44712237Y-99858678D01*
X45312952Y-100108116D01*
X45963395Y-100108684D01*
X46564543Y-99860294D01*
X47024878Y-99400763D01*
X47274316Y-98800048D01*
X47274884Y-98149605D01*
X47026494Y-97548457D01*
X46566963Y-97088122D01*
X46524600Y-97070531D01*
X46524600Y-93376798D01*
X46564543Y-93360294D01*
X47024878Y-92900763D01*
X47274316Y-92300048D01*
X47274318Y-92297195D01*
X48504316Y-92297195D01*
X48752706Y-92898343D01*
X49212237Y-93358678D01*
X49254600Y-93376269D01*
X49254600Y-97070002D01*
X49214657Y-97086506D01*
X48754322Y-97546037D01*
X48504884Y-98146752D01*
X48504316Y-98797195D01*
X48752706Y-99398343D01*
X49212237Y-99858678D01*
X49812952Y-100108116D01*
X50463395Y-100108684D01*
X51064543Y-99860294D01*
X51524878Y-99400763D01*
X51774316Y-98800048D01*
X51774884Y-98149605D01*
X51526494Y-97548457D01*
X51066963Y-97088122D01*
X51024600Y-97070531D01*
X51024600Y-93376798D01*
X51064543Y-93360294D01*
X51524878Y-92900763D01*
X51774316Y-92300048D01*
X51774651Y-91916195D01*
X54011916Y-91916195D01*
X54260306Y-92517343D01*
X54719837Y-92977678D01*
X54762200Y-92995269D01*
X54762200Y-96689002D01*
X54722257Y-96705506D01*
X54261922Y-97165037D01*
X54012484Y-97765752D01*
X54011916Y-98416195D01*
X54260306Y-99017343D01*
X54719837Y-99477678D01*
X55320552Y-99727116D01*
X55970995Y-99727684D01*
X56572143Y-99479294D01*
X57032478Y-99019763D01*
X57281916Y-98419048D01*
X57282484Y-97768605D01*
X57034094Y-97167457D01*
X56574563Y-96707122D01*
X56532200Y-96689531D01*
X56532200Y-92995798D01*
X56572143Y-92979294D01*
X57032478Y-92519763D01*
X57281916Y-91919048D01*
X57282484Y-91268605D01*
X57034094Y-90667457D01*
X56574563Y-90207122D01*
X56460200Y-90159634D01*
X56460200Y-88766556D01*
X56519188Y-88727142D01*
X56808579Y-88294036D01*
X56910200Y-87783154D01*
X56910200Y-87730846D01*
X56808579Y-87219964D01*
X56519188Y-86786858D01*
X56086082Y-86497467D01*
X55575200Y-86395846D01*
X55064318Y-86497467D01*
X54631212Y-86786858D01*
X54341821Y-87219964D01*
X54240200Y-87730846D01*
X54240200Y-87783154D01*
X54341821Y-88294036D01*
X54631212Y-88727142D01*
X54690200Y-88766556D01*
X54690200Y-90237507D01*
X54261922Y-90665037D01*
X54012484Y-91265752D01*
X54011916Y-91916195D01*
X51774651Y-91916195D01*
X51774884Y-91649605D01*
X51526494Y-91048457D01*
X51066963Y-90588122D01*
X50466248Y-90338684D01*
X49815805Y-90338116D01*
X49214657Y-90586506D01*
X48754322Y-91046037D01*
X48504884Y-91646752D01*
X48504316Y-92297195D01*
X47274318Y-92297195D01*
X47274884Y-91649605D01*
X47026494Y-91048457D01*
X46566963Y-90588122D01*
X46524600Y-90570531D01*
X46524600Y-88743963D01*
X46587788Y-88701742D01*
X46877179Y-88268636D01*
X46978800Y-87757754D01*
X46978800Y-87705446D01*
X46877179Y-87194564D01*
X46587788Y-86761458D01*
X46154682Y-86472067D01*
X45643800Y-86370446D01*
X45132918Y-86472067D01*
X44699812Y-86761458D01*
X44410421Y-87194564D01*
X44308800Y-87705446D01*
X44308800Y-87757754D01*
X44410421Y-88268636D01*
X44699812Y-88701742D01*
X44754600Y-88738350D01*
X44754600Y-90570002D01*
X44714657Y-90586506D01*
X44254322Y-91046037D01*
X44004884Y-91646752D01*
X44004316Y-92297195D01*
X41614318Y-92297195D01*
X41614884Y-91649605D01*
X41366494Y-91048457D01*
X40906963Y-90588122D01*
X40306248Y-90338684D01*
X39655805Y-90338116D01*
X39054657Y-90586506D01*
X38594322Y-91046037D01*
X38344884Y-91646752D01*
X38344316Y-92297195D01*
X37114318Y-92297195D01*
X37114884Y-91649605D01*
X36866494Y-91048457D01*
X36406963Y-90588122D01*
X36364600Y-90570531D01*
X36364600Y-88718563D01*
X36427788Y-88676342D01*
X36717179Y-88243236D01*
X36818800Y-87732354D01*
X36818800Y-87680046D01*
X36717179Y-87169164D01*
X36427788Y-86736058D01*
X35994682Y-86446667D01*
X35483800Y-86345046D01*
X34972918Y-86446667D01*
X34539812Y-86736058D01*
X34250421Y-87169164D01*
X34148800Y-87680046D01*
X34148800Y-87732354D01*
X34250421Y-88243236D01*
X34539812Y-88676342D01*
X34594600Y-88712950D01*
X34594600Y-90570002D01*
X34554657Y-90586506D01*
X34094322Y-91046037D01*
X33844884Y-91646752D01*
X33844316Y-92297195D01*
X31454318Y-92297195D01*
X31454884Y-91649605D01*
X31206494Y-91048457D01*
X30746963Y-90588122D01*
X30146248Y-90338684D01*
X29495805Y-90338116D01*
X28894657Y-90586506D01*
X28434322Y-91046037D01*
X28184884Y-91646752D01*
X28184316Y-92297195D01*
X26954318Y-92297195D01*
X26954884Y-91649605D01*
X26706494Y-91048457D01*
X26246963Y-90588122D01*
X26204600Y-90570531D01*
X26204600Y-88794878D01*
X26343988Y-88701742D01*
X26633379Y-88268636D01*
X26735000Y-87757754D01*
X26735000Y-87705446D01*
X26633379Y-87194564D01*
X26343988Y-86761458D01*
X25910882Y-86472067D01*
X25400000Y-86370446D01*
X24889118Y-86472067D01*
X24456012Y-86761458D01*
X24166621Y-87194564D01*
X24065000Y-87705446D01*
X24065000Y-87757754D01*
X24166621Y-88268636D01*
X24434600Y-88669697D01*
X24434600Y-90570002D01*
X24394657Y-90586506D01*
X23934322Y-91046037D01*
X23684884Y-91646752D01*
X23684316Y-92297195D01*
X21294362Y-92297195D01*
X21294884Y-91700405D01*
X21046494Y-91099257D01*
X20586963Y-90638922D01*
X20544600Y-90621331D01*
X20544600Y-81046875D01*
X24644331Y-81046875D01*
X24706169Y-81282642D01*
X25207122Y-81459019D01*
X25737440Y-81430264D01*
X26093831Y-81282642D01*
X26155669Y-81046875D01*
X26130270Y-81021475D01*
X34728131Y-81021475D01*
X34789969Y-81257242D01*
X35290922Y-81433619D01*
X35821240Y-81404864D01*
X36177631Y-81257242D01*
X36232806Y-81046875D01*
X44888131Y-81046875D01*
X44949969Y-81282642D01*
X45450922Y-81459019D01*
X45981240Y-81430264D01*
X46337631Y-81282642D01*
X46392806Y-81072275D01*
X54819531Y-81072275D01*
X54881369Y-81308042D01*
X55382322Y-81484419D01*
X55912640Y-81455664D01*
X56269031Y-81308042D01*
X56330869Y-81072275D01*
X55575200Y-80316605D01*
X54819531Y-81072275D01*
X46392806Y-81072275D01*
X46399469Y-81046875D01*
X45643800Y-80291205D01*
X44888131Y-81046875D01*
X36232806Y-81046875D01*
X36239469Y-81021475D01*
X35483800Y-80265805D01*
X34728131Y-81021475D01*
X26130270Y-81021475D01*
X25400000Y-80291205D01*
X24644331Y-81046875D01*
X20544600Y-81046875D01*
X20544600Y-79918722D01*
X24052581Y-79918722D01*
X24081336Y-80449040D01*
X24228958Y-80805431D01*
X24464725Y-80867269D01*
X25220395Y-80111600D01*
X25579605Y-80111600D01*
X26335275Y-80867269D01*
X26571042Y-80805431D01*
X26747419Y-80304478D01*
X26725126Y-79893322D01*
X34136381Y-79893322D01*
X34165136Y-80423640D01*
X34312758Y-80780031D01*
X34548525Y-80841869D01*
X35304195Y-80086200D01*
X35663405Y-80086200D01*
X36419075Y-80841869D01*
X36654842Y-80780031D01*
X36831219Y-80279078D01*
X36811680Y-79918722D01*
X44296381Y-79918722D01*
X44325136Y-80449040D01*
X44472758Y-80805431D01*
X44708525Y-80867269D01*
X45464195Y-80111600D01*
X45823405Y-80111600D01*
X46579075Y-80867269D01*
X46814842Y-80805431D01*
X46991219Y-80304478D01*
X46971680Y-79944122D01*
X54227781Y-79944122D01*
X54256536Y-80474440D01*
X54404158Y-80830831D01*
X54639925Y-80892669D01*
X55395595Y-80137000D01*
X55754805Y-80137000D01*
X56510475Y-80892669D01*
X56746242Y-80830831D01*
X56759605Y-80792875D01*
X65157331Y-80792875D01*
X65219169Y-81028642D01*
X65720122Y-81205019D01*
X66250440Y-81176264D01*
X66606831Y-81028642D01*
X66668669Y-80792875D01*
X65913000Y-80037205D01*
X65157331Y-80792875D01*
X56759605Y-80792875D01*
X56922619Y-80329878D01*
X56893864Y-79799560D01*
X56838013Y-79664722D01*
X64565581Y-79664722D01*
X64594336Y-80195040D01*
X64741958Y-80551431D01*
X64977725Y-80613269D01*
X65733395Y-79857600D01*
X66092605Y-79857600D01*
X66848275Y-80613269D01*
X67084042Y-80551431D01*
X67260419Y-80050478D01*
X67231664Y-79520160D01*
X67084042Y-79163769D01*
X66848275Y-79101931D01*
X66092605Y-79857600D01*
X65733395Y-79857600D01*
X64977725Y-79101931D01*
X64741958Y-79163769D01*
X64565581Y-79664722D01*
X56838013Y-79664722D01*
X56746242Y-79443169D01*
X56510475Y-79381331D01*
X55754805Y-80137000D01*
X55395595Y-80137000D01*
X54639925Y-79381331D01*
X54404158Y-79443169D01*
X54227781Y-79944122D01*
X46971680Y-79944122D01*
X46962464Y-79774160D01*
X46814842Y-79417769D01*
X46579075Y-79355931D01*
X45823405Y-80111600D01*
X45464195Y-80111600D01*
X44708525Y-79355931D01*
X44472758Y-79417769D01*
X44296381Y-79918722D01*
X36811680Y-79918722D01*
X36802464Y-79748760D01*
X36654842Y-79392369D01*
X36419075Y-79330531D01*
X35663405Y-80086200D01*
X35304195Y-80086200D01*
X34548525Y-79330531D01*
X34312758Y-79392369D01*
X34136381Y-79893322D01*
X26725126Y-79893322D01*
X26718664Y-79774160D01*
X26571042Y-79417769D01*
X26335275Y-79355931D01*
X25579605Y-80111600D01*
X25220395Y-80111600D01*
X24464725Y-79355931D01*
X24228958Y-79417769D01*
X24052581Y-79918722D01*
X20544600Y-79918722D01*
X20544600Y-79176325D01*
X24644331Y-79176325D01*
X25400000Y-79931995D01*
X26155669Y-79176325D01*
X26149007Y-79150925D01*
X34728131Y-79150925D01*
X35483800Y-79906595D01*
X36214069Y-79176325D01*
X44888131Y-79176325D01*
X45643800Y-79931995D01*
X46374069Y-79201725D01*
X54819531Y-79201725D01*
X55575200Y-79957395D01*
X56330869Y-79201725D01*
X56269031Y-78965958D01*
X56145103Y-78922325D01*
X65157331Y-78922325D01*
X65913000Y-79677995D01*
X66668669Y-78922325D01*
X66606831Y-78686558D01*
X66105878Y-78510181D01*
X65575560Y-78538936D01*
X65219169Y-78686558D01*
X65157331Y-78922325D01*
X56145103Y-78922325D01*
X55768078Y-78789581D01*
X55237760Y-78818336D01*
X54881369Y-78965958D01*
X54819531Y-79201725D01*
X46374069Y-79201725D01*
X46399469Y-79176325D01*
X46337631Y-78940558D01*
X45836678Y-78764181D01*
X45306360Y-78792936D01*
X44949969Y-78940558D01*
X44888131Y-79176325D01*
X36214069Y-79176325D01*
X36239469Y-79150925D01*
X36177631Y-78915158D01*
X35676678Y-78738781D01*
X35146360Y-78767536D01*
X34789969Y-78915158D01*
X34728131Y-79150925D01*
X26149007Y-79150925D01*
X26093831Y-78940558D01*
X25592878Y-78764181D01*
X25062560Y-78792936D01*
X24706169Y-78940558D01*
X24644331Y-79176325D01*
X20544600Y-79176325D01*
X20544600Y-79055780D01*
X23051340Y-76549039D01*
X64648096Y-76549039D01*
X64808959Y-76937423D01*
X65184866Y-77352389D01*
X65690959Y-77591914D01*
X65913000Y-77470629D01*
X65913000Y-76327000D01*
X66167000Y-76327000D01*
X66167000Y-77470629D01*
X66389041Y-77591914D01*
X66895134Y-77352389D01*
X67271041Y-76937423D01*
X67431904Y-76549039D01*
X67309915Y-76327000D01*
X66167000Y-76327000D01*
X65913000Y-76327000D01*
X64770085Y-76327000D01*
X64648096Y-76549039D01*
X23051340Y-76549039D01*
X25055379Y-74545000D01*
X64910527Y-74545000D01*
X64997189Y-74674698D01*
X65401703Y-74944986D01*
X65184866Y-75047611D01*
X64808959Y-75462577D01*
X64648096Y-75850961D01*
X64770085Y-76073000D01*
X65913000Y-76073000D01*
X65913000Y-76053000D01*
X66167000Y-76053000D01*
X66167000Y-76073000D01*
X67309915Y-76073000D01*
X67431904Y-75850961D01*
X67271041Y-75462577D01*
X66895134Y-75047611D01*
X66678297Y-74944986D01*
X67082811Y-74674698D01*
X67393880Y-74209151D01*
X67503113Y-73660000D01*
X67393880Y-73110849D01*
X67082811Y-72645302D01*
X66700725Y-72390000D01*
X67082811Y-72134698D01*
X67393880Y-71669151D01*
X67503113Y-71120000D01*
X67393880Y-70570849D01*
X67082811Y-70105302D01*
X66700725Y-69850000D01*
X67082811Y-69594698D01*
X67393880Y-69129151D01*
X67503113Y-68580000D01*
X67393880Y-68030849D01*
X67082811Y-67565302D01*
X66700725Y-67310000D01*
X67082811Y-67054698D01*
X67393880Y-66589151D01*
X67503113Y-66040000D01*
X67393880Y-65490849D01*
X67082811Y-65025302D01*
X66700725Y-64770000D01*
X67082811Y-64514698D01*
X67393880Y-64049151D01*
X67503113Y-63500000D01*
X67393880Y-62950849D01*
X67082811Y-62485302D01*
X66800000Y-62296333D01*
X66800000Y-62163667D01*
X67082811Y-61974698D01*
X67393880Y-61509151D01*
X67503113Y-60960000D01*
X67393880Y-60410849D01*
X67082811Y-59945302D01*
X66938535Y-59848899D01*
X67075317Y-59823162D01*
X67291441Y-59684090D01*
X67436431Y-59471890D01*
X67470227Y-59305000D01*
X72530527Y-59305000D01*
X72617189Y-59434698D01*
X72999275Y-59690000D01*
X72617189Y-59945302D01*
X72306120Y-60410849D01*
X72196887Y-60960000D01*
X72306120Y-61509151D01*
X72617189Y-61974698D01*
X72999275Y-62230000D01*
X72617189Y-62485302D01*
X72306120Y-62950849D01*
X72196887Y-63500000D01*
X72306120Y-64049151D01*
X72617189Y-64514698D01*
X72999275Y-64770000D01*
X72617189Y-65025302D01*
X72306120Y-65490849D01*
X72196887Y-66040000D01*
X72306120Y-66589151D01*
X72617189Y-67054698D01*
X72999275Y-67310000D01*
X72617189Y-67565302D01*
X72306120Y-68030849D01*
X72196887Y-68580000D01*
X72231983Y-68756438D01*
X68335210Y-72653210D01*
X68143367Y-72940325D01*
X68143367Y-72940326D01*
X68075999Y-73279000D01*
X68076000Y-73279005D01*
X68076000Y-82884200D01*
X63627000Y-82884200D01*
X63288325Y-82951567D01*
X63001210Y-83143410D01*
X63001208Y-83143413D01*
X59521410Y-86623210D01*
X59329567Y-86910325D01*
X59329567Y-86910326D01*
X59262199Y-87249000D01*
X59262200Y-87249005D01*
X59262200Y-90189002D01*
X59222257Y-90205506D01*
X58761922Y-90665037D01*
X58512484Y-91265752D01*
X58511916Y-91916195D01*
X58760306Y-92517343D01*
X59219837Y-92977678D01*
X59262200Y-92995269D01*
X59262200Y-96689002D01*
X59222257Y-96705506D01*
X58761922Y-97165037D01*
X58512484Y-97765752D01*
X58511916Y-98416195D01*
X58760306Y-99017343D01*
X59219837Y-99477678D01*
X59820552Y-99727116D01*
X60470995Y-99727684D01*
X61072143Y-99479294D01*
X61532478Y-99019763D01*
X61781916Y-98419048D01*
X61782484Y-97768605D01*
X61534094Y-97167457D01*
X61074563Y-96707122D01*
X61032200Y-96689531D01*
X61032200Y-92995798D01*
X61072143Y-92979294D01*
X61532478Y-92519763D01*
X61781916Y-91919048D01*
X61781918Y-91916195D01*
X64273516Y-91916195D01*
X64521906Y-92517343D01*
X64981437Y-92977678D01*
X65023800Y-92995269D01*
X65023800Y-96689002D01*
X64983857Y-96705506D01*
X64523522Y-97165037D01*
X64274084Y-97765752D01*
X64273516Y-98416195D01*
X64521906Y-99017343D01*
X64981437Y-99477678D01*
X65582152Y-99727116D01*
X66232595Y-99727684D01*
X66833743Y-99479294D01*
X67294078Y-99019763D01*
X67543516Y-98419048D01*
X67544084Y-97768605D01*
X67295694Y-97167457D01*
X66836163Y-96707122D01*
X66793800Y-96689531D01*
X66793800Y-92995798D01*
X66833743Y-92979294D01*
X67294078Y-92519763D01*
X67543516Y-91919048D01*
X67544084Y-91268605D01*
X67295694Y-90667457D01*
X66836163Y-90207122D01*
X66793800Y-90189531D01*
X66793800Y-88489963D01*
X66856988Y-88447742D01*
X67146379Y-88014636D01*
X67248000Y-87503754D01*
X67248000Y-87451446D01*
X67146379Y-86940564D01*
X66856988Y-86507458D01*
X66423882Y-86218067D01*
X65913000Y-86116446D01*
X65402118Y-86218067D01*
X64969012Y-86507458D01*
X64679621Y-86940564D01*
X64578000Y-87451446D01*
X64578000Y-87503754D01*
X64679621Y-88014636D01*
X64969012Y-88447742D01*
X65023800Y-88484350D01*
X65023800Y-90189002D01*
X64983857Y-90205506D01*
X64523522Y-90665037D01*
X64274084Y-91265752D01*
X64273516Y-91916195D01*
X61781918Y-91916195D01*
X61782484Y-91268605D01*
X61534094Y-90667457D01*
X61074563Y-90207122D01*
X61032200Y-90189531D01*
X61032200Y-87615580D01*
X63993579Y-84654200D01*
X69088000Y-84654200D01*
X69426675Y-84586833D01*
X69523800Y-84521937D01*
X69523800Y-90189002D01*
X69483857Y-90205506D01*
X69023522Y-90665037D01*
X68774084Y-91265752D01*
X68773516Y-91916195D01*
X69021906Y-92517343D01*
X69481437Y-92977678D01*
X69523800Y-92995269D01*
X69523800Y-96689002D01*
X69483857Y-96705506D01*
X69023522Y-97165037D01*
X68774084Y-97765752D01*
X68773516Y-98416195D01*
X69021906Y-99017343D01*
X69481437Y-99477678D01*
X70082152Y-99727116D01*
X70732595Y-99727684D01*
X71333743Y-99479294D01*
X71794078Y-99019763D01*
X72043516Y-98419048D01*
X72044084Y-97768605D01*
X71795694Y-97167457D01*
X71336163Y-96707122D01*
X71293800Y-96689531D01*
X71293800Y-92995798D01*
X71333743Y-92979294D01*
X71794078Y-92519763D01*
X72043516Y-91919048D01*
X72044084Y-91268605D01*
X71795694Y-90667457D01*
X71336163Y-90207122D01*
X71293800Y-90189531D01*
X71293800Y-81257580D01*
X76202661Y-86166441D01*
X75943118Y-86218067D01*
X75510012Y-86507458D01*
X75220621Y-86940564D01*
X75119000Y-87451446D01*
X75119000Y-87503754D01*
X75220621Y-88014636D01*
X75510012Y-88447742D01*
X75569000Y-88487156D01*
X75569000Y-90299362D01*
X75550257Y-90307106D01*
X75089922Y-90766637D01*
X74840484Y-91367352D01*
X74839916Y-92017795D01*
X75088306Y-92618943D01*
X75547837Y-93079278D01*
X75590200Y-93096869D01*
X75590200Y-96790602D01*
X75550257Y-96807106D01*
X75089922Y-97266637D01*
X74840484Y-97867352D01*
X74839916Y-98517795D01*
X75088306Y-99118943D01*
X75547837Y-99579278D01*
X76148552Y-99828716D01*
X76798995Y-99829284D01*
X77400143Y-99580894D01*
X77860478Y-99121363D01*
X78109916Y-98520648D01*
X78110484Y-97870205D01*
X77862094Y-97269057D01*
X77402563Y-96808722D01*
X77360200Y-96791131D01*
X77360200Y-93097398D01*
X77400143Y-93080894D01*
X77860478Y-92621363D01*
X78109916Y-92020648D01*
X78110484Y-91370205D01*
X77862094Y-90769057D01*
X77402563Y-90308722D01*
X77339000Y-90282328D01*
X77339000Y-88487156D01*
X77397988Y-88447742D01*
X77687379Y-88014636D01*
X77747684Y-87711463D01*
X80090200Y-90053979D01*
X80090200Y-90290602D01*
X80050257Y-90307106D01*
X79589922Y-90766637D01*
X79340484Y-91367352D01*
X79339916Y-92017795D01*
X79588306Y-92618943D01*
X80047837Y-93079278D01*
X80090200Y-93096869D01*
X80090200Y-96790602D01*
X80050257Y-96807106D01*
X79589922Y-97266637D01*
X79340484Y-97867352D01*
X79339916Y-98517795D01*
X79588306Y-99118943D01*
X80047837Y-99579278D01*
X80648552Y-99828716D01*
X81298995Y-99829284D01*
X81900143Y-99580894D01*
X82360478Y-99121363D01*
X82609916Y-98520648D01*
X82610484Y-97870205D01*
X82362094Y-97269057D01*
X81902563Y-96808722D01*
X81860200Y-96791131D01*
X81860200Y-93097398D01*
X81900143Y-93080894D01*
X82360478Y-92621363D01*
X82609916Y-92020648D01*
X82610484Y-91370205D01*
X82362094Y-90769057D01*
X81902563Y-90308722D01*
X81860200Y-90291131D01*
X81860200Y-89687405D01*
X81860201Y-89687400D01*
X81792833Y-89348726D01*
X81792833Y-89348725D01*
X81600990Y-89061610D01*
X81600987Y-89061608D01*
X73332255Y-80792875D01*
X75698331Y-80792875D01*
X75760169Y-81028642D01*
X76261122Y-81205019D01*
X76791440Y-81176264D01*
X77147831Y-81028642D01*
X77209669Y-80792875D01*
X76454000Y-80037205D01*
X75698331Y-80792875D01*
X73332255Y-80792875D01*
X72462200Y-79922820D01*
X72462200Y-79664722D01*
X75106581Y-79664722D01*
X75135336Y-80195040D01*
X75282958Y-80551431D01*
X75518725Y-80613269D01*
X76274395Y-79857600D01*
X76633605Y-79857600D01*
X77389275Y-80613269D01*
X77625042Y-80551431D01*
X77801419Y-80050478D01*
X77772664Y-79520160D01*
X77625042Y-79163769D01*
X77389275Y-79101931D01*
X76633605Y-79857600D01*
X76274395Y-79857600D01*
X75518725Y-79101931D01*
X75282958Y-79163769D01*
X75106581Y-79664722D01*
X72462200Y-79664722D01*
X72462200Y-78922325D01*
X75698331Y-78922325D01*
X76454000Y-79677995D01*
X77209669Y-78922325D01*
X77147831Y-78686558D01*
X76646878Y-78510181D01*
X76116560Y-78538936D01*
X75760169Y-78686558D01*
X75698331Y-78922325D01*
X72462200Y-78922325D01*
X72462200Y-76982741D01*
X72617189Y-77214698D01*
X73082736Y-77525767D01*
X73631887Y-77635000D01*
X73688113Y-77635000D01*
X74237264Y-77525767D01*
X74702811Y-77214698D01*
X74789473Y-77085000D01*
X78017820Y-77085000D01*
X87119504Y-86186683D01*
X86766400Y-86116446D01*
X86255518Y-86218067D01*
X85822412Y-86507458D01*
X85533021Y-86940564D01*
X85431400Y-87451446D01*
X85431400Y-87503754D01*
X85533021Y-88014636D01*
X85801000Y-88415697D01*
X85801000Y-90316002D01*
X85761057Y-90332506D01*
X85300722Y-90792037D01*
X85051284Y-91392752D01*
X85050716Y-92043195D01*
X85299106Y-92644343D01*
X85758637Y-93104678D01*
X85801000Y-93122269D01*
X85801000Y-96816002D01*
X85761057Y-96832506D01*
X85300722Y-97292037D01*
X85051284Y-97892752D01*
X85050716Y-98543195D01*
X85299106Y-99144343D01*
X85758637Y-99604678D01*
X86359352Y-99854116D01*
X87009795Y-99854684D01*
X87610943Y-99606294D01*
X88071278Y-99146763D01*
X88320716Y-98546048D01*
X88321284Y-97895605D01*
X88072894Y-97294457D01*
X87613363Y-96834122D01*
X87571000Y-96816531D01*
X87571000Y-93122798D01*
X87610943Y-93106294D01*
X88071278Y-92646763D01*
X88320716Y-92046048D01*
X88321284Y-91395605D01*
X88072894Y-90794457D01*
X87613363Y-90334122D01*
X87571000Y-90316531D01*
X87571000Y-88540878D01*
X87710388Y-88447742D01*
X87999779Y-88014636D01*
X88101400Y-87503754D01*
X88101400Y-87451446D01*
X88031163Y-87098342D01*
X90301000Y-89368179D01*
X90301000Y-90316002D01*
X90261057Y-90332506D01*
X89800722Y-90792037D01*
X89551284Y-91392752D01*
X89550716Y-92043195D01*
X89799106Y-92644343D01*
X90258637Y-93104678D01*
X90301000Y-93122269D01*
X90301000Y-96816002D01*
X90261057Y-96832506D01*
X89800722Y-97292037D01*
X89551284Y-97892752D01*
X89550716Y-98543195D01*
X89799106Y-99144343D01*
X90258637Y-99604678D01*
X90859352Y-99854116D01*
X91509795Y-99854684D01*
X92110943Y-99606294D01*
X92571278Y-99146763D01*
X92820716Y-98546048D01*
X92821284Y-97895605D01*
X92572894Y-97294457D01*
X92113363Y-96834122D01*
X92071000Y-96816531D01*
X92071000Y-93122798D01*
X92110943Y-93106294D01*
X92571278Y-92646763D01*
X92587520Y-92607646D01*
X94575400Y-92607646D01*
X94575400Y-92659954D01*
X94677021Y-93170836D01*
X94966412Y-93603942D01*
X95399518Y-93893333D01*
X95910400Y-93994954D01*
X96421282Y-93893333D01*
X96854388Y-93603942D01*
X96911278Y-93518800D01*
X98061266Y-93518800D01*
X98079506Y-93562943D01*
X98539037Y-94023278D01*
X99139752Y-94272716D01*
X99790195Y-94273284D01*
X100391343Y-94024894D01*
X100851678Y-93565363D01*
X100869269Y-93523000D01*
X104563002Y-93523000D01*
X104579506Y-93562943D01*
X105039037Y-94023278D01*
X105639752Y-94272716D01*
X106290195Y-94273284D01*
X106891343Y-94024894D01*
X107351678Y-93565363D01*
X107601116Y-92964648D01*
X107601684Y-92314205D01*
X107353294Y-91713057D01*
X106893763Y-91252722D01*
X106293048Y-91003284D01*
X105642605Y-91002716D01*
X105041457Y-91251106D01*
X104581122Y-91710637D01*
X104563531Y-91753000D01*
X100869798Y-91753000D01*
X100853294Y-91713057D01*
X100393763Y-91252722D01*
X99793048Y-91003284D01*
X99142605Y-91002716D01*
X98541457Y-91251106D01*
X98081122Y-91710637D01*
X98065275Y-91748800D01*
X96911278Y-91748800D01*
X96854388Y-91663658D01*
X96421282Y-91374267D01*
X95910400Y-91272646D01*
X95399518Y-91374267D01*
X94966412Y-91663658D01*
X94677021Y-92096764D01*
X94575400Y-92607646D01*
X92587520Y-92607646D01*
X92820716Y-92046048D01*
X92821284Y-91395605D01*
X92572894Y-90794457D01*
X92113363Y-90334122D01*
X92071000Y-90316531D01*
X92071000Y-89001600D01*
X92003633Y-88662925D01*
X91811790Y-88375810D01*
X91811787Y-88375808D01*
X84228855Y-80792875D01*
X86010731Y-80792875D01*
X86072569Y-81028642D01*
X86573522Y-81205019D01*
X87103840Y-81176264D01*
X87460231Y-81028642D01*
X87522069Y-80792875D01*
X86766400Y-80037205D01*
X86010731Y-80792875D01*
X84228855Y-80792875D01*
X83100702Y-79664722D01*
X85418981Y-79664722D01*
X85447736Y-80195040D01*
X85595358Y-80551431D01*
X85831125Y-80613269D01*
X86586795Y-79857600D01*
X85831125Y-79101931D01*
X85595358Y-79163769D01*
X85418981Y-79664722D01*
X83100702Y-79664722D01*
X79010190Y-75574210D01*
X78843118Y-75462577D01*
X78723075Y-75382367D01*
X78666884Y-75371190D01*
X78384400Y-75314999D01*
X78384395Y-75315000D01*
X74789473Y-75315000D01*
X74702811Y-75185302D01*
X74320725Y-74930000D01*
X74702811Y-74674698D01*
X75013880Y-74209151D01*
X75123113Y-73660000D01*
X75013880Y-73110849D01*
X74702811Y-72645302D01*
X74320725Y-72390000D01*
X74702811Y-72134698D01*
X75013880Y-71669151D01*
X75123113Y-71120000D01*
X75013880Y-70570849D01*
X74702811Y-70105302D01*
X74320725Y-69850000D01*
X74702811Y-69594698D01*
X75013880Y-69129151D01*
X75123113Y-68580000D01*
X75013880Y-68030849D01*
X74702811Y-67565302D01*
X74320725Y-67310000D01*
X74702811Y-67054698D01*
X75013880Y-66589151D01*
X75123113Y-66040000D01*
X75013880Y-65490849D01*
X74702811Y-65025302D01*
X74320725Y-64770000D01*
X74702811Y-64514698D01*
X75013880Y-64049151D01*
X75123113Y-63500000D01*
X75013880Y-62950849D01*
X74702811Y-62485302D01*
X74320725Y-62230000D01*
X74702811Y-61974698D01*
X75013880Y-61509151D01*
X75123113Y-60960000D01*
X75088017Y-60783562D01*
X76825787Y-59045792D01*
X76825790Y-59045790D01*
X77017633Y-58758675D01*
X77085000Y-58420000D01*
X77085000Y-49453805D01*
X77085001Y-49453800D01*
X77017633Y-49115126D01*
X77017633Y-49115125D01*
X76825790Y-48828010D01*
X76825787Y-48828008D01*
X76038390Y-48040610D01*
X76037558Y-48040054D01*
X75751275Y-47848767D01*
X75695084Y-47837590D01*
X75412600Y-47781399D01*
X75412595Y-47781400D01*
X74637473Y-47781400D01*
X74391804Y-47535302D01*
X73901313Y-47331632D01*
X73370217Y-47331169D01*
X72879371Y-47533982D01*
X72503502Y-47909196D01*
X72299832Y-48399687D01*
X72299369Y-48930783D01*
X72502182Y-49421629D01*
X72877396Y-49797498D01*
X73367887Y-50001168D01*
X73898983Y-50001631D01*
X74389829Y-49798818D01*
X74637679Y-49551400D01*
X75046020Y-49551400D01*
X75315000Y-49820379D01*
X75315000Y-58053421D01*
X75094130Y-58274291D01*
X75013880Y-57870849D01*
X74702811Y-57405302D01*
X74237264Y-57094233D01*
X73688113Y-56985000D01*
X73631887Y-56985000D01*
X73082736Y-57094233D01*
X72617189Y-57405302D01*
X72530527Y-57535000D01*
X67471446Y-57535000D01*
X67443162Y-57384683D01*
X67304090Y-57168559D01*
X67091890Y-57023569D01*
X66925000Y-56989773D01*
X66925000Y-55181073D01*
X67171098Y-54935404D01*
X67374768Y-54444913D01*
X67375000Y-54178200D01*
X72298846Y-54178200D01*
X72400467Y-54689082D01*
X72689858Y-55122188D01*
X73122964Y-55411579D01*
X73633846Y-55513200D01*
X73686154Y-55513200D01*
X74197036Y-55411579D01*
X74630142Y-55122188D01*
X74919533Y-54689082D01*
X75021154Y-54178200D01*
X74919533Y-53667318D01*
X74630142Y-53234212D01*
X74197036Y-52944821D01*
X73686154Y-52843200D01*
X73633846Y-52843200D01*
X73122964Y-52944821D01*
X72689858Y-53234212D01*
X72400467Y-53667318D01*
X72298846Y-54178200D01*
X67375000Y-54178200D01*
X67375231Y-53913817D01*
X67172418Y-53422971D01*
X66925000Y-53175121D01*
X66925000Y-49650306D01*
X66984742Y-49610388D01*
X67274133Y-49177282D01*
X67375754Y-48666400D01*
X67274133Y-48155518D01*
X66984742Y-47722412D01*
X66551636Y-47433021D01*
X66040754Y-47331400D01*
X65988446Y-47331400D01*
X65477564Y-47433021D01*
X65044458Y-47722412D01*
X64755067Y-48155518D01*
X64653446Y-48666400D01*
X64755067Y-49177282D01*
X65044458Y-49610388D01*
X65155000Y-49684250D01*
X65155000Y-53175327D01*
X64908902Y-53420996D01*
X64705232Y-53911487D01*
X64704769Y-54442583D01*
X64907582Y-54933429D01*
X65155000Y-55181279D01*
X65155000Y-56988554D01*
X65004683Y-57016838D01*
X64788559Y-57155910D01*
X64643569Y-57368110D01*
X64609773Y-57535000D01*
X52070005Y-57535000D01*
X52070000Y-57534999D01*
X51731325Y-57602367D01*
X51444210Y-57794210D01*
X51444208Y-57794213D01*
X50433420Y-58805000D01*
X49750854Y-58805000D01*
X49713162Y-58604683D01*
X49574090Y-58388559D01*
X49361890Y-58243569D01*
X49253893Y-58221699D01*
X49531645Y-57916924D01*
X49701476Y-57506890D01*
X49580155Y-57277000D01*
X48387000Y-57277000D01*
X48387000Y-57297000D01*
X48133000Y-57297000D01*
X48133000Y-57277000D01*
X48113000Y-57277000D01*
X48113000Y-57023000D01*
X48133000Y-57023000D01*
X48133000Y-57003000D01*
X48387000Y-57003000D01*
X48387000Y-57023000D01*
X49580155Y-57023000D01*
X49701476Y-56793110D01*
X49531645Y-56383076D01*
X49141358Y-55954817D01*
X48998447Y-55887702D01*
X49339147Y-55660054D01*
X49661054Y-55178285D01*
X49774093Y-54610000D01*
X49661054Y-54041715D01*
X49339147Y-53559946D01*
X49009974Y-53340000D01*
X49339147Y-53120054D01*
X49661054Y-52638285D01*
X49774093Y-52070000D01*
X49661054Y-51501715D01*
X49339147Y-51019946D01*
X49009974Y-50800000D01*
X49339147Y-50580054D01*
X49661054Y-50098285D01*
X49774093Y-49530000D01*
X49661054Y-48961715D01*
X49339147Y-48479946D01*
X49009974Y-48260000D01*
X49339147Y-48040054D01*
X49661054Y-47558285D01*
X49774093Y-46990000D01*
X49661054Y-46421715D01*
X49339147Y-45939946D01*
X49009974Y-45720000D01*
X49339147Y-45500054D01*
X49661054Y-45018285D01*
X49774093Y-44450000D01*
X49661054Y-43881715D01*
X49339147Y-43399946D01*
X49009974Y-43180000D01*
X49339147Y-42960054D01*
X49449432Y-42795000D01*
X51703420Y-42795000D01*
X57660000Y-48751579D01*
X57660000Y-55317537D01*
X57627808Y-55349673D01*
X57485162Y-55693201D01*
X57484838Y-56065167D01*
X57626883Y-56408943D01*
X57889673Y-56672192D01*
X58233201Y-56814838D01*
X58605167Y-56815162D01*
X58948943Y-56673117D01*
X59212192Y-56410327D01*
X59354838Y-56066799D01*
X59355162Y-55694833D01*
X59213117Y-55351057D01*
X59180000Y-55317882D01*
X59180000Y-48684928D01*
X59237633Y-48598674D01*
X59305001Y-48260000D01*
X59237633Y-47921325D01*
X59045789Y-47634210D01*
X54940619Y-43529039D01*
X64648096Y-43529039D01*
X64808959Y-43917423D01*
X65184866Y-44332389D01*
X65690959Y-44571914D01*
X65913000Y-44450629D01*
X65913000Y-43307000D01*
X66167000Y-43307000D01*
X66167000Y-44450629D01*
X66389041Y-44571914D01*
X66895134Y-44332389D01*
X67271041Y-43917423D01*
X67431904Y-43529039D01*
X67309915Y-43307000D01*
X66167000Y-43307000D01*
X65913000Y-43307000D01*
X64770085Y-43307000D01*
X64648096Y-43529039D01*
X54940619Y-43529039D01*
X53321580Y-41910000D01*
X57516579Y-37715000D01*
X64653468Y-37715000D01*
X64576887Y-38100000D01*
X64686120Y-38649151D01*
X64997189Y-39114698D01*
X65379275Y-39370000D01*
X64997189Y-39625302D01*
X64686120Y-40090849D01*
X64576887Y-40640000D01*
X64686120Y-41189151D01*
X64997189Y-41654698D01*
X65401703Y-41924986D01*
X65184866Y-42027611D01*
X64808959Y-42442577D01*
X64648096Y-42830961D01*
X64770085Y-43053000D01*
X65913000Y-43053000D01*
X65913000Y-43033000D01*
X66167000Y-43033000D01*
X66167000Y-43053000D01*
X67309915Y-43053000D01*
X67431904Y-42830961D01*
X67271041Y-42442577D01*
X66895134Y-42027611D01*
X66678297Y-41924986D01*
X67082811Y-41654698D01*
X67393880Y-41189151D01*
X67503113Y-40640000D01*
X67393880Y-40090849D01*
X67082811Y-39625302D01*
X66700725Y-39370000D01*
X67082811Y-39114698D01*
X67393880Y-38649151D01*
X67503113Y-38100000D01*
X67426532Y-37715000D01*
X68579995Y-37715000D01*
X68580000Y-37715001D01*
X68862484Y-37658810D01*
X68918675Y-37647633D01*
X69205790Y-37455790D01*
X69205791Y-37455789D01*
X72622999Y-34038580D01*
X72999275Y-34290000D01*
X72617189Y-34545302D01*
X72306120Y-35010849D01*
X72196887Y-35560000D01*
X72306120Y-36109151D01*
X72617189Y-36574698D01*
X72999275Y-36830000D01*
X72617189Y-37085302D01*
X72306120Y-37550849D01*
X72196887Y-38100000D01*
X72306120Y-38649151D01*
X72617189Y-39114698D01*
X72999275Y-39370000D01*
X72617189Y-39625302D01*
X72306120Y-40090849D01*
X72196887Y-40640000D01*
X72306120Y-41189151D01*
X72617189Y-41654698D01*
X72999275Y-41910000D01*
X72617189Y-42165302D01*
X72306120Y-42630849D01*
X72196887Y-43180000D01*
X72306120Y-43729151D01*
X72617189Y-44194698D01*
X73082736Y-44505767D01*
X73631887Y-44615000D01*
X73688113Y-44615000D01*
X73817653Y-44589233D01*
X83493800Y-54265379D01*
X83493800Y-57480200D01*
X83561167Y-57818875D01*
X83692802Y-58015882D01*
X83763483Y-58186943D01*
X84026273Y-58450192D01*
X84369801Y-58592838D01*
X84741767Y-58593162D01*
X85085543Y-58451117D01*
X85119400Y-58417319D01*
X85119400Y-67536578D01*
X85069562Y-67656601D01*
X85069238Y-68028567D01*
X85211283Y-68372343D01*
X85474073Y-68635592D01*
X85817601Y-68778238D01*
X86189567Y-68778562D01*
X86533343Y-68636517D01*
X86668800Y-68501296D01*
X86668800Y-77696578D01*
X86618962Y-77816601D01*
X86618638Y-78188567D01*
X86756078Y-78521199D01*
X86428960Y-78538936D01*
X86072569Y-78686558D01*
X86010731Y-78922325D01*
X86766400Y-79677995D01*
X86780542Y-79663852D01*
X86960148Y-79843458D01*
X86946005Y-79857600D01*
X87701675Y-80613269D01*
X87937442Y-80551431D01*
X87938800Y-80547574D01*
X87938800Y-81610195D01*
X87938799Y-81610200D01*
X87971750Y-81775852D01*
X88006167Y-81948875D01*
X88147586Y-82160525D01*
X88198010Y-82235990D01*
X93201808Y-87239787D01*
X93201810Y-87239790D01*
X93488925Y-87431633D01*
X93534809Y-87440760D01*
X93827600Y-87499001D01*
X93827605Y-87499000D01*
X97575820Y-87499000D01*
X97848258Y-87771438D01*
X97831684Y-87811352D01*
X97831116Y-88461795D01*
X98079506Y-89062943D01*
X98539037Y-89523278D01*
X99139752Y-89772716D01*
X99790195Y-89773284D01*
X100391343Y-89524894D01*
X100851678Y-89065363D01*
X100869269Y-89023000D01*
X104563002Y-89023000D01*
X104579506Y-89062943D01*
X105039037Y-89523278D01*
X105639752Y-89772716D01*
X106290195Y-89773284D01*
X106891343Y-89524894D01*
X107351678Y-89065363D01*
X107601116Y-88464648D01*
X107601684Y-87814205D01*
X107353294Y-87213057D01*
X106893763Y-86752722D01*
X106293048Y-86503284D01*
X105642605Y-86502716D01*
X105041457Y-86751106D01*
X104581122Y-87210637D01*
X104563531Y-87253000D01*
X100869798Y-87253000D01*
X100853294Y-87213057D01*
X100393763Y-86752722D01*
X99793048Y-86503284D01*
X99142605Y-86502716D01*
X99100212Y-86520232D01*
X98568190Y-85988210D01*
X98509620Y-85949075D01*
X98281075Y-85796367D01*
X98224884Y-85785190D01*
X97942400Y-85728999D01*
X97942395Y-85729000D01*
X96999969Y-85729000D01*
X97081442Y-85707631D01*
X97257819Y-85206678D01*
X97229064Y-84676360D01*
X97081442Y-84319969D01*
X96845675Y-84258131D01*
X96090005Y-85013800D01*
X96104148Y-85027942D01*
X95924542Y-85207548D01*
X95910400Y-85193405D01*
X95896258Y-85207548D01*
X95716652Y-85027942D01*
X95730795Y-85013800D01*
X94975125Y-84258131D01*
X94739358Y-84319969D01*
X94562981Y-84820922D01*
X94591736Y-85351240D01*
X94739358Y-85707631D01*
X94820831Y-85729000D01*
X94194179Y-85729000D01*
X90938226Y-82473046D01*
X93965800Y-82473046D01*
X93965800Y-82525354D01*
X94067421Y-83036236D01*
X94356812Y-83469342D01*
X94789918Y-83758733D01*
X95216359Y-83843558D01*
X95154731Y-84078525D01*
X95910400Y-84834195D01*
X96666069Y-84078525D01*
X96604231Y-83842758D01*
X96103278Y-83666381D01*
X95936351Y-83675432D01*
X96244788Y-83469342D01*
X96301678Y-83384200D01*
X98071762Y-83384200D01*
X98079506Y-83402943D01*
X98539037Y-83863278D01*
X99139752Y-84112716D01*
X99790195Y-84113284D01*
X100391343Y-83864894D01*
X100851678Y-83405363D01*
X100869269Y-83363000D01*
X104563002Y-83363000D01*
X104579506Y-83402943D01*
X105039037Y-83863278D01*
X105639752Y-84112716D01*
X106290195Y-84113284D01*
X106891343Y-83864894D01*
X107351678Y-83405363D01*
X107601116Y-82804648D01*
X107601684Y-82154205D01*
X107353294Y-81553057D01*
X106893763Y-81092722D01*
X106293048Y-80843284D01*
X105642605Y-80842716D01*
X105041457Y-81091106D01*
X104581122Y-81550637D01*
X104563531Y-81593000D01*
X100869798Y-81593000D01*
X100853294Y-81553057D01*
X100393763Y-81092722D01*
X99793048Y-80843284D01*
X99142605Y-80842716D01*
X98541457Y-81091106D01*
X98081122Y-81550637D01*
X98054728Y-81614200D01*
X96301678Y-81614200D01*
X96244788Y-81529058D01*
X95811682Y-81239667D01*
X95300800Y-81138046D01*
X94789918Y-81239667D01*
X94356812Y-81529058D01*
X94067421Y-81962164D01*
X93965800Y-82473046D01*
X90938226Y-82473046D01*
X89708800Y-81243620D01*
X89708800Y-78301795D01*
X97831116Y-78301795D01*
X98079506Y-78902943D01*
X98539037Y-79363278D01*
X99139752Y-79612716D01*
X99790195Y-79613284D01*
X100391343Y-79364894D01*
X100851678Y-78905363D01*
X101101116Y-78304648D01*
X101101118Y-78301795D01*
X104331116Y-78301795D01*
X104579506Y-78902943D01*
X105039037Y-79363278D01*
X105639752Y-79612716D01*
X106290195Y-79613284D01*
X106891343Y-79364894D01*
X107351678Y-78905363D01*
X107601116Y-78304648D01*
X107601684Y-77654205D01*
X107353294Y-77053057D01*
X106893763Y-76592722D01*
X106293048Y-76343284D01*
X105642605Y-76342716D01*
X105041457Y-76591106D01*
X104581122Y-77050637D01*
X104331684Y-77651352D01*
X104331116Y-78301795D01*
X101101118Y-78301795D01*
X101101684Y-77654205D01*
X100853294Y-77053057D01*
X100393763Y-76592722D01*
X99793048Y-76343284D01*
X99142605Y-76342716D01*
X98541457Y-76591106D01*
X98081122Y-77050637D01*
X97831684Y-77651352D01*
X97831116Y-78301795D01*
X89708800Y-78301795D01*
X89708800Y-75814475D01*
X94545131Y-75814475D01*
X94606969Y-76050242D01*
X95107922Y-76226619D01*
X95638240Y-76197864D01*
X95994631Y-76050242D01*
X96056469Y-75814475D01*
X95300800Y-75058805D01*
X94545131Y-75814475D01*
X89708800Y-75814475D01*
X89708800Y-74686322D01*
X93953381Y-74686322D01*
X93982136Y-75216640D01*
X94129758Y-75573031D01*
X94365525Y-75634869D01*
X95121195Y-74879200D01*
X95480405Y-74879200D01*
X96236075Y-75634869D01*
X96471842Y-75573031D01*
X96648219Y-75072078D01*
X96619464Y-74541760D01*
X96471842Y-74185369D01*
X96236075Y-74123531D01*
X95480405Y-74879200D01*
X95121195Y-74879200D01*
X94365525Y-74123531D01*
X94129758Y-74185369D01*
X93953381Y-74686322D01*
X89708800Y-74686322D01*
X89708800Y-73943925D01*
X94545131Y-73943925D01*
X95300800Y-74699595D01*
X96056469Y-73943925D01*
X95994631Y-73708158D01*
X95493678Y-73531781D01*
X94963360Y-73560536D01*
X94606969Y-73708158D01*
X94545131Y-73943925D01*
X89708800Y-73943925D01*
X89708800Y-72084446D01*
X92873600Y-72084446D01*
X92873600Y-72136754D01*
X92975221Y-72647636D01*
X93264612Y-73080742D01*
X93697718Y-73370133D01*
X94208600Y-73471754D01*
X94719482Y-73370133D01*
X95152588Y-73080742D01*
X95209478Y-72995600D01*
X97977306Y-72995600D01*
X98079506Y-73242943D01*
X98539037Y-73703278D01*
X99139752Y-73952716D01*
X99790195Y-73953284D01*
X100391343Y-73704894D01*
X100851678Y-73245363D01*
X100869269Y-73203000D01*
X104563002Y-73203000D01*
X104579506Y-73242943D01*
X105039037Y-73703278D01*
X105639752Y-73952716D01*
X106290195Y-73953284D01*
X106891343Y-73704894D01*
X107351678Y-73245363D01*
X107601116Y-72644648D01*
X107601684Y-71994205D01*
X107353294Y-71393057D01*
X106893763Y-70932722D01*
X106293048Y-70683284D01*
X105642605Y-70682716D01*
X105041457Y-70931106D01*
X104581122Y-71390637D01*
X104563531Y-71433000D01*
X100869798Y-71433000D01*
X100853294Y-71393057D01*
X100393763Y-70932722D01*
X99793048Y-70683284D01*
X99142605Y-70682716D01*
X98541457Y-70931106D01*
X98246448Y-71225600D01*
X95209478Y-71225600D01*
X95152588Y-71140458D01*
X94719482Y-70851067D01*
X94208600Y-70749446D01*
X93697718Y-70851067D01*
X93264612Y-71140458D01*
X92975221Y-71573564D01*
X92873600Y-72084446D01*
X89708800Y-72084446D01*
X89708800Y-68141795D01*
X97831116Y-68141795D01*
X98079506Y-68742943D01*
X98539037Y-69203278D01*
X99139752Y-69452716D01*
X99790195Y-69453284D01*
X100391343Y-69204894D01*
X100851678Y-68745363D01*
X101101116Y-68144648D01*
X101101118Y-68141795D01*
X104331116Y-68141795D01*
X104579506Y-68742943D01*
X105039037Y-69203278D01*
X105639752Y-69452716D01*
X106290195Y-69453284D01*
X106891343Y-69204894D01*
X107351678Y-68745363D01*
X107601116Y-68144648D01*
X107601684Y-67494205D01*
X107353294Y-66893057D01*
X106893763Y-66432722D01*
X106293048Y-66183284D01*
X105642605Y-66182716D01*
X105041457Y-66431106D01*
X104581122Y-66890637D01*
X104331684Y-67491352D01*
X104331116Y-68141795D01*
X101101118Y-68141795D01*
X101101684Y-67494205D01*
X100853294Y-66893057D01*
X100393763Y-66432722D01*
X99793048Y-66183284D01*
X99142605Y-66182716D01*
X98541457Y-66431106D01*
X98081122Y-66890637D01*
X97831684Y-67491352D01*
X97831116Y-68141795D01*
X89708800Y-68141795D01*
X89708800Y-65425875D01*
X93452931Y-65425875D01*
X93514769Y-65661642D01*
X94015722Y-65838019D01*
X94546040Y-65809264D01*
X94902431Y-65661642D01*
X94964269Y-65425875D01*
X94208600Y-64670205D01*
X93452931Y-65425875D01*
X89708800Y-65425875D01*
X89708800Y-64297722D01*
X92861181Y-64297722D01*
X92889936Y-64828040D01*
X93037558Y-65184431D01*
X93273325Y-65246269D01*
X94028995Y-64490600D01*
X94388205Y-64490600D01*
X95143875Y-65246269D01*
X95379642Y-65184431D01*
X95556019Y-64683478D01*
X95527264Y-64153160D01*
X95379642Y-63796769D01*
X95143875Y-63734931D01*
X94388205Y-64490600D01*
X94028995Y-64490600D01*
X93273325Y-63734931D01*
X93037558Y-63796769D01*
X92861181Y-64297722D01*
X89708800Y-64297722D01*
X89708800Y-63555325D01*
X93452931Y-63555325D01*
X94208600Y-64310995D01*
X94964269Y-63555325D01*
X94902431Y-63319558D01*
X94401478Y-63143181D01*
X93871160Y-63171936D01*
X93514769Y-63319558D01*
X93452931Y-63555325D01*
X89708800Y-63555325D01*
X89708800Y-61619646D01*
X92873600Y-61619646D01*
X92873600Y-61671954D01*
X92975221Y-62182836D01*
X93264612Y-62615942D01*
X93697718Y-62905333D01*
X94208600Y-63006954D01*
X94719482Y-62905333D01*
X95152588Y-62615942D01*
X95209478Y-62530800D01*
X97851365Y-62530800D01*
X98079506Y-63082943D01*
X98539037Y-63543278D01*
X99139752Y-63792716D01*
X99790195Y-63793284D01*
X100391343Y-63544894D01*
X100851678Y-63085363D01*
X100869269Y-63043000D01*
X104563002Y-63043000D01*
X104579506Y-63082943D01*
X105039037Y-63543278D01*
X105639752Y-63792716D01*
X106290195Y-63793284D01*
X106891343Y-63544894D01*
X107351678Y-63085363D01*
X107601116Y-62484648D01*
X107601684Y-61834205D01*
X107353294Y-61233057D01*
X106893763Y-60772722D01*
X106293048Y-60523284D01*
X105642605Y-60522716D01*
X105041457Y-60771106D01*
X104581122Y-61230637D01*
X104563531Y-61273000D01*
X100869798Y-61273000D01*
X100853294Y-61233057D01*
X100393763Y-60772722D01*
X99793048Y-60523284D01*
X99142605Y-60522716D01*
X98566399Y-60760800D01*
X95209478Y-60760800D01*
X95152588Y-60675658D01*
X94719482Y-60386267D01*
X94208600Y-60284646D01*
X93697718Y-60386267D01*
X93264612Y-60675658D01*
X92975221Y-61108764D01*
X92873600Y-61619646D01*
X89708800Y-61619646D01*
X89708800Y-57981795D01*
X97831116Y-57981795D01*
X98079506Y-58582943D01*
X98539037Y-59043278D01*
X99139752Y-59292716D01*
X99790195Y-59293284D01*
X100391343Y-59044894D01*
X100851678Y-58585363D01*
X101101116Y-57984648D01*
X101101118Y-57981795D01*
X104331116Y-57981795D01*
X104579506Y-58582943D01*
X105039037Y-59043278D01*
X105639752Y-59292716D01*
X106290195Y-59293284D01*
X106891343Y-59044894D01*
X107351678Y-58585363D01*
X107601116Y-57984648D01*
X107601684Y-57334205D01*
X107353294Y-56733057D01*
X106893763Y-56272722D01*
X106293048Y-56023284D01*
X105642605Y-56022716D01*
X105041457Y-56271106D01*
X104581122Y-56730637D01*
X104331684Y-57331352D01*
X104331116Y-57981795D01*
X101101118Y-57981795D01*
X101101684Y-57334205D01*
X100853294Y-56733057D01*
X100393763Y-56272722D01*
X99793048Y-56023284D01*
X99142605Y-56022716D01*
X98541457Y-56271106D01*
X98081122Y-56730637D01*
X97831684Y-57331352D01*
X97831116Y-57981795D01*
X89708800Y-57981795D01*
X89708800Y-54961075D01*
X93452931Y-54961075D01*
X93514769Y-55196842D01*
X94015722Y-55373219D01*
X94546040Y-55344464D01*
X94902431Y-55196842D01*
X94964269Y-54961075D01*
X94208600Y-54205405D01*
X93452931Y-54961075D01*
X89708800Y-54961075D01*
X89708800Y-53832922D01*
X92861181Y-53832922D01*
X92889936Y-54363240D01*
X93037558Y-54719631D01*
X93273325Y-54781469D01*
X94028995Y-54025800D01*
X94388205Y-54025800D01*
X95143875Y-54781469D01*
X95379642Y-54719631D01*
X95556019Y-54218678D01*
X95527264Y-53688360D01*
X95379642Y-53331969D01*
X95143875Y-53270131D01*
X94388205Y-54025800D01*
X94028995Y-54025800D01*
X93273325Y-53270131D01*
X93037558Y-53331969D01*
X92861181Y-53832922D01*
X89708800Y-53832922D01*
X89708800Y-51866046D01*
X92822800Y-51866046D01*
X92822800Y-51918354D01*
X92924421Y-52429236D01*
X93213812Y-52862342D01*
X93468198Y-53032317D01*
X93452931Y-53090525D01*
X94208600Y-53846195D01*
X94964269Y-53090525D01*
X94933851Y-52974553D01*
X95101788Y-52862342D01*
X95158678Y-52777200D01*
X98019286Y-52777200D01*
X98079506Y-52922943D01*
X98539037Y-53383278D01*
X99139752Y-53632716D01*
X99790195Y-53633284D01*
X100391343Y-53384894D01*
X100851678Y-52925363D01*
X100869269Y-52883000D01*
X104563002Y-52883000D01*
X104579506Y-52922943D01*
X105039037Y-53383278D01*
X105639752Y-53632716D01*
X106290195Y-53633284D01*
X106891343Y-53384894D01*
X107351678Y-52925363D01*
X107601116Y-52324648D01*
X107601684Y-51674205D01*
X107353294Y-51073057D01*
X106893763Y-50612722D01*
X106293048Y-50363284D01*
X105642605Y-50362716D01*
X105041457Y-50611106D01*
X104581122Y-51070637D01*
X104563531Y-51113000D01*
X100869798Y-51113000D01*
X100853294Y-51073057D01*
X100393763Y-50612722D01*
X99793048Y-50363284D01*
X99142605Y-50362716D01*
X98541457Y-50611106D01*
X98144670Y-51007200D01*
X95158678Y-51007200D01*
X95101788Y-50922058D01*
X94668682Y-50632667D01*
X94157800Y-50531046D01*
X93646918Y-50632667D01*
X93213812Y-50922058D01*
X92924421Y-51355164D01*
X92822800Y-51866046D01*
X89708800Y-51866046D01*
X89708800Y-50723805D01*
X89708801Y-50723800D01*
X89652610Y-50441316D01*
X89641433Y-50385125D01*
X89449590Y-50098010D01*
X89449587Y-50098008D01*
X87173375Y-47821795D01*
X97831116Y-47821795D01*
X98079506Y-48422943D01*
X98539037Y-48883278D01*
X99139752Y-49132716D01*
X99790195Y-49133284D01*
X100391343Y-48884894D01*
X100851678Y-48425363D01*
X101101116Y-47824648D01*
X101101118Y-47821795D01*
X104331116Y-47821795D01*
X104579506Y-48422943D01*
X105039037Y-48883278D01*
X105639752Y-49132716D01*
X106290195Y-49133284D01*
X106891343Y-48884894D01*
X107351678Y-48425363D01*
X107601116Y-47824648D01*
X107601684Y-47174205D01*
X107353294Y-46573057D01*
X106893763Y-46112722D01*
X106293048Y-45863284D01*
X105642605Y-45862716D01*
X105041457Y-46111106D01*
X104581122Y-46570637D01*
X104331684Y-47171352D01*
X104331116Y-47821795D01*
X101101118Y-47821795D01*
X101101684Y-47174205D01*
X100853294Y-46573057D01*
X100393763Y-46112722D01*
X99793048Y-45863284D01*
X99142605Y-45862716D01*
X98541457Y-46111106D01*
X98081122Y-46570637D01*
X97831684Y-47171352D01*
X97831116Y-47821795D01*
X87173375Y-47821795D01*
X84559055Y-45207475D01*
X93402131Y-45207475D01*
X93463969Y-45443242D01*
X93964922Y-45619619D01*
X94495240Y-45590864D01*
X94851631Y-45443242D01*
X94913469Y-45207475D01*
X94157800Y-44451805D01*
X93402131Y-45207475D01*
X84559055Y-45207475D01*
X83430902Y-44079322D01*
X92810381Y-44079322D01*
X92839136Y-44609640D01*
X92986758Y-44966031D01*
X93222525Y-45027869D01*
X93978195Y-44272200D01*
X94337405Y-44272200D01*
X95093075Y-45027869D01*
X95328842Y-44966031D01*
X95505219Y-44465078D01*
X95476464Y-43934760D01*
X95328842Y-43578369D01*
X95093075Y-43516531D01*
X94337405Y-44272200D01*
X93978195Y-44272200D01*
X93222525Y-43516531D01*
X92986758Y-43578369D01*
X92810381Y-44079322D01*
X83430902Y-44079322D01*
X81032226Y-41680646D01*
X92772000Y-41680646D01*
X92772000Y-41732954D01*
X92873621Y-42243836D01*
X93163012Y-42676942D01*
X93596118Y-42966333D01*
X93726739Y-42992315D01*
X93463969Y-43101158D01*
X93402131Y-43336925D01*
X94157800Y-44092595D01*
X94913469Y-43336925D01*
X94851631Y-43101158D01*
X94522553Y-42985295D01*
X94617882Y-42966333D01*
X95050988Y-42676942D01*
X95107878Y-42591800D01*
X98008791Y-42591800D01*
X98079506Y-42762943D01*
X98539037Y-43223278D01*
X99139752Y-43472716D01*
X99790195Y-43473284D01*
X100391343Y-43224894D01*
X100851678Y-42765363D01*
X100869269Y-42723000D01*
X104563002Y-42723000D01*
X104579506Y-42762943D01*
X105039037Y-43223278D01*
X105639752Y-43472716D01*
X106290195Y-43473284D01*
X106891343Y-43224894D01*
X107351678Y-42765363D01*
X107601116Y-42164648D01*
X107601684Y-41514205D01*
X107353294Y-40913057D01*
X106893763Y-40452722D01*
X106293048Y-40203284D01*
X105642605Y-40202716D01*
X105041457Y-40451106D01*
X104581122Y-40910637D01*
X104563531Y-40953000D01*
X100869798Y-40953000D01*
X100853294Y-40913057D01*
X100393763Y-40452722D01*
X99793048Y-40203284D01*
X99142605Y-40202716D01*
X98541457Y-40451106D01*
X98170114Y-40821800D01*
X95107878Y-40821800D01*
X95050988Y-40736658D01*
X94617882Y-40447267D01*
X94107000Y-40345646D01*
X93596118Y-40447267D01*
X93163012Y-40736658D01*
X92873621Y-41169764D01*
X92772000Y-41680646D01*
X81032226Y-41680646D01*
X77013375Y-37661795D01*
X97831116Y-37661795D01*
X98079506Y-38262943D01*
X98539037Y-38723278D01*
X99139752Y-38972716D01*
X99790195Y-38973284D01*
X100391343Y-38724894D01*
X100851678Y-38265363D01*
X101101116Y-37664648D01*
X101101118Y-37661795D01*
X104331116Y-37661795D01*
X104579506Y-38262943D01*
X105039037Y-38723278D01*
X105639752Y-38972716D01*
X106290195Y-38973284D01*
X106891343Y-38724894D01*
X107351678Y-38265363D01*
X107601116Y-37664648D01*
X107601684Y-37014205D01*
X107353294Y-36413057D01*
X106893763Y-35952722D01*
X106293048Y-35703284D01*
X105642605Y-35702716D01*
X105041457Y-35951106D01*
X104581122Y-36410637D01*
X104331684Y-37011352D01*
X104331116Y-37661795D01*
X101101118Y-37661795D01*
X101101684Y-37014205D01*
X100853294Y-36413057D01*
X100393763Y-35952722D01*
X99793048Y-35703284D01*
X99142605Y-35702716D01*
X98541457Y-35951106D01*
X98081122Y-36410637D01*
X97831684Y-37011352D01*
X97831116Y-37661795D01*
X77013375Y-37661795D01*
X75088017Y-35736437D01*
X75123113Y-35560000D01*
X75016113Y-35022075D01*
X93351331Y-35022075D01*
X93413169Y-35257842D01*
X93914122Y-35434219D01*
X94444440Y-35405464D01*
X94800831Y-35257842D01*
X94862669Y-35022075D01*
X94107000Y-34266405D01*
X93351331Y-35022075D01*
X75016113Y-35022075D01*
X75013880Y-35010849D01*
X74702811Y-34545302D01*
X74320725Y-34290000D01*
X74702811Y-34034698D01*
X74796874Y-33893922D01*
X92759581Y-33893922D01*
X92788336Y-34424240D01*
X92935958Y-34780631D01*
X93171725Y-34842469D01*
X93927395Y-34086800D01*
X94286605Y-34086800D01*
X95042275Y-34842469D01*
X95278042Y-34780631D01*
X95454419Y-34279678D01*
X95425664Y-33749360D01*
X95278042Y-33392969D01*
X95042275Y-33331131D01*
X94286605Y-34086800D01*
X93927395Y-34086800D01*
X93171725Y-33331131D01*
X92935958Y-33392969D01*
X92759581Y-33893922D01*
X74796874Y-33893922D01*
X75013880Y-33569151D01*
X75123113Y-33020000D01*
X75013880Y-32470849D01*
X74702811Y-32005302D01*
X74623707Y-31952446D01*
X92772000Y-31952446D01*
X92772000Y-32004754D01*
X92873621Y-32515636D01*
X93163012Y-32948742D01*
X93368505Y-33086047D01*
X93351331Y-33151525D01*
X94107000Y-33907195D01*
X94862669Y-33151525D01*
X94845495Y-33086047D01*
X95050988Y-32948742D01*
X95107878Y-32863600D01*
X98339708Y-32863600D01*
X98539037Y-33063278D01*
X99139752Y-33312716D01*
X99790195Y-33313284D01*
X100391343Y-33064894D01*
X100851678Y-32605363D01*
X100869269Y-32563000D01*
X104563002Y-32563000D01*
X104579506Y-32602943D01*
X105039037Y-33063278D01*
X105639752Y-33312716D01*
X106290195Y-33313284D01*
X106891343Y-33064894D01*
X107351678Y-32605363D01*
X107601116Y-32004648D01*
X107601684Y-31354205D01*
X107353294Y-30753057D01*
X106893763Y-30292722D01*
X106293048Y-30043284D01*
X105642605Y-30042716D01*
X105041457Y-30291106D01*
X104581122Y-30750637D01*
X104563531Y-30793000D01*
X100869798Y-30793000D01*
X100853294Y-30753057D01*
X100393763Y-30292722D01*
X99793048Y-30043284D01*
X99142605Y-30042716D01*
X98541457Y-30291106D01*
X98081122Y-30750637D01*
X97938712Y-31093600D01*
X95107878Y-31093600D01*
X95050988Y-31008458D01*
X94617882Y-30719067D01*
X94107000Y-30617446D01*
X93596118Y-30719067D01*
X93163012Y-31008458D01*
X92873621Y-31441564D01*
X92772000Y-31952446D01*
X74623707Y-31952446D01*
X74320725Y-31750000D01*
X74702811Y-31494698D01*
X75013880Y-31029151D01*
X75123113Y-30480000D01*
X75013880Y-29930849D01*
X74702811Y-29465302D01*
X74320725Y-29210000D01*
X74702811Y-28954698D01*
X75013880Y-28489151D01*
X75123113Y-27940000D01*
X75035949Y-27501795D01*
X97831116Y-27501795D01*
X98079506Y-28102943D01*
X98539037Y-28563278D01*
X99139752Y-28812716D01*
X99790195Y-28813284D01*
X100391343Y-28564894D01*
X100851678Y-28105363D01*
X101101116Y-27504648D01*
X101101118Y-27501795D01*
X104331116Y-27501795D01*
X104579506Y-28102943D01*
X105039037Y-28563278D01*
X105639752Y-28812716D01*
X106290195Y-28813284D01*
X106891343Y-28564894D01*
X107351678Y-28105363D01*
X107601116Y-27504648D01*
X107601684Y-26854205D01*
X107353294Y-26253057D01*
X106893763Y-25792722D01*
X106293048Y-25543284D01*
X105642605Y-25542716D01*
X105041457Y-25791106D01*
X104581122Y-26250637D01*
X104331684Y-26851352D01*
X104331116Y-27501795D01*
X101101118Y-27501795D01*
X101101684Y-26854205D01*
X100853294Y-26253057D01*
X100393763Y-25792722D01*
X99793048Y-25543284D01*
X99142605Y-25542716D01*
X98541457Y-25791106D01*
X98081122Y-26250637D01*
X97831684Y-26851352D01*
X97831116Y-27501795D01*
X75035949Y-27501795D01*
X75013880Y-27390849D01*
X74702811Y-26925302D01*
X74320725Y-26670000D01*
X74702811Y-26414698D01*
X75013880Y-25949151D01*
X75123113Y-25400000D01*
X75102004Y-25293875D01*
X93351331Y-25293875D01*
X93413169Y-25529642D01*
X93914122Y-25706019D01*
X94444440Y-25677264D01*
X94800831Y-25529642D01*
X94862669Y-25293875D01*
X94107000Y-24538205D01*
X93351331Y-25293875D01*
X75102004Y-25293875D01*
X75013880Y-24850849D01*
X74702811Y-24385302D01*
X74374187Y-24165722D01*
X92759581Y-24165722D01*
X92788336Y-24696040D01*
X92935958Y-25052431D01*
X93171725Y-25114269D01*
X93927395Y-24358600D01*
X94286605Y-24358600D01*
X95042275Y-25114269D01*
X95278042Y-25052431D01*
X95454419Y-24551478D01*
X95425664Y-24021160D01*
X95278042Y-23664769D01*
X95042275Y-23602931D01*
X94286605Y-24358600D01*
X93927395Y-24358600D01*
X93171725Y-23602931D01*
X92935958Y-23664769D01*
X92759581Y-24165722D01*
X74374187Y-24165722D01*
X74237264Y-24074233D01*
X73688113Y-23965000D01*
X73631887Y-23965000D01*
X73082736Y-24074233D01*
X72617189Y-24385302D01*
X72306120Y-24850849D01*
X72225870Y-25254291D01*
X69246626Y-22275046D01*
X92772000Y-22275046D01*
X92772000Y-22327354D01*
X92873621Y-22838236D01*
X93163012Y-23271342D01*
X93357168Y-23401072D01*
X93351331Y-23423325D01*
X94107000Y-24178995D01*
X94862669Y-23423325D01*
X94856832Y-23401072D01*
X95050988Y-23271342D01*
X95107878Y-23186200D01*
X98683200Y-23186200D01*
X99021875Y-23118833D01*
X99035779Y-23109543D01*
X99139752Y-23152716D01*
X99790195Y-23153284D01*
X100391343Y-22904894D01*
X100851678Y-22445363D01*
X100869269Y-22403000D01*
X104563002Y-22403000D01*
X104579506Y-22442943D01*
X105039037Y-22903278D01*
X105639752Y-23152716D01*
X106290195Y-23153284D01*
X106891343Y-22904894D01*
X107351678Y-22445363D01*
X107601116Y-21844648D01*
X107601684Y-21194205D01*
X107353294Y-20593057D01*
X106893763Y-20132722D01*
X106293048Y-19883284D01*
X105642605Y-19882716D01*
X105041457Y-20131106D01*
X104581122Y-20590637D01*
X104563531Y-20633000D01*
X100869798Y-20633000D01*
X100853294Y-20593057D01*
X100393763Y-20132722D01*
X99793048Y-19883284D01*
X99142605Y-19882716D01*
X98541457Y-20131106D01*
X98081122Y-20590637D01*
X97831684Y-21191352D01*
X97831488Y-21416200D01*
X95107878Y-21416200D01*
X95050988Y-21331058D01*
X94617882Y-21041667D01*
X94107000Y-20940046D01*
X93596118Y-21041667D01*
X93163012Y-21331058D01*
X92873621Y-21764164D01*
X92772000Y-22275046D01*
X69246626Y-22275046D01*
X69205790Y-22234210D01*
X69070466Y-22143790D01*
X68918675Y-22042367D01*
X68862484Y-22031190D01*
X68580000Y-21974999D01*
X68579995Y-21975000D01*
X55880005Y-21975000D01*
X55880000Y-21974999D01*
X55597516Y-22031190D01*
X55541325Y-22042367D01*
X55254210Y-22234210D01*
X55254208Y-22234213D01*
X51703420Y-25785000D01*
X49449432Y-25785000D01*
X49339147Y-25619946D01*
X49009974Y-25400000D01*
X49339147Y-25180054D01*
X49661054Y-24698285D01*
X49774093Y-24130000D01*
X49661054Y-23561715D01*
X49339147Y-23079946D01*
X48857378Y-22758039D01*
X48289093Y-22645000D01*
X48230907Y-22645000D01*
X47662622Y-22758039D01*
X47180853Y-23079946D01*
X47070568Y-23245000D01*
X46810478Y-23245000D01*
X46512370Y-22946371D01*
X45999100Y-22733243D01*
X45443339Y-22732758D01*
X44929697Y-22944990D01*
X44536371Y-23337630D01*
X44323243Y-23850900D01*
X44322758Y-24406661D01*
X44534990Y-24920303D01*
X44927630Y-25313629D01*
X45135512Y-25399949D01*
X44929697Y-25484990D01*
X44536371Y-25877630D01*
X44323243Y-26390900D01*
X44322758Y-26946661D01*
X44534990Y-27460303D01*
X44927630Y-27853629D01*
X45135512Y-27939949D01*
X44929697Y-28024990D01*
X44536371Y-28417630D01*
X44323243Y-28930900D01*
X44322758Y-29486661D01*
X44534990Y-30000303D01*
X44927630Y-30393629D01*
X45135512Y-30479949D01*
X44929697Y-30564990D01*
X44536371Y-30957630D01*
X44323243Y-31470900D01*
X44322758Y-32026661D01*
X44534990Y-32540303D01*
X44927630Y-32933629D01*
X45135512Y-33019949D01*
X44929697Y-33104990D01*
X44536371Y-33497630D01*
X44323243Y-34010900D01*
X44322758Y-34566661D01*
X44534990Y-35080303D01*
X44927630Y-35473629D01*
X45135512Y-35559949D01*
X44929697Y-35644990D01*
X44536371Y-36037630D01*
X44323243Y-36550900D01*
X44322758Y-37106661D01*
X44534990Y-37620303D01*
X44927630Y-38013629D01*
X45119727Y-38093395D01*
X44988857Y-38147603D01*
X44919392Y-38389787D01*
X45720000Y-39190395D01*
X46520608Y-38389787D01*
X46451143Y-38147603D01*
X46310682Y-38097491D01*
X46510303Y-38015010D01*
X46903629Y-37622370D01*
X46917070Y-37590000D01*
X46987046Y-37590000D01*
X47180853Y-37880054D01*
X47521553Y-38107702D01*
X47378642Y-38174817D01*
X46988355Y-38603076D01*
X46957966Y-38676445D01*
X46942397Y-38638857D01*
X46700213Y-38569392D01*
X45899605Y-39370000D01*
X46700213Y-40170608D01*
X46942397Y-40101143D01*
X46956806Y-40060754D01*
X46988355Y-40136924D01*
X47378642Y-40565183D01*
X47521553Y-40632298D01*
X47180853Y-40859946D01*
X46987046Y-41150000D01*
X46917531Y-41150000D01*
X46905010Y-41119697D01*
X46512370Y-40726371D01*
X46320273Y-40646605D01*
X46451143Y-40592397D01*
X46520608Y-40350213D01*
X45720000Y-39549605D01*
X44919392Y-40350213D01*
X44988857Y-40592397D01*
X45129318Y-40642509D01*
X44929697Y-40724990D01*
X44536371Y-41117630D01*
X44323243Y-41630900D01*
X44322758Y-42186661D01*
X44534990Y-42700303D01*
X44927630Y-43093629D01*
X45135512Y-43179949D01*
X44929697Y-43264990D01*
X44536371Y-43657630D01*
X44323243Y-44170900D01*
X44322758Y-44726661D01*
X44534990Y-45240303D01*
X44927630Y-45633629D01*
X45135512Y-45719949D01*
X44929697Y-45804990D01*
X44536371Y-46197630D01*
X44323243Y-46710900D01*
X44322758Y-47266661D01*
X44534990Y-47780303D01*
X44927630Y-48173629D01*
X45135512Y-48259949D01*
X44929697Y-48344990D01*
X44536371Y-48737630D01*
X44323243Y-49250900D01*
X44322758Y-49806661D01*
X44534990Y-50320303D01*
X44927630Y-50713629D01*
X45135512Y-50799949D01*
X44929697Y-50884990D01*
X44536371Y-51277630D01*
X44323243Y-51790900D01*
X44322758Y-52346661D01*
X44534990Y-52860303D01*
X44927630Y-53253629D01*
X45135512Y-53339949D01*
X44929697Y-53424990D01*
X44536371Y-53817630D01*
X44323243Y-54330900D01*
X44322758Y-54886661D01*
X44534990Y-55400303D01*
X44927630Y-55793629D01*
X45119727Y-55873395D01*
X44988857Y-55927603D01*
X44919392Y-56169787D01*
X45720000Y-56970395D01*
X46520608Y-56169787D01*
X46451143Y-55927603D01*
X46310682Y-55877491D01*
X46510303Y-55795010D01*
X46903629Y-55402370D01*
X46917070Y-55370000D01*
X46987046Y-55370000D01*
X47180853Y-55660054D01*
X47521553Y-55887702D01*
X47378642Y-55954817D01*
X46988355Y-56383076D01*
X46957966Y-56456445D01*
X46942397Y-56418857D01*
X46700213Y-56349392D01*
X45899605Y-57150000D01*
X46700213Y-57950608D01*
X46942397Y-57881143D01*
X46956806Y-57840754D01*
X46988355Y-57916924D01*
X47264501Y-58219937D01*
X47174683Y-58236838D01*
X46958559Y-58375910D01*
X46813569Y-58588110D01*
X46776534Y-58770996D01*
X46512370Y-58506371D01*
X46320273Y-58426605D01*
X46451143Y-58372397D01*
X46520608Y-58130213D01*
X45720000Y-57329605D01*
X44919392Y-58130213D01*
X44988857Y-58372397D01*
X45129318Y-58422509D01*
X44929697Y-58504990D01*
X44629163Y-58805000D01*
X33386579Y-58805000D01*
X31523882Y-56942302D01*
X44310856Y-56942302D01*
X44338638Y-57497368D01*
X44497603Y-57881143D01*
X44739787Y-57950608D01*
X45540395Y-57150000D01*
X44739787Y-56349392D01*
X44497603Y-56418857D01*
X44310856Y-56942302D01*
X31523882Y-56942302D01*
X23485790Y-48904210D01*
X23371748Y-48828010D01*
X23198675Y-48712367D01*
X23142484Y-48701190D01*
X22860000Y-48644999D01*
X22859995Y-48645000D01*
X18870478Y-48645000D01*
X18572370Y-48346371D01*
X18380273Y-48266605D01*
X18511143Y-48212397D01*
X18580608Y-47970213D01*
X17780000Y-47169605D01*
X16979392Y-47970213D01*
X17048857Y-48212397D01*
X17189318Y-48262509D01*
X16989697Y-48344990D01*
X16596371Y-48737630D01*
X16582930Y-48770000D01*
X16512954Y-48770000D01*
X16319147Y-48479946D01*
X15978447Y-48252298D01*
X16121358Y-48185183D01*
X16511645Y-47756924D01*
X16542034Y-47683555D01*
X16557603Y-47721143D01*
X16799787Y-47790608D01*
X17600395Y-46990000D01*
X17959605Y-46990000D01*
X18760213Y-47790608D01*
X19002397Y-47721143D01*
X19189144Y-47197698D01*
X19161362Y-46642632D01*
X19002397Y-46258857D01*
X18760213Y-46189392D01*
X17959605Y-46990000D01*
X17600395Y-46990000D01*
X16799787Y-46189392D01*
X16557603Y-46258857D01*
X16543194Y-46299246D01*
X16511645Y-46223076D01*
X16121358Y-45794817D01*
X15978447Y-45727702D01*
X16319147Y-45500054D01*
X16512954Y-45210000D01*
X16582469Y-45210000D01*
X16594990Y-45240303D01*
X16987630Y-45633629D01*
X17179727Y-45713395D01*
X17048857Y-45767603D01*
X16979392Y-46009787D01*
X17780000Y-46810395D01*
X18580608Y-46009787D01*
X18511143Y-45767603D01*
X18370682Y-45717491D01*
X18570303Y-45635010D01*
X18963629Y-45242370D01*
X19176757Y-44729100D01*
X19177242Y-44173339D01*
X18965010Y-43659697D01*
X18572370Y-43266371D01*
X18364488Y-43180051D01*
X18570303Y-43095010D01*
X18963629Y-42702370D01*
X19176757Y-42189100D01*
X19177242Y-41633339D01*
X18965010Y-41119697D01*
X18572370Y-40726371D01*
X18364488Y-40640051D01*
X18570303Y-40555010D01*
X18963629Y-40162370D01*
X19176757Y-39649100D01*
X19177181Y-39162302D01*
X44310856Y-39162302D01*
X44338638Y-39717368D01*
X44497603Y-40101143D01*
X44739787Y-40170608D01*
X45540395Y-39370000D01*
X44739787Y-38569392D01*
X44497603Y-38638857D01*
X44310856Y-39162302D01*
X19177181Y-39162302D01*
X19177242Y-39093339D01*
X18965010Y-38579697D01*
X18572370Y-38186371D01*
X18364488Y-38100051D01*
X18570303Y-38015010D01*
X18963629Y-37622370D01*
X19176757Y-37109100D01*
X19177242Y-36553339D01*
X18965010Y-36039697D01*
X18572370Y-35646371D01*
X18364488Y-35560051D01*
X18570303Y-35475010D01*
X18963629Y-35082370D01*
X19176757Y-34569100D01*
X19177242Y-34013339D01*
X18965010Y-33499697D01*
X18572370Y-33106371D01*
X18364488Y-33020051D01*
X18570303Y-32935010D01*
X18963629Y-32542370D01*
X19176757Y-32029100D01*
X19177242Y-31473339D01*
X18965010Y-30959697D01*
X18572370Y-30566371D01*
X18364488Y-30480051D01*
X18570303Y-30395010D01*
X18963629Y-30002370D01*
X19176757Y-29489100D01*
X19177242Y-28933339D01*
X18965010Y-28419697D01*
X18572370Y-28026371D01*
X18364488Y-27940051D01*
X18570303Y-27855010D01*
X18963629Y-27462370D01*
X19176757Y-26949100D01*
X19177242Y-26393339D01*
X18965010Y-25879697D01*
X18572370Y-25486371D01*
X18364488Y-25400051D01*
X18570303Y-25315010D01*
X18963629Y-24922370D01*
X19176757Y-24409100D01*
X19177242Y-23853339D01*
X18965010Y-23339697D01*
X18572370Y-22946371D01*
X18059100Y-22733243D01*
X17503339Y-22732758D01*
X16989697Y-22944990D01*
X16724262Y-23209963D01*
X16693162Y-23044683D01*
X16554090Y-22828559D01*
X16341890Y-22683569D01*
X16090000Y-22632560D01*
X14390000Y-22632560D01*
X14154683Y-22676838D01*
X13938559Y-22815910D01*
X13793569Y-23028110D01*
X13742560Y-23280000D01*
X13742560Y-24980000D01*
X13786838Y-25215317D01*
X13925910Y-25431441D01*
X14138110Y-25576431D01*
X14205541Y-25590086D01*
X14160853Y-25619946D01*
X13838946Y-26101715D01*
X13725907Y-26670000D01*
X13410000Y-26670000D01*
X13410000Y-20116800D01*
X64678846Y-20116800D01*
X64780467Y-20627682D01*
X65069858Y-21060788D01*
X65502964Y-21350179D01*
X66013846Y-21451800D01*
X66066154Y-21451800D01*
X66577036Y-21350179D01*
X67010142Y-21060788D01*
X67299533Y-20627682D01*
X67348564Y-20381183D01*
X72324769Y-20381183D01*
X72527582Y-20872029D01*
X72902796Y-21247898D01*
X73393287Y-21451568D01*
X73924383Y-21452031D01*
X74415229Y-21249218D01*
X74791098Y-20874004D01*
X74994768Y-20383513D01*
X74995231Y-19852417D01*
X74792418Y-19361571D01*
X74417204Y-18985702D01*
X73926713Y-18782032D01*
X73395617Y-18781569D01*
X72904771Y-18984382D01*
X72528902Y-19359596D01*
X72325232Y-19850087D01*
X72324769Y-20381183D01*
X67348564Y-20381183D01*
X67401154Y-20116800D01*
X67299533Y-19605918D01*
X67010142Y-19172812D01*
X66577036Y-18883421D01*
X66066154Y-18781800D01*
X66013846Y-18781800D01*
X65502964Y-18883421D01*
X65069858Y-19172812D01*
X64780467Y-19605918D01*
X64678846Y-20116800D01*
X13410000Y-20116800D01*
X13410000Y-17341795D01*
X97831116Y-17341795D01*
X98079506Y-17942943D01*
X98539037Y-18403278D01*
X99139752Y-18652716D01*
X99790195Y-18653284D01*
X100391343Y-18404894D01*
X100851678Y-17945363D01*
X101101116Y-17344648D01*
X101101118Y-17341795D01*
X104331116Y-17341795D01*
X104579506Y-17942943D01*
X105039037Y-18403278D01*
X105639752Y-18652716D01*
X106290195Y-18653284D01*
X106891343Y-18404894D01*
X107351678Y-17945363D01*
X107601116Y-17344648D01*
X107601684Y-16694205D01*
X107353294Y-16093057D01*
X106893763Y-15632722D01*
X106293048Y-15383284D01*
X105642605Y-15382716D01*
X105041457Y-15631106D01*
X104581122Y-16090637D01*
X104331684Y-16691352D01*
X104331116Y-17341795D01*
X101101118Y-17341795D01*
X101101684Y-16694205D01*
X100853294Y-16093057D01*
X100393763Y-15632722D01*
X99793048Y-15383284D01*
X99142605Y-15382716D01*
X98541457Y-15631106D01*
X98081122Y-16090637D01*
X97831684Y-16691352D01*
X97831116Y-17341795D01*
X13410000Y-17341795D01*
X13410000Y-15859983D01*
X64704769Y-15859983D01*
X64907582Y-16350829D01*
X65282796Y-16726698D01*
X65773287Y-16930368D01*
X66304383Y-16930831D01*
X66795229Y-16728018D01*
X67171098Y-16352804D01*
X67374768Y-15862313D01*
X67375000Y-15595600D01*
X72298846Y-15595600D01*
X72400467Y-16106482D01*
X72689858Y-16539588D01*
X73122964Y-16828979D01*
X73633846Y-16930600D01*
X73686154Y-16930600D01*
X74197036Y-16828979D01*
X74630142Y-16539588D01*
X74919533Y-16106482D01*
X75017001Y-15616475D01*
X93351331Y-15616475D01*
X93413169Y-15852242D01*
X93914122Y-16028619D01*
X94444440Y-15999864D01*
X94800831Y-15852242D01*
X94862669Y-15616475D01*
X94107000Y-14860805D01*
X93351331Y-15616475D01*
X75017001Y-15616475D01*
X75021154Y-15595600D01*
X74919533Y-15084718D01*
X74630142Y-14651612D01*
X74385761Y-14488322D01*
X92759581Y-14488322D01*
X92788336Y-15018640D01*
X92935958Y-15375031D01*
X93171725Y-15436869D01*
X93927395Y-14681200D01*
X94286605Y-14681200D01*
X95042275Y-15436869D01*
X95278042Y-15375031D01*
X95454419Y-14874078D01*
X95425664Y-14343760D01*
X95278042Y-13987369D01*
X95042275Y-13925531D01*
X94286605Y-14681200D01*
X93927395Y-14681200D01*
X93171725Y-13925531D01*
X92935958Y-13987369D01*
X92759581Y-14488322D01*
X74385761Y-14488322D01*
X74197036Y-14362221D01*
X73686154Y-14260600D01*
X73633846Y-14260600D01*
X73122964Y-14362221D01*
X72689858Y-14651612D01*
X72400467Y-15084718D01*
X72298846Y-15595600D01*
X67375000Y-15595600D01*
X67375231Y-15331217D01*
X67172418Y-14840371D01*
X66797204Y-14464502D01*
X66306713Y-14260832D01*
X65775617Y-14260369D01*
X65284771Y-14463182D01*
X64908902Y-14838396D01*
X64705232Y-15328887D01*
X64704769Y-15859983D01*
X13410000Y-15859983D01*
X13410000Y-13410000D01*
X93654972Y-13410000D01*
X93413169Y-13510158D01*
G36*
X64648096Y-30130961D02*
X64770085Y-30353000D01*
X65913000Y-30353000D01*
X65913000Y-30333000D01*
X66167000Y-30333000D01*
X66167000Y-30353000D01*
X67309915Y-30353000D01*
X67431904Y-30130961D01*
X67417009Y-30095000D01*
X70753420Y-30095000D01*
X71764210Y-31105789D01*
X72051325Y-31297633D01*
X72390000Y-31365001D01*
X72514041Y-31340327D01*
X72617189Y-31494698D01*
X72999275Y-31750000D01*
X72617189Y-32005302D01*
X72530527Y-32135000D01*
X72390005Y-32135000D01*
X72390000Y-32134999D01*
X72107516Y-32191190D01*
X72051325Y-32202367D01*
X71764210Y-32394210D01*
X71764208Y-32394213D01*
X68213420Y-35945000D01*
X67426532Y-35945000D01*
X67503113Y-35560000D01*
X67393880Y-35010849D01*
X67082811Y-34545302D01*
X66700725Y-34290000D01*
X67082811Y-34034698D01*
X67393880Y-33569151D01*
X67503113Y-33020000D01*
X67393880Y-32470849D01*
X67082811Y-32005302D01*
X66678297Y-31735014D01*
X66895134Y-31632389D01*
X67271041Y-31217423D01*
X67431904Y-30829039D01*
X67309915Y-30607000D01*
X66167000Y-30607000D01*
X66167000Y-30627000D01*
X65913000Y-30627000D01*
X65913000Y-30607000D01*
X64770085Y-30607000D01*
X64648096Y-30829039D01*
X64808959Y-31217423D01*
X65184866Y-31632389D01*
X65401703Y-31735014D01*
X64997189Y-32005302D01*
X64686120Y-32470849D01*
X64576887Y-33020000D01*
X64686120Y-33569151D01*
X64997189Y-34034698D01*
X65379275Y-34290000D01*
X64997189Y-34545302D01*
X64686120Y-35010849D01*
X64576887Y-35560000D01*
X64653468Y-35945000D01*
X57150005Y-35945000D01*
X57150000Y-35944999D01*
X56867516Y-36001190D01*
X56811325Y-36012367D01*
X56524210Y-36204210D01*
X56524208Y-36204213D01*
X51703420Y-41025000D01*
X49449432Y-41025000D01*
X49339147Y-40859946D01*
X48998447Y-40632298D01*
X49141358Y-40565183D01*
X49531645Y-40136924D01*
X49701476Y-39726890D01*
X49580155Y-39497000D01*
X48387000Y-39497000D01*
X48387000Y-39517000D01*
X48133000Y-39517000D01*
X48133000Y-39497000D01*
X48113000Y-39497000D01*
X48113000Y-39243000D01*
X48133000Y-39243000D01*
X48133000Y-39223000D01*
X48387000Y-39223000D01*
X48387000Y-39243000D01*
X49580155Y-39243000D01*
X49701476Y-39013110D01*
X49531645Y-38603076D01*
X49141358Y-38174817D01*
X48998447Y-38107702D01*
X49339147Y-37880054D01*
X49661054Y-37398285D01*
X49774093Y-36830000D01*
X49661054Y-36261715D01*
X49339147Y-35779946D01*
X49009974Y-35560000D01*
X49339147Y-35340054D01*
X49661054Y-34858285D01*
X49774093Y-34290000D01*
X49661054Y-33721715D01*
X49339147Y-33239946D01*
X49009974Y-33020000D01*
X49339147Y-32800054D01*
X49661054Y-32318285D01*
X49774093Y-31750000D01*
X49697512Y-31365000D01*
X56783420Y-31365000D01*
X57577255Y-32158834D01*
X57626883Y-32278943D01*
X57889673Y-32542192D01*
X58233201Y-32684838D01*
X58605167Y-32685162D01*
X58948943Y-32543117D01*
X59212192Y-32280327D01*
X59354838Y-31936799D01*
X59355162Y-31564833D01*
X59213117Y-31221057D01*
X58950327Y-30957808D01*
X58829013Y-30907434D01*
X58016580Y-30095000D01*
X64662991Y-30095000D01*
X64648096Y-30130961D01*
X64648096Y-30130961D01*
G37*
X64648096Y-30130961D02*
X64770085Y-30353000D01*
X65913000Y-30353000D01*
X65913000Y-30333000D01*
X66167000Y-30333000D01*
X66167000Y-30353000D01*
X67309915Y-30353000D01*
X67431904Y-30130961D01*
X67417009Y-30095000D01*
X70753420Y-30095000D01*
X71764210Y-31105789D01*
X72051325Y-31297633D01*
X72390000Y-31365001D01*
X72514041Y-31340327D01*
X72617189Y-31494698D01*
X72999275Y-31750000D01*
X72617189Y-32005302D01*
X72530527Y-32135000D01*
X72390005Y-32135000D01*
X72390000Y-32134999D01*
X72107516Y-32191190D01*
X72051325Y-32202367D01*
X71764210Y-32394210D01*
X71764208Y-32394213D01*
X68213420Y-35945000D01*
X67426532Y-35945000D01*
X67503113Y-35560000D01*
X67393880Y-35010849D01*
X67082811Y-34545302D01*
X66700725Y-34290000D01*
X67082811Y-34034698D01*
X67393880Y-33569151D01*
X67503113Y-33020000D01*
X67393880Y-32470849D01*
X67082811Y-32005302D01*
X66678297Y-31735014D01*
X66895134Y-31632389D01*
X67271041Y-31217423D01*
X67431904Y-30829039D01*
X67309915Y-30607000D01*
X66167000Y-30607000D01*
X66167000Y-30627000D01*
X65913000Y-30627000D01*
X65913000Y-30607000D01*
X64770085Y-30607000D01*
X64648096Y-30829039D01*
X64808959Y-31217423D01*
X65184866Y-31632389D01*
X65401703Y-31735014D01*
X64997189Y-32005302D01*
X64686120Y-32470849D01*
X64576887Y-33020000D01*
X64686120Y-33569151D01*
X64997189Y-34034698D01*
X65379275Y-34290000D01*
X64997189Y-34545302D01*
X64686120Y-35010849D01*
X64576887Y-35560000D01*
X64653468Y-35945000D01*
X57150005Y-35945000D01*
X57150000Y-35944999D01*
X56867516Y-36001190D01*
X56811325Y-36012367D01*
X56524210Y-36204210D01*
X56524208Y-36204213D01*
X51703420Y-41025000D01*
X49449432Y-41025000D01*
X49339147Y-40859946D01*
X48998447Y-40632298D01*
X49141358Y-40565183D01*
X49531645Y-40136924D01*
X49701476Y-39726890D01*
X49580155Y-39497000D01*
X48387000Y-39497000D01*
X48387000Y-39517000D01*
X48133000Y-39517000D01*
X48133000Y-39497000D01*
X48113000Y-39497000D01*
X48113000Y-39243000D01*
X48133000Y-39243000D01*
X48133000Y-39223000D01*
X48387000Y-39223000D01*
X48387000Y-39243000D01*
X49580155Y-39243000D01*
X49701476Y-39013110D01*
X49531645Y-38603076D01*
X49141358Y-38174817D01*
X48998447Y-38107702D01*
X49339147Y-37880054D01*
X49661054Y-37398285D01*
X49774093Y-36830000D01*
X49661054Y-36261715D01*
X49339147Y-35779946D01*
X49009974Y-35560000D01*
X49339147Y-35340054D01*
X49661054Y-34858285D01*
X49774093Y-34290000D01*
X49661054Y-33721715D01*
X49339147Y-33239946D01*
X49009974Y-33020000D01*
X49339147Y-32800054D01*
X49661054Y-32318285D01*
X49774093Y-31750000D01*
X49697512Y-31365000D01*
X56783420Y-31365000D01*
X57577255Y-32158834D01*
X57626883Y-32278943D01*
X57889673Y-32542192D01*
X58233201Y-32684838D01*
X58605167Y-32685162D01*
X58948943Y-32543117D01*
X59212192Y-32280327D01*
X59354838Y-31936799D01*
X59355162Y-31564833D01*
X59213117Y-31221057D01*
X58950327Y-30957808D01*
X58829013Y-30907434D01*
X58016580Y-30095000D01*
X64662991Y-30095000D01*
X64648096Y-30130961D01*
G36*
X72231983Y-27763562D02*
X72196887Y-27940000D01*
X72306120Y-28489151D01*
X72617189Y-28954698D01*
X72999275Y-29210000D01*
X72622999Y-29461420D01*
X71745790Y-28584210D01*
X71603523Y-28489151D01*
X71458675Y-28392367D01*
X71402484Y-28381190D01*
X71120000Y-28324999D01*
X71119995Y-28325000D01*
X67417009Y-28325000D01*
X67431904Y-28289039D01*
X67309915Y-28067000D01*
X66167000Y-28067000D01*
X66167000Y-28087000D01*
X65913000Y-28087000D01*
X65913000Y-28067000D01*
X64770085Y-28067000D01*
X64648096Y-28289039D01*
X64662991Y-28325000D01*
X59272537Y-28325000D01*
X59354838Y-28126799D01*
X59355162Y-27754833D01*
X59213117Y-27411057D01*
X58950327Y-27147808D01*
X58829013Y-27097434D01*
X57775790Y-26044210D01*
X57488675Y-25852367D01*
X57432484Y-25841190D01*
X57150000Y-25784999D01*
X57149995Y-25785000D01*
X54206580Y-25785000D01*
X54305829Y-25685750D01*
X64605000Y-25685750D01*
X64605000Y-26326310D01*
X64701673Y-26559699D01*
X64880302Y-26738327D01*
X65113691Y-26835000D01*
X65141938Y-26835000D01*
X64808959Y-27202577D01*
X64648096Y-27590961D01*
X64770085Y-27813000D01*
X65913000Y-27813000D01*
X65913000Y-25527000D01*
X66167000Y-25527000D01*
X66167000Y-27813000D01*
X67309915Y-27813000D01*
X67431904Y-27590961D01*
X67271041Y-27202577D01*
X66938062Y-26835000D01*
X66966309Y-26835000D01*
X67199698Y-26738327D01*
X67378327Y-26559699D01*
X67475000Y-26326310D01*
X67475000Y-25685750D01*
X67316250Y-25527000D01*
X66167000Y-25527000D01*
X65913000Y-25527000D01*
X64763750Y-25527000D01*
X64605000Y-25685750D01*
X54305829Y-25685750D01*
X55517889Y-24473690D01*
X64605000Y-24473690D01*
X64605000Y-25114250D01*
X64763750Y-25273000D01*
X65913000Y-25273000D01*
X65913000Y-24123750D01*
X66167000Y-24123750D01*
X66167000Y-25273000D01*
X67316250Y-25273000D01*
X67475000Y-25114250D01*
X67475000Y-24473690D01*
X67378327Y-24240301D01*
X67199698Y-24061673D01*
X66966309Y-23965000D01*
X66325750Y-23965000D01*
X66167000Y-24123750D01*
X65913000Y-24123750D01*
X65754250Y-23965000D01*
X65113691Y-23965000D01*
X64880302Y-24061673D01*
X64701673Y-24240301D01*
X64605000Y-24473690D01*
X55517889Y-24473690D01*
X56246579Y-23745000D01*
X68213420Y-23745000D01*
X72231983Y-27763562D01*
X72231983Y-27763562D01*
G37*
X72231983Y-27763562D02*
X72196887Y-27940000D01*
X72306120Y-28489151D01*
X72617189Y-28954698D01*
X72999275Y-29210000D01*
X72622999Y-29461420D01*
X71745790Y-28584210D01*
X71603523Y-28489151D01*
X71458675Y-28392367D01*
X71402484Y-28381190D01*
X71120000Y-28324999D01*
X71119995Y-28325000D01*
X67417009Y-28325000D01*
X67431904Y-28289039D01*
X67309915Y-28067000D01*
X66167000Y-28067000D01*
X66167000Y-28087000D01*
X65913000Y-28087000D01*
X65913000Y-28067000D01*
X64770085Y-28067000D01*
X64648096Y-28289039D01*
X64662991Y-28325000D01*
X59272537Y-28325000D01*
X59354838Y-28126799D01*
X59355162Y-27754833D01*
X59213117Y-27411057D01*
X58950327Y-27147808D01*
X58829013Y-27097434D01*
X57775790Y-26044210D01*
X57488675Y-25852367D01*
X57432484Y-25841190D01*
X57150000Y-25784999D01*
X57149995Y-25785000D01*
X54206580Y-25785000D01*
X54305829Y-25685750D01*
X64605000Y-25685750D01*
X64605000Y-26326310D01*
X64701673Y-26559699D01*
X64880302Y-26738327D01*
X65113691Y-26835000D01*
X65141938Y-26835000D01*
X64808959Y-27202577D01*
X64648096Y-27590961D01*
X64770085Y-27813000D01*
X65913000Y-27813000D01*
X65913000Y-25527000D01*
X66167000Y-25527000D01*
X66167000Y-27813000D01*
X67309915Y-27813000D01*
X67431904Y-27590961D01*
X67271041Y-27202577D01*
X66938062Y-26835000D01*
X66966309Y-26835000D01*
X67199698Y-26738327D01*
X67378327Y-26559699D01*
X67475000Y-26326310D01*
X67475000Y-25685750D01*
X67316250Y-25527000D01*
X66167000Y-25527000D01*
X65913000Y-25527000D01*
X64763750Y-25527000D01*
X64605000Y-25685750D01*
X54305829Y-25685750D01*
X55517889Y-24473690D01*
X64605000Y-24473690D01*
X64605000Y-25114250D01*
X64763750Y-25273000D01*
X65913000Y-25273000D01*
X65913000Y-24123750D01*
X66167000Y-24123750D01*
X66167000Y-25273000D01*
X67316250Y-25273000D01*
X67475000Y-25114250D01*
X67475000Y-24473690D01*
X67378327Y-24240301D01*
X67199698Y-24061673D01*
X66966309Y-23965000D01*
X66325750Y-23965000D01*
X66167000Y-24123750D01*
X65913000Y-24123750D01*
X65754250Y-23965000D01*
X65113691Y-23965000D01*
X64880302Y-24061673D01*
X64701673Y-24240301D01*
X64605000Y-24473690D01*
X55517889Y-24473690D01*
X56246579Y-23745000D01*
X68213420Y-23745000D01*
X72231983Y-27763562D01*
M02*
