M48
;DRILL file {KiCad 4.0.5+dfsg1-4} date Mon Nov  5 17:45:40 2018
;FORMAT={-:-/ absolute / inch / decimal}
FMAT,2
INCH,TZ
T1C0.016
T2C0.028
T3C0.030
T4C0.031
T5C0.039
T6C0.043
%
G90
G05
M72
T1
X1.377Y-2.803
X1.8Y-2.699
X2.105Y-2.6
X2.3Y-1.1
X2.3Y-1.25
X2.3Y-2.2
X3.329Y-2.27
X3.386Y-2.671
X3.447Y-3.071
T2
X0.597Y-3.154
X0.597Y-3.454
X1.Y-3.154
X1.Y-3.454
X1.397Y-3.153
X1.397Y-3.453
X1.797Y-3.154
X1.797Y-3.454
X2.188Y-3.155
X2.188Y-3.455
X2.595Y-3.144
X2.595Y-3.444
X2.599Y-1.916
X2.6Y-0.614
X2.6Y-0.792
X2.6Y-2.133
X2.899Y-1.916
X2.9Y-0.614
X2.9Y-0.792
X2.9Y-2.133
X3.01Y-3.144
X3.01Y-3.444
X3.416Y-3.144
X3.416Y-3.444
X3.705Y-0.578
X3.705Y-0.878
X3.705Y-0.959
X3.705Y-1.259
X3.705Y-1.342
X3.705Y-1.642
X3.707Y-1.743
X3.707Y-2.043
X3.709Y-2.127
X3.709Y-2.427
X3.709Y-2.539
X3.709Y-2.839
X3.752Y-2.948
X3.752Y-3.248
X3.776Y-3.347
X3.776Y-3.647
T3
X0.7Y-0.95
X0.7Y-1.05
X0.7Y-1.15
X0.7Y-1.25
X0.7Y-1.35
X0.7Y-1.45
X0.7Y-1.55
X0.7Y-1.65
X0.7Y-1.75
X0.7Y-1.85
X0.7Y-1.95
X0.7Y-2.05
X0.7Y-2.15
X0.7Y-2.25
X0.7Y-2.35
X1.8Y-0.95
X1.8Y-1.05
X1.8Y-1.15
X1.8Y-1.25
X1.8Y-1.35
X1.8Y-1.45
X1.8Y-1.55
X1.8Y-1.65
X1.8Y-1.75
X1.8Y-1.85
X1.8Y-1.95
X1.8Y-2.05
X1.8Y-2.15
X1.8Y-2.25
X1.8Y-2.35
T4
X2.6Y-1.
X2.6Y-1.1
X2.6Y-1.2
X2.6Y-1.3
X2.6Y-1.4
X2.6Y-1.5
X2.6Y-1.6
X2.6Y-1.7
X2.6Y-2.3
X2.6Y-2.4
X2.6Y-2.5
X2.6Y-2.6
X2.6Y-2.7
X2.6Y-2.8
X2.6Y-2.9
X2.6Y-3.
X2.9Y-1.
X2.9Y-1.1
X2.9Y-1.2
X2.9Y-1.3
X2.9Y-1.4
X2.9Y-1.5
X2.9Y-1.6
X2.9Y-1.7
X2.9Y-2.3
X2.9Y-2.4
X2.9Y-2.5
X2.9Y-2.6
X2.9Y-2.7
X2.9Y-2.8
X2.9Y-2.9
X2.9Y-3.
T5
X0.6Y-0.95
X0.6Y-1.05
X0.6Y-1.15
X0.6Y-1.25
X0.6Y-1.35
X0.6Y-1.45
X0.6Y-1.55
X0.6Y-1.65
X0.6Y-1.75
X0.6Y-1.85
X0.6Y-1.95
X0.6Y-2.05
X0.6Y-2.15
X0.6Y-2.25
X0.6Y-2.35
X0.6Y-2.5
X0.6Y-2.6
X0.6Y-2.8
X0.6Y-2.9
X1.9Y-0.95
X1.9Y-1.05
X1.9Y-1.15
X1.9Y-1.25
X1.9Y-1.35
X1.9Y-1.45
X1.9Y-1.55
X1.9Y-1.65
X1.9Y-1.75
X1.9Y-1.85
X1.9Y-1.95
X1.9Y-2.05
X1.9Y-2.15
X1.9Y-2.25
X1.9Y-2.35
T6
X0.5968Y-3.623
X0.5968Y-3.8789
X0.774Y-3.623
X0.774Y-3.8789
X0.9968Y-3.621
X0.9968Y-3.8769
X1.174Y-3.621
X1.174Y-3.8769
X1.3968Y-3.621
X1.3968Y-3.8769
X1.574Y-3.621
X1.574Y-3.8769
X1.7968Y-3.621
X1.7968Y-3.8769
X1.974Y-3.621
X1.974Y-3.8769
X2.1908Y-3.606
X2.1908Y-3.8619
X2.368Y-3.606
X2.368Y-3.8619
X2.5948Y-3.606
X2.5948Y-3.8619
X2.772Y-3.606
X2.772Y-3.8619
X3.0108Y-3.61
X3.0108Y-3.8659
X3.188Y-3.61
X3.188Y-3.8659
X3.4128Y-3.611
X3.4128Y-3.8669
X3.59Y-3.611
X3.59Y-3.8669
X3.916Y-0.67
X3.916Y-0.8472
X3.916Y-1.07
X3.916Y-1.2472
X3.916Y-1.47
X3.916Y-1.6472
X3.916Y-1.87
X3.916Y-2.0472
X3.916Y-2.27
X3.916Y-2.4472
X3.916Y-2.67
X3.916Y-2.8472
X3.916Y-3.07
X3.916Y-3.2472
X3.916Y-3.47
X3.916Y-3.6472
X4.1719Y-0.67
X4.1719Y-0.8472
X4.1719Y-1.07
X4.1719Y-1.2472
X4.1719Y-1.47
X4.1719Y-1.6472
X4.1719Y-1.87
X4.1719Y-2.0472
X4.1719Y-2.27
X4.1719Y-2.4472
X4.1719Y-2.67
X4.1719Y-2.8472
X4.1719Y-3.07
X4.1719Y-3.2472
X4.1719Y-3.47
X4.1719Y-3.6472
T0
M30
